<?xml version="1.0" encoding="UTF-8"?>
<svg width="21px" height="21px" viewBox="0 0 21 21" version="1.1" xmlns="http://www.w3.org/2000/svg" xmlns:xlink="http://www.w3.org/1999/xlink">
    <!-- Generator: Sketch 50.2 (55047) - http://www.bohemiancoding.com/sketch -->
    <title>Group</title>
    <desc>Created with Sketch.</desc>
    <defs>
        <polygon id="path-1" points="0 0.00365989818 20.988843 0.00365989818 20.988843 21 0 21"></polygon>
    </defs>
    <g id="Page-1" stroke="none" stroke-width="1" fill="none" fill-rule="evenodd">
        <g id="ICO2018-5-01" transform="translate(-479.000000, -1011.000000)">
            <g id="Group" transform="translate(479.000000, 1011.000000)">
                <g id="Group-3">
                    <mask id="mask-2" fill="white">
                        <use xlink:href="#path-1"></use>
                    </mask>
                    <g id="Clip-2"></g>
                    <path d="M10.4922666,20.0712021 C15.7555976,20.078521 20.0918706,15.7961952 20.0561778,10.4430847 C20.0382358,7.75132961 19.0391232,5.44293212 17.0929321,3.58280569 C15.1302324,1.70689339 12.7626317,0.836015262 10.0524133,0.939986788 C5.20676485,1.12587745 0.857232423,5.17600729 0.930816041,10.6598774 C0.999979863,15.8130096 5.21106519,20.0700779 10.4922666,20.0712021 M10.4964713,0.00433872437 C16.2597171,-0.0106100228 20.999601,4.65775216 20.9888263,10.5199572 C20.978171,16.3236827 16.2973212,21.0559298 10.3936215,20.9995073 C4.63474778,20.944472 0.311949147,16.3909162 0.0178535836,11.1318273 C-0.0941703072,9.12895831 0.320454266,7.2417328 1.27591843,5.47943098 C2.181857,3.80851982 3.4574099,2.482841 5.08083652,1.49923736 C6.70314027,0.516303417 8.60866928,-0.0180963554 10.4964713,0.00433872437" id="Fill-1" fill="#000000" mask="url(#mask-2)"></path>
                </g>
                <path d="M10.5991203,4.24655519 L10.5991203,4.37670665 C10.5990248,4.92675866 10.596757,5.47683458 10.6009108,6.02686266 C10.6016269,6.12340582 10.5691843,6.15237355 10.4772755,6.15014894 C10.2824765,6.14538876 10.0872717,6.14292495 9.89266364,6.1507948 C9.77604684,6.15550714 9.74262545,6.1140529 9.74369971,5.99916272 C9.74878453,5.46111881 9.74305515,4.92297922 9.74773415,4.3849353 C9.74871292,4.27346575 9.72071056,4.23193976 9.60242269,4.23579096 C9.33619741,4.24445018 9.0694708,4.23789596 8.80295904,4.23899631 C8.74478194,4.23923551 8.68662871,4.24569405 8.61971431,4.24983229 C8.61971431,4.30566275 8.61969043,4.34917415 8.61971431,4.39266163 C8.62004852,4.92678258 8.61715996,5.46090352 8.62322355,5.99495271 C8.62458428,6.11338313 8.59438566,6.15242139 8.47075037,6.15139281 C7.77864101,6.14553229 7.08646004,6.14857019 6.39430294,6.14857019 L6.2606651,6.14857019 L6.2606651,7.29890726 C6.31406772,7.29890726 6.36090542,7.29799828 6.40769537,7.29902686 C6.71338178,7.30570068 7.01935465,7.30649006 7.32463523,7.32160782 C7.59019209,7.33474018 7.73457252,7.49840427 7.73452477,7.76286937 C7.73442928,8.20530302 7.73409507,8.64773668 7.73411894,9.09017033 C7.73421443,10.4254607 7.73457252,11.7607272 7.73442928,13.0959937 C7.73438154,13.4455201 7.5453358,13.6353533 7.1994721,13.6353054 C6.99264141,13.6352576 6.78578684,13.6352815 6.57893228,13.6352576 L6.36465339,13.6352576 L6.36465339,14.8079603 L6.49771829,14.8079603 C7.16201627,14.8079603 7.82636199,14.8099696 8.4906361,14.8059032 C8.59526894,14.8052334 8.62467977,14.834536 8.62355777,14.9412693 C8.61768515,15.4952443 8.62043048,16.0493149 8.62114665,16.6033616 C8.6211944,16.6487867 8.62864259,16.6941878 8.63219958,16.7344699 L9.74551401,16.7344699 L9.74551401,16.5455697 C9.74546627,16.0114727 9.74785351,15.4773278 9.74331775,14.9432547 C9.74243447,14.8375261 9.77743145,14.8023151 9.88082292,14.8054965 C10.0755503,14.8115245 10.2707312,14.8121225 10.4654347,14.8061902 C10.5673939,14.8030805 10.6027012,14.8322396 10.6016031,14.9409105 C10.5959214,15.4948854 10.5989055,16.0489561 10.5988577,16.6030028 C10.5988339,16.6485953 10.5988577,16.6941639 10.5988577,16.7360965 L11.7205753,16.7360965 L11.7205753,16.6096527 C11.7205753,16.0596007 11.7243948,15.5095009 11.7176151,14.9595206 C11.7160872,14.8361387 11.7530895,14.8016931 11.8724755,14.8059032 C12.3969527,14.8244415 12.9165599,14.7858817 13.4232282,14.6380051 C14.1250059,14.4331738 14.6720903,14.0381028 14.9740765,13.3504122 C15.1691858,12.906041 15.2170023,12.436625 15.2079069,11.9558468 C15.2015091,11.6188786 15.1187673,11.3064768 14.9444986,11.0213923 C14.6610135,10.5576215 14.2345804,10.2768187 13.7334265,10.0964103 C13.6964482,10.0830866 13.6615705,10.0639262 13.6083589,10.0395273 C13.6550295,10.0078326 13.6829125,9.99328898 13.7054481,9.97288479 C13.8782605,9.81646861 14.0717943,9.67674894 14.2176787,9.49808669 C14.5454948,9.09670063 14.6539473,8.62690192 14.6138655,8.10794657 C14.574285,7.59583248 14.3364917,7.2042299 13.9472041,6.899985 C13.3331337,6.420044 12.6024226,6.25886764 11.8498206,6.17624622 C11.7417262,6.16438164 11.7184029,6.13079726 11.7189519,6.03272319 C11.7221747,5.47870038 11.7203127,4.92465365 11.7201694,4.37060692 C11.7201455,4.33190355 11.7201694,4.29320017 11.7201694,4.24655519 L10.5991203,4.24655519 Z M10.4916705,2.96594705 C14.6525149,2.95857953 17.7758876,6.2553274 17.9977579,9.98041975 C18.13321,12.2549727 17.4029764,14.2238216 15.8040252,15.8357766 C14.4055069,17.2456989 12.681321,17.9846273 10.6956604,18.0318942 C6.32313924,18.1359005 2.99076351,14.6584093 2.9626418,10.5600614 C2.93349356,6.30838308 6.36274359,2.94310297 10.4916705,2.96594705 Z" id="Fill-4" fill="#000000"></path>
                <path d="M9.76538781,10.9324391 C9.80975207,10.9324391 9.84899553,10.9323438 9.88821507,10.9324391 C10.4302535,10.9339164 10.9727226,10.9230517 11.5141867,10.9410642 C11.8887943,10.9535491 12.2489249,11.0507357 12.5704102,11.2555209 C12.8565047,11.4377429 12.9988101,11.6999728 12.9965608,12.0388275 C12.9940243,12.4186631 12.8979257,12.7663572 12.6201585,13.0410959 C12.3970451,13.2617969 12.115186,13.3850731 11.8111449,13.4344885 C11.5306977,13.4800439 11.2442682,13.4982233 10.959801,13.5077299 C10.5974929,13.5198097 10.2344908,13.5091356 9.87182374,13.5125666 C9.78910139,13.513329 9.74722574,13.4957215 9.7474411,13.4022041 C9.7492597,12.6124883 9.74751289,11.8227487 9.74784789,11.0330567 C9.74787182,11.0026308 9.75818519,10.9722525 9.76538781,10.9324391" id="Fill-6" fill="#000000"></path>
                <path d="M9.74744027,9.75642643 L9.74744027,7.41739908 C10.2004162,7.41739908 10.6428103,7.40948867 11.0847245,7.42016296 C11.3811576,7.42733475 11.6624739,7.50891681 11.9264659,7.64925512 C12.3477925,7.87317692 12.4610485,8.26357473 12.4128667,8.67022224 C12.3821292,8.92945497 12.2961075,9.17210442 12.1141301,9.3674582 C11.8959924,9.60164924 11.6270334,9.74906403 11.3010626,9.75425821 C10.7897311,9.76240689 10.2781597,9.75642643 9.74744027,9.75642643" id="Fill-8" fill="#000000"></path>
            </g>
        </g>
    </g>
</svg>