<?xml version="1.0" encoding="UTF-8"?>
<svg width="33px" height="29px" viewBox="0 0 33 29" version="1.1" xmlns="http://www.w3.org/2000/svg" xmlns:xlink="http://www.w3.org/1999/xlink">
    <!-- Generator: Sketch 50.2 (55047) - http://www.bohemiancoding.com/sketch -->
    <title>Group</title>
    <desc>Created with Sketch.</desc>
    <defs></defs>
    <g id="Page-1" stroke="none" stroke-width="1" fill="none" fill-rule="evenodd">
        <g id="ICO2018-4-01" transform="translate(-572.000000, -4103.000000)" fill="#38D1A4">
            <g id="Group" transform="translate(572.000000, 4103.000000)">
                <path d="M12.2178205,17.1019976 C12.2468166,22.0260555 16.200165,26.0362581 21.1862002,26.0072581 C26.0698127,25.978904 30.0006229,22.054022 30.034075,17.1668439 C30.0681728,12.1826546 26.064711,8.19822249 21.1386053,8.19557439 C16.2017149,8.19286169 12.251983,12.1612114 12.2178205,17.1019976 M21.126981,5.23111559 C27.6981787,5.27593964 32.9794703,10.4821178 32.9921924,17.0813294 C33.0049145,23.6775699 27.7357638,28.9570555 21.1364742,28.9634497 C14.5628871,28.9698439 9.27429804,23.7024363 9.27010039,17.1078105 C9.26590274,10.5386323 14.5278851,5.27774811 21.126981,5.23111559" id="Fill-1"></path>
                <path d="M9.70739237,23.7945452 C9.62098532,23.7996477 9.56402642,23.8058481 9.50713209,23.8058481 C7.08082485,23.8063648 4.65451761,23.8049439 2.22821037,23.809788 C2.07948434,23.8101109 1.99514384,23.7597323 1.91538845,23.638759 C1.32371331,22.7410508 0.725386497,21.8477345 0.12938454,20.9529327 C0.0913473581,20.895837 0.0552475538,20.8374494 3.22896282e-05,20.7512245 C0.0824354207,20.7435385 0.13719863,20.7339149 0.19189726,20.7339149 C2.87109687,20.7326878 5.5502319,20.7331399 8.22936693,20.7293938 C8.35155088,20.7292646 8.41774462,20.7664027 8.45145499,20.8841465 C8.73243933,21.865367 9.14671526,22.7897501 9.64765656,23.6769305 C9.66302642,23.7041866 9.67613601,23.7327345 9.70739237,23.7945452" id="Fill-4"></path>
                <path d="M9.69635577,10.4183049 C9.51282153,10.7765744 9.31688806,11.1057147 9.1710681,11.4557169 C8.91539883,12.0694318 8.68866106,12.6952893 8.45436751,13.3178528 C8.41607202,13.4195788 8.37228728,13.4749953 8.24965127,13.474737 C6.22134599,13.47112 4.19297613,13.4731223 2.16467084,13.4678906 C2.09744384,13.4676969 2.00386849,13.4226145 1.96718748,13.368296 C1.32688415,12.4189174 0.693490802,11.4648884 0.0589996086,10.5115699 C0.0446630137,10.4900621 0.0349761252,10.4655187 0.0106297456,10.4183049 L9.69635577,10.4183049 Z" id="Fill-6"></path>
                <path d="M22.6556301,4.14690312 C22.4214658,4.12998107 22.2022838,4.12171381 21.9849746,4.09710579 C21.2370176,4.01236637 20.492225,4.0631971 19.7485949,4.14574053 C19.6176928,4.16033742 19.5896008,4.11867817 19.5925714,4.00151559 C19.5983836,3.77035523 19.5896008,3.53880735 19.5962524,3.30777617 C19.5998043,3.18628619 19.5660294,3.13784521 19.4334481,3.13571381 C18.905771,3.12705902 18.5626614,2.77066258 18.5614344,2.24330178 C18.5604012,1.81844209 18.5603366,1.39351782 18.5614344,0.968593541 C18.5628552,0.423083519 18.9160391,0.0661057906 19.4579883,0.0655244989 C20.5766301,0.0642973274 21.6952074,0.0641681514 22.8137847,0.0657182628 C23.3398474,0.0664287305 23.6957436,0.420306236 23.6994892,0.945923163 C23.7025245,1.38156904 23.702137,1.81727951 23.6996184,2.25292539 C23.6965832,2.77382739 23.3574129,3.12402339 22.8342564,3.13455122 C22.6939902,3.1373931 22.6609256,3.1910657 22.6651879,3.31733519 C22.6723562,3.53221938 22.6678356,3.74755568 22.666544,3.96269822 C22.6662211,4.02018151 22.6598924,4.07766481 22.6556301,4.14690312" id="Fill-8"></path>
                <path d="M2.07994932,15.5803307 C2.15227808,15.5748408 2.20865577,15.5668318 2.26496888,15.5668318 C4.10418611,15.566186 5.94346791,15.5678653 7.78268513,15.5633441 C7.93444638,15.5629566 7.97073992,15.6033886 7.96014892,15.7562684 C7.92501781,16.2654154 7.89201781,16.7757249 7.88975753,17.2857762 C7.88801389,17.6825401 7.92779472,18.0800791 7.96092387,18.4762617 C7.97209609,18.6099588 7.92973209,18.6427049 7.80354423,18.6423174 C6.61502759,18.6384421 5.42651096,18.6414131 4.23799432,18.6345668 C4.16631135,18.6341793 4.06673014,18.5865134 4.02772427,18.5287071 C3.39071448,17.5841726 2.76138963,16.6345356 2.13090235,15.6856091 C2.113918,15.6600323 2.10371448,15.6300635 2.07994932,15.5803307" id="Fill-11"></path>
                <path d="M30.5498436,8.09304744 C30.4897204,8.03834143 30.4494229,8.00488486 30.4127419,7.96774677 C29.7725677,7.31960646 29.0754346,6.74012316 28.3140452,6.23969555 C28.2096205,6.17103853 28.1908926,6.11684922 28.266192,6.01241047 C28.621055,5.52012094 28.9678456,5.0219539 29.3223857,4.52934143 C29.5715325,4.1830853 29.9943975,4.09472895 30.3460315,4.33015212 C30.787689,4.62590045 31.2237282,4.93101403 31.6495638,5.24904521 C32.0001646,5.51082027 32.0646147,5.93981359 31.8190843,6.29349733 C31.4239239,6.86258196 31.0199806,7.42559532 30.6198476,7.9911922 C30.5985364,8.02135479 30.5780002,8.05203408 30.5498436,8.09304744" id="Fill-13"></path>
                <path d="M21.1359317,19.1553461 C20.0177419,19.1492102 19.0801802,18.2390365 19.0814718,17.1303194 C19.0830863,15.7097715 20.3547164,14.8632169 21.495509,15.0907604 C21.8306108,15.1576089 22.1476949,15.2739318 22.3903838,15.5056089 C22.6026558,15.7082214 22.8512859,15.7621523 23.1131548,15.8165354 C23.6913975,15.9364753 24.2692526,16.0580298 24.8474953,16.1779697 C25.420507,16.2968762 25.9939708,16.4133929 26.5667888,16.5332036 C27.0818084,16.6410009 27.5968926,16.7488628 28.1104268,16.8636356 C28.2313838,16.890698 28.3353564,16.9673639 28.3332898,17.105453 C28.3312233,17.2436067 28.2231176,17.3140076 28.1032585,17.3419742 C27.7895325,17.4150878 27.473417,17.4781256 27.1580119,17.5440699 C26.5958495,17.6615555 26.0332996,17.7775555 25.4712018,17.8955577 C24.9037438,18.0145933 24.3368025,18.1362125 23.76928,18.2549898 C23.4276558,18.3264886 23.0840941,18.3892036 22.7443427,18.468453 C22.6608417,18.4879586 22.5796656,18.5463461 22.5130843,18.6047336 C22.1121117,18.9562214 21.6154973,19.1579942 21.1359317,19.1553461" id="Fill-17"></path>
            </g>
        </g>
    </g>
</svg>