<?xml version="1.0" encoding="UTF-8"?>
<svg width="22px" height="26px" viewBox="0 0 22 26" version="1.1" xmlns="http://www.w3.org/2000/svg" xmlns:xlink="http://www.w3.org/1999/xlink">
    <!-- Generator: Sketch 50.2 (55047) - http://www.bohemiancoding.com/sketch -->
    <title>Fill 1</title>
    <desc>Created with Sketch.</desc>
    <defs>
        <radialGradient cx="0%" cy="0%" fx="0%" fy="0%" r="191.551603%" gradientTransform="translate(0.000000,0.000000),scale(1.000000,0.846154),rotate(90.000000),translate(-0.000000,-0.000000)" id="radialGradient-1">
            <stop stop-color="#DD669B" offset="0%"></stop>
            <stop stop-color="#6923C5" offset="100%"></stop>
        </radialGradient>
    </defs>
    <g id="Page-1" stroke="none" stroke-width="1" fill="none" fill-rule="evenodd">
        <g id="ICO2018-4-01" transform="translate(-734.000000, -1847.000000)" fill="url(#radialGradient-1)">
            <path d="M748.676548,1853.17749 C748.611114,1851.83989 748.081799,1850.77212 746.969768,1850.06709 C745.684927,1849.25245 744.348059,1849.24491 743.055999,1850.05084 C741.928497,1850.75413 741.386461,1851.82444 741.325038,1853.17749 L748.676548,1853.17749 Z M738.873848,1855.68841 C738.986838,1858.037 739.954251,1859.86494 741.947519,1861.01514 C744.103628,1862.25905 746.302022,1862.18509 748.380549,1860.80823 C750.170182,1859.62285 751.034802,1857.8734 751.118571,1855.69828 L748.677236,1855.69828 C748.531815,1857.79618 747.213512,1859.19428 745.189646,1859.3724 C744.36754,1859.44473 743.603305,1859.20601 742.924443,1858.72519 C741.885294,1857.98904 741.383597,1856.95042 741.316788,1855.68841 L738.873848,1855.68841 Z M738.865711,1853.19224 C738.90433,1849.81118 741.536008,1847.0634 744.891126,1847.00117 C746.58828,1846.96982 748.065183,1847.57093 749.281496,1848.78278 C750.488413,1849.98524 751.072733,1851.46485 751.11754,1853.19224 C751.895298,1853.19224 752.64773,1853.19212 753.400276,1853.19224 C754.970459,1853.19247 755.999868,1854.23272 755.999868,1855.81996 C755.999982,1860.6855 756.000097,1865.55105 755.999868,1870.4167 C755.999753,1871.93556 754.969084,1872.99671 753.475451,1872.99752 C747.823846,1873.00077 742.172011,1873.00089 736.520406,1872.99752 C735.038347,1872.99659 733.999771,1871.93672 734,1870.44283 C734.000917,1865.5579 734.001261,1860.67296 734.004698,1855.78803 C734.005615,1854.55609 734.690092,1853.59642 735.792039,1853.2907 C736.018709,1853.22788 736.260848,1853.20002 736.496456,1853.19653 C737.277881,1853.18516 738.059763,1853.19224 738.865711,1853.19224 Z" id="Fill-1"></path>
        </g>
    </g>
</svg>