<?xml version="1.0" encoding="UTF-8"?>
<svg width="22px" height="23px" viewBox="0 0 22 23" version="1.1" xmlns="http://www.w3.org/2000/svg" xmlns:xlink="http://www.w3.org/1999/xlink">
    <!-- Generator: Sketch 50.2 (55047) - http://www.bohemiancoding.com/sketch -->
    <title>User</title>
    <desc>Created with Sketch.</desc>
    <defs>
        <radialGradient cx="0%" cy="-137.078956%" fx="0%" fy="-137.078956%" r="463.640388%" gradientTransform="translate(0.000000,-1.370790),scale(0.392947,1.000000),rotate(56.709122),translate(-0.000000,1.370790)" id="radialGradient-1">
            <stop stop-color="#DD669B" offset="0%"></stop>
            <stop stop-color="#6923C5" offset="100%"></stop>
        </radialGradient>
        <radialGradient cx="0%" cy="-137.078956%" fx="0%" fy="-137.078956%" r="451.208999%" gradientTransform="translate(0.000000,-1.370790),scale(1.000000,0.880830),rotate(77.195400),translate(-0.000000,1.370790)" id="radialGradient-2">
            <stop stop-color="#DD669B" offset="0%"></stop>
            <stop stop-color="#6923C5" offset="100%"></stop>
        </radialGradient>
    </defs>
    <g id="Page-1" stroke="none" stroke-width="1" fill="none" fill-rule="evenodd">
        <g id="ICO2018-4-01" transform="translate(-139.000000, -1851.000000)">
            <g id="User" transform="translate(139.000000, 1851.000000)">
                <path d="M10.9971021,22.0920501 C7.81979632,22.0921007 4.64249057,22.0874489 1.46518483,22.0958423 C0.790417011,22.097612 0.205874483,21.6635785 0.0406974713,21.0173316 C0.0179894253,20.92829 0.00529517241,20.834091 0.00529517241,20.742319 C0.00539632184,20.0473799 -0.0133668966,19.3513284 0.019102069,18.6577545 C0.0543526437,17.9046173 0.446256092,17.3427603 1.10069287,16.9874029 C3.25821011,15.8158056 5.42301011,14.6575569 7.58371356,13.4918249 C7.66751586,13.4465709 7.73124,13.4445484 7.81458713,13.4929878 C8.37111126,13.8164905 8.96612276,14.0484234 9.59375494,14.1854493 C10.234132,14.3252563 10.88164,14.3766789 11.5395159,14.3167617 C12.4894607,14.2301977 13.3753274,13.9524546 14.2006561,13.4798414 C14.2913871,13.4279131 14.3504078,13.4612848 14.4198975,13.4986509 C15.8376078,14.2615973 17.255217,15.0247966 18.6727756,15.7881476 C19.4092952,16.1847644 20.1491526,16.5752632 20.8809687,16.9803241 C21.6148078,17.3865479 21.9823848,18.0213169 21.9920952,18.8581361 C21.9990239,19.4520501 21.9903756,20.0461664 21.9951297,20.6401816 C22.0020584,21.4973776 21.303571,22.0983705 20.5416124,22.0960446 C17.360109,22.0864376 14.1786055,22.0919995 10.9971021,22.0920501" id="Fill-1" fill="url(#radialGradient-1)"></path>
                <path d="M11.1905603,13.0194831 C9.33911194,12.9749486 7.97200808,12.2574644 6.88656245,10.9734865 C6.28073824,10.2568158 5.8646499,9.43673943 5.60427093,8.53481307 C5.33043372,7.58647113 5.24689102,6.62181003 5.36811681,5.64443929 C5.56552134,4.05263408 6.19795733,2.66474222 7.35724556,1.53902465 C8.0049173,0.909999517 8.75995029,0.446657156 9.63199384,0.208987029 C11.3695804,-0.264573877 12.9487151,0.0898215146 14.3503533,1.20608312 C15.3715041,2.01934708 16.0410645,3.08060139 16.4352641,4.32106152 C16.7515583,5.31622574 16.8526729,6.33406395 16.7232706,7.36811965 C16.512611,9.05219679 15.826342,10.5023659 14.5503987,11.6459786 C13.8607779,12.2640734 13.0634911,12.6879651 12.1580304,12.8853711 C11.7926264,12.9650351 11.4152368,12.9895393 11.1905603,13.0194831" id="Fill-4" fill="url(#radialGradient-2)"></path>
            </g>
        </g>
    </g>
</svg>