<?xml version="1.0" encoding="UTF-8"?>
<svg width="36px" height="30px" viewBox="0 0 36 30" version="1.1" xmlns="http://www.w3.org/2000/svg" xmlns:xlink="http://www.w3.org/1999/xlink">
    <!-- Generator: Sketch 50.2 (55047) - http://www.bohemiancoding.com/sketch -->
    <title>if_meanicons_9_197203</title>
    <desc>Created with Sketch.</desc>
    <defs></defs>
    <g id="Page-1" stroke="none" stroke-width="1" fill="none" fill-rule="evenodd">
        <g id="ICO2018-4-01" transform="translate(-578.000000, -3777.000000)" fill="#FF2E5E" fill-rule="nonzero">
            <g id="if_meanicons_9_197203" transform="translate(578.000000, 3777.000000)">
                <path d="M36,24.9506403 L33.0339375,24.9506403 L33.0339375,19.8304979 L30.3463125,19.8304979 L30.3463125,16.3928525 L35.2412578,16.3928525 L35.2412578,14.7094259 L25.5852422,14.7094259 L25.5852422,15.8325922 L24.4148203,15.8325922 L24.4148203,14.7094259 L14.0021016,14.7094259 L14.0021016,15.8325922 L9.08303906,15.8325922 L9.33855469,13.5868316 L9.65517187,13.5868316 L9.65517187,11.2051356 L8.93939062,11.2051356 C9.18942187,10.3009248 9.72527344,8.86770255 10.6904531,8.39861419 C12.1390312,7.69376601 12.0694922,9.80166035 15.4506797,8.18580825 C18.8279297,6.57417507 18.4145625,7.693623 19.5188203,8.18580825 C20.6221641,8.67849405 21.5154141,9.3094751 23.8642031,8.04729846 C26.2071562,6.78326263 26.1386719,8.46919196 26.41275,8.46919196 C26.6895,8.46919196 29.2414219,9.9398126 30.2749453,6.71554515 C31.3102969,3.49063414 28.3428984,1.94564584 27.2406094,1.94564584 C26.1386719,1.94564584 25.1743359,3.49063414 23.7247031,2.36753934 C22.2756328,1.24079766 21.7246641,1.45303155 19.5850547,1.87485354 C17.4477656,2.29660403 17.2405547,1.66562297 16.2788906,1.17408129 C15.310125,0.684398795 12.7596094,-1.28198245 10.8265781,1.31559438 C8.89903125,3.90902378 10.4849297,4.61072563 9.58570312,5.17048534 C8.688375,5.73382043 7.51900781,6.85391192 7.44939844,7.62647757 C7.37985937,8.39847117 6.75984375,9.51856266 7.31025,10.9923296 C7.34139844,11.0702011 7.36973437,11.1373466 7.40003906,11.2049925 L6.20950781,11.2049925 L6.20950781,13.5866886 L6.42972656,13.5866886 L6.64846875,15.8324492 L3.93208594,15.8324492 L1.82158594,19.1994453 L3.89074219,22.6360897 L1.93401562,22.6360897 L1.93401562,24.9505688 L0,24.9505688 L0,26.2121734 L1.70325,26.2121734 C1.45828125,26.5489016 1.31048437,26.9672197 1.31048437,27.4193609 C1.31048437,28.5430277 2.20619531,29.4528875 3.31066406,29.4528875 C4.41492187,29.4528875 5.31225,28.5429562 5.31225,27.4193609 C5.31225,26.9672197 5.16501562,26.5489016 4.9190625,26.2121734 L7.04664844,26.2121734 C7.04510156,26.2654464 7.04003906,26.3130703 7.04003906,26.3669154 C7.04003906,28.070364 8.39650781,29.452816 10.0745156,29.452816 C11.7515391,29.452816 13.1099062,28.070364 13.1099062,26.3669154 C13.1099062,26.3130703 13.102875,26.2654464 13.102875,26.2121734 L14.2207734,26.2121734 C14.2188047,26.2654464 14.2141641,26.3130703 14.2141641,26.3669154 C14.2141641,28.070364 15.5726719,29.452816 17.2487109,29.452816 C18.9234844,29.452816 20.2815703,28.070364 20.2815703,26.3669154 C20.2815703,26.3130703 20.2770703,26.2654464 20.2719375,26.2121734 L21.3928594,26.2121734 C21.3894141,26.2654464 21.38625,26.3130703 21.38625,26.3669154 C21.38625,28.070364 22.7441953,29.452816 24.4212187,29.452816 C26.0961328,29.452816 27.4519687,28.070364 27.4519687,26.3669154 C27.4519687,26.3130703 27.4499297,26.2654464 27.4489453,26.2121734 L29.7015469,26.2121734 C29.4555234,26.5489016 29.3108203,26.9672197 29.3108203,27.4193609 C29.3108203,28.5430277 30.2035781,29.4528875 31.3100156,29.4528875 C32.4124453,29.4528875 33.3095625,28.5429562 33.3095625,27.4193609 C33.3095625,26.9672197 33.1618359,26.5489016 32.9199609,26.2121734 L36,26.2121734 L36,24.9506403 Z" id="Shape"></path>
            </g>
        </g>
    </g>
</svg>