<?xml version="1.0" encoding="UTF-8"?>
<svg width="36px" height="37px" viewBox="0 0 36 37" version="1.1" xmlns="http://www.w3.org/2000/svg" xmlns:xlink="http://www.w3.org/1999/xlink">
    <!-- Generator: Sketch 50.2 (55047) - http://www.bohemiancoding.com/sketch -->
    <title>Group</title>
    <desc>Created with Sketch.</desc>
    <defs>
        <polygon id="path-1" points="0.0212033687 0.00710416667 9.67454224 0.00710416667 9.67454224 9.7639636 0.0212033687 9.7639636"></polygon>
    </defs>
    <g id="Page-1" stroke="none" stroke-width="1" fill="none" fill-rule="evenodd">
        <g id="ICO2018-4-01" transform="translate(-178.000000, -3776.000000)">
            <g id="Group" transform="translate(178.000000, 3776.000000)">
                <polygon id="Fill-1" fill="#FF2E5E" points="0 37 13.2631579 37 13.2631579 35.0378788 0 35.0378788"></polygon>
                <g id="Group-11" transform="translate(1.105263, 0.000000)">
                    <path d="M16.0366824,3.09643889 C18.3868029,5.47549444 20.7751866,7.89335556 23.1800225,10.3278694 C21.9158327,11.5963833 20.6248513,12.8917097 19.2421744,14.2792375 C19.4482816,14.4298764 19.603145,14.5199389 19.730764,14.6397167 C23.3811488,18.0668278 27.032741,21.4926403 30.6743713,24.9293 C31.6213628,25.8229736 32.5439775,26.7436889 33.4634226,27.6666194 C34.490789,28.6978694 34.5159204,30.2235847 33.5410052,31.2189319 C32.5779388,32.2023625 31.0175312,32.2077861 30.0325786,31.1561403 C27.4205789,28.3671056 24.8398989,25.5481264 22.2438987,22.7437375 C20.5074207,20.8679319 18.7662636,18.9964806 17.0262386,17.1239597 C16.9503163,17.0422236 16.8651112,16.9695014 16.7666235,16.875925 C15.4711893,18.1897375 14.1864719,19.4926264 12.9154144,20.7816889 C10.4897488,18.3256333 8.09985581,15.9058625 5.74135813,13.5177167 C9.16563624,10.0515708 12.609461,6.56564028 16.0366824,3.09643889" id="Fill-2" fill="#FF2E5E"></path>
                    <path d="M0.0112374102,33.8769826 C0.0112374102,33.1822257 -0.0104223394,32.520316 0.0165957454,31.8606215 C0.0520664155,30.9946771 0.777630292,30.2738715 1.64756734,30.269059 C4.27352897,30.254316 6.89964154,30.2532465 9.5255277,30.2712743 C10.40354,30.277309 11.1120478,30.9883368 11.1507636,31.8651285 C11.1798948,32.5243646 11.1564993,33.1858924 11.1564993,33.8769826 L0.0112374102,33.8769826 Z" id="Fill-4" fill="#FF2E5E"></path>
                    <g id="Group-8" transform="translate(16.527823, 0.000000)">
                        <mask id="mask-2" fill="white">
                            <use xlink:href="#path-1"></use>
                        </mask>
                        <g id="Clip-7"></g>
                        <path d="M9.67454224,8.05615556 C9.61092145,8.88085 9.32889188,9.3586625 8.74528616,9.62411389 C8.1555674,9.89246806 7.52728372,9.77139167 7.04729764,9.28869028 C5.78212676,8.01612778 4.52337079,6.73684306 3.26219979,5.46000278 C2.33852845,4.52485 1.41221567,3.59244722 0.493072502,2.6527875 C0.0711979365,2.22141944 -0.0820806399,1.69884306 0.0914237654,1.11263472 C0.259267957,0.545447222 0.644313401,0.182676389 1.21871185,0.0500652778 C1.73416861,-0.069025 2.20464554,0.0596138889 2.57452161,0.431780556 C4.80162687,2.672725 7.02744915,4.91519722 9.22859291,7.18226667 C9.48066107,7.44183611 9.57658282,7.85662778 9.67454224,8.05615556" id="Fill-6" fill="#FF2E5E" mask="url(#mask-2)"></path>
                    </g>
                    <path d="M4.2824872,13.9512313 C4.61651526,14.1285299 5.01673007,14.237766 5.27415657,14.4939743 C7.49673367,16.7062729 9.69795289,18.9408007 11.8953232,21.1789187 C12.4779478,21.7723076 12.4611936,22.7309882 11.897059,23.3164326 C11.3206228,23.9144812 10.3568772,23.9450368 9.75870584,23.3435507 C7.53831737,21.1107035 5.32502302,18.8705993 3.12123784,16.6210229 C2.66215681,16.1523771 2.58849856,15.5645646 2.83075569,14.9577313 C3.06116411,14.3803076 3.61126137,14.0391549 4.23237545,14.0478632 C4.24905421,14.0156271 4.26580844,13.983391 4.2824872,13.9512313" id="Fill-9" fill="#FF2E5E"></path>
                </g>
            </g>
        </g>
    </g>
</svg>