<?xml version="1.0" encoding="UTF-8"?>
<svg width="29px" height="26px" viewBox="0 0 29 26" version="1.1" xmlns="http://www.w3.org/2000/svg" xmlns:xlink="http://www.w3.org/1999/xlink">
    <!-- Generator: Sketch 50.2 (55047) - http://www.bohemiancoding.com/sketch -->
    <title>Group</title>
    <desc>Created with Sketch.</desc>
    <defs>
        <polygon id="path-1" points="1.03613106e-05 0.00504368604 28.9455452 0.00504368604 28.9455452 7.27822692 1.03613106e-05 7.27822692"></polygon>
        <polygon id="path-3" points="0.04898282 0.0151438596 21.6969019 0.0151438596 21.6969019 1.81481213 0.04898282 1.81481213"></polygon>
    </defs>
    <g id="Page-1" stroke="none" stroke-width="1" fill="none" fill-rule="evenodd">
        <g id="ICO2018-4-01" transform="translate(-981.000000, -3774.000000)">
            <g id="Group" transform="translate(981.000000, 3774.000000)">
                <path d="M23.3922419,11.8596491 C23.4523703,11.8850263 23.4759847,11.8894921 23.492409,11.9028186 C24.002972,12.3187769 24.5824042,12.5906952 25.2226698,12.7297024 C25.34772,12.7568516 25.3750704,12.8159705 25.3749999,12.9356967 C25.3717573,16.9406778 25.3725327,20.9456588 25.3707704,24.950569 C25.3704885,25.5762786 24.9355618,25.9969154 24.2884587,25.9976951 C22.2090582,26.000247 20.1295872,26.0000344 18.0501867,25.9999635 C13.621125,25.9998926 9.19206329,25.9989002 4.76307208,25.9993964 C4.51790597,25.9993964 4.28274953,25.9672851 4.0750139,25.8253007 C3.74307394,25.5983241 3.62479081,25.2718238 3.62591866,24.8800376 C3.62965466,23.4859959 3.62697602,22.0919543 3.627117,20.6979127 C3.62761043,18.1401377 3.63028907,15.5824335 3.62500228,13.0247294 C3.62464983,12.8417729 3.66497042,12.7521023 3.85642273,12.7149581 C4.4595398,12.5982091 4.99660724,12.3279921 5.48616405,11.9586058 C5.50822759,11.9420185 5.53578939,11.9329451 5.59034907,11.9054414 C5.5983145,12.0022715 5.6102274,12.079608 5.61029789,12.1568736 C5.61135525,14.1416072 5.61107329,16.1263408 5.61121427,18.1110745 C5.61121427,18.364137 5.61163721,18.3634991 5.86089177,18.3634991 C11.6175018,18.3637826 17.3741119,18.3640661 23.130722,18.3644915 C23.3942156,18.3645623 23.3935107,18.3649877 23.3934403,18.0909429 C23.3928058,16.1002548 23.3925944,14.1096377 23.3922419,12.1189497 L23.3922419,11.8596491 Z" id="Fill-1" fill="#FF2E5E"></path>
                <g id="Group-5" transform="translate(0.000000, 3.192982)">
                    <mask id="mask-2" fill="white">
                        <use xlink:href="#path-1"></use>
                    </mask>
                    <g id="Clip-4"></g>
                    <path d="M23.1537631,4.7324472 C22.8688682,6.09149501 22.1089122,7.01880151 20.7667582,7.21392226 C18.9530174,7.47744616 17.8591714,6.53726041 17.3670222,4.79734434 C16.8811127,6.52058892 15.8054892,7.46020227 14.0060711,7.21771448 C12.6507998,7.03504369 11.8824061,6.11403371 11.5837557,4.74675748 C11.0850125,6.54441555 9.97804914,7.46785827 8.11843301,7.21134641 C7.13158215,7.07518404 6.06957237,6.27767183 5.78439389,4.7000344 C5.72391222,4.91103956 5.67612249,5.08905951 5.62188044,5.26507602 C5.24502225,6.48831923 3.96852592,7.41863089 2.53923007,7.25399106 C1.17403203,7.09679257 0.0249513447,5.88578466 6.38141809e-05,4.5095645 C-0.0017797066,4.40989336 0.0442374083,4.28517922 0.11095868,4.21205366 C1.35802958,2.84449123 2.61041834,1.48165119 3.86805403,0.1240344 C3.92981198,0.0573484692 4.0506335,0.0144176127 4.14401491,0.0142029584 C6.84399291,0.00812108703 9.5439709,0.00876504988 12.243878,0.00869349845 C16.4030736,0.00862194702 20.5622692,0.00983832129 24.7214648,0.00504437565 C24.9020589,0.00482972136 25.0255748,0.0547010664 25.1494452,0.190434125 C26.3247606,1.47871758 27.4977362,2.76964843 28.6957411,4.03632336 C28.9517068,4.30700241 28.9838267,4.57338837 28.9126384,4.89200688 C28.6627704,6.00928242 28.0103768,6.78568696 26.9290809,7.1384355 C25.5549489,7.58670519 24.0303572,6.93394152 23.4080271,5.50928105 C23.3044355,5.27201651 23.2448756,5.01514689 23.1537631,4.7324472" id="Fill-3" fill="#FF2E5E" mask="url(#mask-2)"></path>
                </g>
                <g id="Group-8" transform="translate(3.625000, 0.000000)">
                    <mask id="mask-4" fill="white">
                        <use xlink:href="#path-3"></use>
                    </mask>
                    <g id="Clip-7"></g>
                    <path d="M21.6969019,1.78042526 C20.1010834,1.7682007 18.5489052,1.77531649 16.9969374,1.77495158 C11.5484221,1.77385684 6.09997694,1.77416094 0.651601935,1.77641123 C0.489950323,1.77647205 0.328579355,1.80682058 0.166647097,1.81472702 C0.126725323,1.81667322 0.0483551613,1.78474339 0.0489866129,1.77020772 C0.0648430645,1.36734456 0.0262543548,0.952317661 0.128619677,0.565510643 C0.229932581,0.182596023 0.624870484,0.0200884211 1.07481484,0.0182030409 C2.27316968,0.0134591813 3.47159468,0.0155878363 4.67001968,0.015648655 C9.97821242,0.0158311111 15.286335,0.016500117 20.5943874,0.0161960234 C21.0272124,0.0161352047 21.3656705,0.154984327 21.5707519,0.497697778 C21.599939,0.546474386 21.6327044,0.600298947 21.6360721,0.653089591 C21.660839,1.03898433 21.6785197,1.42512234 21.6969019,1.78042526" id="Fill-6" fill="#FF2E5E" mask="url(#mask-4)"></path>
                </g>
            </g>
        </g>
    </g>
</svg>