<?xml version="1.0" encoding="UTF-8"?>
<svg width="35px" height="36px" viewBox="0 0 35 36" version="1.1" xmlns="http://www.w3.org/2000/svg" xmlns:xlink="http://www.w3.org/1999/xlink">
    <!-- Generator: Sketch 50.2 (55047) - http://www.bohemiancoding.com/sketch -->
    <title>Group 29</title>
    <desc>Created with Sketch.</desc>
    <defs></defs>
    <g id="Page-1" stroke="none" stroke-width="1" fill="none" fill-rule="evenodd">
        <g id="ICO2018-4-01" transform="translate(-174.000000, -4103.000000)" fill="#38D1A4">
            <g id="Group-29" transform="translate(174.000000, 4103.000000)">
                <path d="M17.6467787,0 C17.9611541,0.162164839 18.0907254,0.418826596 18.0571689,0.773838 C18.0398695,0.956877622 18.054112,1.14292938 18.054112,1.33101257 C18.8831598,1.405055 19.6808049,1.44841571 20.4708076,1.55145868 C24.391503,2.06289085 27.9616264,3.40399057 30.923911,6.13480442 C32.7787606,7.84464526 34.1008046,9.91650246 34.9498613,12.2979089 C35.0738746,12.6457752 34.9623669,12.9402638 34.675851,13.0589278 C34.3936427,13.1757705 34.1629155,13.0510122 33.9587278,12.7479776 C33.8336029,12.562136 33.6577611,12.3931763 33.4699001,12.27122 C32.6682255,11.7506814 31.7576137,11.5831227 30.8279657,11.5180466 C29.4722957,11.4230593 28.1474726,11.5614073 26.8941395,12.1390364 C26.6823791,12.2366855 26.5020214,12.3310423 26.5115395,12.6422027 C26.5191123,12.8891976 26.3209689,13.0610293 26.0579357,13.0909405 C25.7828139,13.1222526 25.5449307,13.0105235 25.4953254,12.738731 C25.4293239,12.377135 25.1683055,12.2509756 24.9030491,12.1191423 C24.1004713,11.7203499 23.2352963,11.5716346 22.3530304,11.5167857 C21.0928888,11.4384002 19.8559519,11.555313 18.6753594,12.0427182 C18.3614009,12.17238 18.0425096,12.2881019 18.0013803,12.7331271 C17.9781061,12.9844651 17.7418208,13.1048103 17.4787876,13.0951434 C17.2103353,13.0853365 17.0094825,12.9270944 16.9910715,12.6819208 C16.9680752,12.3737726 16.7773657,12.2701692 16.5614367,12.1599812 C15.7189802,11.730367 14.8090632,11.5740162 13.8808742,11.5181867 C12.6094775,11.4417626 11.3605909,11.5515303 10.1789563,12.0824363 C9.87402952,12.2193833 9.58716632,12.3625647 9.50956249,12.7608667 C9.46016561,13.0144463 9.21026322,13.1578378 8.9705737,13.0793823 C8.78959074,13.0201904 8.5316987,12.8309163 8.52113847,12.6840924 C8.49550211,12.3246678 8.27477932,12.2174219 8.02265373,12.1052024 C6.78536946,11.5542623 5.48312584,11.4272623 4.15107736,11.5210587 C3.37399697,11.5756974 2.59983454,11.6945016 1.91119612,12.074941 C1.57180964,12.2623937 1.28223691,12.5604548 1.0105193,12.8473079 C0.811194882,13.057807 0.557262936,13.1675047 0.305206821,13.0413453 C0.0413399173,12.9093018 -0.079338548,12.6374393 0.0558602392,12.3296413 C0.448256308,11.4357383 0.799245144,10.5139556 1.28439064,9.67230953 C3.37274642,6.05004439 6.52574054,3.77056016 10.4220501,2.46973897 C12.3098309,1.83957271 14.2536087,1.49969202 16.2389328,1.3972795 C16.4689652,1.38544111 16.6985808,1.36484653 16.9320871,1.34810467 C17.037481,0.871977499 16.7590938,0.285452146 17.3688778,0 L17.6467787,0 Z" id="Fill-1"></path>
                <path d="M16.7641566,18.59004 C16.2867245,18.6969018 15.8382571,18.7500871 15.4234663,18.8994692 C14.416632,19.2622241 14.176045,20.7458705 15.0113779,21.4273866 C15.5113304,21.835328 16.1310914,21.984289 16.7641566,22.1560538 L16.7641566,18.59004 Z M18.1663796,30.9565435 C18.6694503,30.8618203 19.14418,30.788287 19.6114259,30.681355 C20.7951666,30.4104465 21.0797549,28.8384619 20.279138,28.0431376 C19.7033091,27.4712198 18.9473172,27.2473222 18.1663796,27.0473509 L18.1663796,30.9565435 Z M16.7697001,35.9281799 L16.7697001,34.6611339 C16.1996919,34.5650074 15.6391769,34.4979293 15.0915505,34.3728947 C13.5515721,34.0212961 12.1563478,33.385177 11.1093232,32.1349005 C10.141709,30.9794174 9.76378232,29.6088074 9.70862471,28.0893766 L14.3065939,28.0893766 C14.4481605,28.889402 14.4356877,29.7722225 15.0950152,30.3702418 C15.5396715,30.7735523 16.1440493,30.8160023 16.7499515,30.8922019 L16.7499515,26.7125218 C15.9866145,26.5061655 15.2155858,26.3179119 14.4569608,26.0877695 C13.433496,25.7772878 12.469,25.3362284 11.6382404,24.6358378 C10.6736058,23.8224108 10.1324237,22.7763156 10.0599427,21.5136198 C9.88518451,18.4680926 11.6959619,16.1933317 14.7125844,15.6627413 C15.3798114,15.5453547 16.0614514,15.511114 16.7692151,15.4350548 L16.7692151,14.5031185 L18.1304163,14.5031185 L18.1304163,15.4460707 C18.7528797,15.4951163 19.3381324,15.5239543 19.9189504,15.5911727 C20.7145089,15.6832296 21.4792318,15.8964621 22.1976667,16.2661634 C23.6521369,17.0146172 24.3747987,18.2629992 24.5898164,19.8554721 C24.6363123,20.2004752 24.6551601,20.5494075 24.6898069,20.9301949 L20.5554804,20.9301949 C20.3512725,19.3131641 19.9907385,18.854423 18.1743484,18.6707301 L18.1743484,22.5143883 C18.8831514,22.7067817 19.6094164,22.8569355 20.3017969,23.1042684 C21.0926435,23.3868243 21.8839058,23.6980778 22.6211885,24.0983712 C24.6642376,25.2075451 25.3515597,26.9983755 25.1883042,29.2278796 C24.9952526,31.8653954 23.4075309,33.3110122 21.0857141,34.0746919 C20.2817018,34.3391451 19.4219083,34.4302899 18.5869911,34.5973536 C18.4522845,34.6242971 18.3142519,34.6340501 18.1555698,34.6546787 L18.1555698,35.9281799 L16.7697001,35.9281799 Z" id="Fill-3"></path>
            </g>
        </g>
    </g>
</svg>