<?xml version="1.0" encoding="UTF-8"?>
<svg width="21px" height="22px" viewBox="0 0 21 22" version="1.1" xmlns="http://www.w3.org/2000/svg" xmlns:xlink="http://www.w3.org/1999/xlink">
    <!-- Generator: Sketch 50.2 (55047) - http://www.bohemiancoding.com/sketch -->
    <title>@</title>
    <desc>Created with Sketch.</desc>
    <defs></defs>
    <g id="Page-1" stroke="none" stroke-width="1" fill="none" fill-rule="evenodd">
        <g id="Artboard" transform="translate(-397.000000, -623.000000)" fill="#FFFFFF">
            <path d="M407.837228,630.386427 C407.380922,630.386427 406.981659,630.519514 406.639429,630.785693 C406.297199,631.051872 406.007259,631.389343 405.769599,631.798118 C405.531939,632.206893 405.351321,632.658439 405.227738,633.152772 C405.104155,633.647104 405.042364,634.122416 405.042364,634.578723 C405.042364,634.806876 405.06613,635.049285 405.113662,635.305958 C405.161194,635.56263 405.256256,635.800286 405.398852,636.018933 C405.541448,636.23758 405.726819,636.418199 405.954973,636.560795 C406.183126,636.703391 406.487326,636.774687 406.867581,636.774687 C407.380926,636.774687 407.818214,636.646353 408.179456,636.389681 C408.540699,636.133008 408.835393,635.809796 409.063546,635.420034 C409.291699,635.030272 409.458059,634.607244 409.562629,634.150937 C409.667199,633.694631 409.719484,633.276356 409.719484,632.8961 C409.719484,632.591896 409.690965,632.292449 409.633926,631.997751 C409.576888,631.703053 409.477073,631.436878 409.334477,631.199219 C409.191881,630.961559 408.997003,630.766681 408.749837,630.614579 C408.502671,630.462477 408.198471,630.386427 407.837228,630.386427 Z M416.763682,640.76735 C415.641928,641.965155 414.311054,642.83973 412.771019,643.3911 C411.230984,643.942471 409.605416,644.218152 407.894266,644.218152 C406.259167,644.218152 404.77144,643.95673 403.431039,643.433879 C402.090639,642.911028 400.945136,642.1838 399.994497,641.252174 C399.043858,640.320548 398.307124,639.203564 397.784273,637.901189 C397.261422,636.598814 397,635.17763 397,633.637595 C397,632.116573 397.285187,630.709649 397.855571,629.41678 C398.425954,628.123911 399.205466,627.002174 400.19413,626.051535 C401.182795,625.100896 402.337804,624.354656 403.659192,623.812792 C404.980579,623.270928 406.392257,623 407.894266,623 C409.187135,623 410.441959,623.190125 411.658777,623.57038 C412.875595,623.950636 413.954554,624.521011 414.895686,625.281522 C415.836818,626.042033 416.587812,626.992657 417.148689,628.133424 C417.709566,629.27419 417.99,630.614571 417.99,632.154606 C417.99,633.295372 417.833147,634.303034 417.519436,635.177622 C417.205725,636.05221 416.78745,636.784191 416.264599,637.373587 C415.741748,637.962983 415.142854,638.405023 414.467901,638.699721 C413.792947,638.994419 413.084732,639.141766 412.343234,639.141766 C411.582722,639.141766 410.974323,638.961147 410.518016,638.599905 C410.06171,638.238662 409.83356,637.782362 409.83356,637.230992 L409.690965,637.230992 C409.405773,637.687298 408.968486,638.119832 408.37909,638.528607 C407.789693,638.937382 407.067219,639.141766 406.211644,639.141766 C404.918775,639.141766 403.920619,638.713985 403.217147,637.85841 C402.513674,637.002835 402.161943,635.890605 402.161943,634.521685 C402.161943,633.723148 402.29503,632.93413 402.561209,632.154606 C402.827388,631.375082 403.207638,630.681126 403.70197,630.072717 C404.196302,629.464308 404.785689,628.974737 405.470149,628.603988 C406.154609,628.233239 406.915109,628.047867 407.751671,628.047867 C408.474157,628.047867 409.082556,628.199967 409.576888,628.504171 C410.071221,628.808376 410.394433,629.179119 410.546535,629.616413 L410.575054,629.616413 L410.803206,628.475652 L413.341399,628.475652 L412.229157,633.865747 C412.191132,634.131926 412.138848,634.42662 412.072303,634.749837 C412.005758,635.073054 411.972486,635.377254 411.972486,635.662446 C411.972486,635.985663 412.034277,636.256591 412.15786,636.475238 C412.281443,636.693885 412.523852,636.803206 412.885095,636.803206 C413.626593,636.803206 414.239746,636.403944 414.724572,635.605407 C415.209398,634.806871 415.451807,633.732665 415.451807,632.382758 C415.451807,631.241991 415.261682,630.229576 414.881426,629.345482 C414.501171,628.461388 413.973574,627.719901 413.298621,627.120999 C412.623667,626.522096 411.820389,626.070549 410.888763,625.766345 C409.957137,625.462141 408.939969,625.310041 407.837228,625.310041 C406.639423,625.310041 405.541452,625.523931 404.543281,625.951719 C403.54511,626.379506 402.694301,626.968893 401.990829,627.719898 C401.287356,628.470903 400.740747,629.354984 400.350985,630.372167 C399.961223,631.389351 399.766345,632.487322 399.766345,633.666114 C399.766345,634.920957 399.970729,636.0522 400.379504,637.059878 C400.788279,638.067555 401.363407,638.92787 402.104905,639.640849 C402.846403,640.353828 403.730484,640.900437 404.757174,641.280693 C405.783864,641.660948 406.915107,641.851073 408.150937,641.851073 C409.690972,641.851073 411.017093,641.603911 412.129341,641.109579 C413.241588,640.615246 414.26351,639.930797 415.195136,639.056209 L416.763682,640.76735 Z" id="@"></path>
        </g>
    </g>
</svg>