<?xml version="1.0" encoding="UTF-8"?>
<svg width="32px" height="31px" viewBox="0 0 32 31" version="1.1" xmlns="http://www.w3.org/2000/svg" xmlns:xlink="http://www.w3.org/1999/xlink">
    <!-- Generator: Sketch 50.2 (55047) - http://www.bohemiancoding.com/sketch -->
    <title>Group 10</title>
    <desc>Created with Sketch.</desc>
    <defs></defs>
    <g id="Page-1" stroke="none" stroke-width="1" fill="none" fill-rule="evenodd">
        <g id="ICO2018-4-01" transform="translate(-979.000000, -4105.000000)" fill="#38D1A4">
            <g id="Group-10" transform="translate(979.000000, 4105.000000)">
                <g id="Group-Copy-2" transform="translate(24.880473, 24.797940)">
                    <path d="M5.41826512,2.76604241 C5.43219246,2.77196115 5.43766217,2.77300272 5.44146647,2.77611089 C5.55972644,2.87312542 5.69393835,2.93654529 5.84224088,2.96896613 C5.87120584,2.9752982 5.8775409,2.98908656 5.87752457,3.01701048 C5.87677351,3.95109776 5.87695311,4.88518505 5.87654492,5.8192558 C5.87647961,5.96519092 5.77573904,6.06329662 5.62585274,6.06347848 C5.14420831,6.06407366 4.66254755,6.06402407 4.18090311,6.06400753 C3.15501467,6.063991 2.12912623,6.06375954 1.10325412,6.06387527 C1.04646713,6.06387527 0.991998649,6.05638591 0.943881555,6.02327069 C0.866995435,5.97033263 0.839597918,5.8941825 0.839859158,5.80280565 C0.840724515,5.47767139 0.84010407,5.15253713 0.840136725,4.82740287 C0.840251018,4.23084946 0.840871462,3.63431257 0.839646901,3.03777569 C0.839565263,2.9951045 0.848904584,2.9741905 0.893250029,2.9655273 C1.03294798,2.93829776 1.15734707,2.87527469 1.27074145,2.78912221 C1.27585195,2.78525353 1.28223599,2.78313733 1.29487347,2.7767226 C1.29671847,2.79930642 1.29947782,2.81734372 1.29949414,2.83536448 C1.29973906,3.29826666 1.29967375,3.76116883 1.2997064,4.224071 C1.2997064,4.28309314 1.29980437,4.28294434 1.35753835,4.28294434 C2.69092228,4.28301048 4.02430622,4.28307661 5.35769016,4.2831758 C5.41872229,4.28319234 5.41855901,4.28329153 5.41854269,4.21937569 C5.41839574,3.75508476 5.41834676,3.29081036 5.41826512,2.82651943 L5.41826512,2.76604241 Z" id="Fill-1"></path>
                    <path d="M5.36302708,1.84845895 C5.29703786,2.16543155 5.12101185,2.38170853 4.81013329,2.42721681 C4.39002269,2.48867886 4.13665889,2.26939803 4.02266406,1.863595 C3.9101145,2.26550972 3.6609715,2.48465704 3.24417844,2.42810128 C2.93026155,2.38549672 2.75228115,2.17068828 2.68310579,1.85179655 C2.56758359,2.27106684 2.31118145,2.48644266 1.88044492,2.42661605 C1.65186402,2.39485871 1.40587432,2.20885383 1.3398194,1.84089926 C1.32581024,1.89011229 1.31474087,1.93163213 1.30217697,1.97268471 C1.21488659,2.25798341 0.919216107,2.47496129 0.588153191,2.43656212 C0.27193703,2.3998985 0.00577939478,2.11745344 1.47810608e-05,1.79647571 C-0.000412227363,1.77322927 0.0102465598,1.74414202 0.0257009801,1.72708684 C0.314555756,1.40812836 0.604642286,1.09027129 0.895944148,0.77363244 C0.91024893,0.758079188 0.938234406,0.748066365 0.959864025,0.748016301 C1.58525071,0.746597818 2.21063739,0.74674801 2.83600765,0.746731322 C3.79938793,0.746714634 4.7627682,0.74699833 5.72614848,0.745880232 C5.76797888,0.745830168 5.79658844,0.757461731 5.82528012,0.78911894 C6.09751442,1.08958708 6.36920674,1.39067267 6.64669652,1.68610102 C6.705985,1.74923187 6.7134248,1.81136144 6.6969357,1.88567327 C6.63905964,2.146257 6.48794793,2.3273389 6.23749106,2.40961093 C5.91920555,2.5141615 5.56606959,2.36191652 5.4219214,2.02964098 C5.39792681,1.97430345 5.38413115,1.91439339 5.36302708,1.84845895" id="Fill-3"></path>
                    <path d="M5.86522568,0.468222358 C5.49559168,0.465004385 5.13606594,0.466877533 4.77658895,0.466781475 C3.51456795,0.466493298 2.2525632,0.466573347 0.990574703,0.46716571 C0.953131892,0.46718172 0.915754086,0.475170617 0.87824627,0.477251892 C0.868999326,0.477764206 0.850846713,0.469359054 0.850992974,0.465532709 C0.85466575,0.359483706 0.845727579,0.250232741 0.869438109,0.148410329 C0.892904871,0.0476125445 0.984382989,0.00483432355 1.08860206,0.00433801934 C1.3661729,0.00308925391 1.64375999,0.00364959737 1.92134708,0.00366560718 C3.15086564,0.00371363662 4.38036795,0.00388974457 5.60985401,0.0038096955 C5.71010779,0.00379368569 5.78850367,0.0403440893 5.83600599,0.130559387 C5.8427665,0.143399257 5.85035581,0.157567942 5.85113587,0.17146446 C5.85687255,0.273046725 5.86096786,0.374693029 5.86522568,0.468222358" id="Fill-6"></path>
                </g>
                <g id="Group-Copy-2" transform="translate(12.572781, 24.797940)">
                    <path d="M5.41826512,2.76604241 C5.43219246,2.77196115 5.43766217,2.77300272 5.44146647,2.77611089 C5.55972644,2.87312542 5.69393835,2.93654529 5.84224088,2.96896613 C5.87120584,2.9752982 5.8775409,2.98908656 5.87752457,3.01701048 C5.87677351,3.95109776 5.87695311,4.88518505 5.87654492,5.8192558 C5.87647961,5.96519092 5.77573904,6.06329662 5.62585274,6.06347848 C5.14420831,6.06407366 4.66254755,6.06402407 4.18090311,6.06400753 C3.15501467,6.063991 2.12912623,6.06375954 1.10325412,6.06387527 C1.04646713,6.06387527 0.991998649,6.05638591 0.943881555,6.02327069 C0.866995435,5.97033263 0.839597918,5.8941825 0.839859158,5.80280565 C0.840724515,5.47767139 0.84010407,5.15253713 0.840136725,4.82740287 C0.840251018,4.23084946 0.840871462,3.63431257 0.839646901,3.03777569 C0.839565263,2.9951045 0.848904584,2.9741905 0.893250029,2.9655273 C1.03294798,2.93829776 1.15734707,2.87527469 1.27074145,2.78912221 C1.27585195,2.78525353 1.28223599,2.78313733 1.29487347,2.7767226 C1.29671847,2.79930642 1.29947782,2.81734372 1.29949414,2.83536448 C1.29973906,3.29826666 1.29967375,3.76116883 1.2997064,4.224071 C1.2997064,4.28309314 1.29980437,4.28294434 1.35753835,4.28294434 C2.69092228,4.28301048 4.02430622,4.28307661 5.35769016,4.2831758 C5.41872229,4.28319234 5.41855901,4.28329153 5.41854269,4.21937569 C5.41839574,3.75508476 5.41834676,3.29081036 5.41826512,2.82651943 L5.41826512,2.76604241 Z" id="Fill-1"></path>
                    <path d="M5.36302708,1.84845895 C5.29703786,2.16543155 5.12101185,2.38170853 4.81013329,2.42721681 C4.39002269,2.48867886 4.13665889,2.26939803 4.02266406,1.863595 C3.9101145,2.26550972 3.6609715,2.48465704 3.24417844,2.42810128 C2.93026155,2.38549672 2.75228115,2.17068828 2.68310579,1.85179655 C2.56758359,2.27106684 2.31118145,2.48644266 1.88044492,2.42661605 C1.65186402,2.39485871 1.40587432,2.20885383 1.3398194,1.84089926 C1.32581024,1.89011229 1.31474087,1.93163213 1.30217697,1.97268471 C1.21488659,2.25798341 0.919216107,2.47496129 0.588153191,2.43656212 C0.27193703,2.3998985 0.00577939478,2.11745344 1.47810608e-05,1.79647571 C-0.000412227363,1.77322927 0.0102465598,1.74414202 0.0257009801,1.72708684 C0.314555756,1.40812836 0.604642286,1.09027129 0.895944148,0.77363244 C0.91024893,0.758079188 0.938234406,0.748066365 0.959864025,0.748016301 C1.58525071,0.746597818 2.21063739,0.74674801 2.83600765,0.746731322 C3.79938793,0.746714634 4.7627682,0.74699833 5.72614848,0.745880232 C5.76797888,0.745830168 5.79658844,0.757461731 5.82528012,0.78911894 C6.09751442,1.08958708 6.36920674,1.39067267 6.64669652,1.68610102 C6.705985,1.74923187 6.7134248,1.81136144 6.6969357,1.88567327 C6.63905964,2.146257 6.48794793,2.3273389 6.23749106,2.40961093 C5.91920555,2.5141615 5.56606959,2.36191652 5.4219214,2.02964098 C5.39792681,1.97430345 5.38413115,1.91439339 5.36302708,1.84845895" id="Fill-3"></path>
                    <path d="M5.86522568,0.468222358 C5.49559168,0.465004385 5.13606594,0.466877533 4.77658895,0.466781475 C3.51456795,0.466493298 2.2525632,0.466573347 0.990574703,0.46716571 C0.953131892,0.46718172 0.915754086,0.475170617 0.87824627,0.477251892 C0.868999326,0.477764206 0.850846713,0.469359054 0.850992974,0.465532709 C0.85466575,0.359483706 0.845727579,0.250232741 0.869438109,0.148410329 C0.892904871,0.0476125445 0.984382989,0.00483432355 1.08860206,0.00433801934 C1.3661729,0.00308925391 1.64375999,0.00364959737 1.92134708,0.00366560718 C3.15086564,0.00371363662 4.38036795,0.00388974457 5.60985401,0.0038096955 C5.71010779,0.00379368569 5.78850367,0.0403440893 5.83600599,0.130559387 C5.8427665,0.143399257 5.85035581,0.157567942 5.85113587,0.17146446 C5.85687255,0.273046725 5.86096786,0.374693029 5.86522568,0.468222358" id="Fill-6"></path>
                </g>
                <g id="Group-Copy-2" transform="translate(0.265089, 24.797940)">
                    <path d="M5.41826512,2.76604241 C5.43219246,2.77196115 5.43766217,2.77300272 5.44146647,2.77611089 C5.55972644,2.87312542 5.69393835,2.93654529 5.84224088,2.96896613 C5.87120584,2.9752982 5.8775409,2.98908656 5.87752457,3.01701048 C5.87677351,3.95109776 5.87695311,4.88518505 5.87654492,5.8192558 C5.87647961,5.96519092 5.77573904,6.06329662 5.62585274,6.06347848 C5.14420831,6.06407366 4.66254755,6.06402407 4.18090311,6.06400753 C3.15501467,6.063991 2.12912623,6.06375954 1.10325412,6.06387527 C1.04646713,6.06387527 0.991998649,6.05638591 0.943881555,6.02327069 C0.866995435,5.97033263 0.839597918,5.8941825 0.839859158,5.80280565 C0.840724515,5.47767139 0.84010407,5.15253713 0.840136725,4.82740287 C0.840251018,4.23084946 0.840871462,3.63431257 0.839646901,3.03777569 C0.839565263,2.9951045 0.848904584,2.9741905 0.893250029,2.9655273 C1.03294798,2.93829776 1.15734707,2.87527469 1.27074145,2.78912221 C1.27585195,2.78525353 1.28223599,2.78313733 1.29487347,2.7767226 C1.29671847,2.79930642 1.29947782,2.81734372 1.29949414,2.83536448 C1.29973906,3.29826666 1.29967375,3.76116883 1.2997064,4.224071 C1.2997064,4.28309314 1.29980437,4.28294434 1.35753835,4.28294434 C2.69092228,4.28301048 4.02430622,4.28307661 5.35769016,4.2831758 C5.41872229,4.28319234 5.41855901,4.28329153 5.41854269,4.21937569 C5.41839574,3.75508476 5.41834676,3.29081036 5.41826512,2.82651943 L5.41826512,2.76604241 Z" id="Fill-1"></path>
                    <path d="M5.36302708,1.84845895 C5.29703786,2.16543155 5.12101185,2.38170853 4.81013329,2.42721681 C4.39002269,2.48867886 4.13665889,2.26939803 4.02266406,1.863595 C3.9101145,2.26550972 3.6609715,2.48465704 3.24417844,2.42810128 C2.93026155,2.38549672 2.75228115,2.17068828 2.68310579,1.85179655 C2.56758359,2.27106684 2.31118145,2.48644266 1.88044492,2.42661605 C1.65186402,2.39485871 1.40587432,2.20885383 1.3398194,1.84089926 C1.32581024,1.89011229 1.31474087,1.93163213 1.30217697,1.97268471 C1.21488659,2.25798341 0.919216107,2.47496129 0.588153191,2.43656212 C0.27193703,2.3998985 0.00577939478,2.11745344 1.47810608e-05,1.79647571 C-0.000412227363,1.77322927 0.0102465598,1.74414202 0.0257009801,1.72708684 C0.314555756,1.40812836 0.604642286,1.09027129 0.895944148,0.77363244 C0.91024893,0.758079188 0.938234406,0.748066365 0.959864025,0.748016301 C1.58525071,0.746597818 2.21063739,0.74674801 2.83600765,0.746731322 C3.79938793,0.746714634 4.7627682,0.74699833 5.72614848,0.745880232 C5.76797888,0.745830168 5.79658844,0.757461731 5.82528012,0.78911894 C6.09751442,1.08958708 6.36920674,1.39067267 6.64669652,1.68610102 C6.705985,1.74923187 6.7134248,1.81136144 6.6969357,1.88567327 C6.63905964,2.146257 6.48794793,2.3273389 6.23749106,2.40961093 C5.91920555,2.5141615 5.56606959,2.36191652 5.4219214,2.02964098 C5.39792681,1.97430345 5.38413115,1.91439339 5.36302708,1.84845895" id="Fill-3"></path>
                    <path d="M5.86522568,0.468222358 C5.49559168,0.465004385 5.13606594,0.466877533 4.77658895,0.466781475 C3.51456795,0.466493298 2.2525632,0.466573347 0.990574703,0.46716571 C0.953131892,0.46718172 0.915754086,0.475170617 0.87824627,0.477251892 C0.868999326,0.477764206 0.850846713,0.469359054 0.850992974,0.465532709 C0.85466575,0.359483706 0.845727579,0.250232741 0.869438109,0.148410329 C0.892904871,0.0476125445 0.984382989,0.00483432355 1.08860206,0.00433801934 C1.3661729,0.00308925391 1.64375999,0.00364959737 1.92134708,0.00366560718 C3.15086564,0.00371363662 4.38036795,0.00388974457 5.60985401,0.0038096955 C5.71010779,0.00379368569 5.78850367,0.0403440893 5.83600599,0.130559387 C5.8427665,0.143399257 5.85035581,0.157567942 5.85113587,0.17146446 C5.85687255,0.273046725 5.86096786,0.374693029 5.86522568,0.468222358" id="Fill-6"></path>
                </g>
                <g id="Group-Copy-2" transform="translate(24.880473, 12.641077)">
                    <path d="M5.41826512,2.76604241 C5.43219246,2.77196115 5.43766217,2.77300272 5.44146647,2.77611089 C5.55972644,2.87312542 5.69393835,2.93654529 5.84224088,2.96896613 C5.87120584,2.9752982 5.8775409,2.98908656 5.87752457,3.01701048 C5.87677351,3.95109776 5.87695311,4.88518505 5.87654492,5.8192558 C5.87647961,5.96519092 5.77573904,6.06329662 5.62585274,6.06347848 C5.14420831,6.06407366 4.66254755,6.06402407 4.18090311,6.06400753 C3.15501467,6.063991 2.12912623,6.06375954 1.10325412,6.06387527 C1.04646713,6.06387527 0.991998649,6.05638591 0.943881555,6.02327069 C0.866995435,5.97033263 0.839597918,5.8941825 0.839859158,5.80280565 C0.840724515,5.47767139 0.84010407,5.15253713 0.840136725,4.82740287 C0.840251018,4.23084946 0.840871462,3.63431257 0.839646901,3.03777569 C0.839565263,2.9951045 0.848904584,2.9741905 0.893250029,2.9655273 C1.03294798,2.93829776 1.15734707,2.87527469 1.27074145,2.78912221 C1.27585195,2.78525353 1.28223599,2.78313733 1.29487347,2.7767226 C1.29671847,2.79930642 1.29947782,2.81734372 1.29949414,2.83536448 C1.29973906,3.29826666 1.29967375,3.76116883 1.2997064,4.224071 C1.2997064,4.28309314 1.29980437,4.28294434 1.35753835,4.28294434 C2.69092228,4.28301048 4.02430622,4.28307661 5.35769016,4.2831758 C5.41872229,4.28319234 5.41855901,4.28329153 5.41854269,4.21937569 C5.41839574,3.75508476 5.41834676,3.29081036 5.41826512,2.82651943 L5.41826512,2.76604241 Z" id="Fill-1"></path>
                    <path d="M5.36302708,1.84845895 C5.29703786,2.16543155 5.12101185,2.38170853 4.81013329,2.42721681 C4.39002269,2.48867886 4.13665889,2.26939803 4.02266406,1.863595 C3.9101145,2.26550972 3.6609715,2.48465704 3.24417844,2.42810128 C2.93026155,2.38549672 2.75228115,2.17068828 2.68310579,1.85179655 C2.56758359,2.27106684 2.31118145,2.48644266 1.88044492,2.42661605 C1.65186402,2.39485871 1.40587432,2.20885383 1.3398194,1.84089926 C1.32581024,1.89011229 1.31474087,1.93163213 1.30217697,1.97268471 C1.21488659,2.25798341 0.919216107,2.47496129 0.588153191,2.43656212 C0.27193703,2.3998985 0.00577939478,2.11745344 1.47810608e-05,1.79647571 C-0.000412227363,1.77322927 0.0102465598,1.74414202 0.0257009801,1.72708684 C0.314555756,1.40812836 0.604642286,1.09027129 0.895944148,0.77363244 C0.91024893,0.758079188 0.938234406,0.748066365 0.959864025,0.748016301 C1.58525071,0.746597818 2.21063739,0.74674801 2.83600765,0.746731322 C3.79938793,0.746714634 4.7627682,0.74699833 5.72614848,0.745880232 C5.76797888,0.745830168 5.79658844,0.757461731 5.82528012,0.78911894 C6.09751442,1.08958708 6.36920674,1.39067267 6.64669652,1.68610102 C6.705985,1.74923187 6.7134248,1.81136144 6.6969357,1.88567327 C6.63905964,2.146257 6.48794793,2.3273389 6.23749106,2.40961093 C5.91920555,2.5141615 5.56606959,2.36191652 5.4219214,2.02964098 C5.39792681,1.97430345 5.38413115,1.91439339 5.36302708,1.84845895" id="Fill-3"></path>
                    <path d="M5.86522568,0.468222358 C5.49559168,0.465004385 5.13606594,0.466877533 4.77658895,0.466781475 C3.51456795,0.466493298 2.2525632,0.466573347 0.990574703,0.46716571 C0.953131892,0.46718172 0.915754086,0.475170617 0.87824627,0.477251892 C0.868999326,0.477764206 0.850846713,0.469359054 0.850992974,0.465532709 C0.85466575,0.359483706 0.845727579,0.250232741 0.869438109,0.148410329 C0.892904871,0.0476125445 0.984382989,0.00483432355 1.08860206,0.00433801934 C1.3661729,0.00308925391 1.64375999,0.00364959737 1.92134708,0.00366560718 C3.15086564,0.00371363662 4.38036795,0.00388974457 5.60985401,0.0038096955 C5.71010779,0.00379368569 5.78850367,0.0403440893 5.83600599,0.130559387 C5.8427665,0.143399257 5.85035581,0.157567942 5.85113587,0.17146446 C5.85687255,0.273046725 5.86096786,0.374693029 5.86522568,0.468222358" id="Fill-6"></path>
                </g>
                <g id="Group-Copy-2" transform="translate(12.572781, 12.641077)">
                    <path d="M5.41826512,2.76604241 C5.43219246,2.77196115 5.43766217,2.77300272 5.44146647,2.77611089 C5.55972644,2.87312542 5.69393835,2.93654529 5.84224088,2.96896613 C5.87120584,2.9752982 5.8775409,2.98908656 5.87752457,3.01701048 C5.87677351,3.95109776 5.87695311,4.88518505 5.87654492,5.8192558 C5.87647961,5.96519092 5.77573904,6.06329662 5.62585274,6.06347848 C5.14420831,6.06407366 4.66254755,6.06402407 4.18090311,6.06400753 C3.15501467,6.063991 2.12912623,6.06375954 1.10325412,6.06387527 C1.04646713,6.06387527 0.991998649,6.05638591 0.943881555,6.02327069 C0.866995435,5.97033263 0.839597918,5.8941825 0.839859158,5.80280565 C0.840724515,5.47767139 0.84010407,5.15253713 0.840136725,4.82740287 C0.840251018,4.23084946 0.840871462,3.63431257 0.839646901,3.03777569 C0.839565263,2.9951045 0.848904584,2.9741905 0.893250029,2.9655273 C1.03294798,2.93829776 1.15734707,2.87527469 1.27074145,2.78912221 C1.27585195,2.78525353 1.28223599,2.78313733 1.29487347,2.7767226 C1.29671847,2.79930642 1.29947782,2.81734372 1.29949414,2.83536448 C1.29973906,3.29826666 1.29967375,3.76116883 1.2997064,4.224071 C1.2997064,4.28309314 1.29980437,4.28294434 1.35753835,4.28294434 C2.69092228,4.28301048 4.02430622,4.28307661 5.35769016,4.2831758 C5.41872229,4.28319234 5.41855901,4.28329153 5.41854269,4.21937569 C5.41839574,3.75508476 5.41834676,3.29081036 5.41826512,2.82651943 L5.41826512,2.76604241 Z" id="Fill-1"></path>
                    <path d="M5.36302708,1.84845895 C5.29703786,2.16543155 5.12101185,2.38170853 4.81013329,2.42721681 C4.39002269,2.48867886 4.13665889,2.26939803 4.02266406,1.863595 C3.9101145,2.26550972 3.6609715,2.48465704 3.24417844,2.42810128 C2.93026155,2.38549672 2.75228115,2.17068828 2.68310579,1.85179655 C2.56758359,2.27106684 2.31118145,2.48644266 1.88044492,2.42661605 C1.65186402,2.39485871 1.40587432,2.20885383 1.3398194,1.84089926 C1.32581024,1.89011229 1.31474087,1.93163213 1.30217697,1.97268471 C1.21488659,2.25798341 0.919216107,2.47496129 0.588153191,2.43656212 C0.27193703,2.3998985 0.00577939478,2.11745344 1.47810608e-05,1.79647571 C-0.000412227363,1.77322927 0.0102465598,1.74414202 0.0257009801,1.72708684 C0.314555756,1.40812836 0.604642286,1.09027129 0.895944148,0.77363244 C0.91024893,0.758079188 0.938234406,0.748066365 0.959864025,0.748016301 C1.58525071,0.746597818 2.21063739,0.74674801 2.83600765,0.746731322 C3.79938793,0.746714634 4.7627682,0.74699833 5.72614848,0.745880232 C5.76797888,0.745830168 5.79658844,0.757461731 5.82528012,0.78911894 C6.09751442,1.08958708 6.36920674,1.39067267 6.64669652,1.68610102 C6.705985,1.74923187 6.7134248,1.81136144 6.6969357,1.88567327 C6.63905964,2.146257 6.48794793,2.3273389 6.23749106,2.40961093 C5.91920555,2.5141615 5.56606959,2.36191652 5.4219214,2.02964098 C5.39792681,1.97430345 5.38413115,1.91439339 5.36302708,1.84845895" id="Fill-3"></path>
                    <path d="M5.86522568,0.468222358 C5.49559168,0.465004385 5.13606594,0.466877533 4.77658895,0.466781475 C3.51456795,0.466493298 2.2525632,0.466573347 0.990574703,0.46716571 C0.953131892,0.46718172 0.915754086,0.475170617 0.87824627,0.477251892 C0.868999326,0.477764206 0.850846713,0.469359054 0.850992974,0.465532709 C0.85466575,0.359483706 0.845727579,0.250232741 0.869438109,0.148410329 C0.892904871,0.0476125445 0.984382989,0.00483432355 1.08860206,0.00433801934 C1.3661729,0.00308925391 1.64375999,0.00364959737 1.92134708,0.00366560718 C3.15086564,0.00371363662 4.38036795,0.00388974457 5.60985401,0.0038096955 C5.71010779,0.00379368569 5.78850367,0.0403440893 5.83600599,0.130559387 C5.8427665,0.143399257 5.85035581,0.157567942 5.85113587,0.17146446 C5.85687255,0.273046725 5.86096786,0.374693029 5.86522568,0.468222358" id="Fill-6"></path>
                </g>
                <g id="Group-Copy-2" transform="translate(0.265089, 12.641077)">
                    <path d="M5.41826512,2.76604241 C5.43219246,2.77196115 5.43766217,2.77300272 5.44146647,2.77611089 C5.55972644,2.87312542 5.69393835,2.93654529 5.84224088,2.96896613 C5.87120584,2.9752982 5.8775409,2.98908656 5.87752457,3.01701048 C5.87677351,3.95109776 5.87695311,4.88518505 5.87654492,5.8192558 C5.87647961,5.96519092 5.77573904,6.06329662 5.62585274,6.06347848 C5.14420831,6.06407366 4.66254755,6.06402407 4.18090311,6.06400753 C3.15501467,6.063991 2.12912623,6.06375954 1.10325412,6.06387527 C1.04646713,6.06387527 0.991998649,6.05638591 0.943881555,6.02327069 C0.866995435,5.97033263 0.839597918,5.8941825 0.839859158,5.80280565 C0.840724515,5.47767139 0.84010407,5.15253713 0.840136725,4.82740287 C0.840251018,4.23084946 0.840871462,3.63431257 0.839646901,3.03777569 C0.839565263,2.9951045 0.848904584,2.9741905 0.893250029,2.9655273 C1.03294798,2.93829776 1.15734707,2.87527469 1.27074145,2.78912221 C1.27585195,2.78525353 1.28223599,2.78313733 1.29487347,2.7767226 C1.29671847,2.79930642 1.29947782,2.81734372 1.29949414,2.83536448 C1.29973906,3.29826666 1.29967375,3.76116883 1.2997064,4.224071 C1.2997064,4.28309314 1.29980437,4.28294434 1.35753835,4.28294434 C2.69092228,4.28301048 4.02430622,4.28307661 5.35769016,4.2831758 C5.41872229,4.28319234 5.41855901,4.28329153 5.41854269,4.21937569 C5.41839574,3.75508476 5.41834676,3.29081036 5.41826512,2.82651943 L5.41826512,2.76604241 Z" id="Fill-1"></path>
                    <path d="M5.36302708,1.84845895 C5.29703786,2.16543155 5.12101185,2.38170853 4.81013329,2.42721681 C4.39002269,2.48867886 4.13665889,2.26939803 4.02266406,1.863595 C3.9101145,2.26550972 3.6609715,2.48465704 3.24417844,2.42810128 C2.93026155,2.38549672 2.75228115,2.17068828 2.68310579,1.85179655 C2.56758359,2.27106684 2.31118145,2.48644266 1.88044492,2.42661605 C1.65186402,2.39485871 1.40587432,2.20885383 1.3398194,1.84089926 C1.32581024,1.89011229 1.31474087,1.93163213 1.30217697,1.97268471 C1.21488659,2.25798341 0.919216107,2.47496129 0.588153191,2.43656212 C0.27193703,2.3998985 0.00577939478,2.11745344 1.47810608e-05,1.79647571 C-0.000412227363,1.77322927 0.0102465598,1.74414202 0.0257009801,1.72708684 C0.314555756,1.40812836 0.604642286,1.09027129 0.895944148,0.77363244 C0.91024893,0.758079188 0.938234406,0.748066365 0.959864025,0.748016301 C1.58525071,0.746597818 2.21063739,0.74674801 2.83600765,0.746731322 C3.79938793,0.746714634 4.7627682,0.74699833 5.72614848,0.745880232 C5.76797888,0.745830168 5.79658844,0.757461731 5.82528012,0.78911894 C6.09751442,1.08958708 6.36920674,1.39067267 6.64669652,1.68610102 C6.705985,1.74923187 6.7134248,1.81136144 6.6969357,1.88567327 C6.63905964,2.146257 6.48794793,2.3273389 6.23749106,2.40961093 C5.91920555,2.5141615 5.56606959,2.36191652 5.4219214,2.02964098 C5.39792681,1.97430345 5.38413115,1.91439339 5.36302708,1.84845895" id="Fill-3"></path>
                    <path d="M5.86522568,0.468222358 C5.49559168,0.465004385 5.13606594,0.466877533 4.77658895,0.466781475 C3.51456795,0.466493298 2.2525632,0.466573347 0.990574703,0.46716571 C0.953131892,0.46718172 0.915754086,0.475170617 0.87824627,0.477251892 C0.868999326,0.477764206 0.850846713,0.469359054 0.850992974,0.465532709 C0.85466575,0.359483706 0.845727579,0.250232741 0.869438109,0.148410329 C0.892904871,0.0476125445 0.984382989,0.00483432355 1.08860206,0.00433801934 C1.3661729,0.00308925391 1.64375999,0.00364959737 1.92134708,0.00366560718 C3.15086564,0.00371363662 4.38036795,0.00388974457 5.60985401,0.0038096955 C5.71010779,0.00379368569 5.78850367,0.0403440893 5.83600599,0.130559387 C5.8427665,0.143399257 5.85035581,0.157567942 5.85113587,0.17146446 C5.85687255,0.273046725 5.86096786,0.374693029 5.86522568,0.468222358" id="Fill-6"></path>
                </g>
                <g id="Group-Copy-2" transform="translate(24.880473, 0.484214)">
                    <path d="M5.41826512,2.76604241 C5.43219246,2.77196115 5.43766217,2.77300272 5.44146647,2.77611089 C5.55972644,2.87312542 5.69393835,2.93654529 5.84224088,2.96896613 C5.87120584,2.9752982 5.8775409,2.98908656 5.87752457,3.01701048 C5.87677351,3.95109776 5.87695311,4.88518505 5.87654492,5.8192558 C5.87647961,5.96519092 5.77573904,6.06329662 5.62585274,6.06347848 C5.14420831,6.06407366 4.66254755,6.06402407 4.18090311,6.06400753 C3.15501467,6.063991 2.12912623,6.06375954 1.10325412,6.06387527 C1.04646713,6.06387527 0.991998649,6.05638591 0.943881555,6.02327069 C0.866995435,5.97033263 0.839597918,5.8941825 0.839859158,5.80280565 C0.840724515,5.47767139 0.84010407,5.15253713 0.840136725,4.82740287 C0.840251018,4.23084946 0.840871462,3.63431257 0.839646901,3.03777569 C0.839565263,2.9951045 0.848904584,2.9741905 0.893250029,2.9655273 C1.03294798,2.93829776 1.15734707,2.87527469 1.27074145,2.78912221 C1.27585195,2.78525353 1.28223599,2.78313733 1.29487347,2.7767226 C1.29671847,2.79930642 1.29947782,2.81734372 1.29949414,2.83536448 C1.29973906,3.29826666 1.29967375,3.76116883 1.2997064,4.224071 C1.2997064,4.28309314 1.29980437,4.28294434 1.35753835,4.28294434 C2.69092228,4.28301048 4.02430622,4.28307661 5.35769016,4.2831758 C5.41872229,4.28319234 5.41855901,4.28329153 5.41854269,4.21937569 C5.41839574,3.75508476 5.41834676,3.29081036 5.41826512,2.82651943 L5.41826512,2.76604241 Z" id="Fill-1"></path>
                    <path d="M5.36302708,1.84845895 C5.29703786,2.16543155 5.12101185,2.38170853 4.81013329,2.42721681 C4.39002269,2.48867886 4.13665889,2.26939803 4.02266406,1.863595 C3.9101145,2.26550972 3.6609715,2.48465704 3.24417844,2.42810128 C2.93026155,2.38549672 2.75228115,2.17068828 2.68310579,1.85179655 C2.56758359,2.27106684 2.31118145,2.48644266 1.88044492,2.42661605 C1.65186402,2.39485871 1.40587432,2.20885383 1.3398194,1.84089926 C1.32581024,1.89011229 1.31474087,1.93163213 1.30217697,1.97268471 C1.21488659,2.25798341 0.919216107,2.47496129 0.588153191,2.43656212 C0.27193703,2.3998985 0.00577939478,2.11745344 1.47810608e-05,1.79647571 C-0.000412227363,1.77322927 0.0102465598,1.74414202 0.0257009801,1.72708684 C0.314555756,1.40812836 0.604642286,1.09027129 0.895944148,0.77363244 C0.91024893,0.758079188 0.938234406,0.748066365 0.959864025,0.748016301 C1.58525071,0.746597818 2.21063739,0.74674801 2.83600765,0.746731322 C3.79938793,0.746714634 4.7627682,0.74699833 5.72614848,0.745880232 C5.76797888,0.745830168 5.79658844,0.757461731 5.82528012,0.78911894 C6.09751442,1.08958708 6.36920674,1.39067267 6.64669652,1.68610102 C6.705985,1.74923187 6.7134248,1.81136144 6.6969357,1.88567327 C6.63905964,2.146257 6.48794793,2.3273389 6.23749106,2.40961093 C5.91920555,2.5141615 5.56606959,2.36191652 5.4219214,2.02964098 C5.39792681,1.97430345 5.38413115,1.91439339 5.36302708,1.84845895" id="Fill-3"></path>
                    <path d="M5.86522568,0.468222358 C5.49559168,0.465004385 5.13606594,0.466877533 4.77658895,0.466781475 C3.51456795,0.466493298 2.2525632,0.466573347 0.990574703,0.46716571 C0.953131892,0.46718172 0.915754086,0.475170617 0.87824627,0.477251892 C0.868999326,0.477764206 0.850846713,0.469359054 0.850992974,0.465532709 C0.85466575,0.359483706 0.845727579,0.250232741 0.869438109,0.148410329 C0.892904871,0.0476125445 0.984382989,0.00483432355 1.08860206,0.00433801934 C1.3661729,0.00308925391 1.64375999,0.00364959737 1.92134708,0.00366560718 C3.15086564,0.00371363662 4.38036795,0.00388974457 5.60985401,0.0038096955 C5.71010779,0.00379368569 5.78850367,0.0403440893 5.83600599,0.130559387 C5.8427665,0.143399257 5.85035581,0.157567942 5.85113587,0.17146446 C5.85687255,0.273046725 5.86096786,0.374693029 5.86522568,0.468222358" id="Fill-6"></path>
                </g>
                <g id="Group-Copy-2" transform="translate(12.572781, 0.484214)">
                    <path d="M5.41826512,2.76604241 C5.43219246,2.77196115 5.43766217,2.77300272 5.44146647,2.77611089 C5.55972644,2.87312542 5.69393835,2.93654529 5.84224088,2.96896613 C5.87120584,2.9752982 5.8775409,2.98908656 5.87752457,3.01701048 C5.87677351,3.95109776 5.87695311,4.88518505 5.87654492,5.8192558 C5.87647961,5.96519092 5.77573904,6.06329662 5.62585274,6.06347848 C5.14420831,6.06407366 4.66254755,6.06402407 4.18090311,6.06400753 C3.15501467,6.063991 2.12912623,6.06375954 1.10325412,6.06387527 C1.04646713,6.06387527 0.991998649,6.05638591 0.943881555,6.02327069 C0.866995435,5.97033263 0.839597918,5.8941825 0.839859158,5.80280565 C0.840724515,5.47767139 0.84010407,5.15253713 0.840136725,4.82740287 C0.840251018,4.23084946 0.840871462,3.63431257 0.839646901,3.03777569 C0.839565263,2.9951045 0.848904584,2.9741905 0.893250029,2.9655273 C1.03294798,2.93829776 1.15734707,2.87527469 1.27074145,2.78912221 C1.27585195,2.78525353 1.28223599,2.78313733 1.29487347,2.7767226 C1.29671847,2.79930642 1.29947782,2.81734372 1.29949414,2.83536448 C1.29973906,3.29826666 1.29967375,3.76116883 1.2997064,4.224071 C1.2997064,4.28309314 1.29980437,4.28294434 1.35753835,4.28294434 C2.69092228,4.28301048 4.02430622,4.28307661 5.35769016,4.2831758 C5.41872229,4.28319234 5.41855901,4.28329153 5.41854269,4.21937569 C5.41839574,3.75508476 5.41834676,3.29081036 5.41826512,2.82651943 L5.41826512,2.76604241 Z" id="Fill-1"></path>
                    <path d="M5.36302708,1.84845895 C5.29703786,2.16543155 5.12101185,2.38170853 4.81013329,2.42721681 C4.39002269,2.48867886 4.13665889,2.26939803 4.02266406,1.863595 C3.9101145,2.26550972 3.6609715,2.48465704 3.24417844,2.42810128 C2.93026155,2.38549672 2.75228115,2.17068828 2.68310579,1.85179655 C2.56758359,2.27106684 2.31118145,2.48644266 1.88044492,2.42661605 C1.65186402,2.39485871 1.40587432,2.20885383 1.3398194,1.84089926 C1.32581024,1.89011229 1.31474087,1.93163213 1.30217697,1.97268471 C1.21488659,2.25798341 0.919216107,2.47496129 0.588153191,2.43656212 C0.27193703,2.3998985 0.00577939478,2.11745344 1.47810608e-05,1.79647571 C-0.000412227363,1.77322927 0.0102465598,1.74414202 0.0257009801,1.72708684 C0.314555756,1.40812836 0.604642286,1.09027129 0.895944148,0.77363244 C0.91024893,0.758079188 0.938234406,0.748066365 0.959864025,0.748016301 C1.58525071,0.746597818 2.21063739,0.74674801 2.83600765,0.746731322 C3.79938793,0.746714634 4.7627682,0.74699833 5.72614848,0.745880232 C5.76797888,0.745830168 5.79658844,0.757461731 5.82528012,0.78911894 C6.09751442,1.08958708 6.36920674,1.39067267 6.64669652,1.68610102 C6.705985,1.74923187 6.7134248,1.81136144 6.6969357,1.88567327 C6.63905964,2.146257 6.48794793,2.3273389 6.23749106,2.40961093 C5.91920555,2.5141615 5.56606959,2.36191652 5.4219214,2.02964098 C5.39792681,1.97430345 5.38413115,1.91439339 5.36302708,1.84845895" id="Fill-3"></path>
                    <path d="M5.86522568,0.468222358 C5.49559168,0.465004385 5.13606594,0.466877533 4.77658895,0.466781475 C3.51456795,0.466493298 2.2525632,0.466573347 0.990574703,0.46716571 C0.953131892,0.46718172 0.915754086,0.475170617 0.87824627,0.477251892 C0.868999326,0.477764206 0.850846713,0.469359054 0.850992974,0.465532709 C0.85466575,0.359483706 0.845727579,0.250232741 0.869438109,0.148410329 C0.892904871,0.0476125445 0.984382989,0.00483432355 1.08860206,0.00433801934 C1.3661729,0.00308925391 1.64375999,0.00364959737 1.92134708,0.00366560718 C3.15086564,0.00371363662 4.38036795,0.00388974457 5.60985401,0.0038096955 C5.71010779,0.00379368569 5.78850367,0.0403440893 5.83600599,0.130559387 C5.8427665,0.143399257 5.85035581,0.157567942 5.85113587,0.17146446 C5.85687255,0.273046725 5.86096786,0.374693029 5.86522568,0.468222358" id="Fill-6"></path>
                </g>
                <g id="Group-Copy-2" transform="translate(0.265089, 0.484214)">
                    <path d="M5.41826512,2.76604241 C5.43219246,2.77196115 5.43766217,2.77300272 5.44146647,2.77611089 C5.55972644,2.87312542 5.69393835,2.93654529 5.84224088,2.96896613 C5.87120584,2.9752982 5.8775409,2.98908656 5.87752457,3.01701048 C5.87677351,3.95109776 5.87695311,4.88518505 5.87654492,5.8192558 C5.87647961,5.96519092 5.77573904,6.06329662 5.62585274,6.06347848 C5.14420831,6.06407366 4.66254755,6.06402407 4.18090311,6.06400753 C3.15501467,6.063991 2.12912623,6.06375954 1.10325412,6.06387527 C1.04646713,6.06387527 0.991998649,6.05638591 0.943881555,6.02327069 C0.866995435,5.97033263 0.839597918,5.8941825 0.839859158,5.80280565 C0.840724515,5.47767139 0.84010407,5.15253713 0.840136725,4.82740287 C0.840251018,4.23084946 0.840871462,3.63431257 0.839646901,3.03777569 C0.839565263,2.9951045 0.848904584,2.9741905 0.893250029,2.9655273 C1.03294798,2.93829776 1.15734707,2.87527469 1.27074145,2.78912221 C1.27585195,2.78525353 1.28223599,2.78313733 1.29487347,2.7767226 C1.29671847,2.79930642 1.29947782,2.81734372 1.29949414,2.83536448 C1.29973906,3.29826666 1.29967375,3.76116883 1.2997064,4.224071 C1.2997064,4.28309314 1.29980437,4.28294434 1.35753835,4.28294434 C2.69092228,4.28301048 4.02430622,4.28307661 5.35769016,4.2831758 C5.41872229,4.28319234 5.41855901,4.28329153 5.41854269,4.21937569 C5.41839574,3.75508476 5.41834676,3.29081036 5.41826512,2.82651943 L5.41826512,2.76604241 Z" id="Fill-1"></path>
                    <path d="M5.36302708,1.84845895 C5.29703786,2.16543155 5.12101185,2.38170853 4.81013329,2.42721681 C4.39002269,2.48867886 4.13665889,2.26939803 4.02266406,1.863595 C3.9101145,2.26550972 3.6609715,2.48465704 3.24417844,2.42810128 C2.93026155,2.38549672 2.75228115,2.17068828 2.68310579,1.85179655 C2.56758359,2.27106684 2.31118145,2.48644266 1.88044492,2.42661605 C1.65186402,2.39485871 1.40587432,2.20885383 1.3398194,1.84089926 C1.32581024,1.89011229 1.31474087,1.93163213 1.30217697,1.97268471 C1.21488659,2.25798341 0.919216107,2.47496129 0.588153191,2.43656212 C0.27193703,2.3998985 0.00577939478,2.11745344 1.47810608e-05,1.79647571 C-0.000412227363,1.77322927 0.0102465598,1.74414202 0.0257009801,1.72708684 C0.314555756,1.40812836 0.604642286,1.09027129 0.895944148,0.77363244 C0.91024893,0.758079188 0.938234406,0.748066365 0.959864025,0.748016301 C1.58525071,0.746597818 2.21063739,0.74674801 2.83600765,0.746731322 C3.79938793,0.746714634 4.7627682,0.74699833 5.72614848,0.745880232 C5.76797888,0.745830168 5.79658844,0.757461731 5.82528012,0.78911894 C6.09751442,1.08958708 6.36920674,1.39067267 6.64669652,1.68610102 C6.705985,1.74923187 6.7134248,1.81136144 6.6969357,1.88567327 C6.63905964,2.146257 6.48794793,2.3273389 6.23749106,2.40961093 C5.91920555,2.5141615 5.56606959,2.36191652 5.4219214,2.02964098 C5.39792681,1.97430345 5.38413115,1.91439339 5.36302708,1.84845895" id="Fill-3"></path>
                    <path d="M5.86522568,0.468222358 C5.49559168,0.465004385 5.13606594,0.466877533 4.77658895,0.466781475 C3.51456795,0.466493298 2.2525632,0.466573347 0.990574703,0.46716571 C0.953131892,0.46718172 0.915754086,0.475170617 0.87824627,0.477251892 C0.868999326,0.477764206 0.850846713,0.469359054 0.850992974,0.465532709 C0.85466575,0.359483706 0.845727579,0.250232741 0.869438109,0.148410329 C0.892904871,0.0476125445 0.984382989,0.00483432355 1.08860206,0.00433801934 C1.3661729,0.00308925391 1.64375999,0.00364959737 1.92134708,0.00366560718 C3.15086564,0.00371363662 4.38036795,0.00388974457 5.60985401,0.0038096955 C5.71010779,0.00379368569 5.78850367,0.0403440893 5.83600599,0.130559387 C5.8427665,0.143399257 5.85035581,0.157567942 5.85113587,0.17146446 C5.85687255,0.273046725 5.86096786,0.374693029 5.86522568,0.468222358" id="Fill-6"></path>
                </g>
            </g>
        </g>
    </g>
</svg>