<?xml version="1.0" encoding="UTF-8"?>
<svg width="27px" height="30px" viewBox="0 0 27 30" version="1.1" xmlns="http://www.w3.org/2000/svg" xmlns:xlink="http://www.w3.org/1999/xlink">
    <!-- Generator: Sketch 50.2 (55047) - http://www.bohemiancoding.com/sketch -->
    <title>Group</title>
    <desc>Created with Sketch.</desc>
    <defs>
        <polygon id="path-1" points="0.0627567765 0.0373621901 18.2916673 0.0373621901 18.2916673 30 0.0627567765 30"></polygon>
        <polygon id="path-3" points="0 0.0561403629 3.73687064 0.0561403629 3.73687064 3.72879156 0 3.72879156"></polygon>
    </defs>
    <g id="Page-1" stroke="none" stroke-width="1" fill="none" fill-rule="evenodd">
        <g id="ICO2018-4-02" transform="translate(-170.000000, -2177.000000)">
            <g id="Group" transform="translate(170.000000, 2177.000000)">
                <g id="Group-3" transform="translate(7.500000, 0.000000)">
                    <mask id="mask-2" fill="white">
                        <use xlink:href="#path-1"></use>
                    </mask>
                    <g id="Clip-2"></g>
                    <path d="M8.85769312,27.1116109 C8.85694443,26.2044163 8.12792655,25.4721991 7.22235444,25.4691448 C6.32910166,25.4660905 5.58898959,26.1998688 5.58490583,27.0926742 C5.58061789,28.0050271 6.31616977,28.7339864 7.23889364,28.7318824 C8.12799462,28.7297783 8.85837374,27.9987828 8.85769312,27.1116109 M15.3962572,1.29756109 C14.5087217,1.28432579 13.7642536,2.00738009 13.7522066,2.8941448 C13.7398872,3.80452941 14.4518214,4.54041176 15.3649485,4.56111312 C16.2685468,4.58161086 17.0128107,3.85658824 17.0235645,2.94566063 C17.0341823,2.03866968 16.3159864,1.31127149 15.3962572,1.29756109 M6.37599675,14.7788281 C6.34679792,13.4761357 5.34736757,12.490276 4.04682853,12.4777195 C2.81203791,12.4657738 1.77394804,13.5268371 1.77769148,14.7588733 C1.78157104,16.0416109 2.80611647,17.0648688 4.09746706,17.0575385 C5.28488615,17.050819 6.33495503,16.107448 6.37599675,14.7788281 M15.2951844,0.0379004525 C16.7528798,0.0326742081 17.929477,0.970819005 18.2202401,2.29747059 C18.5675633,3.88238009 17.6105359,5.32244796 16.1673378,5.72276471 C15.5282986,5.8999819 14.8858562,5.86821719 14.2713196,5.59835294 C14.1304301,5.53652036 14.0502524,5.56326244 13.9498602,5.66853394 C12.1916006,7.51238009 10.4298017,9.35290045 8.6687515,11.1942353 C8.28909865,11.5911584 7.91305311,11.9914751 7.52809138,12.3830362 C7.42096094,12.4920407 7.41483531,12.5758643 7.49412817,12.7063846 C8.04523057,13.6131041 8.21205185,14.5971312 7.98206853,15.6250045 C7.72778687,16.7613394 7.07847023,17.6348688 6.06311325,18.2211584 C5.90411915,18.3129231 5.87281038,18.3996652 5.91943322,18.5727421 C6.12191928,19.3248462 6.30827452,20.0812262 6.50177632,20.8357059 C6.69657132,21.5956833 6.89347625,22.3551855 7.08827124,23.115095 C7.16674735,23.4213394 7.24685696,23.7272443 7.31675719,24.035457 C7.34527539,24.1609548 7.40728037,24.2085339 7.53578245,24.222448 C8.78248401,24.3575837 9.78899287,25.2790995 10.0506933,26.4442127 C10.3960427,27.9812715 9.50959613,29.4473348 8.05557607,29.876905 C6.53989135,30.3246652 4.97812828,29.514733 4.47548641,28.0369955 C4.04941491,26.7841222 4.50291562,25.4679231 5.55264419,24.7341448 C5.67134526,24.6511357 5.70265403,24.5724706 5.66310969,24.4236244 C5.43891168,23.577991 5.23125287,22.7280814 5.01447368,21.8805475 C4.77816053,20.9563846 4.53994164,20.0327647 4.29845575,19.1100271 C4.21371788,18.7861357 4.20732,18.7947557 3.85856754,18.7605475 C2.11249112,18.5892353 0.882464875,17.7032851 0.290388831,16.0533529 C-0.460272934,13.9612262 0.71169596,11.6650045 2.83517918,10.9788054 C3.92186571,10.627629 4.97050528,10.7324253 5.97449582,11.2673348 C6.11157378,11.3404344 6.19045826,11.3269276 6.29459395,11.2177873 C8.43972105,8.96826244 10.5877068,6.72138462 12.7373941,4.47613575 C12.8196136,4.39027602 12.8358125,4.32274208 12.7833363,4.21000452 C12.0458787,2.62726697 12.7140486,0.906135747 14.3258377,0.232153846 C14.6643807,0.0905701357 15.0208243,0.0309773756 15.2951844,0.0379004525" id="Fill-1" fill="#B951A8" mask="url(#mask-2)"></path>
                </g>
                <path d="M26.6909523,22.1812825 C26.7067278,23.1713942 25.8881492,24.0531705 24.7890359,24.0440475 C23.7722236,24.0355953 22.9268603,23.1640153 22.9413603,22.1478092 C22.9559274,21.117382 23.820087,20.2774641 24.8483114,20.2943684 C25.8869408,20.3114069 26.7051166,21.1491783 26.6909523,22.1812825" id="Fill-4" fill="#B951A8"></path>
                <g id="Group-8" transform="translate(0.000000, 17.867647)">
                    <mask id="mask-4" fill="white">
                        <use xlink:href="#path-3"></use>
                    </mask>
                    <g id="Clip-7"></g>
                    <path d="M3.73577009,1.88489474 C3.7730692,2.91193421 2.85639509,3.74147368 1.88172991,3.72864474 C0.840435268,3.71509211 0.00264508929,2.91456579 -3.34821429e-05,1.90068421 C-0.00264508929,0.887328947 0.836015625,0.0583157895 1.86606027,0.0561447368 C2.90815848,0.0539736842 3.73262277,0.860289474 3.73577009,1.88489474" id="Fill-6" fill="#B951A8" mask="url(#mask-4)"></path>
                </g>
                <path d="M2.86804501,2.06590891 C2.85776586,1.07972563 3.6929299,0.203863431 4.78547576,0.220830746 C5.80183499,0.2365909 6.63471478,1.1062161 6.61738131,2.12814476 C6.59984629,3.15838941 5.73055279,3.99589072 4.70559401,3.97000383 C3.65147738,3.94331217 2.84715079,3.10990179 2.86804501,2.06590891" id="Fill-9" fill="#B951A8"></path>
                <path d="M19.8623925,18.9705882 C19.9709625,19.0070381 20.0884225,19.027707 20.1865625,19.0825913 C20.6989625,19.369023 21.2084925,19.6608314 21.7150825,19.9575277 C22.0462525,20.151508 22.1508325,20.5273187 21.9730325,20.8424494 C21.7928525,21.1618396 21.4230425,21.2719573 21.0832625,21.0859373 C20.5581925,20.7984582 20.0383725,20.5012731 19.5219125,20.1986414 C19.2511525,20.0399239 19.1362125,19.7481155 19.2160825,19.4847268 C19.3116325,19.1696659 19.5427725,18.9916063 19.8623925,18.9705882" id="Fill-11" fill="#B951A8"></path>
                <path d="M16.1046085,16.7647059 C16.2176921,16.8069637 16.3382819,16.8359027 16.4425264,16.8938503 C16.9515429,17.1766153 17.4581742,17.4637734 17.9616487,17.7562311 C18.2959187,17.9504359 18.4013559,18.3237135 18.2228914,18.6395316 C18.0417613,18.9598126 17.6552988,19.0657362 17.3151361,18.8773192 C16.8005777,18.5923925 16.2886149,18.3028635 15.7789671,18.0092901 C15.4885415,17.8419323 15.3804386,17.5527519 15.4739501,17.2330288 C15.549573,16.9741821 15.8157263,16.7831152 16.1046085,16.7647059" id="Fill-13" fill="#B951A8"></path>
                <path d="M7.5,17.5126552 C7.49511203,17.6650324 7.39532772,17.8619299 7.19017285,17.9815027 C6.65668638,18.2923635 6.12145421,18.6009522 5.57784268,18.8928546 C5.24769555,19.0701547 4.87690849,18.9323335 4.70408402,18.5995321 C4.54543464,18.2940676 4.65646127,17.9095744 4.97278244,17.727304 C5.49768005,17.4248927 6.02446302,17.1251797 6.55864777,16.8402358 C6.99248958,16.6088298 7.49993017,16.9306254 7.5,17.5126552" id="Fill-15" fill="#B951A8"></path>
                <path d="M8.86094354,10.5881299 C8.61187803,10.5922091 8.42715275,10.4777209 8.31013985,10.2627495 C8.06201853,9.80683611 7.81706702,9.34901913 7.57852255,8.88800682 C7.4104556,8.56310225 7.52187077,8.18401294 7.82030426,8.02383818 C8.14497293,7.84965833 8.49897912,7.95619222 8.6822881,8.29204252 C8.92555355,8.73769002 9.16895388,9.18360947 9.40001222,9.63578361 C9.63734272,10.1003992 9.35421869,10.5912573 8.86094354,10.5881299" id="Fill-17" fill="#B951A8"></path>
                <path d="M7.14668168,7.05865378 C6.84878026,7.06374824 6.66428831,6.95411546 6.54738519,6.7374311 C6.29873089,6.276824 6.05081564,5.81567349 5.8108283,5.35044741 C5.64783578,5.03452297 5.75828908,4.66018206 6.04927037,4.49736312 C6.35436066,4.3265289 6.71131831,4.41476494 6.89009947,4.73197998 C7.15528145,5.2025043 7.41334174,5.67798722 7.65185099,6.16277603 C7.86194069,6.58982762 7.5610831,7.05736318 7.14668168,7.05865378" id="Fill-19" fill="#B951A8"></path>
            </g>
        </g>
    </g>
</svg>