<svg xmlns="http://www.w3.org/2000/svg" xmlns:xlink="http://www.w3.org/1999/xlink" width="22" height="23" viewBox="0 0 22 23"><defs><path id="2qxja" d="M298.9 546.34a9.94 9.94 0 1 1 0 19.87 9.94 9.94 0 0 1 0-19.87zm-.85-.96a10.3 10.3 0 0 0-7.07 3.4 10.6 10.6 0 0 0-2.96 8.12 10.86 10.86 0 0 0 10.78 10.26 10.86 10.86 0 0 0 11-10.87c0-6.1-4.93-10.93-11.75-10.91z"/><path id="2qxjb" d="M296.75 551.75c.2 0 .2 0 .2-.19v-1.64-.14h.12l.94-.01c.08 0 .11.02.11.11v1.73c0 .12.04.15.15.14h.61c.1 0 .13-.03.13-.13V549.78h1.15l.01.13v1.71c0 .12.03.15.15.16.77.1 1.52.25 2.15.74.41.32.66.73.71 1.26.05.55-.07 1.04-.41 1.46-.15.18-.35.32-.53.48l-.1.07.12.06c.67.24 1.2.64 1.43 1.33.07.2.1.42.1.63.03.48-.03.96-.23 1.4a2.37 2.37 0 0 1-1.61 1.35c-.53.16-1.07.2-1.61.18-.17 0-.17 0-.17.17v1.84H299v-.15-1.73c0-.1-.02-.13-.12-.13h-.63c-.1 0-.13.04-.13.13v1.88h-1.17v-.16-1.72c0-.1-.04-.13-.13-.13h-2.22v-1.21h.89c.35-.01.53-.19.53-.55v-5.58c0-.24-.16-.42-.43-.43l-.94-.02h-.16v-1.2zm2.49 12.34a7.55 7.55 0 0 0 5.36-2.48 7.8 7.8 0 0 0-6.1-13.15 7.78 7.78 0 0 0-7.43 7.86c.02 4.33 3.52 7.76 8.17 7.77z"/><path id="2qxjc" d="M298.14 556.71h1.8c.38.02.75.12 1.09.32.3.2.47.47.46.84 0 .47-.14.88-.54 1.16-.25.18-.53.3-.83.31-.63.04-1.27.04-1.9.06-.1 0-.09-.06-.09-.13v-2.44l.01-.12"/><path id="2qxjd" d="M298.14 555.5v-2.45c.37 0 .74-.02 1.1 0 .28.02.55.06.82.12.3.09.58.24.74.55.22.43.06 1.17-.32 1.48a1.3 1.3 0 0 1-.88.3h-1.3z"/></defs><g><g transform="translate(-288 -545)"><g><use fill="#fff" xlink:href="#2qxja"/></g><g><use fill="#fff" xlink:href="#2qxjb"/></g><g><use fill="#fff" xlink:href="#2qxjc"/></g><g><use fill="#fff" xlink:href="#2qxjd"/></g></g></g></svg>