<?xml version="1.0" encoding="UTF-8"?>
<svg width="22px" height="22px" viewBox="0 0 22 22" version="1.1" xmlns="http://www.w3.org/2000/svg" xmlns:xlink="http://www.w3.org/1999/xlink">
    <!-- Generator: Sketch 50.2 (55047) - http://www.bohemiancoding.com/sketch -->
    <title>Group 6 Copy</title>
    <desc>Created with Sketch.</desc>
    <defs>
        <polygon id="path-1" points="0 0 22 0 22 22 0 22"></polygon>
    </defs>
    <g id="Page-1" stroke="none" stroke-width="1" fill="none" fill-rule="evenodd">
        <g id="Updates" transform="translate(-888.000000, -565.000000)">
            <g id="Group-4" transform="translate(888.000000, 565.000000)">
                <g id="Group-6-Copy">
                    <mask id="mask-2" fill="white">
                        <use xlink:href="#path-1"></use>
                    </mask>
                    <g id="Clip-5"></g>
                    <path d="M4.79304456,5.61115919 C4.81406384,5.62888909 4.81993688,5.638144 4.82658268,5.63871593 C4.86491197,5.64214752 4.90334429,5.64474721 4.94177662,5.64537114 C5.71068067,5.65795365 6.44367677,5.83171709 7.14215591,6.1527271 C7.80184209,6.45595522 8.37477221,6.88157686 8.85842187,7.42621241 C8.94455973,7.52323293 8.98907116,7.51148232 9.0786092,7.42527652 C9.34768698,7.1660352 9.62732592,6.9175566 9.90974683,6.67297754 C9.98913585,6.60424168 10.014122,6.55885105 9.95049745,6.46141458 C9.70553003,6.08643495 9.42120297,5.74821497 9.07304527,5.46760418 C8.52036168,5.02212089 7.89807746,4.74832129 7.18579153,4.70277468 C6.76174803,4.67568589 6.34610194,4.72409216 5.94524148,4.86728321 C5.50764878,5.02362871 5.12265582,5.26643998 4.79304456,5.61115919 M10.9761665,4.6857207 C11.3236545,4.38535224 11.6592933,4.09777427 11.9896774,3.80406103 C12.0131695,3.7831595 12.0168273,3.7045968 11.9970959,3.67506429 C11.8823657,3.50306864 11.7675839,3.32930521 11.6349254,3.17150388 C11.0691562,2.49849552 10.3655768,2.04417328 9.49513109,1.90992516 C8.58208007,1.76912582 7.75104548,1.99795075 7.02335572,2.58080178 C6.94293634,2.64522215 6.87354179,2.72352489 6.79904696,2.79538039 C6.80280777,2.80577916 6.80656857,2.81617792 6.81038089,2.82657669 C8.49109953,2.79901996 9.8623504,3.47176835 10.9761665,4.6857207 M17.8480822,9.60985002 C17.8816204,9.55946798 17.9062459,9.53705863 17.9129432,9.51012582 C17.9864077,9.21313696 18.0900101,8.91895577 18.1216936,8.61718348 C18.1869152,7.99611697 18.1316881,7.37624632 17.9110371,6.78928778 C17.4402669,5.53665201 16.5546749,4.79943124 15.2145923,4.67688174 C14.4198778,4.60419435 13.6994006,4.84549779 13.0404871,5.28302602 C12.9164321,5.36538427 12.8128812,5.4792508 12.6999026,5.57855905 C13.9360221,5.55084633 15.0398437,5.87845956 16.0030216,6.63569795 C16.9639843,7.39122055 17.551597,8.39340196 17.8480822,9.60985002 M14.6786005,2.77957426 C17.3956524,2.85662914 19.0974934,4.19697853 19.8493965,6.81720848 C20.0058048,6.47664877 20.1041008,6.14310824 20.1303234,5.80150866 C20.2041485,4.83983046 20.0369731,3.92983414 19.4657945,3.12938886 C18.9689048,2.43313925 18.2874781,2.02841914 17.4525281,1.9062336 C16.666108,1.79111922 15.924766,1.95209217 15.2458637,2.37261841 C15.0486018,2.49485595 14.8672589,2.64319439 14.6786005,2.77957426 M9.00081723,11.1030093 C8.9559967,11.0259025 8.93168027,10.9862311 8.90942455,10.945468 C8.59964766,10.3780071 8.32557265,9.78683707 7.97339657,9.24760888 C7.18182466,8.0355803 6.08820354,7.36340384 4.60217089,7.5158498 C3.64429933,7.61417017 2.90208153,8.09344946 2.36845954,8.89831421 C2.0599706,9.36355516 1.90335631,9.88411756 1.83463149,10.4374361 C1.77090389,10.9505114 1.78460764,11.4575034 1.91984203,11.9565923 C2.07800185,12.5403792 2.33821856,13.0795034 2.65314723,13.5922668 C3.32437342,14.6851774 4.16756623,15.635417 5.07304412,16.530959 C6.25455471,17.6996247 7.53595842,18.7485486 8.87908053,19.7218214 C8.94512643,19.7697078 8.9949442,19.7713716 9.06088706,19.7214055 C9.33506511,19.5136381 9.61532226,19.3140337 9.88846995,19.1050184 C11.3027382,18.0227665 12.6417389,16.8553486 13.8330379,15.5234742 C14.5824682,14.6856454 15.2546217,13.7914552 15.7382198,12.7661365 C15.9340392,12.3508617 16.0782892,11.9199887 16.1392864,11.4600511 C16.1983258,11.0151917 16.1571631,10.5796913 16.074786,10.1437748 C15.9460429,9.46301939 15.6624886,8.85453539 15.1679171,8.37452819 C14.2750611,7.50794674 13.207405,7.30563868 12.0347555,7.63491571 C11.1760558,7.87601118 10.5468682,8.44560378 10.0634761,9.17424556 C9.78579486,9.59274404 9.56771976,10.0515897 9.32486457,10.4934335 C9.21956206,10.6849788 9.11946286,10.8795398 9.00081723,11.1030093 M9.02384572,0.00929006949 C10.5350706,0.0346630671 11.7934458,0.636387864 12.8399796,1.71999164 C13.0283804,1.91507255 12.9855691,1.9104451 13.1618632,1.72243535 C13.8265982,1.01339525 14.616676,0.509314901 15.5452339,0.226156407 C16.3283569,-0.012703328 17.1267807,-0.0695845971 17.9239681,0.0901924961 C19.5730032,0.420665391 20.7691449,1.36102612 21.4785458,2.90539937 C21.9000134,3.82293479 22.0510638,4.79885931 21.9851724,5.80239256 C21.9280906,6.67256159 21.6456697,7.48314567 21.2554735,8.25671014 C20.7447769,9.26923832 20.071387,10.167432 19.3581737,11.0406167 C19.1534933,11.291279 19.0074917,11.5910236 18.8368645,11.8697106 C18.4572294,12.4894253 18.0258704,13.0711324 17.5523182,13.6197715 C17.3316672,13.8753733 17.142133,14.1467292 16.9729484,14.4402864 C16.2497407,15.694794 15.3179887,16.7834931 14.3053021,17.8057442 C13.2539256,18.8668866 12.1219237,19.8340242 10.9208879,20.7165677 C10.3363147,21.1461409 9.72464316,21.5383305 9.1238934,21.9454423 C9.06294777,21.9867774 9.00653572,22.0307122 8.91725527,21.9703994 C7.6838662,21.13725 6.47773007,20.2675489 5.34794342,19.2938081 C4.29306373,18.3844877 3.28913521,17.4231215 2.39617615,16.3489286 C1.73870523,15.5579982 1.15098949,14.7191814 0.698095992,13.7898434 C0.399807587,13.1777718 0.177198917,12.5395993 0.0649415011,11.8654471 C-0.0392791283,11.2394932 -0.00852296625,10.615359 0.0897215915,9.99086093 C0.191469364,9.34390149 0.395325533,8.73468958 0.711336082,8.16270526 C1.03981395,7.56810362 1.47333674,7.06381529 2.01231658,6.65821129 C2.16769445,6.54127713 2.25269891,6.40474128 2.31039892,6.22687033 C2.63192188,5.23534766 3.20067904,4.41998014 4.04619015,3.81425182 C4.20131043,3.70319296 4.26132873,3.5583381 4.31722561,3.39434951 C4.7366325,2.16360315 5.50352735,1.22417831 6.64006285,0.603423764 C7.38171395,0.198339699 8.1785922,0.00351875242 9.02384572,0.00929006949" id="Fill-4" fill="#A84CA4" mask="url(#mask-2)"></path>
                </g>
            </g>
        </g>
    </g>
</svg>