<?xml version="1.0" encoding="UTF-8"?>
<svg width="100px" height="100px" viewBox="0 0 100 100" version="1.1" xmlns="http://www.w3.org/2000/svg" xmlns:xlink="http://www.w3.org/1999/xlink">
    <!-- Generator: Sketch 50.2 (55047) - http://www.bohemiancoding.com/sketch -->
    <title>Group 28</title>
    <desc>Created with Sketch.</desc>
    <defs>
        <radialGradient cx="10.0307651%" cy="94.0695064%" fx="10.0307651%" fy="94.0695064%" r="257.913822%" id="radialGradient-1">
            <stop stop-color="#DD669B" offset="0%"></stop>
            <stop stop-color="#421C75" offset="100%"></stop>
        </radialGradient>
    </defs>
    <g id="Page-1" stroke="none" stroke-width="1" fill="none" fill-rule="evenodd">
        <g id="Updates" transform="translate(-290.000000, -523.000000)">
            <g id="Group-28" transform="translate(290.000000, 523.000000)">
                <circle id="Oval-11" fill="url(#radialGradient-1)" cx="50" cy="50" r="50"></circle>
                <g id="Group" transform="translate(28.000000, 31.000000)" fill="#FAFAFA">
                    <path d="M37.2036831,18 C37.2984882,18.0400825 37.3357648,18.0470436 37.3616916,18.0682637 C38.1676463,18.7270981 39.0823153,19.1579003 40.0930135,19.3779609 C40.2904128,19.4209625 40.3336983,19.5144883 40.333587,19.7041221 C40.3284684,26.0475926 40.3296924,32.3910631 40.3269106,38.7344214 C40.3264655,39.7254799 39.6400186,40.3918367 38.6185269,40.3930718 C35.3360669,40.3971137 32.0536068,40.3967769 28.7710355,40.3966646 C21.7794924,40.3965523 14.7879494,40.3949805 7.79640626,40.3957664 C7.40961922,40.3957664 7.0382992,40.3450177 6.71037589,40.120017 C6.18627721,39.7606222 5.99967138,39.2434799 6.00122921,38.6229315 C6.00723798,36.4149156 6.00300959,34.2068997 6.00334341,31.9988838 C6.00401105,27.9477483 6.00835072,23.8965005 6.0000052,19.8453651 C5.99933756,19.5558058 6.06265224,19.4134401 6.3650939,19.3547198 C7.31715085,19.1698016 8.16494444,18.7418062 8.93785089,18.156737 C8.97256826,18.1304645 9.01618751,18.1159809 9.10231328,18.0724179 C9.1148872,18.2256744 9.13369244,18.3481673 9.13380371,18.4705479 C9.13536154,21.6141581 9.13491645,24.7577682 9.13513899,27.9013784 C9.13525027,28.3023153 9.13591791,28.3013048 9.5292701,28.3013048 C18.6163177,28.3016416 27.7034766,28.302203 36.7906354,28.3028766 C37.2067987,28.3029889 37.205686,28.3036626 37.2055747,27.8697166 C37.2045732,24.7166753 37.2042394,21.5637462 37.2036831,18.4107049 L37.2036831,18 Z" id="Fill-1"></path>
                    <path d="M36.4652181,12.7718578 C35.9895453,14.9323254 34.7927234,16.3374249 32.7260838,16.7962376 C31.4752818,17.0740755 30.2893898,16.7778711 29.2381138,15.9877585 C28.2050171,15.2113332 27.614469,14.1320352 27.3415565,12.8350294 C26.677176,15.3717188 25.1998577,16.9155617 22.6426004,16.8473598 C20.1964263,16.7820825 18.798517,15.2417491 18.2245867,12.7696351 C17.4620603,15.6531832 15.7518687,17.1405227 12.8552274,16.7996302 C11.8719844,16.6838156 11.0400867,16.1467403 10.3541809,15.3864588 C9.67898201,14.6381097 9.28528327,13.7454018 9.12668848,12.6725381 C8.98002733,13.1435172 8.87485512,13.5608005 8.72217139,13.9579625 C8.00046472,15.8360298 6.11082231,17.018274 4.1927399,16.8658433 C2.30800478,16.7161033 0.700085595,15.3349857 0.157160536,13.4203022 C0.0991652542,13.2156965 0.0672678494,13.002668 0.0280095049,12.792564 C-0.0551914183,12.3463856 0.0441812661,11.9942626 0.363489903,11.6395659 C2.2883756,9.50109138 4.18426366,7.33383867 6.10134231,5.18752616 C6.20249946,5.07428528 6.40782507,5.01251752 6.56474691,5.01228356 C12.0103923,5.00350973 17.4560377,5.00514751 22.9017947,5.00479656 C28.263793,5.00467957 33.6257914,5.00467957 38.9877898,5.0000002 C39.1962382,4.99988321 39.3490335,5.05217523 39.4980367,5.22156862 C41.3679384,7.34729187 43.2321522,9.47898133 45.1329475,11.5741717 C45.5102514,11.9899342 45.6101818,12.3951681 45.5055672,12.9094314 C45.1205678,14.800718 44.0715223,16.1066147 42.309358,16.6804231 C40.265582,17.3458303 38.1226563,16.4154534 37.054874,14.4565499 C36.8465371,14.0742449 36.7347846,13.6333308 36.5856698,13.2166324 C36.5342548,13.0728586 36.5046995,12.920428 36.4652181,12.7718578" id="Fill-3"></path>
                    <path d="M40.3322071,3.42846821 C37.4982504,3.42610283 34.6599448,3.42196341 31.8216391,3.4216086 C23.5243928,3.42078071 15.2272581,3.42066244 6.93001181,3.42480187 C6.68245598,3.42492014 6.43534619,3.48429127 6.18712129,3.49931145 C6.12367117,3.50321434 5.99911267,3.44135955 6.00000477,3.41321149 C6.02509488,2.62979639 5.96376348,1.82272745 6.12623594,1.07053542 C6.28725874,0.32579434 6.91484622,0.00942426301 7.62997034,0.00599445657 C9.53470059,-0.00323054008 11.4394308,0.000908881494 13.3441611,0.00102715068 C21.7806854,0.00138195824 30.2172097,0.00268291931 38.653734,0.00197330418 C39.3415378,0.001855035 39.880139,0.271390514 40.2051954,0.938192194 C40.2600591,1.05054792 40.3247359,1.17567672 40.3265201,1.29583822 C40.3377827,2.02851584 40.3322071,2.76142999 40.3322071,3.42846821" id="Fill-6"></path>
                </g>
            </g>
        </g>
    </g>
</svg>