<svg xmlns="http://www.w3.org/2000/svg" xmlns:xlink="http://www.w3.org/1999/xlink" width="60" height="72" viewBox="0 0 60 72"><defs><path id="bst9a" d="M1170.25 382.48c0 2.28-1.73 4.13-3.85 4.13s-3.85-1.84-3.85-4.13v-63.35c0-2.28 1.73-4.13 3.85-4.13s3.85 1.85 3.85 4.13v63.35m-12.82 0c0 2.28-1.72 4.13-3.84 4.13s-3.84-1.84-3.84-4.13V332.9c0-2.28 1.72-4.13 3.84-4.13s3.84 1.85 3.84 4.13v49.58m-12.8 0c0 2.28-1.72 4.13-3.84 4.13s-3.84-1.84-3.84-4.13v-35.8c0-2.28 1.72-4.14 3.84-4.14s3.84 1.85 3.84 4.14v35.8m-12.8 0c0 2.27-1.72 4.12-3.84 4.12s-3.85-1.84-3.85-4.12v-22.03c0-2.28 1.73-4.13 3.85-4.13s3.85 1.84 3.85 4.13v22.03m-12.82 0c0 2.28-1.72 4.13-3.84 4.13s-3.84-1.84-3.84-4.13v-8.26c0-2.28 1.72-4.13 3.84-4.13s3.84 1.85 3.84 4.13v8.26"/><linearGradient id="bst9b" x1="1170.24" x2="1096.09" y1="320.21" y2="405.43" gradientUnits="userSpaceOnUse"><stop offset="0" stop-color="#d75f9e"/><stop offset="1" stop-color="#7021ae"/></linearGradient></defs><g><g transform="translate(-1111 -315)"><use fill="url(#bst9b)" xlink:href="#bst9a"/></g></g></svg>