<?xml version="1.0" encoding="UTF-8"?>
<svg width="99px" height="99px" viewBox="0 0 99 99" version="1.1" xmlns="http://www.w3.org/2000/svg" xmlns:xlink="http://www.w3.org/1999/xlink">
    <!-- Generator: Sketch 50.2 (55047) - http://www.bohemiancoding.com/sketch -->
    <title>Group 2 Copy 3</title>
    <desc>Created with Sketch.</desc>
    <defs>
        <radialGradient cx="104.61024%" cy="15.4223953%" fx="104.61024%" fy="15.4223953%" r="230.485597%" id="radialGradient-1">
            <stop stop-color="#DD669B" offset="0%"></stop>
            <stop stop-color="#652CB0" offset="100%"></stop>
        </radialGradient>
    </defs>
    <g id="Page-1" stroke="none" stroke-width="1" fill="none" fill-rule="evenodd">
        <g id="Updates" transform="translate(-1098.000000, -524.000000)">
            <g id="Group-2-Copy-3" transform="translate(1098.000000, 524.000000)">
                <g id="Group-43-Copy">
                    <g id="Group-38" fill="url(#radialGradient-1)">
                        <circle id="Oval-11" cx="49.5" cy="49.5" r="49.5"></circle>
                    </g>
                    <g id="Group" transform="translate(18.000000, 34.000000)" fill="#FFFFFF">
                        <path d="M3.67191842,0.108477646 C4.373039,0.108477646 5.73423353,0.331648823 5.7353429,1.15608215 C5.7353429,1.49300563 5.49682878,1.78442819 5.14072165,1.78442819 C4.74800538,1.78442819 4.47953832,1.45725491 3.67302779,1.45725491 C2.48489467,1.45833826 1.87141416,2.44202481 1.87252353,3.58496458 C1.87252353,4.69973711 2.49709771,5.65417307 3.67746526,5.65308971 C4.48175706,5.65308971 4.80791125,5.25983176 5.20173689,5.25874841 C5.63328104,5.25874841 5.83518602,5.68017359 5.83518602,5.89576128 C5.83518602,6.79494612 4.38857015,7.00078362 3.67857463,7.00186697 C1.7316338,7.00403368 0.377095473,5.49708656 0.375986105,3.55896405 C0.373767369,1.61000799 1.71499328,0.110644356 3.67191842,0.108477646" id="Fill-4"></path>
                        <path d="M7.26970977,0.89239349 C7.26970977,0.424384031 7.57589534,0.162212065 7.98858023,0.16112871 C8.40126513,0.16112871 8.70856006,0.42221732 8.70856006,0.891310135 L8.7107788,2.87710027 L11.7216035,2.87493356 L11.7204942,0.889143424 C11.7193848,0.42005061 12.0266797,0.157878644 12.4382553,0.157878644 C12.8509402,0.157878644 13.1582351,0.418967255 13.1593445,0.888060069 L13.1626726,6.2084176 C13.1626726,6.67642706 12.856487,6.93859903 12.4438021,6.93968238 C12.0322266,6.93968238 11.7249316,6.67751042 11.7249316,6.20950096 L11.7227129,4.16737635 L8.7107788,4.16954306 L8.71299753,6.21166767 C8.71299753,6.67967713 8.4057026,6.94184909 7.99412707,6.94293245 C7.58144218,6.94293245 7.27414724,6.68184384 7.27414724,6.21275102 L7.26970977,0.89239349 Z" id="Fill-6"></path>
                        <path d="M16.4805704,4.27582021 L18.303262,4.27473685 L17.408002,1.55876529 L17.3891428,1.55876529 L16.4805704,4.27582021 Z M16.3718523,0.876251497 C16.5349294,0.446159471 16.9087864,0.0994857973 17.3969083,0.0984024421 C17.9061082,0.0984024421 18.2599966,0.424492366 18.4241831,0.874084786 L20.30789,5.96802108 C20.3666865,6.1175241 20.3855457,6.24969344 20.3855457,6.31469475 C20.3866551,6.68086882 20.0793602,6.93329059 19.7243624,6.93329059 C19.3216618,6.93437394 19.1197568,6.72853645 19.0232418,6.44794744 L18.7348061,5.56717964 L16.0689948,5.56934635 L15.7816685,6.44036396 C15.6862629,6.73178651 15.4854673,6.93654065 15.0916416,6.93762401 C14.7078003,6.93762401 14.3816461,6.657035 14.3805368,6.28327745 C14.3805368,6.13269107 14.4282396,6.02002213 14.4482082,5.9723545 L16.3718523,0.876251497 Z" id="Fill-8"></path>
                        <path d="M23.0392649,3.15649758 L24.0277118,3.15649758 C24.5546616,3.15541423 24.9185343,2.84665799 24.9185343,2.3212307 C24.9174249,1.78713657 24.5535522,1.49788073 24.0266024,1.49788073 L23.0381555,1.49896408 L23.0392649,3.15649758 Z M21.5981959,0.937786074 C21.5981959,0.488193654 21.857788,0.206521294 22.337035,0.206521294 L24.0254931,0.205437939 C25.5020619,0.204354584 26.4139623,0.8500343 26.4150717,2.3212307 C26.4150717,3.35041817 25.6196549,3.94193013 24.6411923,4.09143315 L26.274182,5.79555092 C26.4084155,5.93530375 26.4661026,6.07613993 26.4661026,6.20722591 C26.4661026,6.57231662 26.168792,6.92874049 25.7472322,6.92874049 C25.5741708,6.92874049 25.3445316,6.86373918 25.1903294,6.68606892 L23.0592335,4.16835137 L23.0403743,4.16835137 L23.0414836,6.20072578 C23.042593,6.66873524 22.7364074,6.9309072 22.3226132,6.9309072 C21.9099283,6.93199056 21.6037427,6.66981859 21.6026333,6.20289249 L21.5981959,0.937786074 Z" id="Fill-10"></path>
                        <path d="M27.6988324,0.876576504 C27.697723,0.408567044 28.0050179,0.146395079 28.4177028,0.146395079 C28.8303877,0.145311724 29.1365733,0.407483689 29.1376827,0.875493148 L29.1421201,6.19585068 C29.1421201,6.66386014 28.8348252,6.92711546 28.4232497,6.92711546 C28.0105648,6.92711546 27.7032698,6.6649435 27.7032698,6.19693404 L27.6988324,0.876576504 Z" id="Fill-12"></path>
                        <path d="M31.9196448,1.49235562 L30.8746201,1.49235562 C30.4142324,1.49343897 30.2223117,1.16518234 30.2212024,0.846675899 C30.2212024,0.51950262 30.4608259,0.200996182 30.8735108,0.200996182 L34.4024104,0.197746117 C34.8150952,0.197746117 35.0547187,0.516252554 35.0547187,0.843425833 C35.0547187,1.16193227 34.8639074,1.48910555 34.4035197,1.49018891 L33.3584951,1.49127226 L33.3618232,6.19303396 C33.3629325,6.66104342 33.0556376,6.92429874 32.6429527,6.92429874 C32.2302678,6.92429874 31.9240823,6.66104342 31.9229729,6.19411731 L31.9196448,1.49235562 Z" id="Fill-14"></path>
                        <path d="M37.5606701,3.73522595 L35.7457441,1.24567563 C35.6592134,1.12433984 35.6115105,0.973753468 35.6115105,0.823167091 C35.6115105,0.449409536 35.8988368,0.140653296 36.3015374,0.140653296 C36.5511452,0.139569941 36.7708001,0.242488688 36.8961587,0.420158945 L38.2784312,2.37669849 L39.6595944,0.417992235 C39.7827342,0.240321977 40.0034984,0.13740323 40.2531062,0.13740323 C40.6558068,0.136319875 40.9442425,0.445076116 40.9442425,0.819917025 C40.9442425,0.969420047 40.8965397,1.12000642 40.8111183,1.24134221 L38.9995204,3.73414259 L39.0017391,6.23560982 C39.0017391,6.58120014 38.7909592,6.91812361 38.2817593,6.91920697 C37.7736688,6.91920697 37.5628888,6.58336685 37.5628888,6.23669317 L37.5606701,3.73522595 Z" id="Fill-16"></path>
                        <path d="M2.09450807,17.6346735 L3.22717279,17.6335902 C3.74413828,17.6335902 4.12797961,17.3421676 4.12687024,16.8178237 C4.12687024,16.3779815 3.78185679,16.0778921 3.10957978,16.0789754 L2.0933987,16.0800588 L2.09450807,17.6346735 Z M2.09228933,14.8439505 L2.84111273,14.8439505 C3.31037539,14.8428671 3.61656096,14.570945 3.61656096,14.1029355 C3.61656096,13.6630933 3.2615632,13.4377554 2.84000336,13.4388387 L2.09117996,13.4388349 L2.09228933,14.8439505 Z M0.651220305,12.9069113 C0.651220305,12.4573189 0.967390184,12.2027304 1.40891865,12.2027304 L3.25046952,12.2016471 C4.24779135,12.2005637 5.05430188,12.8559936 5.05541125,13.848347 C5.05541125,14.5037769 4.77806925,14.9457859 4.16347938,15.2263749 L4.16458875,15.2447919 C4.97997423,15.3563775 5.62340766,16.0215576 5.62340766,16.8362407 C5.62451703,18.1568508 4.72371022,18.8696985 3.4002342,18.8707819 L1.4244498,18.8718652 C0.982921336,18.8729486 0.656767145,18.6010264 0.655657777,18.1601008 L0.651220305,12.9069113 Z" id="Fill-18"></path>
                        <path d="M6.92414164,12.8727856 C6.92414164,12.4047762 7.23032721,12.1426042 7.6430121,12.1415209 C8.055697,12.1415209 8.36299193,12.4036928 8.36299193,12.8717023 L8.3674294,17.5745473 L10.0747468,17.5723806 C10.5628687,17.5723806 10.7836329,17.9277211 10.765883,18.2462276 C10.7558987,18.5549838 10.497416,18.8648234 10.0758561,18.8648234 L7.67740251,18.8669901 C7.20703048,18.8669901 6.92857911,18.5679841 6.92857911,18.0988913 L6.92414164,12.8727856 Z" id="Fill-20"></path>
                        <path d="M16.6138055,15.5262476 C16.6126961,14.3919747 16.0069812,13.3725374 14.8088637,13.3736208 C13.6096369,13.3747041 13.0061407,14.3952247 13.0072501,15.5284143 C13.0083595,16.6713541 13.5941058,17.6821245 14.8121918,17.6810411 C16.0302779,17.6799578 16.6149148,16.6691874 16.6138055,15.5262476 M11.5107127,15.5294977 C11.5096033,13.581625 12.8508292,12.081178 14.8077544,12.0800946 C16.7347266,12.0779279 18.1092335,13.6227925 18.1103429,15.5240809 C18.1114523,17.4632867 16.7791013,18.9724006 14.8133012,18.9745673 C12.8663604,18.9756506 11.5129314,17.4687035 11.5107127,15.5294977" id="Fill-22"></path>
                        <path d="M22.4996683,12.0740278 C23.1996795,12.0740278 24.5619834,12.297199 24.5619834,13.1216323 C24.5619834,13.4585558 24.3234693,13.7499784 23.9684715,13.7499784 C23.5757553,13.7499784 23.3072882,13.4228051 22.5007777,13.4228051 C21.3115352,13.4238884 20.6980547,14.407575 20.6991641,15.5505148 C20.7002734,16.6652873 21.3237382,17.6197232 22.5041058,17.6186399 C23.3095069,17.6186399 23.6345518,17.2253819 24.0283774,17.2242986 C24.4610309,17.2242986 24.6618265,17.6457238 24.6618265,17.8613115 C24.6629359,18.7604963 23.2152107,18.9674171 22.5052152,18.9674171 C20.5582743,18.9685005 19.2048454,17.4626367 19.2026266,15.5245142 C19.2015173,13.5755582 20.5427432,12.0761945 22.4996683,12.0740278" id="Fill-24"></path>
                        <path d="M26.0964612,12.8210013 C26.0964612,12.4374935 26.3837875,12.1276539 26.8153317,12.1265705 C27.229126,12.1265705 27.5353115,12.3898259 27.5353115,12.8199179 L27.5375303,14.8425421 L29.8949372,12.3876592 C30.0003272,12.2749902 30.1822636,12.1244038 30.4507306,12.1244038 C30.8157127,12.1233205 31.1607261,12.3952426 31.1607261,12.7982508 C31.1607261,13.0420057 31.0076333,13.2391764 30.6914635,13.5479326 L28.8809749,15.2910512 L31.0974922,17.5465968 C31.3182564,17.7708513 31.5013021,17.9777721 31.5013021,18.2594445 C31.5013021,18.6992867 31.1474137,18.9051242 30.7535881,18.9051242 C30.4751367,18.9051242 30.2932004,18.7469544 30.0247333,18.465282 L27.5386396,15.8446457 L27.539749,18.233444 C27.5408584,18.5985347 27.2524227,18.9072909 26.8208785,18.9083743 C26.4081936,18.9083743 26.1020081,18.6462023 26.1008987,18.2345273 L26.0964612,12.8210013 Z" id="Fill-26"></path>
                        <path d="M35.7547299,12.0644943 C36.4547411,12.0634109 37.817045,12.2876655 37.817045,13.1120988 C37.817045,13.4479389 37.5785309,13.7393615 37.2235332,13.7393615 C36.8308169,13.7404448 36.5623498,13.4121882 35.7558393,13.4121882 C34.5665968,13.4132716 33.9531163,14.3969581 33.9542257,15.5398979 C33.9553351,16.6546704 34.5787999,17.6101897 35.7591674,17.6091064 C36.5645686,17.608023 36.8896134,17.2147651 37.283439,17.2147651 C37.7160926,17.2136817 37.9168882,17.6361902 37.9168882,17.8506946 C37.9179975,18.7498794 36.4702723,18.9568003 35.7602768,18.9568003 C33.8133359,18.958967 32.459907,17.4520199 32.4576883,15.5138973 C32.4565789,13.5649413 33.7978048,12.0655777 35.7547299,12.0644943" id="Fill-28"></path>
                        <path d="M39.3515229,12.8485185 C39.3515229,12.3794257 39.6577084,12.1172537 40.0703933,12.1172537 C40.4841876,12.1161703 40.7903732,12.3783423 40.7903732,12.8474351 L40.7925919,14.8332253 L43.804526,14.8299752 L43.8023073,12.8441851 C43.8023073,12.3761756 44.1084928,12.1140036 44.5211777,12.1129203 C44.9327532,12.1129203 45.2411576,12.3750922 45.2411576,12.8431017 L45.2444857,18.1634592 C45.245595,18.632552 44.9383001,18.894724 44.5267246,18.894724 C44.1140397,18.894724 43.8078541,18.6336354 43.8067447,18.1645426 L43.8056354,16.122418 L40.7937013,16.1245847 L40.7948106,18.1667093 C40.79592,18.6358021 40.4886251,18.8979741 40.0759402,18.8979741 C39.6632553,18.8979741 39.3570697,18.6368855 39.3559603,18.1677927 L39.3515229,12.8485185 Z" id="Fill-30"></path>
                        <path d="M48.5622725,16.2318369 L50.3849641,16.2296701 L49.4908135,13.5147819 L49.4708449,13.5147819 L48.5622725,16.2318369 Z M48.4535545,12.8311848 C48.6166316,12.4010928 48.9904886,12.0544191 49.4797199,12.0533357 C49.9878104,12.0533357 50.3428082,12.380509 50.5069946,12.8301014 L52.3907015,17.9240377 C52.4483886,18.0735407 52.4683572,18.2046267 52.4683572,18.2707114 C52.4683572,18.6358021 52.1610623,18.8882239 51.8060645,18.8893072 C51.403364,18.8893072 51.201459,18.6834697 51.104944,18.4028807 L50.8165083,17.5221129 L48.150697,17.5242796 L47.8633707,18.3952973 C47.767965,18.6867198 47.5671694,18.8925573 47.1733438,18.8925573 C46.7895025,18.8925573 46.4633483,18.6119683 46.4633483,18.2382107 C46.4622389,18.0876244 46.5110511,17.9749554 46.5299104,17.9283711 L48.4535545,12.8311848 Z" id="Fill-32"></path>
                        <path d="M53.6812293,12.8368182 C53.6801199,12.3677254 53.9863055,12.1066368 54.3989904,12.1055535 C54.8127846,12.1055535 55.1189702,12.3666421 55.1200796,12.8357349 L55.124517,18.1560924 C55.124517,18.6241019 54.8172221,18.8862738 54.4045372,18.8873572 C53.9929617,18.8873572 53.6856667,18.6251852 53.6856667,18.1571758 L53.6812293,12.8368182 Z" id="Fill-34"></path>
                        <path d="M56.6929415,12.8347599 C56.6918321,12.365667 56.9980177,12.1034951 57.4107026,12.1034951 C57.5937483,12.1034951 57.8910589,12.2432479 58.0153082,12.4122513 L61.0594139,16.3719147 L61.0782732,16.3719147 L61.0749451,12.8315098 C61.0749451,12.362417 61.38224,12.100245 61.7949249,12.100245 C62.2076098,12.100245 62.5137954,12.3613336 62.5137954,12.8304264 L62.5182329,18.1497006 C62.5193422,18.6187934 62.2131567,18.8809654 61.8004718,18.8809654 C61.617426,18.8809654 61.3300997,18.7412126 61.1958662,18.5732925 L58.1517604,14.6602134 L58.1329012,14.6602134 L58.1362293,18.154034 C58.1362293,18.6220435 57.8289343,18.8842155 57.4162494,18.8852988 C57.0035645,18.8852988 56.697379,18.6231269 56.6962696,18.1551174 L56.6929415,12.8347599 Z" id="Fill-36"></path>
                        <path d="M2.35232519,28.247113 L4.17501681,28.2460297 L3.2808662,25.5300581 L3.26089758,25.5300581 L2.35232519,28.247113 Z M2.24360713,24.8475443 C2.40668422,24.4163689 2.78054124,24.0696953 3.26977252,24.0696953 C3.77786307,24.0696953 4.13286082,24.3957852 4.29704729,24.8453776 L6.18075415,29.9393139 C6.23844128,30.0888169 6.25840991,30.2199029 6.25840991,30.2859876 C6.25840991,30.6510783 5.95111497,30.9045834 5.59611721,30.9045834 C5.194526,30.9045834 4.99151165,30.6998293 4.89610601,30.4181569 L4.60767033,29.5373891 L1.94185903,29.5395558 L1.65453272,30.4116568 C1.55801771,30.701996 1.35833147,30.9078335 0.963396459,30.9078335 C0.579555132,30.9089168 0.253400941,30.6272445 0.253400941,30.2534869 C0.253400941,30.1039839 0.301103765,29.9902316 0.319963021,29.9436473 L2.24360713,24.8475443 Z" id="Fill-38"></path>
                        <path d="M11.5089377,24.9992141 C11.5100471,25.3653881 11.2604393,25.6936448 10.8666136,25.6936448 C10.4738974,25.6936448 10.1666024,25.4130558 9.59084043,25.4130558 C9.17815554,25.4141391 8.80429852,25.6297268 8.80540789,26.0219014 C8.80540789,26.9871709 12.0092627,26.3664084 12.010372,28.7833739 C12.0114814,30.1224009 10.8821448,30.9565845 9.55755939,30.9576678 C8.8187203,30.9587512 7.22677723,30.7919145 7.22677723,29.9111467 C7.22677723,29.5449726 7.47416629,29.2459666 7.86799193,29.2448832 C8.31839534,29.2448832 8.85532945,29.6099739 9.47990363,29.6099739 C10.1122434,29.6088906 10.4583662,29.2622169 10.4572568,28.8028743 C10.4561475,27.6978519 7.25340206,28.3651988 7.25118333,26.1930715 C7.25007396,24.8811283 8.35278575,24.0653619 9.62855894,24.0642785 C10.1654931,24.0642785 11.5089377,24.2592824 11.5089377,24.9992141" id="Fill-40"></path>
                        <path d="M17.427416,24.994989 C17.427416,25.3600797 17.1778082,25.6894197 16.7850919,25.6894197 C16.3912662,25.6894197 16.0839713,25.4088307 15.5093187,25.4088307 C15.0955244,25.4088307 14.7227768,25.6244184 14.7227768,26.0176763 C14.7227768,26.9829458 17.9266316,26.3621833 17.9288503,28.7780654 C17.9299597,30.1181759 16.7995137,30.9523594 15.4749283,30.9534427 C14.7360892,30.9545261 13.1452555,30.786606 13.1441461,29.9058382 C13.1441461,29.5407475 13.3926446,29.2406581 13.7864702,29.2406581 C14.2368736,29.2406581 14.7738077,29.6057488 15.3972725,29.6046655 C16.0296123,29.6046655 16.3757351,29.2579918 16.3746257,28.7986492 C16.3746257,27.6936269 13.170771,28.3598903 13.1696616,26.1877631 C13.1685522,24.8769033 14.2701546,24.0611368 15.5459278,24.0600534 C16.0828619,24.0600534 17.4263066,24.2550574 17.427416,24.994989" id="Fill-42"></path>
                        <path d="M24.143197,27.5002479 C24.1420876,26.365975 23.5363727,25.3465377 22.3382553,25.3476211 C21.1390285,25.3487045 20.5355323,26.3692251 20.5366416,27.5024147 C20.537751,28.6453544 21.1223879,29.6561248 22.3415834,29.6550415 C23.5596694,29.6539581 24.143197,28.6431877 24.143197,27.5002479 M19.0401042,27.5045814 C19.0378855,25.5556253 20.3802208,24.0562617 22.3371459,24.054095 C24.2641181,24.0530116 25.6375157,25.5978762 25.6397344,27.4991646 C25.6408438,29.4372871 24.3084928,30.9474843 22.3426927,30.9485676 C20.3957519,30.949651 19.0412136,29.4427039 19.0401042,27.5045814" id="Fill-44"></path>
                        <path d="M30.0291708,24.0491115 C30.729182,24.0480282 32.0903765,24.2722827 32.0914859,25.096716 C32.0914859,25.4325562 31.8529718,25.7239787 31.497974,25.7239787 C31.1052577,25.7239787 30.8356813,25.3968054 30.0302801,25.3968054 C28.8410377,25.3978888 28.2275571,26.3815753 28.2286665,27.5245151 C28.2297759,28.6392876 28.8532407,29.5937236 30.0336082,29.5937236 C30.8390094,29.5926402 31.1640542,29.1993823 31.5578799,29.1993823 C31.9905334,29.1982989 32.191329,29.6208075 32.191329,29.8353118 C32.1924384,30.7344966 30.7447131,30.9414175 30.0347176,30.9414175 C28.0877768,30.9435842 26.7332385,29.4366371 26.7321291,27.4985146 C26.7310197,25.5495585 28.0722456,24.0501949 30.0291708,24.0491115" id="Fill-46"></path>
                        <path d="M33.6258528,24.8331357 C33.6258528,24.3640429 33.9320383,24.1018709 34.3447232,24.1018709 C34.7574081,24.1007876 35.064703,24.3629595 35.064703,24.8320523 L35.0691405,30.1513265 C35.0691405,30.6204193 34.7618456,30.8825913 34.3502701,30.8825913 C33.9375852,30.8825913 33.6302902,30.6215027 33.6302902,30.1524099 L33.6258528,24.8331357 Z" id="Fill-48"></path>
                        <path d="M38.3862618,28.2197041 L40.2089534,28.2186208 L39.3136934,25.5026492 L39.2948342,25.5026492 L38.3862618,28.2197041 Z M38.2775437,24.8190521 C38.4406208,24.3889601 38.8144778,24.0422864 39.3025997,24.0422864 C39.8117996,24.041203 40.1667974,24.3683763 40.3298745,24.8179687 L42.2135814,29.911905 C42.2723779,30.061408 42.2912371,30.192494 42.2912371,30.2585787 C42.2923465,30.6236694 41.9850515,30.8771745 41.6300538,30.8771745 C41.2273532,30.8771745 41.0254482,30.6724204 40.9289332,30.390748 L40.6404975,29.5099802 L37.9746862,29.5121469 L37.6873599,30.3842479 C37.5919543,30.6745871 37.3911587,30.8804246 36.997333,30.8804246 C36.6134917,30.8804246 36.2873375,30.5998356 36.2862281,30.226078 C36.2862281,30.0754917 36.333931,29.9628227 36.3538996,29.9162384 L38.2775437,24.8190521 Z" id="Fill-50"></path>
                        <path d="M43.7737965,25.442523 L42.7287719,25.4436064 C42.2683841,25.4446897 42.0764635,25.1164331 42.0764635,24.7979267 C42.0753541,24.4707534 42.3149776,24.1522469 42.7276625,24.1522469 L46.2565621,24.1489969 C46.669247,24.1489969 46.9088705,24.4675033 46.9088705,24.7935932 C46.9099798,25.1120997 46.7180592,25.4403563 46.2576714,25.4414397 L45.2126468,25.4414397 L45.2170843,30.1442847 C45.2170843,30.6112108 44.9097893,30.8744661 44.4971044,30.8755495 C44.0844195,30.8755495 43.778234,30.6122942 43.778234,30.1453681 L43.7737965,25.442523 Z" id="Fill-52"></path>
                        <path d="M47.9934996,24.8214355 C47.9923902,24.3523427 48.2996851,24.091254 48.7112606,24.0901707 C49.1250549,24.0901707 49.4312405,24.3512593 49.4323498,24.8203521 L49.4367873,30.1407096 C49.4367873,30.6087191 49.1294924,30.8708911 48.7168075,30.8719744 C48.305232,30.8719744 47.997937,30.6098025 47.997937,30.141793 L47.9934996,24.8214355 Z" id="Fill-54"></path>
                        <path d="M55.8988559,27.4758724 C55.8977465,26.3415995 55.2920316,25.3221623 54.0939142,25.3232456 C52.8946874,25.324329 52.2911912,26.3448496 52.2923005,27.4780392 C52.2934099,28.6209789 52.8791562,29.6317494 54.0972423,29.630666 C55.3153283,29.6295826 55.8988559,28.6188122 55.8988559,27.4758724 M50.7957631,27.4791225 C50.7946537,25.5312498 52.1358797,24.0308028 54.0928048,24.0297195 C56.019777,24.0286361 57.3931746,25.5735007 57.3953933,27.4747891 C57.3965027,29.4129116 56.0641517,30.9220254 54.0983516,30.9241921 C52.1514108,30.9252755 50.7968725,29.4183284 50.7957631,27.4791225" id="Fill-56"></path>
                        <path d="M58.6972367,24.8129853 C58.6961273,24.3449758 59.0034222,24.0828039 59.4149978,24.0817205 C59.5980435,24.0817205 59.8953541,24.2225567 60.0196033,24.3904768 L63.0637091,28.3512235 L63.0825684,28.3512235 L63.0803496,24.8097352 C63.0792403,24.3406424 63.3865352,24.0784704 63.7992201,24.0784704 C64.211905,24.0784704 64.5180905,24.3395591 64.5180905,24.8086519 L64.522528,30.1290094 C64.5236374,30.5970189 64.2174518,30.8591908 63.8047669,30.8602742 C63.6217212,30.8602742 63.3343949,30.719438 63.2001614,30.5515179 L60.1560556,26.6395222 L60.1371963,26.6395222 L60.1405244,30.1322595 C60.1405244,30.6002689 59.8332295,30.8635243 59.4205446,30.8635243 C59.0089691,30.8635243 58.7016741,30.6013523 58.7016741,30.1333428 L58.6972367,24.8129853 Z" id="Fill-58"></path>
                    </g>
                </g>
            </g>
        </g>
    </g>
</svg>