<?xml version="1.0" encoding="UTF-8"?>
<svg width="126px" height="72px" viewBox="0 0 126 72" version="1.1" xmlns="http://www.w3.org/2000/svg" xmlns:xlink="http://www.w3.org/1999/xlink">
    <!-- Generator: Sketch 50.2 (55047) - http://www.bohemiancoding.com/sketch -->
    <title>Group 2</title>
    <desc>Created with Sketch.</desc>
    <defs>
        <linearGradient x1="100%" y1="7.27192276%" x2="-25.8945006%" y2="126.283948%" id="linearGradient-1">
            <stop stop-color="#D75F9E" offset="0%"></stop>
            <stop stop-color="#7021AE" offset="100%"></stop>
        </linearGradient>
    </defs>
    <g id="Page-1" stroke="none" stroke-width="1" fill="none" fill-rule="evenodd">
        <g id="Updates" transform="translate(-1111.000000, -315.000000)">
            <g id="Group-2" transform="translate(1111.000000, 315.000000)">
                <g id="if_19_171496-copy" fill="url(#linearGradient-1)" fill-rule="nonzero">
                    <path d="M8.02230542,67.4843498 L8.02230542,59.219069 C8.02230542,56.9370567 6.30294581,55.0895172 4.18154433,55.0895172 C2.06014286,55.0895172 0.340268473,56.9375714 0.340268473,59.219069 L0.340268473,67.4843498 C0.340268473,69.7663621 2.06014286,71.6139015 4.18154433,71.6139015 C6.30294581,71.6139015 8.02230542,69.764303 8.02230542,67.4843498 M20.8258719,67.4843498 L20.8258719,45.4477192 C20.8258719,43.1651921 19.1059975,41.3181675 16.9851108,41.3181675 C14.8637094,41.3181675 13.143835,43.167766 13.143835,45.4477192 L13.143835,67.4848645 C13.143835,69.7668768 14.8637094,71.6144163 16.9851108,71.6144163 C19.1059975,71.6144163 20.8258719,69.764303 20.8258719,67.4843498 M33.6294384,67.4843498 L33.6294384,31.6753399 C33.6294384,29.3933276 31.909564,27.5442438 29.7881626,27.5442438 C27.6667611,27.5442438 25.9474015,29.3959015 25.9474015,31.6753399 L25.9474015,67.4843498 C25.9474015,69.7663621 27.6667611,71.6139015 29.7881626,71.6139015 C31.909564,71.6139015 33.6294384,69.764303 33.6294384,67.4843498 M46.4324901,67.4843498 L46.4324901,17.9029606 C46.4324901,15.6214631 44.7126158,13.7723793 42.5917291,13.7723793 C40.4703276,13.7723793 38.7504532,15.6240369 38.7504532,17.9029606 L38.7504532,67.4822906 C38.7504532,69.7663621 40.4703276,71.6139015 42.5917291,71.6139015 C44.7126158,71.6139015 46.4324901,69.764303 46.4324901,67.4843498 M59.2360567,67.4843498 L59.2360567,4.13109606 C59.2360567,1.84908374 57.5156675,0 55.3952956,0 C53.2738941,0 51.5535049,1.85165764 51.5535049,4.13109606 L51.5535049,67.4822906 C51.5535049,69.7663621 53.2738941,71.6139015 55.3952956,71.6139015 C57.5156675,71.6144163 59.2360567,69.764303 59.2360567,67.4843498" id="Shape"></path>
                </g>
                <text id="Growth-of-demand-of" font-family="MuseoSansCyrl-500, Museo Sans Cyrl" font-size="11" font-weight="normal" line-spacing="13" fill="#BC006D">
                    <tspan x="71" y="18">Growth</tspan>
                    <tspan x="71" y="31">of demand </tspan>
                    <tspan x="71" y="44">of Chek </tspan>
                    <tspan x="71" y="57">tokens</tspan>
                </text>
            </g>
        </g>
    </g>
</svg>