<?xml version="1.0" encoding="UTF-8"?>
<svg width="99px" height="100px" viewBox="0 0 99 100" version="1.1" xmlns="http://www.w3.org/2000/svg" xmlns:xlink="http://www.w3.org/1999/xlink">
    <!-- Generator: Sketch 50.2 (55047) - http://www.bohemiancoding.com/sketch -->
    <title>Group 20</title>
    <desc>Created with Sketch.</desc>
    <defs>
        <radialGradient cx="0%" cy="0%" fx="0%" fy="0%" r="279.94999%" gradientTransform="translate(0.000000,0.000000),scale(1.000000,0.999153),rotate(90.000000),translate(-0.000000,-0.000000)" id="radialGradient-1">
            <stop stop-color="#DD669B" offset="0%"></stop>
            <stop stop-color="#573388" offset="100%"></stop>
        </radialGradient>
    </defs>
    <g id="Page-1" stroke="none" stroke-width="1" fill="none" fill-rule="evenodd">
        <g id="Updates" transform="translate(-291.000000, -318.000000)">
            <g id="Group-20" transform="translate(291.000000, 318.000000)">
                <ellipse id="Oval-11" fill="url(#radialGradient-1)" cx="49.4900017" cy="49.5319424" rx="49.4900017" ry="49.5319424"></ellipse>
                <g id="Group" transform="translate(5.576338, 16.045559)">
                    <path d="M37.9231863,69.2979461 C36.7110725,70.6945961 35.5273857,72.1172722 34.2812108,73.4824847 C31.4390307,76.596602 28.1986175,79.2595137 24.8485943,81.7933254 C24.1117991,82.3504393 23.380126,82.9152838 22.6351357,83.4610595 C22.1347194,83.8277446 21.6481325,83.7839382 21.1320942,83.4249837 C19.044636,81.9729315 16.9425803,80.5420095 14.84411,79.1061914 C10.2161556,75.9395065 5.58666472,72.7748831 0.958454292,69.6087136 C0.825795317,69.5180086 0.708758344,69.4020506 0.569953007,69.3237145 C-0.111524855,68.9382185 -0.0989760335,68.4674289 0.177866345,67.8505322 C0.580453042,66.9530171 1.23811375,66.2371695 1.93675021,65.5684782 C3.53326768,64.0416975 4.98406516,62.397155 6.1037274,60.4774054 C7.49843933,58.0863509 8.23190517,55.5007446 8.28261265,52.7321822 C8.32077132,50.6573066 8.24983206,48.5793387 8.32435669,46.5060092 C8.39478376,44.5421956 8.56150382,42.5796704 8.74333369,40.6220412 C8.85857797,39.3787135 9.03759076,38.1374472 9.26039638,36.9085498 C9.7710566,34.0925735 10.5478031,31.36421 12.1525157,28.9502215 C13.2363242,27.319594 14.7117071,26.2252079 16.5781523,25.6031575 C18.4294877,24.9860031 20.2895304,24.4075014 22.2025855,24.0397856 C23.7102368,23.7498905 25.2332541,23.5120477 26.7598567,23.3556332 C29.2358161,23.1023293 31.7194584,22.9214348 34.2018203,22.7346135 C36.230888,22.5818066 38.2617484,22.4485837 40.2936331,22.3388101 C41.4550394,22.2759351 42.599031,22.4011698 43.6234246,23.0234779 C44.623745,23.6313556 45.1881859,24.5185634 45.2901131,25.7103542 C45.5208577,28.4008381 43.4505582,30.8222994 41.2289045,31.4373924 C39.0318363,32.0460432 36.8068533,32.5544547 34.5875045,33.0788427 C32.6780348,33.5300482 30.7429552,33.8794684 28.8496197,34.3881376 C26.9450158,34.8996414 25.3326202,35.8850269 24.4544588,37.7839041 C24.1184577,38.510059 23.900774,39.2735782 23.895396,40.0762654 C23.8743959,43.2171819 23.8679935,46.3580983 23.8595422,49.4990147 C23.8523715,52.208825 23.8482739,54.9186353 23.8454568,57.6284455 C23.8431519,60.014604 23.8444324,62.4007626 23.8452007,64.7871788 C23.8462251,67.0511948 25.0780584,68.6313162 27.3056024,68.9740366 C28.5919847,69.1719383 29.91755,69.1461699 31.2262129,69.1595695 C33.2893417,69.1804419 35.3532387,69.1492621 37.4168797,69.1402431 C37.5574777,69.1397278 37.6980758,69.1402431 37.8386738,69.1402431 L37.9231863,69.2979461 Z" id="Fill-1" fill="#FFFFFF"></path>
                    <g id="Group-6" transform="translate(26.487607, 0.000000)" fill="#FAFAFA">
                        <path d="M20.622439,3.08253227 C21.7889619,3.08253227 22.9565101,3.05426921 24.1217514,3.09430855 C24.7041158,3.11472076 25.1301235,2.63948254 25.1083361,2.20663891 C25.0814223,1.67147251 24.7228273,1.30536113 24.1327733,1.29332315 C23.7441886,1.28521061 23.3550913,1.29306146 22.9665067,1.29332315 C21.048703,1.29463163 19.1314119,1.29149129 17.2138646,1.29934214 C16.5766472,1.30195909 16.1911385,1.6562942 16.1885752,2.20402196 C16.186012,2.7315992 16.5699829,3.11315059 17.2033553,3.09300007 C18.3421955,3.05636277 19.4825735,3.08253227 20.622439,3.08253227 M17.925928,63.1431185 C17.9067038,64.6253594 19.1114188,65.8720746 20.5919366,65.9019079 C22.0929602,65.9325262 23.3251016,64.7091018 23.3584235,63.1541097 C23.3909765,61.6441292 22.1721638,60.3466451 20.7093322,60.3340838 C19.1326936,60.3207373 17.9472028,61.5169454 17.925928,63.1431185 M2.23002993,36.4415866 C2.24207708,36.725264 2.2572001,36.9113292 2.2572001,37.0973944 C2.25848171,41.8620763 2.25796907,46.6267583 2.25796907,51.3911785 C2.25796907,53.6093058 2.26694035,55.8271715 2.2502794,58.0450371 C2.24720353,58.4504027 2.34870717,58.5888394 2.76651257,58.587531 C7.04427599,58.5726143 11.3222957,58.5765398 15.6000592,58.5791567 C19.5292242,58.5817737 23.4583892,58.5914564 27.3878106,58.5930265 C31.1288351,58.594335 34.8703722,58.5864842 38.6119093,58.5917181 C38.9028351,58.5922415 39.0161296,58.508499 39.0156169,58.1968202 C39.0076709,52.6515019 39.006133,47.1059219 39.0066457,41.5606036 C39.0074146,36.466971 39.0145916,31.3733383 39.0145916,26.2799674 C39.014848,19.1053357 39.0092089,11.9304422 39.0158733,4.75581048 C39.0161296,4.41298995 38.9125754,4.30176955 38.579869,4.30281633 C34.7980893,4.31354583 31.0160532,4.31485431 27.2340172,4.31485431 C23.3179246,4.31459261 19.401832,4.30909702 15.4857394,4.30805023 C11.261291,4.30674176 7.03684265,4.30752684 2.81213795,4.30805023 C2.25925068,4.30805023 2.25796907,4.30935871 2.25822539,4.87959224 C2.26232655,9.76727087 2.26719667,14.6552112 2.27052886,19.5428898 C2.2710415,19.9262731 2.25412423,20.3096563 2.26104493,20.6927779 C2.26463345,20.9026573 2.21003679,21.0298411 1.98421681,21.0552256 C1.47823653,21.1120134 0.974050498,21.1837178 0.468326535,21.2425992 C0.196112217,21.2742643 0.166122504,21.0855822 0.165609859,20.8743943 C0.164071925,20.1898 0.157663867,19.5052057 0.157920189,18.8206114 C0.159970768,13.7544568 0.15023052,8.68804044 0.173555852,3.62214748 C0.181758166,1.80389021 1.12476803,0.673890947 2.79983448,0.145790318 C2.91133469,0.11072318 3.03923954,0.123807933 3.15945471,0.123807933 C14.8146875,0.123022847 26.469664,0.117788946 38.1248968,0.131658784 C39.2283645,0.13296726 40.4443576,1.0206369 40.8529354,2.21710671 C41.0080104,2.67193272 41.0964416,3.17464893 41.0979796,3.65590615 C41.1172037,9.98159912 41.1184854,16.3075538 41.1184854,22.6332468 C41.1184854,28.8082034 41.110283,34.9834217 41.1084888,41.15864 C41.1066945,47.8127603 41.111821,54.4674039 41.1049003,61.1217859 C41.1033623,62.3794924 41.1018244,63.6403392 41.0236461,64.8946436 C40.9523885,66.029615 39.9306877,67.2137852 38.8592603,67.4914436 C38.462217,67.5942898 38.0426174,67.6563115 37.6332706,67.6568349 C26.2735774,67.6667793 14.9136279,67.6667793 3.55367846,67.6675644 C1.61536898,67.6678261 0.153306388,66.1238253 0.1568949,64.1354662 C0.166891471,58.8777508 0.1568949,53.6200353 0.157407545,48.3620582 C0.157663867,45.2128199 0.1568949,42.0635815 0.176119075,38.9143432 C0.177657009,38.6591905 0.293002059,38.384149 0.418856325,38.1546424 C0.820769743,37.4205878 1.4251778,36.8964126 2.23002993,36.4415866" id="Fill-4"></path>
                    </g>
                </g>
            </g>
        </g>
    </g>
</svg>