<?xml version="1.0" encoding="UTF-8"?>
<svg width="72px" height="17px" viewBox="0 0 72 17" version="1.1" xmlns="http://www.w3.org/2000/svg" xmlns:xlink="http://www.w3.org/1999/xlink">
    <!-- Generator: Sketch 50.2 (55047) - http://www.bohemiancoding.com/sketch -->
    <title>Group 3 Copy</title>
    <desc>Created with Sketch.</desc>
    <defs></defs>
    <g id="Page-1" stroke="none" stroke-width="1" fill="none" fill-rule="evenodd">
        <g id="Updates" transform="translate(-1126.000000, -453.000000)">
            <g id="Group-3-Copy" transform="translate(1126.000000, 453.000000)">
                <text id="tokens" transform="translate(49.000000, 10.000000) rotate(-360.000000) translate(-49.000000, -10.000000) " font-family="MuseoSansCyrl-700, Museo Sans Cyrl" font-size="10" font-weight="500" letter-spacing="1.538462" fill="#BF5894">
                    <tspan x="24.709614" y="13">TOKENS</tspan>
                </text>
                <path d="M13.1759871,15.074166 L4.74623946,15.074166 L4.74623946,7.93348323 L13.1759871,7.93348323 C15.192394,7.93348323 16.8323376,9.53552086 16.8323376,11.5035507 C16.8323376,13.4726763 15.192394,15.074166 13.1759871,15.074166 Z M4.74623946,5.44331187 C4.74623946,3.47418627 6.38562201,1.87269652 8.40202887,1.87269652 C10.4178747,1.87269652 12.0583793,3.47418627 12.0583793,5.44331187 L12.0583793,6.0607867 L4.74623946,6.0607867 L4.74623946,5.44331187 Z M13.9760417,6.12324644 L13.9760417,5.44331187 C13.9760417,2.44140893 11.4754504,0 8.40202887,0 C5.32860739,0 2.82857706,2.44140893 2.82857706,5.44331187 L2.82857706,6.0607867 L1.2088312,6.0607867 C0.679201795,6.0607867 0.25,6.47992445 0.25,6.99713496 C0.25,7.51434547 0.679201795,7.93348323 1.2088312,7.93348323 L2.82857706,7.93348323 L2.82857706,16.9468625 L13.1759871,16.9468625 C16.2499697,16.9468625 18.75,14.5054536 18.75,11.5035507 C18.75,8.76847138 16.6707557,6.50403172 13.9760417,6.12324644 Z" id="Fill-1-Copy" fill="#A742A5"></path>
            </g>
        </g>
    </g>
</svg>