<?xml version="1.0" encoding="UTF-8"?>
<svg width="310px" height="236px" viewBox="0 0 310 236" version="1.1" xmlns="http://www.w3.org/2000/svg" xmlns:xlink="http://www.w3.org/1999/xlink">
    <!-- Generator: Sketch 50.2 (55047) - http://www.bohemiancoding.com/sketch -->
    <title>Chek</title>
    <desc>Created with Sketch.</desc>
    <defs>
        <filter x="-51.1%" y="-78.1%" width="202.1%" height="268.4%" filterUnits="objectBoundingBox" id="filter-1">
            <feOffset dx="0" dy="2" in="SourceAlpha" result="shadowOffsetOuter1"></feOffset>
            <feGaussianBlur stdDeviation="15" in="shadowOffsetOuter1" result="shadowBlurOuter1"></feGaussianBlur>
            <feColorMatrix values="0 0 0 0 0   0 0 0 0 0.237405582   0 0 0 0 0.663743622  0 0 0 0.1 0" type="matrix" in="shadowBlurOuter1" result="shadowMatrixOuter1"></feColorMatrix>
            <feMerge>
                <feMergeNode in="shadowMatrixOuter1"></feMergeNode>
                <feMergeNode in="SourceGraphic"></feMergeNode>
            </feMerge>
        </filter>
        <radialGradient cx="85.8838603%" cy="-77.9810852%" fx="85.8838603%" fy="-77.9810852%" r="289.036431%" gradientTransform="translate(0.858839,-0.779811),scale(0.601942,1.000000),rotate(54.329408),translate(-0.858839,0.779811)" id="radialGradient-2">
            <stop stop-color="#FF81B9" offset="0%"></stop>
            <stop stop-color="#421B74" offset="100%"></stop>
        </radialGradient>
        <rect id="path-3" x="0" y="0" width="187.904153" height="113.107354" rx="10"></rect>
        <filter x="-41.2%" y="-64.1%" width="182.5%" height="237.0%" filterUnits="objectBoundingBox" id="filter-4">
            <feOffset dx="0" dy="5" in="SourceAlpha" result="shadowOffsetOuter1"></feOffset>
            <feGaussianBlur stdDeviation="25" in="shadowOffsetOuter1" result="shadowBlurOuter1"></feGaussianBlur>
            <feColorMatrix values="0 0 0 0 0   0 0 0 0 0.235294118   0 0 0 0 0.48627451  0 0 0 0.3 0" type="matrix" in="shadowBlurOuter1"></feColorMatrix>
        </filter>
    </defs>
    <g id="Page-1" stroke="none" stroke-width="1" fill="none" fill-rule="evenodd">
        <g id="Chek" filter="url(#filter-1)" transform="translate(155.000000, 111.000000) rotate(-360.000000) translate(-155.000000, -111.000000) translate(61.000000, 54.000000)">
            <g id="Rectangle-3-Copy" transform="translate(93.952076, 56.553677) rotate(-360.000000) translate(-93.952076, -56.553677) ">
                <use fill="black" fill-opacity="1" filter="url(#filter-4)" xlink:href="#path-3"></use>
                <use fill="url(#radialGradient-2)" fill-rule="evenodd" xlink:href="#path-3"></use>
            </g>
            <g id="Group-4" transform="translate(103.471450, 18.013393)" fill="#FFFFFF">
                <g id="Group-2">
                    <g id="Group">
                        <g id="Page-1">
                            <path d="M9.92677293,1.57561894 C12.0327628,1.57561894 16.1310557,2.27075158 16.1310557,4.81903919 C16.1310557,5.86293528 15.4091837,6.76078168 14.3422761,6.76078168 C13.1585015,6.76078168 12.3507681,5.74721285 9.92677293,5.74721285 C6.34841866,5.74721285 4.50160307,8.78791934 4.50160307,12.3226409 C4.50160307,15.769573 6.37703913,18.7240862 9.92677293,18.7240862 C12.3507681,18.7240862 13.3318143,17.5078036 14.5147939,17.5078036 C15.8130504,17.5078036 16.4196455,18.8118756 16.4196455,19.4774791 C16.4196455,22.2588077 12.0621783,22.8964782 9.92677293,22.8964782 C4.0691159,22.8964782 0.000238503951,18.2316673 0.000238503951,12.2348514 C0.000238503951,6.21090064 4.04049543,1.57561894 9.92677293,1.57561894" id="Fill-1"></path>
                            <path d="M18.322589,2.56077592 C18.322589,1.16971256 19.1883583,0.243135071 20.3999584,0.243135071 C21.6123535,0.243135071 22.4781228,1.16971256 22.4781228,2.56077592 L22.4781228,8.23755944 L22.5353638,8.23755944 C23.4011331,7.16652845 25.0173949,6.789832 26.3156514,6.789832 C29.5760004,6.789832 31.9999956,8.87522991 31.9999956,12.4099514 L31.9999956,20.4043758 C31.9999956,21.7954392 31.1342262,22.7228147 29.9234212,22.7228147 C28.7102311,22.7228147 27.8452567,21.7954392 27.8452567,20.4043758 L27.8452567,13.1338152 C27.8452567,11.1920727 26.6328617,10.2654952 25.1326718,10.2654952 C23.4297536,10.2654952 22.4781228,11.511307 22.4781228,13.1338152 L22.4781228,20.4043758 C22.4781228,21.7954392 21.6123535,22.7228147 20.3999584,22.7228147 C19.1883583,22.7228147 18.322589,21.7954392 18.322589,20.4043758 L18.322589,2.56077592 Z" id="Fill-4"></path>
                            <path d="M44.2350097,13.4526504 C44.0044559,11.6274284 42.8500968,10.2658942 40.9166248,10.2658942 C39.0698092,10.2658942 37.8279986,11.6848906 37.6260653,13.4526504 L44.2350097,13.4526504 Z M37.7135167,16.2331809 C38.0013115,18.2906459 39.7042297,19.2459544 41.6369067,19.2459544 C43.7731071,19.2459544 45.2454715,17.565186 46.3409996,17.565186 C47.2353894,17.565186 48.0439178,18.4638305 48.0439178,19.3616769 C48.0439178,21.1573697 44.3502866,22.8963984 41.2624555,22.8963984 C36.5877781,22.8963984 33.4713264,19.4773993 33.4713264,14.8716468 C33.4713264,10.6425907 36.5305371,6.78943296 40.9166248,6.78943296 C45.4179893,6.78943296 48.3905436,10.9035647 48.3905436,14.3792279 C48.3905436,15.6250396 47.8419845,16.2331809 46.5715534,16.2331809 L37.7135167,16.2331809 Z" id="Fill-7"></path>
                            <path d="M49.8606819,2.56077592 C49.8606819,1.16971256 50.7264513,0.243135071 51.9380513,0.243135071 C53.1504464,0.243135071 54.0162157,1.16971256 54.0162157,2.56077592 L54.0162157,12.2934309 L58.5756163,7.86166108 C59.2394523,7.22399062 59.9024932,6.96381468 60.4502573,6.96381468 C61.4901345,6.96381468 62.2112115,7.91912325 62.2112115,8.84649883 C62.2112115,9.45464012 62.0092781,9.947059 61.4034781,10.49694 L57.7098469,13.7994186 L62.5864577,19.5360586 C62.9617039,19.9694191 63.1056013,20.4626361 63.1056013,20.9263239 C63.1056013,22.0276821 62.239832,22.8959993 61.1435088,22.8959993 C60.3930164,22.8959993 59.8158368,22.4323116 59.1527958,21.6214565 L54.0742517,15.3349355 L54.0162157,15.3349355 L54.0162157,20.4043758 C54.0162157,21.7954392 53.1504464,22.7228147 51.9380513,22.7228147 C50.7264513,22.7228147 49.8606819,21.7954392 49.8606819,20.4043758 L49.8606819,2.56077592 Z" id="Fill-10"></path>
                        </g>
                    </g>
                </g>
            </g>
            <rect id="Rectangle-3-Copy-3" fill="#FFFFFF" x="16.9693177" y="67.0265801" width="58.3578976" height="5.02699351" rx="2.51349676"></rect>
            <rect id="Rectangle-3-Copy-5" fill="#FFFFFF" x="16.9693177" y="78.7562317" width="33.1108639" height="5.02699351" rx="2.51349676"></rect>
            <rect id="Rectangle-3-Copy-7" fill="#FFFFFF" x="16.9693177" y="90.4858832" width="63.3245272" height="5.02699351" rx="2.51349676"></rect>
            <rect id="Rectangle-3-Copy-4" fill="#FFFFFF" x="79.4660733" y="67.0265801" width="79.0521875" height="5.02699351" rx="2.51349676"></rect>
            <rect id="Rectangle-3-Copy-6" fill="#FFFFFF" x="54.2190396" y="78.7562317" width="45.1135521" height="5.02699351" rx="2.51349676"></rect>
            <rect id="Rectangle-3-Copy-8" fill="#FFFFFF" x="84.4327029" y="90.4858832" width="24.8331479" height="5.02699351" rx="2.51349676"></rect>
        </g>
    </g>
</svg>