<svg xmlns="http://www.w3.org/2000/svg" xmlns:xlink="http://www.w3.org/1999/xlink" width="362" height="185" viewBox="0 0 362 185"><defs><path id="bujpa" d="M273.98 46.76c5.1 0 15 1.66 15 7.74 0 2.5-1.75 4.64-4.33 4.64-2.86 0-4.81-2.42-10.67-2.42-8.64 0-13.1 7.26-13.1 15.7 0 8.22 4.53 15.28 13.1 15.28 5.86 0 8.23-2.9 11.09-2.9 3.14 0 4.6 3.1 4.6 4.7 0 6.63-10.53 8.16-15.69 8.16-14.15 0-23.98-11.14-23.98-25.46 0-14.38 9.76-25.44 23.98-25.44"/><path id="bujpb" d="M294.27 49.11c0-3.32 2.1-5.53 5.02-5.53 2.93 0 5.02 2.21 5.02 5.53v13.55h.14c2.09-2.55 6-3.45 9.13-3.45 7.88 0 13.74 4.98 13.74 13.41v19.09c0 3.32-2.1 5.53-5.02 5.53-2.93 0-5.02-2.21-5.02-5.53V74.35c0-4.63-2.93-6.85-6.56-6.85-4.11 0-6.41 2.98-6.41 6.85v17.36c0 3.32-2.1 5.53-5.02 5.53-2.93 0-5.02-2.21-5.02-5.53z"/><path id="bujpc" d="M340.9 75.12c.5-4.22 3.5-7.61 7.96-7.61 4.67 0 7.46 3.25 8.02 7.6zm21.62 6.63c3.07 0 4.4-1.45 4.4-4.42 0-8.3-7.19-18.12-18.06-18.12-10.6 0-17.99 9.2-17.99 19.3 0 10.99 7.53 19.15 18.82 19.15 7.46 0 16.39-4.15 16.39-8.44 0-2.14-1.95-4.29-4.12-4.29-2.64 0-6.2 4.02-11.36 4.02-4.67 0-8.78-2.29-9.48-7.2z"/><path id="bujpd" d="M370.47 49.11c0-3.32 2.1-5.53 5.02-5.53 2.93 0 5.02 2.21 5.02 5.53v23.24l11.02-10.58c1.6-1.53 3.2-2.15 4.53-2.15 2.5 0 4.25 2.28 4.25 4.5 0 1.45-.49 2.62-1.95 3.94l-8.93 7.88 11.79 13.7a4.95 4.95 0 0 1 1.25 3.31c0 2.63-2.09 4.7-4.74 4.7-1.81 0-3.2-1.1-4.8-3.04l-12.28-15h-.14v12.1c0 3.32-2.1 5.53-5.02 5.53-2.93 0-5.02-2.21-5.02-5.53z"/><path id="bujpe" d="M41 166a6 6 0 0 1 6-6h129a6 6 0 1 1 0 12H47a6 6 0 0 1-6-6z"/><path id="bujpf" d="M41 194a6 6 0 0 1 6-6h68a6 6 0 1 1 0 12H47a6 6 0 0 1-6-6z"/><path id="bujpg" d="M41 222a6 6 0 0 1 6-6h141a6 6 0 1 1 0 12H47a6 6 0 0 1-6-6z"/><path id="bujph" d="M192 166a6 6 0 0 1 6-6h179a6 6 0 1 1 0 12H198a6 6 0 0 1-6-6z"/><path id="bujpi" d="M131 194a6 6 0 0 1 6-6h97a6 6 0 1 1 0 12h-97a6 6 0 0 1-6-6z"/><path id="bujpj" d="M204 222a6 6 0 0 1 6-6h48a6 6 0 1 1 0 12h-48a6 6 0 0 1-6-6z"/></defs><g><g transform="translate(-41 -43)"><g><g><g><g><use fill="#fff" xlink:href="#bujpa"/></g><g><use fill="#fff" xlink:href="#bujpb"/></g><g><use fill="#fff" xlink:href="#bujpc"/></g><g><use fill="#fff" xlink:href="#bujpd"/></g></g></g></g></g><g transform="translate(-41 -43)"><use fill="#fff" xlink:href="#bujpe"/></g><g transform="translate(-41 -43)"><use fill="#fff" xlink:href="#bujpf"/></g><g transform="translate(-41 -43)"><use fill="#fff" xlink:href="#bujpg"/></g><g transform="translate(-41 -43)"><use fill="#fff" xlink:href="#bujph"/></g><g transform="translate(-41 -43)"><use fill="#fff" xlink:href="#bujpi"/></g><g transform="translate(-41 -43)"><use fill="#fff" xlink:href="#bujpj"/></g></g></svg>