<?xml version="1.0" encoding="UTF-8"?>
<svg width="40px" height="40px" viewBox="0 0 40 40" version="1.1" xmlns="http://www.w3.org/2000/svg" xmlns:xlink="http://www.w3.org/1999/xlink">
    <!-- Generator: Sketch 50.2 (55047) - http://www.bohemiancoding.com/sketch -->
    <title>Page 1</title>
    <desc>Created with Sketch.</desc>
    <defs>
        <polygon id="path-1" points="0 0 40 0 40 40 0 40"></polygon>
    </defs>
    <g id="Page-1" stroke="none" stroke-width="1" fill="none" fill-rule="evenodd">
        <g>
            <mask id="mask-2" fill="white">
                <use xlink:href="#path-1"></use>
            </mask>
            <g id="Clip-2"></g>
            <path d="M2.56590843,13.8661633 C2.56590843,14.531488 2.58842361,15.164423 2.55801466,15.7947775 C2.53765233,16.2168231 2.68996618,16.5294198 3.04007275,16.7236694 C3.55899832,17.0118848 4.08097376,17.3101553 4.63416546,17.519443 C6.33652839,18.1635008 8.12204498,18.4319621 9.93043557,18.5482626 C11.9333896,18.6771988 13.9331144,18.6354658 15.9188456,18.3161064 C16.0302554,18.2982209 16.2056227,18.1546915 16.2076858,18.0664205 C16.2289452,17.151143 16.2207823,16.2351536 16.2207823,15.2829481 C11.5419305,15.8655188 6.9931464,15.7284853 2.56590843,13.8661633 M2.56590843,8.32057438 C2.56590843,9.0083228 2.58205478,9.65407131 2.559719,10.2985741 C2.54707103,10.6639376 2.66251739,10.9598946 2.97324482,11.1240679 C3.6280688,11.4700332 4.2799326,11.8417146 4.97404601,12.0903326 C6.78611438,12.7393735 8.68653913,13.0123729 10.5980869,13.0320381 C12.3540019,13.0499236 14.1122491,12.8858393 15.8683435,12.7837759 C15.9905175,12.7766573 16.2034698,12.6215602 16.2060712,12.5305308 C16.2313671,11.6167659 16.2213205,10.7019333 16.2213205,9.74314313 C11.544173,10.3070274 6.99494043,10.1937523 2.56590843,8.32057438 M37.4297234,22.7693419 C31.1736428,25.0206969 24.9855563,25.0181164 18.7461603,22.7610665 C18.7461603,23.2189722 18.759167,23.6899584 18.7414958,24.1597878 C18.7301933,24.4583253 18.8748825,24.5202573 19.1404899,24.5580751 C20.3060766,24.7239391 21.4811716,24.8567905 22.6279209,25.1113704 C24.1933987,25.4589374 25.7175239,25.9670294 26.9497591,27.0455015 C27.3113475,27.3621025 27.6758961,27.4707505 28.1183059,27.4640768 C30.1241304,27.4344455 32.1264566,27.3165433 34.0602504,26.7594217 C35.0112701,26.4852655 35.9241665,26.0623301 36.8232488,25.6415302 C37.0809624,25.5209584 37.3731215,25.1885185 37.4022746,24.9261081 C37.4820196,24.2105081 37.4297234,23.4804038 37.4297234,22.7693419 M37.4272118,17.2284691 C31.1889819,19.4933495 24.9858254,19.485163 18.745353,17.182465 C18.745353,17.8127304 18.7734297,18.4210172 18.7362931,19.0252997 C18.7078576,19.4864088 18.8839424,19.82223 19.2623948,20.024755 C19.8636667,20.3466949 20.4654769,20.7027153 21.1116894,20.901414 C25.4121786,22.2244999 29.7617347,22.2327753 34.1104835,21.1871379 C35.0799818,20.9540029 35.9915326,20.4629955 36.9055054,20.0391702 C37.1286838,19.9356832 37.3841548,19.6396372 37.4036202,19.4133539 C37.4667703,18.6799573 37.4272118,17.9377513 37.4272118,17.2284691 M25.6833475,32.8025137 C19.4447588,35.041678 13.2488682,35.0410551 7.00104016,32.7862298 C7.00104016,33.3592793 7.03449898,33.9502144 6.99126266,34.5354546 C6.95179381,35.0705974 7.17066648,35.4495753 7.61621589,35.6629562 C8.37805425,36.0278749 9.14141753,36.4305222 9.95008029,36.6512887 C13.9412772,37.7405277 17.9669197,37.7347438 21.998662,36.8686738 C23.0958061,36.6328692 24.1611957,36.2846794 25.1041422,35.6606427 C25.3373672,35.5061684 25.6348188,35.2487411 25.6570648,35.015606 C25.7279293,34.2709976 25.6833475,33.5154442 25.6833475,32.8025137 M37.4281985,11.6893759 C31.1645829,13.9543453 24.9771243,13.8982861 18.7455324,11.6488887 C18.7455324,12.3100313 18.7604229,12.9460807 18.7397914,13.5811512 C18.7279508,13.9470487 18.8552378,14.2371328 19.1592376,14.4077129 C19.7280374,14.7267164 20.2952226,15.0696563 20.9041192,15.2930922 C22.6530374,15.9348365 24.4830462,16.1898613 26.3377229,16.3078526 C29.1001831,16.4836827 31.8364503,16.3327678 34.4991619,15.5494518 C35.3597621,15.2962066 36.1677969,14.8528941 36.9766391,14.4506916 C37.1739833,14.3526325 37.3933941,14.0817687 37.4079259,13.8768412 C37.4598633,13.1418429 37.4281985,12.4011497 37.4281985,11.6893759 M20.5783219,4.31803701 C20.4150644,4.21259234 20.3117278,4.12449932 20.1924242,4.07235537 C19.7562038,3.88139818 19.3268008,3.66330123 18.8732679,3.52484392 C14.7062552,2.25221127 10.4933151,2.24651636 6.26055086,3.14097193 C5.11999103,3.38202646 4.00750789,3.73884767 3.04007275,4.42036728 C2.41798998,4.85860779 2.38838835,5.2185434 3.02733508,5.60944504 C3.66834496,6.00168143 4.3595879,6.35512129 5.07567828,6.57740044 C8.72600797,7.71068596 12.4492653,7.74681299 16.1992538,7.18719988 C16.3195441,7.16931433 16.4775092,7.10195431 16.5344699,7.00798843 C17.3510264,5.65918646 18.6910833,5.05445904 20.0840643,4.52065095 C20.2328798,4.46361294 20.3790939,4.39990123 20.5783219,4.31803701 M16.554294,26.9310696 C14.8174855,26.9008154 12.8702364,27.053421 10.9523198,27.4796488 C9.78502877,27.7391228 8.63747218,28.0746771 7.62222592,28.7329722 C6.8246862,29.2503185 6.8152675,29.647182 7.64133243,30.1327613 C8.21398945,30.4693834 8.83024159,30.7682768 9.46506204,30.9597679 C13.694597,32.235337 17.9653051,32.2314218 22.2507243,31.2606189 C23.2873197,31.0258822 24.2907253,30.6785821 25.169804,30.0610412 C25.8585353,29.5772414 25.8685819,29.2335897 25.1616412,28.7946373 C24.6599384,28.4830194 24.1158065,28.2179395 23.5596547,28.0163933 C21.3732602,27.2241791 19.0861305,27.0166711 16.554294,26.9310696 M27.9865338,10.838077 C30.0065312,10.8043525 31.8796866,10.6716791 33.7161539,10.226498 C34.8483714,9.95198587 35.967941,9.62808831 36.937529,8.95253055 C37.5990806,8.49168839 37.6141506,8.12196467 36.9341203,7.70757156 C36.3548254,7.35448763 35.7293339,7.05390358 35.089849,6.82441682 C33.4657958,6.24157918 31.7677386,5.99251619 30.0505749,5.89143168 C27.0373979,5.71408887 24.0494271,5.85432584 21.1620122,6.82272614 C20.4646695,7.05657306 19.7920846,7.4049409 19.1658755,7.79237221 C18.6090957,8.13682481 18.6196806,8.50147651 19.1620183,8.85989941 C19.6540333,9.18522069 20.1848893,9.47717341 20.7362869,9.68539327 C23.1134774,10.5828742 25.608267,10.781217 27.9865338,10.838077 M16.1970113,20.8636853 C15.9266497,20.8913589 15.6945909,20.9141385 15.4628011,20.9390537 C11.7761422,21.3352944 8.12581246,21.2013752 4.54446355,20.1641021 C3.45099722,19.8475012 2.40866098,19.4057013 1.4911898,18.7146606 C0.500611566,17.9686284 -0.0131112955,17.0205162 0.000254289699,15.745481 C0.0361350553,12.3209762 0.0415171701,8.89549255 0.000882203097,5.47089875 C-0.0162508625,4.02715209 0.616147631,3.00687478 1.77419934,2.24188926 C3.30980641,1.22766278 5.05029264,0.764329106 6.83625775,0.446393399 C9.25928585,0.0150045636 11.701869,-0.104944312 14.1558442,0.0918857421 C16.3657406,0.26913957 18.5421781,0.615015891 20.5920463,1.50920451 C21.6300768,1.96203821 22.5689867,2.54469788 23.2449804,3.48844994 C23.3284928,3.60501747 23.6070173,3.63411486 23.7900989,3.62263607 C25.3680453,3.52368715 26.945274,3.30843764 28.5218749,3.31555627 C31.3094515,3.32792489 34.064287,3.65911904 36.6797257,4.71356576 C37.5570104,5.06718358 38.3769756,5.51877153 39.0483945,6.19957928 C39.6722713,6.83206934 39.9941217,7.57783457 39.9927762,8.47540453 C39.9853309,13.857443 39.9754637,19.2396594 39.9999524,24.6215198 C40.0054242,25.8229662 39.5395124,26.7380658 38.6189914,27.4643438 C37.4343879,28.3991086 36.0393438,28.8764125 34.6006148,29.2378609 C32.6966019,29.7162326 30.7549143,29.9384228 28.7926849,29.9515923 C28.3750328,29.9543507 28.2267556,30.0531217 28.2352772,30.4915402 C28.2622775,31.8846556 28.2108783,33.2797287 28.2539352,34.6720432 C28.2913409,35.8822099 27.7732227,36.7818265 26.8562897,37.5049011 C25.8435551,38.3036111 24.6647823,38.7694363 23.4368528,39.1065033 C20.604156,39.8840355 17.7127942,40.1098739 14.7838473,39.9532641 C12.5533195,39.8340271 10.3578652,39.5305066 8.24735856,38.7691694 C7.27310607,38.4176871 6.35061159,37.9677899 5.57890602,37.2621559 C4.86487879,36.6091108 4.46301421,35.8272185 4.47682831,34.8331912 C4.50024051,33.143318 4.52158956,31.4516651 4.47054917,29.7629486 C4.43224645,28.4946761 4.97673707,27.5705003 5.95027194,26.8387944 C7.17864995,25.9156863 8.60921608,25.4501281 10.0806863,25.0957094 C11.9309677,24.6500833 13.8154255,24.4539651 15.7164781,24.4341219 C16.1350273,24.4297618 16.2478723,24.2854316 16.2349552,23.889102 C16.2078652,23.0596039 16.2281378,22.2286821 16.2254468,21.3983832 C16.2249086,21.238481 16.2089416,21.0785788 16.1970113,20.8636853" id="Fill-1" fill="#924691" mask="url(#mask-2)"></path>
        </g>
    </g>
</svg>