<?xml version="1.0" encoding="UTF-8"?>
<svg width="62px" height="39px" viewBox="0 0 62 39" version="1.1" xmlns="http://www.w3.org/2000/svg" xmlns:xlink="http://www.w3.org/1999/xlink">
    <!-- Generator: Sketch 50.2 (55047) - http://www.bohemiancoding.com/sketch -->
    <title>Group</title>
    <desc>Created with Sketch.</desc>
    <defs>
        <polygon id="path-1" points="0.0796027191 0.0327542321 6.08936927 0.0327542321 6.08936927 11.1855927 0.0796027191 11.1855927"></polygon>
    </defs>
    <g id="Page-1" stroke="none" stroke-width="1" fill="none" fill-rule="evenodd">
        <g id="ICO2018-4-02" transform="translate(-806.000000, -860.000000)">
            <g id="Group" transform="translate(806.000000, 860.000000)">
                <path d="M30.1737623,12.1674749 C30.1737623,14.172448 30.1579698,16.1775881 30.1853768,18.1821434 C30.1918943,18.6561677 30.2852286,19.149076 30.4435709,19.5961111 C30.6544712,20.1921299 31.2898458,20.505138 31.969172,20.4623563 C32.6533445,20.4194075 33.2010668,20.1365639 33.414641,19.4635881 C33.5642933,18.9923213 33.6625574,18.482952 33.6647299,17.9901272 C33.6820264,14.1056016 33.6776814,10.221076 33.659048,6.33663396 C33.6567919,5.85575795 33.5525951,5.37120539 33.4575898,4.89592776 C33.3387704,4.30132938 32.9218162,3.93308949 32.3603903,3.82488194 C31.7224253,3.70188464 31.0822879,3.72970943 30.6213822,4.33040755 C30.2412771,4.82582264 30.1730938,5.39217844 30.1737623,5.98569057 C30.1759348,8.04622965 30.1745978,10.1068523 30.1737623,12.1674749 Z M32.7444226,1.67115903e-05 C32.9601693,0.0689520216 33.1722394,0.181421024 33.3922474,0.1995531 C34.5557084,0.295728302 35.6249159,0.643412938 36.5703741,1.33694394 C37.5290345,2.04025121 38.0814361,3.02063666 38.4551908,4.12335094 C38.8854307,5.39251267 38.975172,6.7047903 38.9743364,8.03077143 C38.9726652,10.9544642 38.9936383,13.8784075 38.9664819,16.8019332 C38.950773,18.5011677 38.6576518,20.1503509 37.7309941,21.62189 C37.110242,22.6077067 36.2294577,23.2450032 35.1246544,23.6416528 C33.4322717,24.2491191 31.6917596,24.2573914 29.9768162,23.9900059 C27.3038809,23.5732189 25.733827,22.1601704 25.1095655,19.2177606 C24.9462097,18.4480248 24.8817865,17.6449493 24.8757704,16.8563294 C24.8506194,13.5847013 24.8441854,10.312572 24.8750183,7.04102749 C24.8886383,5.60023774 25.133296,4.19880377 25.860083,2.90758275 C26.8058755,1.22723235 28.3044873,0.477049057 30.1357434,0.225623181 C30.4525951,0.182089488 30.760924,0.076806469 31.0732636,1.67115903e-05 L32.7444226,1.67115903e-05 Z" id="Fill-1" fill="#FFFFFF"></path>
                <path d="M16.3670307,0 C16.5724162,0.0627520216 16.7744593,0.16519407 16.9836049,0.182156334 C18.7251197,0.323619946 20.2539795,0.886884097 21.2630253,2.40613477 C22.0379418,3.57277089 22.3477747,4.89273585 22.3676615,6.28322372 C22.3782733,7.02104043 22.3645698,7.75919137 22.3775213,8.49692453 C22.3831197,8.81519677 22.2631305,8.95072776 21.9370873,8.94838814 C20.5445941,8.93861186 19.1520173,8.93752561 17.759524,8.94404313 C17.4354863,8.94554717 17.3115698,8.8087628 17.3148286,8.49174394 C17.3244377,7.57277358 17.3480846,6.65246631 17.3093137,5.73508356 C17.287338,5.21543666 17.2143084,4.6820027 16.8471547,4.25460377 C16.35809,3.68532345 15.7011574,3.69610243 15.0782329,3.84366577 C14.56009,3.96649596 14.1617693,4.3604717 14.0919148,4.92256604 C13.9915617,5.73140701 13.9076695,6.54810243 13.9029903,7.36195687 C13.8827693,10.8710566 13.8946345,14.3803235 13.8932976,17.8895903 C13.8930469,18.5656577 13.9806992,19.2251806 14.3385779,19.8119245 C14.6830038,20.3765256 15.2223704,20.5733046 15.9344512,20.438442 C16.6446102,20.3039137 16.9938825,19.951717 17.1611655,19.3013019 C17.4653164,18.1185391 17.2661143,16.9188976 17.3149121,15.7281968 C17.3393111,15.1311752 17.3277801,15.1249919 17.9246345,15.125159 C19.2474404,15.1254933 20.5703299,15.1254933 21.8929687,15.1105364 C22.2220199,15.1068598 22.3837881,15.2010296 22.3757666,15.5590755 C22.3548771,16.4914987 22.418966,17.4301887 22.3341547,18.3558437 C22.1759795,20.0830701 21.6910927,21.6951536 20.2646749,22.8444097 C19.3616642,23.5719488 18.2888636,23.942027 17.1548987,24.0310162 C16.1333191,24.1111482 15.0873407,24.1495013 14.0749526,24.0230782 C11.6051466,23.7145822 9.97142156,22.642283 9.08787978,19.9477062 C8.75063989,18.9190243 8.63649973,17.8576712 8.63733531,16.7793558 C8.63984205,13.576496 8.63115202,10.3736361 8.64142965,7.17085984 C8.64585822,5.80869811 8.88424906,4.48263342 9.48285822,3.25115633 C10.4386776,1.28503774 12.0938771,0.372919137 14.2175024,0.191180593 C14.4365078,0.172380054 14.647993,0.0658436658 14.8629876,0 L16.3670307,0 Z" id="Fill-3" fill="#FFFFFF"></path>
                <path d="M25.2241736,38.1024259 C24.9839445,37.982938 24.7522383,37.8397197 24.5017315,37.7483908 C23.7762814,37.4839299 23.4195725,36.8834825 23.1775887,36.2285553 C23.0125617,35.7818544 22.9244081,35.2835984 22.9158852,34.8063154 C22.8859714,33.1359919 22.8787019,31.4641644 22.9219013,29.7944259 C22.9356049,29.2656712 23.0706345,28.7173639 23.2613973,28.2206119 C23.645179,27.2214259 24.4805078,26.7824124 25.4957369,26.65131 C26.2911251,26.5485337 27.093365,26.5705094 27.8422113,26.8622938 C28.7895078,27.2314528 29.2301089,28.0332749 29.3780065,28.9904313 C29.4517881,29.4680485 29.420621,29.9619596 29.4350765,30.4486011 C29.4427639,30.710221 29.3199337,30.8227736 29.052214,30.8166739 C28.5372464,30.8048086 28.0216938,30.8035553 27.5068097,30.8155876 C27.2030765,30.82269 27.0847585,30.6985229 27.0809148,30.3955418 C27.0749822,29.9246092 27.0648717,29.4504178 27.0037073,28.9845822 C26.9456345,28.5423935 26.6186722,28.2948949 26.200966,28.2969838 C25.8567073,28.2987385 25.4715887,28.6514367 25.405745,29.0292022 C25.3914566,29.1112561 25.3836857,29.1953989 25.3837693,29.2786226 C25.3851898,31.3387439 25.3759984,33.3988652 25.3980577,35.4586523 C25.4048259,36.0966173 25.7538474,36.4102938 26.2833542,36.3696846 C26.6844323,36.3389353 26.9471385,36.1300404 26.9941817,35.7348949 C27.0515024,35.254186 27.0787423,34.7674609 27.0799957,34.283159 C27.0809148,33.9598733 27.1882032,33.8301914 27.5182571,33.8418895 C28.0327235,33.8601051 28.5491116,33.8306092 29.0626588,33.8574313 C29.1880792,33.8639488 29.4076695,34.0057466 29.4120146,34.0938167 C29.4589741,35.040027 29.4937342,35.9912507 28.962055,36.8452965 C28.6326695,37.374469 28.1807881,37.7351051 27.5712329,37.8987951 C27.4479849,37.9319677 27.3429526,38.0328221 27.2295644,38.1024259 L25.2241736,38.1024259 Z" id="Fill-5" fill="#FFFFFF"></path>
                <path d="M51.4613787,38.1024259 C51.2819798,38.0021563 51.1068423,37.8929461 50.9222628,37.8032049 C50.1705755,37.4377224 49.7316456,36.8165526 49.5062062,36.0381267 C49.4060202,35.6923639 49.3709259,35.327717 49.3048315,34.9719272 C49.2576213,34.7177439 49.364659,34.5634124 49.6135782,34.5210485 C50.1069043,34.4368221 50.6007318,34.3527628 51.0969825,34.2886739 C51.353004,34.2556685 51.4087372,34.4290512 51.4374811,34.6546577 C51.4826024,35.0093612 51.529562,35.3736739 51.651473,35.7061509 C51.8101496,36.1389811 52.1814811,36.3234771 52.5335943,36.2256307 C52.8867938,36.1274501 53.0683652,35.7904609 53.0369474,35.3260458 C52.9945836,34.6996954 52.7524326,34.1666792 52.292279,33.7441267 C51.7596806,33.2549784 51.2121253,32.782124 50.6716725,32.3014987 C49.6365566,31.3807736 49.0850741,30.2814852 49.3665809,28.8565714 C49.6517642,27.4125229 50.6806968,26.7445606 52.0080148,26.6170512 C52.6775647,26.552628 53.3332439,26.6170512 53.9478962,26.9638167 C54.8719636,27.4853019 55.1662547,28.675 55.1944973,29.5074879 C55.1978396,29.605752 55.007996,29.776628 54.8850822,29.8013612 C54.4362925,29.8916873 53.9774757,29.9312102 53.5233383,29.9963019 C53.2855323,30.0303935 53.1565189,29.9604555 53.1360472,29.6979164 C53.1178315,29.4637871 53.0507345,29.2340027 53.0169771,29.0005418 C52.9638342,28.6318005 52.739314,28.428504 52.3897075,28.3755283 C52.1399528,28.3377601 51.7527453,28.6905418 51.6998531,29.0030485 C51.6096105,29.5351456 51.6867345,30.0404205 52.0912385,30.4322237 C52.7899501,31.1091267 53.5316941,31.7436658 54.2058396,32.4436307 C55.0115054,33.2802129 55.5081739,34.2635229 55.4511873,35.4763666 C55.4042278,36.4756361 54.6607291,37.5372399 53.7236267,37.8847574 C53.6002116,37.9304636 53.4961819,38.0285606 53.3832116,38.1024259 L51.4613787,38.1024259 Z" id="Fill-7" fill="#FFFFFF"></path>
                <g id="Group-11" transform="translate(55.900270, 26.738544)">
                    <mask id="mask-2" fill="white">
                        <use xlink:href="#path-1"></use>
                    </mask>
                    <g id="Clip-10"></g>
                    <path d="M6.08941105,1.67115903 C5.68240027,1.72004043 5.27639218,1.79816712 4.86829515,1.81128571 C4.21762938,1.83209164 4.23918733,1.81496226 4.24378302,2.46069811 C4.25731941,4.36657143 4.25046765,6.2725283 4.25188814,8.17856873 C4.2525566,9.02718329 4.24035714,9.87613208 4.26158086,10.7242453 C4.27052156,11.083628 4.1164407,11.1918356 3.7901469,11.1853181 C3.26180997,11.1747898 2.73280458,11.1709461 2.20455121,11.1841482 C1.90934097,11.1915013 1.81241375,11.0596469 1.81324933,10.7831536 C1.82143801,7.97301617 1.82285849,5.16279515 1.83113073,2.35265768 C1.83255121,1.89074933 1.77431132,1.81629919 1.3149097,1.81546361 C1.03674528,1.81496226 0.758330189,1.81563073 0.480416442,1.82607547 C0.197572776,1.83677089 0.0714838275,1.70992992 0.0800067385,1.42716981 C0.0904514825,1.07981941 0.0996428571,0.731800539 0.0886967655,0.384700809 C0.0806752022,0.129431267 0.195066038,0.0325040431 0.435378706,0.032754717 C2.16043261,0.034425876 3.88557008,0.0303315364 5.61062399,0.0398571429 C5.77047035,0.0406091644 5.92981536,0.122746631 6.08941105,0.167115903 L6.08941105,1.67115903 Z" id="Fill-9" fill="#FFFFFF" mask="url(#mask-2)"></path>
                </g>
                <path d="M0.332518868,12.1165547 C0.332518868,8.5245655 0.338702156,4.93257628 0.328257412,1.34067062 C0.325583558,0.418107278 0.186041779,0.444010243 1.21957008,0.44902372 C2.45865094,0.45512345 3.69773181,0.449441509 4.93681267,0.449190836 C5.44952426,0.449107278 5.49531402,0.4971531 5.49523046,0.986301348 C5.49380997,8.37909111 5.49305795,15.7717973 5.49339218,23.1645871 C5.49347574,23.7916059 5.46874259,23.8071477 4.83144609,23.8044739 C3.49502022,23.7987919 2.15851078,23.800296 0.822168464,23.8149186 C0.481836927,23.8185951 0.309623989,23.7367084 0.310543127,23.3512555 C0.319818059,19.6063553 0.316141509,15.8613714 0.316141509,12.1165547 L0.332518868,12.1165547 Z" id="Fill-12" fill="#FFFFFF"></path>
                <path d="M41.48171,12.0019049 C41.48171,8.60477278 41.4819606,5.20772426 41.4814593,1.81059218 C41.4813757,1.23220404 41.6923596,1.01603962 42.2588825,1.01712588 C42.6348097,1.01779434 43.0108205,1.01963261 43.3866642,1.01303154 C43.6162814,1.00902075 43.6934054,1.09608814 43.6929876,1.33807197 C43.6830442,6.93495067 43.681958,12.5319129 43.6790334,18.1287081 C43.6786992,18.7830504 43.6735186,19.4374763 43.6766938,20.0918186 C43.6794512,20.6732148 43.8376264,20.8271286 44.4245375,20.8272957 C50.035621,20.8287162 55.6467046,20.832727 61.2577046,20.8227836 C61.6508447,20.8221987 61.8102733,20.894142 61.754958,21.3333226 C61.6996426,21.7715005 61.7277181,22.2236326 61.7546237,22.667576 C61.7731736,22.9749022 61.6474189,23.0529453 61.3675833,23.0521933 C58.2630712,23.0440881 55.1584755,23.0419992 52.0539633,23.0407458 C48.7127315,23.039576 45.3714997,23.0402445 42.0302679,23.042417 C41.7061466,23.0425841 41.4868906,22.7520531 41.4848852,22.2770261 C41.4825456,21.7202795 41.4954135,21.1634493 41.4956642,20.6066191 C41.4969175,17.7384089 41.4962491,14.8701151 41.4962491,12.0019049 L41.48171,12.0019049 Z" id="Fill-14" fill="#FFFFFF" opacity="0.699999988"></path>
                <path d="M2.72460755,32.7085345 C2.7698124,32.5592164 2.83649164,32.4127394 2.85687978,32.260079 C3.08290404,30.5670278 3.30901186,28.8739765 3.51573423,27.1785857 C3.55266685,26.8759388 3.67716819,26.7767555 3.96611159,26.7688175 C5.16550243,26.7358957 5.16792561,26.7299631 5.3197504,27.9138121 C5.51051321,29.4014779 5.69559407,30.8898121 5.88644043,32.3774779 C5.90457251,32.5189415 5.94626792,32.6574806 5.97693369,32.7973566 C6.01654016,32.8011167 6.05623019,32.8048768 6.09583666,32.8086369 C6.13293639,32.7065291 6.19301456,32.6065938 6.2034593,32.5018121 C6.33314124,31.2015668 6.45095795,29.9002353 6.58222749,28.6000736 C6.63520323,28.0753296 6.69578275,27.5497501 6.79488248,27.0325264 C6.81493639,26.9277447 7.01923558,26.7943027 7.14624367,26.7855291 C7.58960216,26.7548633 8.03630296,26.7714914 8.48166685,26.7734968 C8.6866345,26.7744159 8.83812507,26.8220439 8.79517628,27.0884267 C8.69373693,27.7179523 8.58970728,28.3478121 8.51425445,28.9807636 C8.35632992,30.304238 8.22397412,31.630804 8.06688518,32.9542784 C7.90152399,34.3476073 7.72830836,35.740017 7.54155633,37.1305884 C7.43694178,37.9091814 7.4214,37.906424 6.62409003,37.9068418 C6.33180431,37.9069253 6.03868302,37.8974833 5.74748356,37.9164509 C5.41985283,37.9379253 5.3175779,37.7745695 5.27638383,37.4765183 C5.0900496,36.1278094 4.87948356,34.7825264 4.69264798,33.4339846 C4.63165067,32.9938849 4.62680431,32.546265 4.57441348,32.1045776 C4.5531062,31.9252623 4.47364259,31.7528822 4.42058329,31.577327 C4.37596334,31.5768256 4.3313434,31.5763243 4.28672345,31.5757394 C4.24736765,31.6767609 4.1852841,31.7749415 4.1721655,31.8793054 C4.00596873,33.1989361 3.84662372,34.519486 3.68594178,35.8399523 C3.6189283,36.3912677 3.53344852,36.9414132 3.49392561,37.4948175 C3.47194987,37.8020601 3.34026253,37.917203 3.05315741,37.9146962 C2.62183127,37.9108526 2.18908464,37.8932218 1.75934609,37.919459 C1.39954555,37.9415183 1.25473962,37.7861841 1.21914394,37.4495291 C1.07768032,36.1090089 0.937386523,34.7681544 0.778292183,33.4297232 C0.532214016,31.3604941 0.277612938,29.2921841 0.0098097035,27.2257124 C-0.0343088949,26.8854644 0.0663784367,26.7622164 0.397518598,26.7712407 C0.80085283,26.7821868 1.20485553,26.7795129 1.60835687,26.7719927 C1.8950442,26.766645 2.03349973,26.8758553 2.06199299,27.1805911 C2.19175849,28.564645 2.34466954,29.94661 2.47903073,31.3304132 C2.52281509,31.7817097 2.53559946,32.2360978 2.56258868,32.6891491 C2.61656712,32.695583 2.67062911,32.7021005 2.72460755,32.7085345" id="Fill-16" fill="#FFFFFF"></path>
                <path d="M37.4790418,32.3392084 C37.479376,34.037273 37.4715216,35.7353377 37.4856429,37.4332353 C37.4886509,37.7993027 37.3627291,37.9339146 36.9995027,37.9186235 C36.4993248,37.8975668 35.9973922,37.9027474 35.4967129,37.9165345 C35.150783,37.9259765 35.0412385,37.7855992 35.0465027,37.4404213 C35.0662224,36.1463593 35.0597884,34.851796 35.0594542,33.5574833 C35.0593706,33.0580574 35.0002951,33.0128526 34.5015377,33.0356639 C34.2519501,33.0471113 34.0003571,33.0462757 33.7513544,33.0280601 C33.4388477,33.0052488 33.2927049,33.1028445 33.297217,33.4469361 C33.3147642,34.7689065 33.2974677,36.0913782 33.3233706,37.4131814 C33.3311415,37.8104995 33.1846644,37.9308229 32.8128315,37.9167016 C32.2986159,37.8973162 31.7826456,37.8978175 31.2683464,37.9157825 C30.943473,37.9272299 30.8241523,37.8087447 30.8250714,37.480362 C30.8337615,34.0566585 30.8349313,30.6328714 30.8283302,27.2090844 C30.8277453,26.9066881 30.9270957,26.7689846 31.2327507,26.7724941 C31.7894137,26.7788445 32.3461604,26.7755022 32.902907,26.7740817 C33.1905135,26.7734132 33.3283841,26.8852137 33.3236213,27.2008957 C33.3046536,28.4393081 33.3146806,29.6781383 33.2930391,30.9164671 C33.287942,31.2120116 33.3998261,31.3274887 33.6737291,31.3281571 C34.0072089,31.3290763 34.3406887,31.3261518 34.674252,31.3289927 C34.9757291,31.331583 35.0820148,31.1918741 35.0770013,30.8878903 C35.0566132,29.6495615 35.061376,28.4107313 35.0452493,27.1723189 C35.0417399,26.9064375 35.1460202,26.7778418 35.4050499,26.7763377 C35.9756671,26.7729954 36.5462844,26.7760871 37.1169852,26.7726612 C37.4506321,26.7706558 37.4835539,26.9741194 37.4823841,27.2451814 C37.475031,28.9431625 37.4787075,30.6412272 37.4790418,32.3392084" id="Fill-18" fill="#FFFFFF"></path>
                <path d="M60.5267647,7.48732722 C60.5267647,8.16882588 60.5333658,8.85049164 60.5208321,9.53173962 C60.5184925,9.65699299 60.4388617,9.78082588 60.3949102,9.90524367 C60.272665,9.85661294 60.1295302,9.83371806 60.0320181,9.75458868 C59.7408186,9.51820323 59.4527943,9.2740469 59.1918429,9.00540809 C58.9833658,8.79074771 58.8862714,8.83712237 58.717735,9.06155903 C57.4596865,10.7375644 56.1868482,12.4024566 54.916266,14.0691035 C54.627072,14.448373 54.4794251,14.4410199 54.1100154,14.1148097 C53.2344951,13.3418151 52.3497836,12.5793488 51.4646542,11.8173003 C50.9092445,11.3390981 50.9010558,11.3390981 50.4336326,11.9399633 C49.3512229,13.3315375 48.2724062,14.7259526 47.1955113,16.1217881 C46.8610288,16.5552868 46.7462202,16.5685725 46.3449749,16.1993299 C46.1095922,15.9827477 45.8691124,15.7715968 45.6295518,15.5593596 C45.3999345,15.3558124 45.3911609,15.148338 45.5827593,14.905435 C46.8996326,13.2359472 48.2107404,11.5619472 49.5254412,9.89070458 C49.8089534,9.53023558 50.1035787,9.17854016 50.3849183,8.81648356 C50.5794412,8.56597682 50.7680315,8.54349973 51.0122714,8.75983127 C51.9906515,9.62674501 52.9858267,10.4748582 53.954514,11.3523003 C54.2146299,11.5877666 54.3422229,11.5606938 54.5415922,11.292807 C55.4120989,10.1228286 56.2978968,8.96413046 57.1861178,7.80743774 C57.3589992,7.5821655 57.3482202,7.43593908 57.1134224,7.25662372 C56.7943146,7.01288518 56.4974332,6.73722749 56.209576,6.45630566 C56.0117943,6.26320323 56.0316811,6.08280162 56.3264736,5.99999569 C57.2598159,5.73787439 58.1921555,5.47182588 59.1288402,5.22248895 C59.4748536,5.13032453 59.830142,5.06790674 60.1845949,5.01509811 C60.4271636,4.97891752 60.5274332,5.09731914 60.5215841,5.35760216 C60.5058752,6.06709272 60.5162364,6.77725175 60.5162364,7.48724367 C60.5197458,7.48724367 60.5232553,7.48732722 60.5267647,7.48732722" id="Fill-20" fill="#FFFFFF" opacity="0.699999988"></path>
                <path d="M12.8999941,30.114645 C12.844428,30.1106342 12.7889456,30.1066235 12.7334631,30.1025291 C12.6872555,30.2954644 12.6252555,30.4860601 12.5975978,30.6815857 C12.4542124,31.6961464 12.3221073,32.7122111 12.1799752,33.7267717 C12.1454658,33.9734348 12.241641,34.1015291 12.4846275,34.1167367 C12.6370372,34.1264294 12.7914523,34.1109712 12.94311,34.1258445 C13.320207,34.16261 13.4338458,34.0122057 13.373517,33.6367798 C13.2435844,32.8283566 13.1469078,32.0145022 13.0384496,31.2026531 C12.9900695,30.8402623 12.9460345,30.4773701 12.8999941,30.114645 Z M12.781676,26.7755022 L13.2407434,26.7755022 C14.1555358,26.7755857 14.1634739,26.7740817 14.3346005,27.6866181 C14.7030075,29.6513997 15.0603849,31.6181868 15.4263687,33.5834698 C15.6648431,34.8643296 15.9010615,36.1456908 16.1589213,37.422707 C16.2357946,37.803397 16.123827,37.9342488 15.7439725,37.9164509 C15.3137326,37.8963135 14.8813202,37.9014105 14.4507461,37.9173701 C14.1592124,37.9281491 14.0071369,37.8021437 13.9602609,37.5253997 C13.874614,37.0192892 13.7622286,36.5156019 13.7129294,36.0059819 C13.6837677,35.7049226 13.5749752,35.5756585 13.2815197,35.5800035 C12.9477057,35.5849334 12.613641,35.5889442 12.2800776,35.5798364 C12.0019132,35.5722326 11.8876895,35.6948957 11.860366,35.9716396 C11.8114011,36.468141 11.72049,36.9604644 11.6643391,37.4564644 C11.6264038,37.7924509 11.4838539,37.9434402 11.1228,37.9211302 C10.6517003,37.8918013 10.1771747,37.9041679 9.70465445,37.9167852 C9.37485121,37.9255588 9.29881348,37.7906127 9.35889164,37.4797771 C9.79063558,35.245521 10.2097623,33.0089253 10.6355736,30.773583 C10.8666113,29.5606558 11.1099321,28.3500682 11.3313606,27.1355534 C11.3819132,26.8578903 11.5115951,26.7599604 11.7803175,26.7704887 C12.1136302,26.7835237 12.447862,26.7735803 12.781676,26.7735803 L12.781676,26.7755022 Z" id="Fill-22" fill="#FFFFFF"></path>
                <path d="M20.6013968,33.2798954 C20.6013968,34.6862593 20.5955477,36.0927067 20.606076,37.4990706 C20.6083321,37.7999628 20.5178388,37.9308146 20.2000679,37.9194507 C19.6715639,37.9005666 19.1415558,37.8998981 18.6130518,37.9171111 C18.2713833,37.9282243 18.1513105,37.8084022 18.1537337,37.4558712 C18.172952,34.6434776 18.1732863,31.8310005 18.1843995,29.018607 C18.1857364,28.6724264 18.0705935,28.5231084 17.6899871,28.5382323 C16.4630221,28.5868631 16.4625208,28.5735774 16.4303509,27.3778631 C16.4141407,26.7751596 16.414642,26.7747418 17.0178469,26.7747418 C18.6331057,26.7748253 20.2485315,26.7836825 21.8637067,26.7683914 C22.2480733,26.7647148 22.3965558,26.8861245 22.3545261,27.2777606 C22.3235261,27.5666205 22.3485935,27.8619143 22.355696,28.1542 C22.3623806,28.4306097 22.2466528,28.5685639 21.9576259,28.5572 C21.6655908,28.5458361 21.3709655,28.5721569 21.0809358,28.544917 C20.7122782,28.510324 20.5877768,28.6557984 20.5910356,29.0188577 C20.6039871,30.4390922 20.5962997,31.8594938 20.5962997,33.2798954 L20.6013968,33.2798954 Z" id="Fill-24" fill="#FFFFFF"></path>
                <path d="M39.2295976,32.3083671 C39.2295976,30.5959305 39.2349453,28.8834938 39.2245005,27.1711407 C39.2226623,26.87451 39.3449075,26.7691434 39.6188105,26.7706474 C40.1895949,26.773572 40.7604628,26.7751596 41.3312472,26.7689763 C41.6423334,26.765634 41.7308213,26.9169574 41.7296515,27.2128361 C41.7186218,30.0670086 41.723886,32.9211811 41.7085949,35.7752701 C41.7064224,36.1738415 41.8330127,36.3275881 42.2397728,36.3049439 C42.7673577,36.2756151 43.2979507,36.3063644 43.8264547,36.2888173 C44.1270962,36.2788739 44.2686434,36.388669 44.2656353,36.6940733 C44.2508456,38.1854156 44.4196326,37.8980598 43.1051825,37.9121811 C41.9775679,37.9243806 40.8497027,37.9103429 39.7221717,37.9258846 C39.3692229,37.9306474 39.227258,37.8217714 39.2307674,37.4457606 C39.2468105,35.7334075 39.2377863,34.0208038 39.2377863,32.3083671 L39.2295976,32.3083671 Z" id="Fill-26" fill="#FFFFFF"></path>
                <path d="M47.8401526,32.3215024 C47.8401526,34.0320173 47.8333844,35.7425321 47.8457509,37.4529633 C47.8483412,37.8017342 47.7103035,37.9313326 47.378662,37.9245644 C46.8782334,37.9144539 46.3762173,37.8964054 45.8773763,37.9241466 C45.4972712,37.9453704 45.3980043,37.7902032 45.3991741,37.4376722 C45.4092846,34.2948906 45.407697,31.1520253 45.4086997,28.0091601 C45.4087833,27.7171251 45.4058588,27.4250065 45.4001768,27.133055 C45.3955811,26.8903191 45.5132307,26.7720011 45.7531256,26.7719175 C46.3233251,26.7716668 46.893441,26.7700792 47.4635569,26.773338 C47.7359558,26.774842 47.850848,26.9006803 47.8490933,27.1902086 C47.8386485,28.9006399 47.8439962,30.6110712 47.8439962,32.3215024 L47.8401526,32.3215024 Z" id="Fill-28" fill="#FFFFFF"></path>
            </g>
        </g>
    </g>
</svg>