<?xml version="1.0" encoding="UTF-8"?>
<svg width="115px" height="17px" viewBox="0 0 115 17" version="1.1" xmlns="http://www.w3.org/2000/svg" xmlns:xlink="http://www.w3.org/1999/xlink">
    <!-- Generator: Sketch 50.2 (55047) - http://www.bohemiancoding.com/sketch -->
    <title>Group</title>
    <desc>Created with Sketch.</desc>
    <defs></defs>
    <g id="Page-1" stroke="none" stroke-width="1" fill="none" fill-rule="evenodd">
        <g id="ICO2018-4-02" transform="translate(-978.000000, -873.000000)" fill="#FFFFFF">
            <g id="Group" transform="translate(978.000000, 873.000000)">
                <path d="M4.29672471,9.81466824 C6.36347765,8.36945647 8.29087765,7.02165647 10.3148776,5.60648 C9.88572471,4.95869176 9.53287765,4.42563294 9.16190118,3.86578588 C7.56840706,5.00631529 6.09532471,6.06052706 4.62819529,7.11095059 C4.22501882,6.59602118 3.92926588,6.21800941 3.62837176,5.83350353 C2.47187765,6.36088 1.99726588,6.96780941 3.01305412,8.03473882 C3.46872471,8.51368 3.79830118,9.11276235 4.29672471,9.81466824 M8.95165412,10.7817506 C8.56146588,10.2963153 8.24271294,9.89936235 7.85901882,9.42204471 C7.36736,9.82630353 6.96093647,10.16048 6.48984235,10.5482329 C7.20717176,11.5502212 7.87471294,12.4829388 8.59745412,13.4927741 C10.6679953,12.0429624 12.6051365,10.6865035 14.61696,9.27782118 C14.1856424,8.63165647 13.8482188,8.12619765 13.45776,7.54118588 C11.8999835,8.66142118 10.4517953,9.70264471 8.95165412,10.7817506 M16.5110776,8.41329176 C16.4934894,13.0728212 12.8432541,16.6570329 8.14746588,16.6264565 C3.56911294,16.5964212 -0.0132047059,12.9402329 5.41176471e-05,8.31128 C0.0133129412,3.70180941 3.62106588,0.119491765 8.25001882,0.120032941 C12.9552776,0.120303529 16.5286659,3.70776235 16.5110776,8.41329176" id="Fill-1"></path>
                <path d="M88.2936176,16.2758824 L88.2936176,0.271129412 L90.5189353,0.271129412 L90.5189353,6.48572941 C90.6193235,6.50007059 90.7194412,6.51414118 90.8195588,6.52848235 C91.5804529,5.02157647 92.3389118,3.51358824 93.1027824,2.00857647 C94.1670059,-0.0876705882 94.1686294,-0.0868588235 96.7906294,0.3634 C95.8433,2.09110588 94.9527941,3.79012941 93.9862529,5.44477647 C93.5335588,6.21947059 93.4981118,6.88376471 93.8690882,7.71852941 C94.8919118,10.0217765 95.8213824,12.3661529 96.7768294,14.6988941 C96.9765235,15.1867647 97.1294059,15.6941176 97.3093471,16.2087765 C94.8123588,16.6934 94.7087235,16.6419882 93.8980412,14.5690118 C93.1985706,12.7812353 92.5015353,10.9926471 91.7593118,9.09068235 C89.7707588,11.2819059 90.8896412,13.8665647 90.4182765,16.2758824 L88.2936176,16.2758824 Z" id="Fill-3"></path>
                <path d="M108.595799,2.00078353 L108.595799,7.10678353 C109.831034,7.16928941 111.104152,7.17497176 111.527352,6.03119529 C111.863422,5.12337176 111.859634,3.86161882 111.485952,2.97706588 C111.029199,1.89525412 109.780705,1.84573647 108.595799,2.00078353 M106.229234,0.239524706 C107.673364,0.239524706 108.983011,0.131289412 110.267222,0.266042353 C111.985458,0.446254118 113.525375,1.01178353 114.059246,2.96001882 C114.654269,5.13094824 114.102269,6.95633647 112.294199,8.40993647 C113.102175,10.9661835 113.922058,13.5597718 114.742481,16.1566071 C112.824281,16.6615247 112.592116,16.5481482 112.103434,14.9508659 C111.616916,13.3603482 111.087646,11.7811953 110.656328,10.1757953 C110.358411,9.06611294 109.841858,8.52033647 108.474034,9.09560706 C108.474034,11.0208424 108.439399,13.0305012 108.489728,15.0382659 C108.512458,15.9542071 108.367152,16.4396424 107.264234,16.4285482 C106.200822,16.4177247 106.132364,15.9087482 106.136693,15.0839953 C106.160234,10.5378424 106.146434,5.99141882 106.151034,1.44499529 C106.151305,1.09350118 106.195411,0.742277647 106.229234,0.239524706" id="Fill-5"></path>
                <path d="M42.3160765,8.27886353 L42.3228412,8.27886353 C42.3228412,6.92916941 42.3591,5.57812235 42.3133706,4.22978118 C42.2619588,2.70609882 41.6539471,2.01961647 40.3976059,1.93194588 C39.0224765,1.83588706 38.1804059,2.45039294 38.1241235,3.98652235 C38.0185941,6.85935765 38.0218412,9.74247529 38.1376529,12.6147694 C38.1998882,14.1633459 38.9545588,14.6874753 40.4243941,14.6393106 C41.5662765,14.6016988 42.2438294,13.8757106 42.3033588,12.4624282 C42.3615353,11.0702518 42.3160765,9.67347529 42.3160765,8.27886353 M44.6158059,8.29293412 C44.6158059,9.64127529 44.6907588,10.9947576 44.5998412,12.3368753 C44.4185471,15.0102871 42.9389706,16.4798518 40.4611941,16.5791576 C37.8267471,16.6846871 36.1461235,15.53144 35.9391235,12.8447694 C35.6950529,9.68186353 35.7700059,6.47160471 35.9973,3.30274588 C36.1493706,1.17998118 37.6576294,0.141192941 39.9378765,0.0115811765 C42.2365235,-0.118842353 43.8865706,0.843369412 44.3249235,2.93934588 C44.6888647,4.67787529 44.6620765,6.49812235 44.8081941,8.28238118 C44.7440647,8.28589882 44.6799353,8.28941647 44.6158059,8.29293412" id="Fill-7"></path>
                <path d="M61.0219494,7.14961765 C62.2444671,7.1323 63.4028553,7.16098235 64.0482082,6.02505294 C64.6364671,4.98951176 64.6578435,3.82300588 63.9134553,2.85402941 C63.1985612,1.92401765 62.1478671,1.79007647 61.0219494,2.04524118 L61.0219494,7.14961765 Z M58.6361729,0.0964647059 C60.4101494,0.204970588 61.9841612,0.207135294 63.5286788,0.421441176 C65.1992906,0.653064706 66.3330553,1.64477059 66.6171729,3.37301765 C66.9058906,5.13048824 66.7908906,6.80407647 65.2198553,8.02037059 C65.0796906,8.12860588 64.9449376,8.24360588 64.74822,8.40379412 C65.5691847,10.9938647 66.3906906,13.5855588 67.2165259,16.1907824 C65.1357024,16.6139824 65.0593965,16.5761 64.5303965,14.8759941 C64.0357612,13.2860176 63.4826788,11.7101118 63.08302,10.0963235 C62.7999847,8.95335882 62.2133494,8.63541765 60.9310318,9.05564118 C60.9310318,10.9808765 60.8485024,12.9924294 60.9602553,14.9931588 C61.0343965,16.3209353 60.4047376,16.5720412 59.3591847,16.3555706 C59.0802082,16.2976647 58.6686435,15.8850176 58.6664788,15.6325588 C58.6258906,10.5484765 58.6361729,5.46385294 58.6361729,0.0964647059 Z" id="Fill-9"></path>
                <path d="M72.4426671,4.50199294 C72.3374082,4.50659294 72.2321494,4.51092235 72.12662,4.51525176 C71.8075965,6.50245176 71.4888435,8.48965176 71.1625141,10.52204 L73.4157024,10.52204 C73.0801729,8.44744 72.76142,6.47485176 72.4426671,4.50199294 M76.8792318,16.2268518 C74.6558082,16.5726635 74.6371376,16.5623812 74.2301729,14.7112871 C74.1722671,14.4480047 74.1484553,14.1774165 74.0965024,13.9127812 C73.7972318,12.3899106 72.6569729,11.7705341 71.1933612,12.3717812 C70.9912318,12.4548518 70.8047965,12.73004 70.7366082,12.9540871 C70.5674906,13.5117694 70.4695376,14.0910988 70.3456082,14.66204 C69.9340435,16.5548047 69.9297141,16.5583224 67.7390318,16.2357812 C68.0012318,14.8887929 68.2428671,13.5426165 68.5277965,12.20564 C69.3062788,8.55486353 70.1058671,4.90841647 70.8905729,1.25899294 C71.01802,0.665322353 71.1181376,0.0610988235 71.9507376,0.191792941 C72.5473847,0.285416471 73.3653729,-0.166465882 73.5869847,0.872592941 C74.6739376,5.96560471 75.7695494,11.0569929 76.8792318,16.2268518" id="Fill-11"></path>
                <path d="M32.2876706,10.6897235 L34.4288353,10.6897235 C34.4859294,12.5419 34.4239647,14.3221 33.0098706,15.5933235 C31.7064471,16.7652412 30.0699294,16.8407353 28.4282706,16.2814294 C26.8234118,15.7345706 26.0213882,14.4449471 25.9369647,12.9012412 C25.7781294,9.98917059 25.6652941,7.05139412 25.8725647,4.14852353 C26.0849765,1.17340588 27.9279529,-0.236358824 30.6330235,0.0353117647 C33.2301294,0.296158824 34.5373412,2.08339412 34.3479294,5.26226471 L32.2803647,5.26226471 C32.1916118,4.6667 32.1023176,4.09575882 32.0227647,3.52346471 C31.8736706,2.45464118 31.2277765,1.94079412 30.1843882,1.93240588 C29.1759059,1.92428824 28.2664588,2.34748824 28.2358824,3.39791176 C28.1419882,6.62548824 28.1382,9.85955882 28.2437294,13.0863235 C28.2756588,14.0653118 29.1001412,14.6289471 30.1500235,14.6297588 C31.2353529,14.6303 31.7943882,14.0093 31.9721647,13.0035235 C32.0974471,12.2970176 32.1686118,11.5807706 32.2876706,10.6897235" id="Fill-13"></path>
                <path d="M86.6088,5.21664353 C84.4928,5.60358471 84.4698,5.60142 84.2465647,3.77413765 C84.1161412,2.70720824 83.6823882,1.95767882 82.5018118,1.93711412 C81.3298941,1.91682 80.3674118,2.37519647 80.3289882,3.64614941 C80.2394235,6.61071412 80.1812471,9.58393765 80.3173529,12.5439024 C80.3877059,14.0694788 81.2695529,14.7207847 82.4642,14.6249965 C83.8720706,14.5121612 84.1518588,13.4901494 84.2600941,12.3420435 C84.3098824,11.8141259 84.3645412,11.2864788 84.4238,10.6882082 L86.5682118,10.6882082 C86.6886235,12.6483494 86.6247647,14.5164906 84.9833765,15.7728318 C83.5479059,16.87142 81.8775647,16.8294788 80.2372588,16.1099847 C79.0044588,15.5693494 78.2633176,14.5175729 78.2081176,13.2831494 C78.0641647,10.0604435 77.9045176,6.81149059 78.1678,3.60691412 C78.3769647,1.06040824 80.1225294,-0.104744706 82.5537647,0.00809058824 C84.9108588,0.117678824 86.2088706,1.39269059 86.5433176,3.94677294 C86.5952706,4.34291412 86.5863412,4.74690235 86.6088,5.21664353" id="Fill-15"></path>
                <path d="M98.3168824,0.26956 L104.635388,0.26956 C104.658659,0.76636 104.680306,1.23068941 104.709529,1.85141882 L100.768682,1.85141882 L100.768682,7.09054824 C101.685435,7.13979529 102.5616,7.18660706 103.518671,7.23801882 C103.545729,7.75754824 103.568188,8.18967765 103.598494,8.76981882 C102.618694,8.83476 101.706541,8.89510118 100.724576,8.96031294 L100.724576,14.6575482 C101.761471,14.6575482 102.741271,14.6794659 103.719447,14.6499718 C104.368588,14.6304894 104.8616,14.8180071 104.667588,15.5342541 C104.575859,15.8719482 104.124518,16.3354659 103.814694,16.3525129 C102.289659,16.4366659 100.754612,16.4366659 99.2293059,16.3525129 C98.9113647,16.3349247 98.3585529,15.8375835 98.3558471,15.5567129 C98.3022706,10.5205247 98.3168824,5.48379529 98.3168824,0.26956" id="Fill-17"></path>
                <path d="M52.2438235,2.31523412 C51.2050353,2.26490471 50.3283294,2.22269294 49.3953412,2.17777529 L49.3953412,0.279057647 L57.3265529,0.279057647 L57.3265529,2.17425765 C56.4398353,2.21998706 55.6002,2.26328118 54.6339294,2.31306941 C54.6052471,2.84504588 54.5581647,3.32263412 54.5573529,3.80049294 C54.5511294,7.54164588 54.5338118,11.2827988 54.5679059,15.0236812 C54.5762941,15.9231165 54.4756353,16.4412929 53.3540471,16.4291165 C52.2800824,16.4172106 52.2281294,15.8922694 52.2332706,15.0759047 C52.2570824,11.3350224 52.2438235,7.59386941 52.2438235,3.85271647 L52.2438235,2.31523412 Z" id="Fill-19"></path>
                <path d="M21.2475894,0.257275294 L23.5099776,0.257275294 L23.5099776,1.74605176 C23.5099776,6.03000471 23.5102482,10.3142282 23.5099776,14.5981812 C23.5097071,16.6156871 23.4063424,16.69064 21.2475894,16.1824753 L21.2475894,0.257275294 Z" id="Fill-21"></path>
            </g>
        </g>
    </g>
</svg>