<?xml version="1.0" encoding="UTF-8"?>
<svg width="115px" height="18px" viewBox="0 0 115 18" version="1.1" xmlns="http://www.w3.org/2000/svg" xmlns:xlink="http://www.w3.org/1999/xlink">
    <!-- Generator: Sketch 50.2 (55047) - http://www.bohemiancoding.com/sketch -->
    <title>Group</title>
    <desc>Created with Sketch.</desc>
    <defs>
        <polygon id="path-1" points="0.0277858881 0.158588925 7.44008074 0.158588925 7.44008074 8.39669668 0.0277858881 8.39669668"></polygon>
    </defs>
    <g id="Page-1" stroke="none" stroke-width="1" fill="none" fill-rule="evenodd">
        <g id="ICO2018-4-02" transform="translate(-581.000000, -872.000000)">
            <g id="Group" transform="translate(581.000000, 872.000000)">
                <path d="M8.81971019,4.43341211 C6.31603465,4.40556959 4.43815087,6.43298046 4.39289454,8.71419967 C4.34441771,11.1594181 6.23043746,13.2199344 8.81072672,13.2275741 C11.2296526,13.2345348 13.21466,11.255339 13.1868621,8.81046009 C13.1575387,6.23910144 11.1904982,4.45768943 8.81971019,4.43341211 M15.0879672,4.94391491 C15.6279923,5.79463974 15.9652961,6.71836629 16.1083536,7.70049423 C16.3095494,9.07954787 16.1686954,10.4268542 15.5993469,11.7130429 C15.4986643,11.9403669 15.4217115,12.1897612 15.2727216,12.3810936 C15.0572879,12.6585002 15.1488175,12.8179156 15.3693362,13.027074 C16.0593683,13.6818826 16.7229584,14.3648732 17.4126514,15.0200213 C17.6207967,15.2178051 17.5782523,15.3352869 17.397227,15.5110004 C16.7573668,16.1320244 16.126151,16.7620463 15.4998508,17.3968218 C15.2532292,17.6467254 15.1906839,17.631446 14.9466047,17.3783168 C14.2455553,16.650846 13.5284033,15.9386547 12.8053189,15.2329147 C12.7526046,15.181474 12.5809017,15.1923393 12.50022,15.2378381 C10.9686235,16.1004469 9.33532734,16.439141 7.59863656,16.1554529 C6.69673029,16.0080912 5.84228385,15.6914675 5.0451282,15.2286704 C4.97071797,15.1853787 4.79189611,15.2161073 4.72714734,15.2796019 C4.00626642,15.9860209 3.29792846,16.7055124 2.587048,17.4221178 C2.41331112,17.5973219 2.28381359,17.6547047 2.06804086,17.4231364 C1.46055504,16.7707047 0.823915315,16.1445875 0.181851614,15.52611 C-0.0195136654,15.3320613 -0.0413790872,15.2101653 0.167952663,15.007628 C0.885104596,14.313772 1.58056061,13.5975062 2.29703454,12.9033106 C2.49094185,12.7152038 2.39788668,12.5683515 2.30296702,12.3992591 C1.66225931,11.2558483 1.33546448,10.0231377 1.35122793,8.71725556 C1.36563538,7.52325282 1.68819272,6.39172599 2.25923618,5.34440581 C2.43110856,5.02981928 2.43246456,4.83135643 2.16024853,4.57618991 C1.46699601,3.92596519 0.808660369,3.23856052 0.123204824,2.57967745 C-0.0564645331,2.4068501 -0.0278191357,2.30787333 0.132866289,2.14828815 C0.840695755,1.44509473 1.53666026,0.730187083 2.25601569,0 C3.08046074,0.886207062 3.89134583,1.75832309 4.61510824,2.5365555 C5.49481009,2.20006845 6.14433177,1.91671987 6.81571886,1.70111011 C8.52274725,1.15342735 10.1858753,1.36564169 11.8086625,2.06306288 C11.9279901,2.11433386 12.0479956,2.16492576 12.1657977,2.21993171 C12.7009073,2.47000508 12.7081958,2.47815411 13.1429617,2.04829276 C13.7592615,1.43847365 14.3699678,0.822712533 14.9684702,0.195746502 C15.160852,-0.0057722299 15.299672,0.0285216066 15.4723919,0.200669875 C16.137338,0.864306542 16.8021146,1.52828275 17.4772307,2.18139359 C17.6658835,2.36406769 17.5499459,2.45693268 17.4223129,2.58341243 C16.6795665,3.31852288 15.9407187,4.05770785 15.2017013,4.79689282 C15.1613605,4.83712866 15.1310201,4.88755079 15.0879672,4.94391491" id="Fill-1" fill="#FFFFFF"></path>
                <path d="M90.777931,10.3883661 C90.7450809,9.85605876 90.7622049,9.38600658 90.6781575,8.93325693 C90.5285847,8.12631424 90.1090467,7.74972967 89.2371208,7.67814468 C88.5708575,7.62335332 88.0536429,7.96736841 87.8215953,8.67745084 C87.5566975,9.48846472 87.559668,10.3217005 87.7515267,11.141196 C87.9170004,11.8478858 88.3629232,12.2336305 88.9447897,12.2835025 C89.7597521,12.3533912 90.2748699,12.139654 90.5481549,11.5033618 C90.7036688,11.1415353 90.7139781,10.7211855 90.777931,10.3883661 M90.6669745,6.97705278 C90.6542189,5.72584207 90.6446085,4.50787938 90.6269603,3.28991668 C90.6238151,3.06651043 90.7197444,3.00696935 90.9388617,3.01358503 C91.4401754,3.02868234 91.9421881,3.02698601 92.4436766,3.01901328 C92.8242487,3.0129065 92.8929194,3.07787582 92.8929194,3.44088977 C92.8929194,6.80674156 92.8941425,10.1725934 92.9039277,13.5382755 C92.9044519,13.772199 92.8209287,13.8680415 92.590279,13.8673629 C92.1859429,13.8661755 91.7805585,13.8848351 91.3781446,13.8588813 C91.2649165,13.8515871 91.1212846,13.7387813 91.0601275,13.6361536 C90.9285523,13.4151222 90.8415344,13.1693244 90.7314516,12.9226785 C90.410464,13.191207 90.1335096,13.4750025 89.8067558,13.6868737 C88.6786688,14.4188388 86.9112277,14.0290229 86.1541024,12.9360795 C85.4223136,11.8794375 85.3304032,10.7055793 85.3836972,9.49016105 C85.4275556,8.49068525 85.6748052,7.55651804 86.3693755,6.79418874 C87.0503165,6.04661749 87.9243392,5.76841988 88.9435665,5.93601697 C89.6697638,6.05543839 90.2718994,6.37638343 90.6669745,6.97705278" id="Fill-3" fill="#FFFFFF"></path>
                <path d="M69.8092492,7.1233289 C69.9310949,7.00793204 69.9891402,6.97119134 70.0236714,6.91771895 C70.8621214,5.61989234 73.2316182,5.63403664 74.1637957,6.79455996 C74.5901736,7.32514405 74.786508,7.95801564 74.7968674,8.63487258 C74.8226835,10.3402968 74.8157773,12.046411 74.8253145,13.7521801 C74.82663,13.9871137 74.7282983,14.0673222 74.5068054,14.0607676 C74.0113652,14.0461058 73.5146095,14.0371362 73.0194981,14.0568003 C72.7254897,14.0687022 72.6500144,13.9619299 72.6528098,13.6592072 C72.6666223,12.1226522 72.6644847,10.5860973 72.6539609,9.04971482 C72.6485345,8.25935842 72.2770777,7.79069881 71.6461437,7.72773938 C70.8876087,7.65201558 70.2379292,8.08065715 70.0986534,8.80115446 C70.0054192,9.28361339 69.9462229,9.78056162 69.937179,10.2723351 C69.915967,11.4209565 69.932246,12.5704404 69.9380012,13.7195792 C69.9391522,13.9439908 69.8587439,14.0569728 69.6339623,14.0545579 C69.1265184,14.0486932 68.6190744,14.0486932 68.1116305,14.0536954 C67.8779695,14.0557653 67.7939436,13.959515 67.7947658,13.70371 C67.8052896,10.2800972 67.8102226,6.85613945 67.8031519,3.43252667 C67.8024942,3.1125548 67.8814226,3.00147022 68.1941765,3.01906436 C68.6417664,3.04459312 69.0923161,3.03096628 69.5408926,3.01406211 C69.7911614,3.00440258 69.9442497,3.06373968 69.9381656,3.36473748 C69.9174469,4.38019538 69.9062654,5.39582578 69.8839023,6.41128368 C69.8792982,6.61706613 69.8418072,6.82233111 69.8092492,7.1233289" id="Fill-5" fill="#FFFFFF"></path>
                <path d="M52.2295308,12.3817288 C52.2295308,12.1321195 52.2361441,11.8825103 52.2275469,11.6332404 C52.2204376,11.4255438 52.2930181,11.3887218 52.480008,11.4523543 C53.2109382,11.7014545 53.9359166,11.979062 54.6822227,12.1662266 C55.2357523,12.3050303 55.8233403,12.3089331 56.2976761,11.8806437 C56.7607695,11.4627052 56.7875532,10.9008723 56.3214839,10.4927756 C55.9751145,10.1893756 55.5712098,9.94163293 55.1631718,9.72918509 C54.4304229,9.3478989 53.6861008,9.0002107 53.1090941,8.36846683 C52.3209591,7.5052702 52.1741448,6.49274921 52.5220022,5.42134691 C52.858121,4.38608789 53.6454293,3.87040977 54.6718068,3.63030299 C55.9944583,3.32079431 57.2093137,3.68884492 58.4307823,4.10797126 C58.633148,4.17737315 58.6774568,4.31702537 58.6045457,4.49740241 C58.4415289,4.90091756 58.2634669,5.29798462 58.0968128,5.69997259 C57.9962913,5.94262468 57.8668368,5.96621114 57.6332235,5.84861821 C56.8384753,5.44849679 55.993797,5.27287098 55.1162177,5.44646055 C54.8032453,5.50822654 54.5668214,5.75546017 54.4882889,6.09568215 C54.3806582,6.56028455 54.5200326,6.95175194 54.9090574,7.21306957 C55.207646,7.41380903 55.5391355,7.56194558 55.8469827,7.74860104 C56.5215349,8.15754617 57.266849,8.4869082 57.8468317,9.00852535 C59.3422545,10.3541415 58.921486,12.8127332 57.1001949,13.6318112 C55.7246374,14.2508286 54.3262641,14.1344235 52.9288828,13.6998556 C52.8295186,13.668803 52.7370984,13.6107701 52.6365768,13.587523 C52.3168258,13.5140486 52.2040698,13.3153454 52.2412694,12.9878499 C52.2639198,12.7882983 52.2454027,12.5838257 52.2454027,12.3817288 L52.2295308,12.3817288 Z" id="Fill-7" fill="#FFFFFF"></path>
                <path d="M99.4770014,12.9182288 C99.0556748,13.4479541 98.5728117,13.8012739 97.9681988,13.9532539 C96.9435828,14.2105684 95.5997047,14.03552 94.9578722,13.1238091 C94.6056914,12.6235978 94.4346464,12.0674118 94.43018,11.4605091 C94.4177735,9.7602319 94.4190968,8.05961544 94.410495,6.3591686 C94.409337,6.12356554 94.4766633,6.0163653 94.7342234,6.0278995 C95.1967397,6.04876284 95.6614066,6.04180839 96.1244193,6.02688178 C96.426643,6.0172134 96.5586487,6.10813006 96.5563328,6.45245995 C96.5459113,7.98633933 96.549716,9.52038833 96.5722132,11.0540981 C96.5828001,11.7685402 96.8946182,12.1852981 97.4092422,12.2780806 C98.232872,12.4264986 98.8593204,12.1491689 99.0665926,11.4213268 C99.2290357,10.8502141 99.2950386,10.2365266 99.314062,9.63895315 C99.3479732,8.57017355 99.3213405,7.49918887 99.3043022,6.42922192 C99.2990087,6.10541613 99.4343229,6.01670454 99.7261251,6.03095267 C100.142654,6.05130715 100.560838,6.04995018 100.978029,6.04045143 C101.399521,6.03095267 101.440876,6.05826159 101.440876,6.48604483 C101.441538,8.68636368 101.440049,10.8865129 101.44038,13.0868318 C101.440546,13.8672563 101.442034,13.8672563 100.690197,13.8689525 C100.667038,13.8689525 100.643879,13.8689525 100.62072,13.8691221 C99.8392728,13.8725145 99.8400999,13.8721753 99.603052,13.1229609 C99.58651,13.0703786 99.5448239,13.0264468 99.4770014,12.9182288" id="Fill-9" fill="#FFFFFF"></path>
                <path d="M81.8820014,8.85310405 C81.7714107,8.3237733 81.7449615,7.83147764 81.3315274,7.51062733 C80.5251572,6.88500535 79.2782425,7.19537744 79.0669795,8.49919315 C79.021024,8.78210508 79.0580529,8.85888514 79.3164286,8.854188 C79.9510442,8.84244517 80.5861557,8.85220076 81.2211019,8.85310405 C81.4249261,8.85346537 81.6287503,8.85310405 81.8820014,8.85310405 Z M81.4178179,10.3997254 C80.6993914,10.3997254 79.9809648,10.4102036 79.2628689,10.394125 C78.9922605,10.3881632 78.9796971,10.5444332 79.0096178,10.7550816 C79.1762478,11.9320747 79.7182912,12.424551 80.7139384,12.4778454 C81.54527,12.5226488 82.3754444,12.3792056 83.1183364,11.8973882 C83.3256321,11.7626166 83.4200227,11.8354221 83.4190308,12.089248 C83.4172124,12.5069315 83.4319248,12.9258796 83.4046491,13.3417565 C83.3958878,13.4756248 83.3043074,13.6756143 83.2044617,13.7191531 C81.7786842,14.3373681 80.3289372,14.4811726 78.8834882,13.8219481 C77.5666484,13.2214377 76.9847659,12.0260173 76.864422,10.5471431 C76.781107,9.5215422 76.8540076,8.49557997 77.2755418,7.54495253 C77.9698335,5.97918133 79.527361,5.35699188 80.9364424,5.56185914 C81.7578555,5.68127471 82.4652064,6.00917072 83.027252,6.69712003 C83.6246734,7.42860816 83.8228771,8.30317818 83.8506488,9.24820519 C83.8587489,9.5255167 83.8562692,9.80337017 83.864204,10.0806817 C83.8713122,10.3298104 83.7903115,10.4463354 83.5385482,10.4410963 C82.8318585,10.4261016 82.1246729,10.4358572 81.4178179,10.4358572 L81.4178179,10.3997254 Z" id="Fill-11" fill="#FFFFFF"></path>
                <g id="Group-15" transform="translate(107.467249, 5.524017)">
                    <mask id="mask-2" fill="white">
                        <use xlink:href="#path-1"></use>
                    </mask>
                    <g id="Clip-14"></g>
                    <path d="M2.36113207,3.30313044 C3.206552,3.30313044 4.02657078,3.30381341 4.84658957,3.30295969 C5.34129862,3.30227672 5.30713847,3.30671603 5.22970879,2.83734528 C5.1000754,2.0493693 4.28916599,1.65393 3.62242993,1.75005795 C2.83884863,1.86308939 2.32084061,2.48151821 2.36113207,3.30313044 M4.78860491,4.76127017 C4.04023484,4.76127017 3.2916896,4.76519725 2.54314436,4.75887978 C2.29070961,4.75700162 2.28300168,4.87242345 2.30174596,5.07970467 C2.42069336,6.39442083 3.5339639,6.91364834 4.81821037,6.71097716 C5.46935539,6.60819026 6.1285587,6.52520948 6.70542729,6.16340642 C6.91546842,6.03159332 7.00235782,6.17279725 7.00463517,6.35907716 C7.00954022,6.75366275 7.02495608,7.1513217 6.97993475,7.54146799 C6.96346781,7.68472083 6.81701711,7.88124528 6.68107723,7.93349245 C5.34217452,8.44947585 3.96525769,8.54099376 2.5720491,8.1747514 C1.20862115,7.81636319 0.0992045801,6.42344703 0.0545336143,5.04777585 C0.0270303138,4.19969856 -0.044793592,3.34479157 0.273158576,2.52796013 C0.738962882,1.3310562 1.56458744,0.547861004 2.89280415,0.264599432 C3.88993018,0.0520251965 4.82696938,0.15651952 5.70900198,0.60181559 C6.88253453,1.19395009 7.33047045,2.23684441 7.41192927,3.46448197 C7.43260054,3.77489157 7.4196372,4.08717934 7.43838149,4.39741821 C7.45572433,4.68597279 7.34711257,4.80941952 7.03581725,4.80344354 C6.28709683,4.78893044 5.53785087,4.79883349 4.78878009,4.79883349 C4.78878009,4.7863693 4.78878009,4.77373437 4.78860491,4.76127017" id="Fill-13" fill="#FFFFFF" mask="url(#mask-2)"></path>
                </g>
                <path d="M32.224351,9.45730197 C32.3245408,9.96774062 32.3847224,10.4674579 32.5259374,10.9438896 C32.7064824,11.5533336 33.1736955,11.8270641 33.8894334,11.8273991 C34.5512621,11.8277341 35.0678072,11.5204993 35.240554,10.954276 C35.5273916,10.0133065 35.5624835,9.05943791 35.2325863,8.11796591 C35.0339021,7.55123998 34.5632984,7.26578299 33.8658693,7.24852825 C33.2182808,7.23261369 32.7422523,7.49243986 32.5476367,8.05966836 C32.3942159,8.50594619 32.3304742,8.98237793 32.224351,9.45730197 M30.1439304,9.5933296 C30.0703562,8.52001801 30.3071838,7.57720584 30.9490084,6.78834612 C31.8356284,5.69811484 33.0643513,5.41483563 34.4095385,5.55873678 C35.6365663,5.6900738 36.5826897,6.29784256 37.1551784,7.38522596 C37.6100161,8.24896789 37.7498748,9.19010485 37.6142542,10.1567051 C37.5227103,10.8083645 37.3774267,11.4441094 37.0017575,12.0143533 C36.4765666,12.8117567 35.7309921,13.2871833 34.8106366,13.4573853 C33.9770782,13.6115053 33.1292797,13.620719 32.3250493,13.2684208 C30.9630791,12.671876 30.305658,11.5866704 30.1471514,10.1657513 C30.1239264,9.95685171 30.1439304,9.74342905 30.1439304,9.5933296" id="Fill-16" fill="#FFFFFF" opacity="0.600000024"></path>
                <path d="M45.5879507,6.61510883 C46.0139708,6.31350989 46.372324,5.98312196 46.788583,5.78074221 C47.7468388,5.31532021 49.4620041,5.44778384 50.1649787,6.46705117 C50.5769361,7.06425134 50.7142552,7.72999673 50.7180604,8.43601244 C50.7258363,9.83005072 50.7124353,11.224089 50.7155787,12.6181273 C50.7175641,13.5400604 50.723851,13.5390322 49.8144014,13.5407459 C49.5129611,13.54126 49.2111899,13.5452013 48.9097497,13.5529127 C48.6913626,13.5585676 48.5967283,13.4617475 48.5985482,13.2288652 C48.6094675,11.8951467 48.618567,10.5612568 48.6147617,9.22770966 C48.6137691,8.89355174 48.6011953,8.55048294 48.5277378,8.22763499 C48.3488921,7.44159275 47.6432704,7.06733588 46.9030707,7.34134537 C46.3710005,7.53841286 45.9927939,7.91009928 45.9554034,8.51021263 C45.8814496,9.69398847 45.8472025,10.8806775 45.8076612,12.0665097 C45.7944257,12.4620156 45.808323,12.8592351 45.8223858,13.2550837 C45.8301617,13.4740857 45.7398289,13.5611381 45.5356701,13.5589104 C45.0254386,13.5532554 44.5150417,13.5518845 44.0048102,13.5529127 C43.7677279,13.5532554 43.6888108,13.4422121 43.6899689,13.1947639 C43.7022118,10.8275549 43.7088296,8.46034599 43.7025427,6.09296566 C43.7017154,5.79736443 43.7761656,5.67226941 44.0711535,5.687178 C44.3950942,5.70345748 44.7223439,5.6681567 45.0441339,5.6996875 C45.1566363,5.71065473 45.2999114,5.83078022 45.3541773,5.94062392 C45.4623781,6.15945452 45.5186293,6.40553184 45.5879507,6.61510883" id="Fill-18" fill="#FFFFFF" opacity="0.600000024"></path>
                <path d="M25.6896426,14.0531462 C24.8231865,14.1050126 24.0144942,13.9026485 23.2564076,13.4953695 C22.1530702,12.9027318 21.579761,11.9067264 21.3174104,10.705636 C20.9438605,8.99608462 20.9843117,7.32428518 21.8181404,5.73649234 C22.4214136,4.58794861 23.3827553,3.96674188 24.5984573,3.65843424 C25.9363454,3.3191768 27.1798472,3.6279946 28.4148592,4.11366841 C28.6161167,4.1929135 28.6642254,4.30906029 28.5941432,4.49782006 C28.4331704,4.93094723 28.2858479,5.37121666 28.091582,5.78852882 C28.0537942,5.86981456 27.7982687,5.92763287 27.6940609,5.88001779 C27.1711909,5.64126218 26.6503185,5.44467993 26.0680201,5.38431081 C24.7567666,5.24843778 23.8898111,5.88869054 23.5210887,7.1885822 C23.2021396,8.31280824 23.2056354,9.45574019 23.5327413,10.5746946 C23.8408701,11.6283482 24.6027854,12.3168963 25.9240269,12.2260875 C26.6248492,12.1779623 27.318014,11.956042 28.0040208,11.7715336 C28.2731965,11.6990906 28.3459422,11.7596298 28.3434452,12.016071 C28.33945,12.4213094 28.3654187,12.8290985 28.3277974,13.2305957 C28.315146,13.3664687 28.1723181,13.5542081 28.0464697,13.6023334 C27.6659282,13.7473893 27.2695724,13.863366 26.8698873,13.9380197 C26.4825206,14.0102926 26.0835014,14.0174348 25.6896426,14.0531462" id="Fill-20" fill="#FFFFFF" opacity="0.600000024"></path>
                <path d="M66.1213602,12.5558254 C66.1213602,12.6311534 66.1085742,12.7095232 66.1233273,12.7812727 C66.2429913,13.3627837 65.9882546,13.6814517 65.5061564,13.843738 C64.2213261,14.2762032 62.9550192,14.3175352 61.7465771,13.5733801 C61.0680989,13.1557658 60.6723882,12.4683304 60.4856797,11.673718 C60.1776679,10.362545 60.1548826,9.03992069 60.6261619,7.75809161 C61.0672793,6.55821084 61.8993536,5.90083506 63.0573073,5.62725652 C64.1049406,5.37998017 65.0793003,5.61312133 66.0602169,5.94467204 C66.2957745,6.02411539 66.3252807,6.20286291 66.254302,6.41668002 C66.1254583,6.80459256 65.9835008,7.18731623 65.846461,7.5720081 C65.7577785,7.82125264 65.6169685,7.86133217 65.3820665,7.77330035 C64.9829134,7.6240757 64.5752364,7.46930432 64.1600188,7.41043752 C63.3084376,7.28930431 62.7335589,7.7877934 62.5416048,8.70550715 C62.3773537,9.49063641 62.3516178,10.2687875 62.5460307,11.0498015 C62.7370013,11.8168592 63.1733649,12.2266007 63.894791,12.257555 C64.5470416,12.2854675 65.1719169,12.1580719 65.731059,11.7513721 C65.8253149,11.6828433 65.9561256,11.6740759 66.0700523,11.6375749 C66.0918541,11.7554874 66.1259501,11.8726842 66.1328349,11.9914914 C66.1433259,12.1790063 66.1356216,12.3675948 66.1356216,12.5558254 L66.1213602,12.5558254 Z" id="Fill-22" fill="#FFFFFF"></path>
                <path d="M105.957292,8.53397902 C105.957292,10.2496363 105.954048,11.9652935 105.960537,13.6809508 C105.961618,13.9408518 105.881593,14.0646799 105.643681,14.0610582 C105.178362,14.0538148 104.713043,14.0498481 104.247725,14.0534699 C104.049825,14.055022 103.948944,13.9850022 103.952034,13.7395881 C103.968719,12.3874818 103.983395,11.0352031 103.985403,9.6829244 C103.988493,7.68977494 103.98046,5.69679793 103.976598,3.70364847 C103.976443,3.595342 103.978915,3.48582829 103.965783,3.37872906 C103.932259,3.10675565 104.032677,3.01034909 104.27615,3.01793744 C104.718605,3.03156198 105.161987,3.02587072 105.60475,3.01345342 C105.84637,3.00672738 105.961773,3.09485573 105.960691,3.38700726 C105.953894,5.10266451 105.957292,6.81849423 105.957292,8.53397902" id="Fill-24" fill="#FFFFFF"></path>
                <path d="M39.1782834,9.76955595 C39.1782834,8.65454471 39.1874683,7.53936938 39.172212,6.42452224 C39.1681645,6.11881717 39.2626601,6.01609502 39.5473923,6.02823789 C39.971922,6.04645221 40.3980085,6.04169351 40.8228495,6.02676106 C41.0738,6.01806414 41.175301,6.10946388 41.174834,6.38284265 C41.1706307,8.68178413 41.1742113,10.9807256 41.1790372,13.279503 C41.1795043,13.4890496 41.100265,13.5584609 40.9022445,13.5538663 C40.4336584,13.542708 39.9646052,13.5458258 39.4960191,13.558625 C39.2589238,13.5650247 39.1681645,13.4783836 39.1703439,13.2181323 C39.1806186,12.0688256 39.1748585,10.9191908 39.1748585,9.76955595 L39.1782834,9.76955595 Z" id="Fill-26" fill="#FFFFFF" opacity="0.600000024"></path>
                <path d="M40.4036143,3.01311627 C41.1802825,3.0102279 41.67722,3.40272503 41.6811955,4.02195906 C41.6853517,4.6375024 41.2131707,5.01892745 40.4440921,5.02181582 C39.6108634,5.02470419 39.170125,4.68451861 39.1703057,4.03864741 C39.1704864,3.3699902 39.5960457,3.0161651 40.4036143,3.01311627" id="Fill-28" fill="#FFFFFF" opacity="0.600000024"></path>
                <path d="M11.1407132,6.74943303 C11.2831661,6.90249243 11.2939765,7.02462181 11.1248464,7.18475092 C10.7320111,7.55644135 10.3607966,7.95181533 9.97772552,8.33428708 C9.82184681,8.48982087 9.70031721,8.64323375 9.80929282,8.88713903 C9.84695479,8.97144541 9.86561141,9.09940731 9.82934433,9.17664398 C9.61923936,9.62592456 9.87781668,9.88768087 10.1723124,10.1496139 C10.3097088,10.2717433 10.4066535,10.4513141 10.5581732,10.5437507 C10.9232851,10.7659166 10.787981,10.9325852 10.5564296,11.1545743 C10.0099823,11.6782637 10.0173055,11.6860404 9.48306344,11.1542209 C9.39588295,11.0672633 9.30085622,10.987022 9.22343995,10.8921111 C9.01438114,10.6349501 8.81334294,10.5400391 8.44456948,10.6496197 C7.77502334,10.8486323 6.86991553,10.1460791 6.75623218,9.44600024 C6.56495819,8.2673015 7.44548111,7.38323325 8.53262177,7.5488414 C8.69233642,7.57323193 8.91325178,7.49193017 9.03931476,7.38146582 C9.51636638,6.96346874 9.96586897,6.51330445 10.4770953,6.02620087 C10.6917337,6.26038528 10.914567,6.50658822 11.1407132,6.74943303 Z" id="Fill-30" fill="#FFFFFF" opacity="0.600000024"></path>
            </g>
        </g>
    </g>
</svg>