<?xml version="1.0" encoding="UTF-8"?>
<svg width="114px" height="35px" viewBox="0 0 114 35" version="1.1" xmlns="http://www.w3.org/2000/svg" xmlns:xlink="http://www.w3.org/1999/xlink">
    <!-- Generator: Sketch 50.2 (55047) - http://www.bohemiancoding.com/sketch -->
    <title>Group</title>
    <desc>Created with Sketch.</desc>
    <defs>
        <polygon id="path-1" points="0 0 34.1999495 0 34.1999495 34.2 0 34.2"></polygon>
    </defs>
    <g id="Page-1" stroke="none" stroke-width="1" fill="none" fill-rule="evenodd">
        <g id="ICO2018-4-02" transform="translate(-188.000000, -862.000000)">
            <g id="Group" transform="translate(188.000000, 862.000000)">
                <path d="M114,26.8592251 L109.461304,26.8592251 C109.461304,26.4376417 109.466656,26.082159 109.4603,25.7268463 C109.420159,23.3823938 109.439561,21.0345428 109.308933,18.6951881 C109.244037,17.5351115 108.511282,16.9053702 107.520784,16.7910108 C106.186405,16.6370589 105.093043,17.1515912 104.691626,18.2217776 C104.498778,18.7352903 104.397253,19.3135444 104.389392,19.8644406 C104.356944,22.1521382 104.375844,24.4405155 104.375844,26.8677214 C102.904648,26.8677214 101.497846,26.8884522 100.094055,26.8318673 C99.9697829,26.8269394 99.7675687,26.3193741 99.7658961,26.0442658 C99.7438182,22.4223187 99.7511775,18.8000317 99.7511775,15.1779146 L99.7511775,7.33350615 C101.195947,7.33350615 102.577325,7.30937683 103.955191,7.36783096 C104.105221,7.3742881 104.351257,7.85534521 104.356275,8.12008805 C104.391566,9.95884432 104.374673,11.7984502 104.374506,13.6378862 L104.374506,14.4601523 C104.476031,14.5400169 104.577222,14.6197117 104.678747,14.6995763 C104.832289,14.4429899 104.944184,14.1447719 105.145897,13.9362741 C107.278094,11.7325194 111.120832,11.8976863 112.96752,14.3255718 C113.440357,14.9471568 113.662475,15.7656845 114,16.4938123 L114,26.8592251 Z" id="Fill-1" fill="#FFFFFF"></path>
                <g id="Group-5">
                    <mask id="mask-2" fill="white">
                        <use xlink:href="#path-1"></use>
                    </mask>
                    <g id="Clip-4"></g>
                    <path d="M32.8476174,32.9159762 L32.8476174,31.9395832 C32.8476174,22.0129485 32.8366667,12.0858059 32.8671603,2.15900198 C32.8696874,1.30247822 32.5785662,1.13249406 31.8039278,1.13418713 C21.9821258,1.1555198 12.1601554,1.14773168 2.33818493,1.14874752 C1.21733468,1.14891683 1.16965685,1.1995396 1.16948837,2.35793762 C1.16881448,12.1721525 1.16898296,21.986198 1.1693199,31.8002436 C1.16948837,32.9134366 1.1711731,32.9156376 2.27669232,32.9156376 C12.1264608,32.9161455 21.9765662,32.9159762 31.8263347,32.9159762 L32.8476174,32.9159762 Z M34.1999495,0 C34.1792273,0.279017822 34.14031,0.558035644 34.1401416,0.837053465 C34.1371091,11.6789614 34.1371091,22.5210386 34.1401416,33.3629465 C34.14031,33.6419644 34.1792273,33.9209822 34.1999495,34.2 L-5.05418719e-05,34.2 L-5.05418719e-05,0 L34.1999495,0 Z" id="Fill-3" fill="#FFFFFF" mask="url(#mask-2)"></path>
                </g>
                <path d="M43.4066936,19.5623678 C43.4224942,21.8376705 44.7543333,23.2099204 46.6996781,22.9552952 C48.0578515,22.7774109 48.9639234,21.9480698 49.3044012,20.5706029 C49.6389326,19.2173699 49.1083377,17.4195105 48.1368546,16.7850511 C47.7714016,16.5464136 47.343086,16.3210711 46.9196974,16.2646934 C44.7409113,15.9743904 43.3907231,17.2648505 43.4066936,19.5623678 M38.6785714,26.6915375 L38.6785714,7.33564482 C40.1040249,7.33564482 41.4837755,7.30535232 42.8589389,7.3701446 C43.0517744,7.37923235 43.3718643,7.84994401 43.3786603,8.1133204 C43.4252126,9.93423576 43.4041451,11.756834 43.4048247,13.5787591 L43.4048247,13.7352703 C44.3904094,13.3076413 45.3350485,12.663421 46.3590304,12.4958025 C49.9836579,11.9030795 53.0352157,13.6523026 53.9093466,17.5857827 C54.275649,19.2340308 54.2347034,20.9038203 53.7112442,22.5328832 C52.5343531,26.1950772 48.0996467,27.9761074 44.6860339,26.1427385 C44.25466,25.9110009 43.8968525,25.5444618 43.5047254,25.2400222 C43.4563042,25.3071706 43.4012568,25.3478972 43.4014267,25.3884555 C43.404315,26.8527609 43.550938,26.6832912 42.0903154,26.6903594 C40.9927671,26.6960814 39.8952189,26.6915375 38.6785714,26.6915375" id="Fill-6" fill="#FFFFFF"></path>
                <path d="M84.2251032,26.4494705 C82.8931564,26.4494705 81.6523062,26.4182211 80.4143452,26.4621708 C79.7656224,26.4852319 79.5268339,26.3268124 79.5429798,25.6346465 C79.5919271,23.5210504 79.5786706,21.4052819 79.5543668,19.2908502 C79.5433197,18.337994 79.4676892,17.3749442 78.4674969,16.8318396 C76.5833624,15.8087976 74.4764154,17.075986 74.450752,19.2687918 C74.4267882,21.3277432 74.4454833,23.3870289 74.4454833,25.4461474 L74.4454833,26.4427861 C72.9124784,26.4427861 71.4788978,26.4646774 70.0482065,26.4096985 C69.9030639,26.4040168 69.6625759,25.9369469 69.6591767,25.681437 C69.6287546,23.3723233 69.6413313,21.0627082 69.6411614,18.752926 C69.6411614,16.9722112 69.6804213,15.1901596 69.6229761,13.411116 C69.5981625,12.6464247 69.8695825,12.4520768 70.5946157,12.4920159 C71.5818913,12.5461592 72.5776647,12.5503369 73.5642604,12.4901777 C74.2932026,12.4458937 74.5370897,12.7092577 74.4517717,13.3892247 C74.4154011,13.6774879 74.4456533,13.9737724 74.4456533,14.2715608 C75.2692611,13.7003819 75.9501056,13.017574 76.7766026,12.6910428 C80.5154691,11.2139653 84.272351,13.271747 84.2769398,17.4437932 C84.2796591,20.1708468 84.2789793,22.8977334 84.2749004,25.6246199 C84.2743905,25.9214057 84.2397194,26.2180244 84.2251032,26.4494705" id="Fill-8" fill="#FFFFFF"></path>
                <path d="M59.399949,18.1879153 L64.5914682,18.1879153 C64.4175173,16.5914595 63.5754518,15.78847 62.1216702,15.7627921 C60.6242309,15.7362638 59.5997208,16.6460464 59.399949,18.1879153 M59.4549881,20.8580847 C60.0184602,22.8927667 61.9342991,23.7831633 63.9782231,23.0189459 C64.3986612,22.8618171 64.8673436,22.6951653 65.1700591,22.3900906 C65.8025,21.7529027 66.2307523,22.0069616 66.7014732,22.5513006 C66.9972238,22.8929368 67.337991,23.1956308 67.6597324,23.5146499 C68.4527042,24.3002939 68.4793744,24.3438274 67.598238,25.0779455 C65.6829087,26.6730409 63.4516137,27.0420555 61.0225854,26.8067024 C58.4253818,26.5546841 56.4067691,25.4165206 55.3173671,23.0442838 C53.5267253,19.1453127 54.8683902,13.8755459 59.6714076,12.5712407 C61.6061026,12.0457775 63.607558,12.0566609 65.4598641,12.8992726 C67.8848155,14.0024053 68.9687814,16.1028977 69.1600596,18.6593018 C69.3209302,20.8118304 69.2543396,20.8167619 67.0808018,20.8167619 C64.8445805,20.8167619 62.608529,20.8152314 60.3724776,20.8186325 C60.0733295,20.8191426 59.7743512,20.8438003 59.4549881,20.8580847" id="Fill-10" fill="#FFFFFF"></path>
                <path d="M95.3558153,21.4199538 C96.3218892,21.9792231 97.3196759,22.5235514 98.2692256,23.1441128 C98.4055909,23.2334193 98.425787,23.7638253 98.3027745,23.9660383 C97.2665985,25.669993 95.6614271,26.5151789 93.7736775,26.7608567 C91.6434079,27.0382842 89.5578701,26.8595014 87.7694317,25.4589512 C85.4283551,23.6256209 84.8052808,21.0778386 85.2055305,18.2787756 C85.6455047,15.2009268 87.4107426,13.1195418 90.4473323,12.4617977 C93.2071856,11.8639874 95.8046357,12.2772422 97.8666392,14.494964 C98.0537451,14.6961583 98.1780929,14.956098 98.3503438,15.1734218 C98.6245766,15.5192723 98.5931975,15.7598566 98.1804296,15.9671631 C97.8085546,16.1539258 97.4555404,16.3836439 97.1092026,16.6176066 C96.1638256,17.2561651 95.4527899,17.7290142 94.2061407,16.7242311 C92.3948357,15.2644261 90.0405732,16.6551289 89.8921904,19.0507845 C89.8581408,19.6013948 89.9300789,20.1742468 90.0467488,20.7160284 C90.2917724,21.8537526 90.9298685,22.6580205 92.1214375,22.8486882 C93.3372084,23.043261 94.375721,22.7272925 95.1114594,21.6517093 C95.1568588,21.5854935 95.2292977,21.5382934 95.3558153,21.4199538" id="Fill-12" fill="#FFFFFF"></path>
                <path d="M27.5105635,16.816057 C27.4632214,14.450146 25.7235712,12.8979793 23.4441183,12.8909958 C21.0746125,12.883846 19.3152364,14.5020234 19.2714965,16.7414 C19.2260412,19.0557662 20.9692935,20.7490993 23.333825,20.7808576 C25.7563333,20.8134473 27.5656244,19.2029185 27.5105635,16.816057 M23.3871706,21.9780296 C20.2384071,21.9762006 18.0122998,19.7472992 17.9159004,16.709808 C17.8484894,14.5820012 19.8984361,11.828672 22.8314156,11.807389 C26.4565159,11.7811177 28.8836556,13.8608714 28.9069836,16.7610204 C28.9309977,19.7559455 26.2361008,22.1388164 23.3871706,21.9780296" id="Fill-18" fill="#FFFFFF"></path>
                <path d="M16.8618915,20.3431291 C17.7334513,21.1613019 17.7259089,21.2797781 16.815967,21.8580795 C13.4049838,24.0253359 9.43352067,22.2933508 8.64140694,18.2933187 C8.00600635,15.0845017 10.7763931,11.9180958 14.0603297,12.2364363 C15.0733503,12.3344797 16.0617326,12.8186868 17.0271527,13.2137793 C17.2284495,13.2960258 17.4470098,13.8353502 17.3650497,14.0429412 C17.1696192,14.5386526 16.8049049,14.5173612 16.3662757,14.1758406 C13.990605,12.3260661 10.8144401,13.5983978 10.0134431,16.2170658 C9.35440986,18.3721311 10.7619789,20.7866423 13.0727855,21.3534394 C14.2768788,21.6485998 15.3073306,21.226378 16.3206864,20.6570053 C16.5085746,20.5515786 16.6936135,20.4408291 16.8618915,20.3431291" id="Fill-20" fill="#FFFFFF"></path>
                <path d="M6.92142857,21.8770684 C6.06850684,22.1170686 5.6848341,22.0002663 5.70045798,21.1109527 C5.74981523,18.3083695 5.74697453,15.5039349 5.70152325,12.7011834 C5.68767481,11.8502429 6.01719661,11.6519819 6.92142857,11.916386 L6.92142857,16.8865449 L6.92142857,21.8770684 Z" id="Fill-22" fill="#FFFFFF"></path>
            </g>
        </g>
    </g>
</svg>