<?xml version="1.0" encoding="UTF-8"?>
<svg width="104px" height="28px" viewBox="0 0 104 28" version="1.1" xmlns="http://www.w3.org/2000/svg" xmlns:xlink="http://www.w3.org/1999/xlink">
    <!-- Generator: Sketch 50.2 (55047) - http://www.bohemiancoding.com/sketch -->
    <title>Group</title>
    <desc>Created with Sketch.</desc>
    <defs>
        <polygon id="path-1" points="0 0.0039904425 27.558756 0.0039904425 27.558756 27.6330275 0 27.6330275"></polygon>
        <polygon id="path-3" points="0.00405801407 0.00326623025 6.93140242 0.00326623025 6.93140242 7.21435485 0.00405801407 7.21435485"></polygon>
        <polygon id="path-5" points="0 27.6330275 103.505155 27.6330275 103.505155 0 0 0"></polygon>
    </defs>
    <g id="Page-1" stroke="none" stroke-width="1" fill="none" fill-rule="evenodd">
        <g id="ICO2018-4-02" transform="translate(-389.000000, -867.000000)">
            <g id="Group" transform="translate(389.000000, 867.000000)">
                <g id="Group-3">
                    <mask id="mask-2" fill="white">
                        <use xlink:href="#path-1"></use>
                    </mask>
                    <g id="Clip-2"></g>
                    <path d="M21.4081582,13.1343803 C21.357151,12.793128 21.1682758,12.5306034 20.8407402,12.6033894 C20.6341363,12.6491406 20.3746433,12.9061196 20.3262113,13.112396 C20.2505423,13.4345358 20.4969616,13.6541811 20.8395517,13.667748 C21.1966021,13.68181 21.3471476,13.4488949 21.4081582,13.1343803 Z M21.5998066,15.3466775 C19.2812074,16.251105 16.9427006,16.8786488 14.4232419,16.0858264 C15.921269,17.4332085 19.4018419,16.6411784 21.5998066,15.3466775 Z M14.4736549,10.6766905 C14.4764281,9.26741555 13.3916089,8.16879312 12.0016379,8.1732494 C10.6413799,8.17750763 9.51238745,9.28969697 9.50555348,10.6319296 C9.49852142,11.9976319 10.6326641,13.1903315 11.9825226,13.1694364 C13.456086,13.1467589 14.5108951,12.0019892 14.4736549,10.6766905 Z M16.0868691,26.3258708 C20.479629,25.6798087 25.7472368,21.8405719 26.5117506,15.2258627 C27.1826686,9.42160296 23.8021292,3.95691199 18.296917,1.86483541 C12.7666469,-0.236747896 6.42164818,1.8279968 3.13133704,6.81794504 C-0.0203137417,11.5978538 0.718349768,17.5994774 3.34725102,21.0044741 C3.49571664,20.6129153 3.6408148,20.2501739 3.77115553,19.882481 C4.53973006,17.7138553 4.70047702,15.442042 4.84250484,13.1776558 C5.00671832,10.5597378 6.1101576,8.62818643 8.58851333,7.57947438 C9.99849103,6.98292656 11.429664,6.50719353 12.9842446,6.84824777 C13.6293124,6.98975953 14.2302069,6.86023022 14.8588335,6.76942106 C15.684655,6.64999266 16.9181379,6.96500239 17.3923563,7.99014566 C17.462974,8.14284764 17.6403602,8.28960792 17.8017015,8.3496192 C18.7084411,8.68681132 19.6345932,8.97280569 20.5359846,9.32297055 C21.2985175,9.61916486 22.0617437,9.93229305 22.776934,10.3249411 C23.3610902,10.6455955 23.7982665,11.1539089 23.9787231,11.8324523 C24.2485165,12.8467025 23.8566029,13.7108254 23.2339189,14.4304656 C22.3509496,15.4508555 21.364084,16.3812285 20.4258486,17.3540847 C18.8613637,18.9761719 17.4472262,20.7049128 16.5924841,22.8241232 C16.1429275,23.9386893 15.9229527,25.087024 16.0868691,26.3258708 Z M14.8564565,0.0039904425 C16.0808274,0.301373096 17.338972,0.501509741 18.5237257,0.912874225 C23.8556125,2.76391537 27.516741,8.02272605 27.5583391,13.6628956 C27.5837932,17.1167134 26.4431137,20.1251008 24.2679289,22.7465839 C22.9379781,24.3495586 21.2454304,25.5019535 19.3600457,26.4050936 C17.318173,27.3832974 15.1777524,27.7182119 12.9497776,27.6152222 C10.315528,27.4934171 7.96909772,26.503528 5.85908332,25.003642 C3.3152601,23.1955792 1.55536309,20.7638348 0.658230601,17.7569328 C0.37566061,16.8095269 0.215904074,15.8255795 -9.90431094e-06,14.8582689 L-9.90431094e-06,12.7786699 C0.0986370327,12.2011355 0.170641373,11.6176595 0.299892631,11.0469581 C1.48940037,5.79438623 4.68165883,2.3359141 9.76029235,0.62895945 C10.7265569,0.304145895 11.7691837,0.206503772 12.7765512,0.0039904425 L14.8564565,0.0039904425 Z" id="Fill-1" fill="#FFFFFF" mask="url(#mask-2)"></path>
                </g>
                <path d="M69.1632127,13.1426823 L69.1632127,11.9960588 L73.1183202,11.9960588 L73.1183202,16.9160155 C72.7772217,16.8730516 72.3754133,16.9374975 72.1818514,16.7663317 C71.9804051,16.5882681 71.980208,16.1827717 71.8737687,15.8133414 C71.7156866,15.936025 71.5987019,15.9973175 71.521632,16.0913256 C70.4104252,17.4461663 67.9363025,17.2383433 66.7885319,16.5686584 C64.756428,15.3829141 64.124001,12.8421321 64.6573803,10.7703069 C65.137737,8.90462951 66.2627414,7.67779364 68.2132418,7.29555297 C69.8604888,6.97273255 71.7023817,7.66429352 72.5193034,8.98474337 C72.762537,9.37782355 72.8833653,9.84658325 73.0869798,10.3461863 L71.5041878,10.3461863 C70.8387449,8.74913176 69.5035229,8.121721 67.946158,8.69779188 C67.2683958,8.94848027 66.7930654,9.44069273 66.5148449,10.0957935 C65.8719711,11.6088911 65.8801512,13.1129229 66.6870203,14.5698521 C67.2752946,15.63242 68.6900505,16.115074 69.9956076,15.7297786 C71.0600007,15.4155312 71.7473227,14.3767116 71.6657193,13.1426823 L70.4517197,13.1426823 L69.1632127,13.1426823 Z" id="Fill-4" fill="#FFFFFF"></path>
                <path d="M44.630663,10.3887955 L42.9446339,10.3887955 C42.8320603,10.131234 42.7474074,9.86243095 42.6067152,9.62735262 C41.698107,8.10924204 39.3405969,8.12018517 38.2659502,9.64078282 C37.2916988,11.0193188 37.3408074,13.6348263 38.402286,14.9600393 C39.0446582,15.7619718 39.9378209,16.0254028 40.9225673,15.8774716 C41.8877098,15.7324253 42.5001812,15.1246837 42.7944368,14.1959104 C42.8732482,13.9467055 42.9309706,13.6907357 43.0047325,13.414372 L44.4647234,13.414372 C44.5483863,15.1994949 42.9965148,16.9236348 41.1872191,17.144686 C37.9092197,17.5451051 36.0343799,15.0754396 35.9906178,12.4466013 C35.9640833,10.8518889 36.3702194,9.45027288 37.549519,8.32730878 C39.3038645,6.65679025 42.5837451,6.90390602 43.9430435,8.84750539 C44.2423486,9.27548125 44.3814566,9.8164698 44.630663,10.3887955" id="Fill-6" fill="#FFFFFF"></path>
                <path d="M89.8310792,7.50174974 L91.236059,7.50174974 L91.236059,10.1789432 L91.236059,12.8933075 C91.4145848,12.7662907 91.5241212,12.7092424 91.6077744,12.6256578 C92.2720791,11.9615524 92.9556733,11.314641 93.5823833,10.6159488 C93.9113863,10.2491106 94.2528882,10.0834321 94.7328606,10.1334239 C95.0355867,10.1649296 95.3442178,10.1392877 95.7940751,10.1392877 C95.0971949,10.8052815 94.490168,11.3703972 93.9002654,11.9529057 C93.0685559,12.774341 93.1070363,12.5054986 93.7223301,13.4402354 C94.424328,14.5065609 95.1236686,15.5746753 95.8219267,16.6434854 C95.8819602,16.7353192 95.9246725,16.8386819 96.0034049,16.990645 C95.4784566,16.990645 95.0063573,17.0133053 94.5386868,16.9770289 C94.3952954,16.9658976 94.220411,16.8220843 94.1344943,16.6897005 C93.5727386,15.8239384 93.0324374,14.943964 92.4822947,14.0704497 C92.39687,13.9347862 92.2970767,13.8082663 92.1885244,13.656005 C91.6223399,14.093607 91.106741,14.4785337 91.2221824,15.3064292 C91.2962893,15.8376539 91.236059,16.3880603 91.236059,16.9602325 L89.8310792,16.9602325 L89.8310792,7.50174974 Z" id="Fill-8" fill="#FFFFFF"></path>
                <path d="M76.0915965,12.8345881 L79.5180357,12.8345881 C79.4608211,11.7511642 78.7025798,11.0258261 77.7167671,11.0688989 C76.9577338,11.1019181 76.0438847,11.7650619 76.0915965,12.8345881 M81.0900502,13.8313736 L78.7796908,13.8313736 C78.0044236,13.8313736 77.2286616,13.847144 76.4540873,13.8248683 C76.0582378,13.8134348 75.9636062,13.9024388 76.0241863,14.3274501 C76.2421559,15.8565839 77.647773,16.2237376 78.7642488,15.7699454 C79.0050844,15.6720706 79.2641337,15.4613392 79.3733165,15.2350344 C79.5587194,14.8504347 79.8176697,14.7755255 80.191841,14.8161342 C80.4186205,14.8406768 80.6502504,14.8205696 80.9277113,14.8205696 C80.7036044,15.8347025 80.1057222,16.5081955 79.2023658,16.8374019 C77.0984935,17.60394 74.8586129,16.6291345 74.5795682,14.1081435 C74.4131709,12.6048337 74.7938753,11.3177749 76.0529915,10.4415342 C77.9462192,9.12401894 80.5008788,10.2263673 80.9885884,12.5186881 C81.0327366,12.7259698 81.0695598,12.9365041 81.0863876,13.1475313 C81.1030175,13.3560943 81.0900502,13.5670229 81.0900502,13.8313736" id="Fill-10" fill="#FFFFFF"></path>
                <g id="Group-14" transform="translate(96.573158, 9.875721)">
                    <mask id="mask-4" fill="white">
                        <use xlink:href="#path-3"></use>
                    </mask>
                    <g id="Clip-13"></g>
                    <path d="M5.42858517,3.76207689 C5.39006308,3.38027464 5.38263594,3.13163853 5.33757796,2.89012044 C5.16200039,1.9481702 4.48553655,1.26790575 3.66013381,1.18614748 C2.78987116,1.10003931 2.02893599,1.5861402 1.70986609,2.46274314 C1.43080371,3.2300055 1.42852605,4.00873578 1.719967,4.77550384 C2.01754771,5.55878173 2.63845654,6.019673 3.38305201,6.03311813 C4.23786622,6.04844163 4.84144506,5.66397013 5.16784307,4.82523106 C5.31420723,4.44936049 5.36391955,4.03602149 5.42858517,3.76207689 M0.00419880937,3.59114575 C0.0202414301,1.43211433 1.3939651,0.00663359164 3.4621758,0.00327230824 C5.53405055,-0.000187836425 6.94203809,1.47403152 6.93134301,3.63573218 C6.92064793,5.78942509 5.49572651,7.23981887 3.41583045,7.21401608 C1.34435181,7.18841101 -0.0118438113,5.74829879 0.00419880937,3.59114575" id="Fill-12" fill="#FFFFFF" mask="url(#mask-4)"></path>
                </g>
                <path d="M51.0642136,13.5337115 C50.9421466,13.0342707 50.893101,12.6330267 50.7453671,12.2720762 C50.4613399,11.5778335 49.9333778,11.1528114 49.1628733,11.1030663 C48.3918715,11.0532217 47.7993441,11.3917868 47.4430915,12.0596646 C46.9256747,13.0295946 46.9309473,14.0369329 47.4353318,15.0101461 C47.762933,15.6422074 48.3053203,15.9846527 49.0451836,15.9824639 C49.7823609,15.9804741 50.3430533,15.6491717 50.6405108,15.0034803 C50.8629573,14.5206543 50.943042,13.9721648 51.0642136,13.5337115 M45.5802516,13.1410236 C45.5890062,12.1862161 46.0153951,11.0108389 47.2732722,10.3505224 C48.5848707,9.66205014 49.9354669,9.71050187 51.1641952,10.5731814 C52.2729456,11.3514933 52.5508047,12.5399038 52.508126,13.8149703 C52.4537082,15.4349693 51.5045303,16.6648672 50.0634035,17.043328 C47.5993811,17.6906112 45.5842309,16.118666 45.5802516,13.1410236" id="Fill-15" fill="#FFFFFF"></path>
                <path d="M63.1455316,16.9026766 L61.6893008,16.9026766 C61.6893008,16.3664594 61.696643,15.8434514 61.6878125,15.3207414 C61.6703501,14.29737 61.6756087,13.2720122 61.6105213,12.251521 C61.5628964,11.5045512 61.2388486,11.15674 60.6571301,11.0466958 C59.9404745,10.9111269 59.1868103,11.177994 58.8925281,11.7499657 C58.7256425,12.0742386 58.6069771,12.4602872 58.5977497,12.8220029 C58.5637178,14.159914 58.5841568,15.4991163 58.5841568,16.879039 L57.1652322,16.879039 L57.1652322,10.1138029 L58.4579508,10.1138029 C58.4749172,10.3815639 58.4921812,10.6537942 58.5135132,10.9920709 C58.8268454,10.734341 59.0904691,10.5020365 59.3696701,10.2902908 C60.3931096,9.51432019 62.5590507,9.82905855 62.9635648,11.2227864 C63.0409552,11.4895542 63.1347168,11.7652606 63.1373957,12.0377889 C63.153866,13.6403822 63.1455316,15.2433728 63.1455316,16.9026766" id="Fill-17" fill="#FFFFFF"></path>
                <path d="M86.9869086,14.3686941 L88.3452514,14.3686941 C88.3318623,15.5881325 87.3272877,16.8901545 85.7820935,17.0643882 C83.3370568,17.3400282 81.6966517,15.5654664 81.9815902,13.0536636 C82.1283738,11.759624 82.6346778,10.7311725 83.8770813,10.1768375 C85.3359906,9.52572795 87.2324735,9.96663368 88.0056657,11.1514816 C88.2129478,11.4690047 88.3095473,11.8579754 88.5016552,12.3225327 C87.9687714,12.3225327 87.5493474,12.3404686 87.133593,12.3088345 C87.0408615,12.3016405 86.9220462,12.1336154 86.8824741,12.0171311 C86.6791591,11.4184493 86.23742,11.1191577 85.6402689,11.0541157 C84.9529649,10.9791204 84.3048363,11.1095 83.8805526,11.7122222 C83.225779,12.6421253 83.2218119,14.2951769 83.8524852,15.2427202 C84.2661569,15.8640681 84.8909787,16.0125806 85.586316,15.9242812 C86.1957652,15.8469207 86.5949569,15.4897811 86.797181,14.9148495 C86.8564895,14.7461346 86.9146078,14.5769269 86.9869086,14.3686941" id="Fill-19" fill="#FFFFFF"></path>
                <mask id="mask-6" fill="white">
                    <use xlink:href="#path-5"></use>
                </mask>
                <g id="Clip-22"></g>
                <polygon id="Fill-21" fill="#FFFFFF" mask="url(#mask-6)" points="53.936631 16.9026766 55.3610139 16.9026766 55.3610139 10.1605977 53.936631 10.1605977"></polygon>
                <polygon id="Fill-23" fill="#FFFFFF" mask="url(#mask-6)" points="53.936631 8.73621489 55.3610139 8.73621489 55.3610139 7.50174974 53.936631 7.50174974"></polygon>
                <path d="M13.7688433,10.7218619 C13.6822061,11.8231974 12.9729811,12.4343614 12.027741,12.4395791 C11.0380515,12.4450922 10.30611,11.7196304 10.2570385,10.6734256 C10.2138674,9.75461224 11.1210501,8.91367113 12.0493757,8.92627245 C12.9972709,8.93916911 13.7831025,9.75982998 13.7688433,10.7218619" id="Fill-24" fill="#FFFFFF" mask="url(#mask-6)"></path>
            </g>
        </g>
    </g>
</svg>