<?xml version="1.0" encoding="UTF-8"?>
<svg width="43px" height="58px" viewBox="0 0 43 58" version="1.1" xmlns="http://www.w3.org/2000/svg" xmlns:xlink="http://www.w3.org/1999/xlink">
    <!-- Generator: Sketch 50.2 (55047) - http://www.bohemiancoding.com/sketch -->
    <title>Group 76</title>
    <desc>Created with Sketch.</desc>
    <defs>
        <polygon id="path-1" points="0.931146672 0.275224353 5.838 0.275224353 5.838 6.99993898 0.931146672 6.99993898"></polygon>
    </defs>
    <g id="Page-1" stroke="none" stroke-width="1" fill="none" fill-rule="evenodd">
        <g id="ICO2018-4-02" transform="translate(-1205.000000, -852.000000)">
            <g id="Group-76" transform="translate(1205.000000, 851.000000)">
                <path d="M10.9259003,54.8359923 L10.9199003,54.8359923 C10.9199003,54.5818845 10.9509003,54.3228521 10.9109003,54.0746538 C10.8709003,53.8274405 10.7709003,53.5881064 10.6759003,53.3536969 C10.5129003,52.9538219 10.1999003,52.6140266 9.80390034,52.551977 C9.40090034,52.4899274 8.95990034,52.4623498 8.52990034,52.7075934 C8.05090034,52.9823844 7.79090034,53.3014965 7.79190034,53.8471387 C7.79290034,54.0007853 7.67290034,54.153447 7.66490034,54.3090634 C7.64590034,54.655753 7.65090034,55.0044125 7.67190034,55.3511022 C7.68090034,55.4958846 7.80990034,55.6446066 7.79090034,55.7785549 C7.73490034,56.1784299 7.90790034,56.4364773 8.17090034,56.7299817 C8.73690034,57.3583567 10.0039003,57.2047101 10.5309003,56.7309666 C10.6239003,56.6482338 10.6419003,56.4807984 10.6879003,56.3507898 C10.7219003,56.2532833 10.7409003,56.1508523 10.7749003,56.0533458 C10.8219003,55.9134881 10.9059003,55.7785549 10.9189003,55.6357423 C10.9429003,55.3708005 10.9259003,55.1029039 10.9259003,54.8359923 Z M12.0229003,54.827128 C12.0229003,55.1423005 12.0249003,55.4574729 12.0219003,55.7726454 C12.0189003,56.0681195 11.8879003,56.3517747 11.8439003,56.6147467 C11.7749003,57.0293955 11.5419003,57.2460765 11.2989003,57.4991994 C11.0139003,57.7956585 10.6539003,57.8990744 10.2569003,58.0231736 C9.84090034,58.1531822 9.43190034,58.2753115 9.03590034,58.1935637 C8.34490034,58.0507512 7.58790034,57.9906714 7.09490034,57.3839645 C6.86290034,57.0993244 6.64390034,56.7900614 6.70490034,56.383292 C6.71490034,56.3133631 6.72990034,56.222751 6.69690034,56.1695657 C6.22390034,55.4308803 6.43690034,54.5927185 6.52290034,53.8510784 C6.61990034,53.0178413 6.97090034,52.1550567 7.87390034,51.7295739 C7.90590034,51.7138153 7.93490034,51.6793433 7.96790034,51.6754037 C8.53990034,51.5946407 9.13390034,51.3838691 9.67890034,51.4705416 C10.4939003,51.6005502 11.3099003,51.8861752 11.7269003,52.7203973 C12.0029003,53.271949 12.0709003,53.8579728 12.0209003,54.4636948 C12.0099003,54.5838543 12.0189003,54.7059836 12.0189003,54.827128 L12.0229003,54.827128 Z" id="Fill-5" fill="#FFFFFF"></path>
                <path d="M1.34018698,53.5153475 C1.34018698,54.0323475 1.29618698,54.5543475 1.35618698,55.0633475 C1.39718698,55.4123475 1.51618698,55.7943475 1.72318698,56.0683475 C1.93718698,56.3483475 2.20918698,56.5893475 2.58318698,56.7623475 C3.19318698,57.0433475 3.79118698,56.8663475 4.38618698,56.9443475 C4.45318698,56.9533475 4.55318698,56.9373475 4.59118698,56.8933475 C4.88218698,56.5513475 5.26518698,56.7833475 5.60018698,56.7273475 C5.64918698,56.7193475 5.76518698,56.8203475 5.76918698,56.8763475 C5.78618698,57.1333475 5.79418698,57.3943475 5.76018698,57.6483475 C5.75118698,57.7173475 5.59118698,57.8053475 5.49318698,57.8173475 C5.28718698,57.8423475 5.07318698,57.8003475 4.86718698,57.8273475 C4.70018698,57.8483475 4.54218698,57.9333475 4.37818698,57.9813475 C4.27518698,58.0113475 4.16818698,58.0393475 4.06218698,58.0423475 C3.77918698,58.0493475 3.49418698,58.0633475 3.21418698,58.0343475 C2.96818698,58.0073475 2.72718698,57.9323475 2.48618698,57.8663475 C2.21518698,57.7913475 1.94418698,57.7103475 1.67718698,57.6213475 C1.04218698,57.4103475 0.779186977,56.8623475 0.469186977,56.3323475 C0.222186977,55.9113475 0.245186977,55.4793475 0.246186977,55.0353475 C0.247186977,54.9493475 0.259186977,54.8483475 0.221186977,54.7813475 C-0.201813023,54.0413475 0.134186977,53.2363475 0.0161869769,52.4723475 C0.375186977,52.0823475 0.140186977,51.5813475 0.262186977,51.1633475 C0.416186977,50.6333475 0.678186977,50.1183475 0.985186977,49.6573475 C1.13518698,49.4313475 1.50218698,49.3583475 1.75318698,49.1893475 C2.31018698,48.8143475 2.93218698,48.9993475 3.52718698,48.9633475 C3.83418698,48.9453475 4.14418698,48.9403475 4.44918698,48.9643475 C4.64918698,48.9793475 4.84318698,49.0563475 5.04018698,49.1083475 C5.13318698,49.1333475 5.23318698,49.2033475 5.31618698,49.1863475 C5.76218698,49.0963475 5.82218698,49.3343475 5.77018698,49.6873475 C5.76118698,49.7473475 5.77918698,49.8113475 5.76818698,49.8713475 C5.74218698,50.0073475 5.70518698,50.1413475 5.67318698,50.2763475 C5.54818698,50.2273475 5.42418698,50.1753475 5.29718698,50.1323475 C5.19618698,50.0993475 5.09218698,50.0563475 4.98918698,50.0563475 C4.37418698,50.0513475 3.75718698,50.0883475 3.14418698,50.0503475 C2.75318698,50.0263475 2.41018698,50.1293475 2.11318698,50.3273475 C1.93218698,50.4483475 1.81018698,50.6913475 1.71918698,50.9053475 C1.53918698,51.3253475 1.31218698,51.7333475 1.34018698,52.2233475 C1.36518698,52.6523475 1.34518698,53.0843475 1.34518698,53.5153475 L1.34018698,53.5153475 Z" id="Fill-7" fill="#FFFFFF"></path>
                <path d="M16.0050537,54.6653868 C16.0050537,53.6473528 16.0110537,52.6282573 16.0000537,51.6091619 C15.9980537,51.3607573 16.0510537,51.2376166 16.3070537,51.2705249 C16.4530537,51.2885714 16.6030537,51.2832636 16.7500537,51.2684018 C16.9630537,51.2482322 17.0970537,51.2790174 17.1120537,51.5624533 C17.1240537,51.795996 17.2830537,51.8034269 17.4650537,51.7195639 C17.6450537,51.6357008 17.8560537,51.6134081 18.0160537,51.5040676 C18.6620537,51.0603365 19.3730537,51.3480186 20.0500537,51.2779558 C20.4590537,51.2354935 21.0560537,51.9010903 21.1020537,52.3331443 C21.1400537,52.6919508 21.3040537,53.0412033 21.3100537,53.3957636 C21.3330537,54.8320513 21.3090537,56.268339 21.3200537,57.7046267 C21.3230537,58.0230941 21.2210537,58.1133265 20.9340537,58.0984647 C20.1330537,58.0570639 20.2090537,58.2364672 20.2130537,57.3192813 C20.2170537,56.0528428 20.2160537,54.7853428 20.2180537,53.5189043 C20.2190537,53.0942812 19.8650537,52.557133 19.4990537,52.4116996 C19.4100537,52.3766681 19.3340537,52.2662661 19.2500537,52.2630815 C19.0480537,52.2556506 18.8430537,52.2821895 18.6420537,52.3172209 C18.5660537,52.328898 18.5030537,52.4116996 18.4270537,52.4414232 C18.0500537,52.5900413 17.6640537,52.713182 17.2980537,52.8862159 C17.2000537,52.9329244 17.1060537,53.1218817 17.1050537,53.2471455 C17.0960537,54.7354496 17.1010537,56.2237536 17.1150537,57.7131192 C17.1180537,57.9965551 17.0420537,58.1090803 16.7570537,58.0984647 C16.0090537,58.0708642 16.0080537,58.0825413 16.0080537,57.2906192 L16.0080537,54.6653868 L16.0050537,54.6653868 Z" id="Fill-9" fill="#FFFFFF"></path>
                <g id="Group-13" transform="translate(37.000000, 50.948062)">
                    <mask id="mask-2" fill="white">
                        <use xlink:href="#path-1"></use>
                    </mask>
                    <g id="Clip-12"></g>
                    <path d="M3.7318,0.2841 C4.1628,0.2841 4.5958,0.2581 5.0228,0.2951 C5.2538,0.3141 5.4998,0.4071 5.6928,0.5341 C5.7848,0.5951 5.8458,0.8551 5.7908,0.9531 C5.6938,1.1291 5.4968,1.3731 5.3448,1.3721 C4.9508,1.3671 4.5658,1.4321 4.1418,1.2251 C3.7848,1.0521 3.2428,1.1971 2.7978,1.2821 C2.4308,1.3521 2.1828,1.5811 2.2398,2.0441 C2.2878,2.4261 2.4838,2.6711 2.8868,2.7261 C3.0698,2.7501 3.2438,2.8391 3.4248,2.8851 C3.5518,2.9161 3.6878,2.9141 3.8148,2.9451 C3.9728,2.9831 4.1268,3.0381 4.2828,3.0871 C4.3738,3.1161 4.4628,3.1671 4.5538,3.1711 C5.2538,3.1991 5.8038,3.7631 5.8028,4.4631 C5.8028,4.6111 5.7788,4.7631 5.8068,4.9051 C5.9778,5.7701 5.4218,6.2011 4.8018,6.5841 C4.6758,6.6621 4.5048,6.6701 4.3528,6.7031 C4.2818,6.7191 4.1868,6.6911 4.1388,6.7281 C3.6218,7.1321 2.9878,6.9961 2.4818,6.8861 C2.0868,6.7991 1.6948,6.7461 1.2948,6.7001 C0.9658,6.6611 0.9028,6.4981 1.0788,6.2191 C1.1228,6.1501 1.1698,6.0551 1.1558,5.9841 C1.0888,5.6441 1.2558,5.5761 1.5448,5.6061 C1.9098,5.6441 2.2538,5.6101 2.6348,5.7781 C2.9718,5.9271 3.4898,6.0051 3.8788,5.6581 C3.9458,5.5981 4.0868,5.6221 4.1928,5.6071 C4.4978,5.5651 4.6878,5.4041 4.7018,5.0851 C4.7348,4.3111 4.4538,4.0481 3.6658,4.0361 C3.4218,4.0331 3.1788,3.9291 2.9378,3.8641 C2.6058,3.7741 2.2778,3.6731 1.9458,3.5861 C1.5758,3.4881 1.1888,3.1711 1.1488,2.6841 C1.1398,2.5801 1.0848,2.4781 1.0468,2.3771 C1.0088,2.2751 0.9178,2.1671 0.9328,2.0751 C0.9838,1.7631 1.0088,1.4201 1.1638,1.1601 C1.3198,0.8981 1.6248,0.7261 1.8518,0.5031 C2.1178,0.2411 2.4478,0.2811 2.7718,0.2811 L3.7318,0.2811 L3.7318,0.2841 Z" id="Fill-11" fill="#FFFFFF" mask="url(#mask-2)"></path>
                </g>
                <path d="M35.0018806,53.5271877 C35.0018806,52.1991877 34.9938806,50.8721877 35.0108806,49.5441877 C35.0138806,49.3471877 35.1058806,49.0061877 35.2118806,48.9831877 C35.5198806,48.9171877 35.8578806,48.9551877 36.1758806,49.0071877 C36.2458806,49.0181877 36.3218806,49.2551877 36.3218806,49.3871877 C36.3318806,52.1531877 36.3298806,54.9201877 36.3338806,57.6861877 C36.3338806,57.9251877 36.2358806,58.0181877 35.9978806,58.0011877 C35.7778806,57.9851877 35.5548806,57.9821877 35.3348806,58.0011877 C35.0658806,58.0241877 35.0028806,57.9111877 35.0048806,57.6581877 C35.0158806,56.2811877 35.0098806,54.9041877 35.0098806,53.5271877 L35.0018806,53.5271877 Z" id="Fill-14" fill="#FFFFFF"></path>
                <path d="M33.3089621,53.4939071 C33.3089621,54.8959071 33.3039621,56.2979071 33.3129621,57.6999071 C33.3149621,57.9559071 33.2329621,58.0469071 32.9729621,58.0439071 C32.2079621,58.0339071 32.2049621,58.0419071 32.2049621,57.2929071 C32.2049621,54.6489071 32.2109621,52.0049071 32.1999621,49.3609071 C32.1989621,49.0439071 32.2659621,48.9319071 32.6059621,48.9499071 C33.3029621,48.9869071 33.3049621,48.9659071 33.3059621,49.6569071 C33.3069621,50.9359071 33.3059621,52.2149071 33.3059621,53.4939071 L33.3089621,53.4939071 Z" id="Fill-16" fill="#FFFFFF"></path>
                <g id="Group-74" transform="translate(13.199951, 48.000000)" fill="#FFFFFF">
                    <path d="M0.0061163152,6.62708451 C0.0061163152,5.59244449 0.0151163152,4.55672447 0.000116315201,3.52208446 C-0.0038836848,3.24560445 0.0951163152,3.17324445 0.323116315,3.18512445 C1.19811632,3.23156445 1.11311632,2.98316445 1.11511632,4.01564446 C1.11811632,5.9132045 1.10911632,7.81076453 1.12011632,9.70832456 C1.12111632,10.0398846 1.03111632,10.1478846 0.716116315,10.1295246 C0.0171163152,10.0895646 0.0171163152,10.1068446 0.0171163152,9.33356456 C0.0171163152,8.43176454 0.0171163152,7.52888453 0.0171163152,6.62708451 L0.0061163152,6.62708451 Z" id="Fill-20"></path>
                    <path d="M1.32420621,1.73030401 C1.32920621,2.18174401 1.12820621,2.46794402 0.80020621,2.47334402 C0.25020621,2.48306402 0.00420621048,2.29514402 0.000206210482,1.86314401 C-0.00679378952,1.292904 0.16420621,1.03154399 0.54620621,1.02506399 C1.24020621,1.01318399 1.31620621,1.08230399 1.32420621,1.73030401" id="Fill-22"></path>
                </g>
                <g id="Group-75" fill="#FFFFFF">
                    <path d="M27.0676139,29.0180622 C27.0676139,28.7320622 27.0916139,28.5070622 27.0566139,28.2910622 C27.0416139,28.1950622 26.8926139,28.0370622 26.8286139,28.0470622 C26.4956139,28.1030622 26.1076139,27.8880622 25.8256139,28.2400622 C25.7886139,28.2870622 25.6636139,28.2730622 25.5796139,28.2730622 C24.7046139,28.2720622 23.8306139,28.2630622 22.9566139,28.2710622 C22.8356139,28.2720622 22.7166139,28.3800622 22.5936139,28.3870622 C22.3086139,28.4010622 22.0216139,28.3930622 21.7366139,28.3720622 C21.6366139,28.3650622 21.5356139,28.2510622 21.4456139,28.2630622 C20.6056139,28.3720622 19.7956139,28.2170622 19.0926139,27.7900622 C18.5946139,27.4870622 18.0986139,27.0660622 17.8046139,26.5760622 C17.5036139,26.0750622 17.2206139,25.4880622 17.2966139,24.8350622 C17.3076139,24.7500622 17.2326139,24.6560622 17.2016139,24.5650622 C17.1586139,24.4420622 17.0856139,24.3180622 17.0846139,24.1950622 C17.0766139,22.5450622 17.0786139,20.8950622 17.0806139,19.2460622 C17.0806139,19.1620622 17.0926139,19.0750622 17.1196139,18.9960622 C17.2546139,18.6040622 17.3956139,18.2160622 17.5336139,17.8260622 C17.6316139,17.5480622 17.6796139,17.2380622 17.8346139,16.9970622 C18.3976139,16.1220622 19.2736139,15.6640622 20.2426139,15.4380622 C20.8076139,15.3060622 21.4076139,15.4440622 21.9986139,15.2190622 C22.3336139,15.0910622 22.8256139,15.0350622 23.1826139,15.3850622 C23.2306139,15.4320622 23.3486139,15.4130622 23.4336139,15.4130622 C24.2096139,15.4150622 24.9846139,15.4090622 25.7606139,15.4230622 C25.9186139,15.4260622 26.0726139,15.5200622 26.2336139,15.5450622 C26.4696139,15.5820622 26.7156139,15.6330622 26.9436139,15.5950622 C27.0076139,15.5840622 27.0466139,15.2840622 27.0556139,15.1140622 C27.0736139,14.8070622 27.0386139,14.4960622 27.0686139,14.1910622 C27.0956139,13.9210622 27.2046139,13.6600622 27.2346139,13.3890622 C27.2696139,13.0750622 27.2616139,12.7550622 27.2596139,12.4370622 C27.2596139,12.3970622 27.1886139,12.3420622 27.1386139,12.3190622 C26.7366139,12.1400622 26.3266139,12.0030622 25.8736139,12.0860622 C25.7946139,12.1010622 25.6666139,12.1010622 25.6286139,12.0540622 C25.4096139,11.7830622 25.1126139,11.8960622 24.8436139,11.8590622 C24.5256139,11.8160622 24.2116139,11.7330622 23.8956139,11.6710622 C23.7756139,11.6480622 23.6536139,11.6220622 23.5326139,11.6220622 C22.0306139,11.6230622 20.5286139,11.6280622 19.0266139,11.6360622 C18.9206139,11.6370622 18.8116139,11.6620622 18.7066139,11.6880622 C18.5016139,11.7400622 18.2996139,11.8040622 18.0946139,11.8550622 C18.0016139,11.8790622 17.8956139,11.8650622 17.8086139,11.9010622 C17.4946139,12.0280622 17.1986139,12.2210622 16.8736139,12.2960622 C16.2316139,12.4450622 15.7266139,12.8310622 15.2376139,13.2130622 C14.3936139,13.8740622 13.8586139,14.7760622 13.4966139,15.7800622 C13.4116139,16.0180622 13.3226139,16.2560622 13.2476139,16.4970622 C13.1136139,16.9290622 12.9506139,17.3560622 12.8706139,17.7980622 C12.8056139,18.1570622 12.9776139,18.5580622 12.6556139,18.8730622 C12.6176139,18.9110622 12.6436139,19.0150622 12.6436139,19.0890622 C12.6426139,20.8490622 12.6416139,22.6100622 12.6446139,24.3710622 C12.6446139,24.4790622 12.6586139,24.5890622 12.6816139,24.6960622 C12.7376139,24.9610622 12.8126139,25.2220622 12.8596139,25.4890622 C12.8846139,25.6310622 12.8396139,25.7890622 12.8766139,25.9270622 C13.0026139,26.3980622 13.1256139,26.8720622 13.2956139,27.3290622 C13.5206139,27.9350622 13.7346139,28.5540622 14.0506139,29.1140622 C14.4426139,29.8100622 15.0126139,30.3630622 15.6846139,30.8200622 C16.4786139,31.3600622 17.3156139,31.7460622 18.2826139,31.8200622 C18.3756139,31.8270622 18.4626139,31.8940622 18.5546139,31.9220622 C18.7036139,31.9670622 18.8556139,32.0350622 19.0056139,32.0360622 C20.4706139,32.0460622 21.9366139,32.0460622 23.4006139,32.0450622 C23.5226139,32.0450622 23.6456139,32.0270622 23.7656139,32.0040622 C24.0586139,31.9480622 24.3466139,31.8680622 24.6416139,31.8270622 C24.9806139,31.7790622 25.3566139,31.9340622 25.6446139,31.6160622 C25.6796139,31.5770622 25.7846139,31.5950622 25.8586139,31.5960622 C26.0676139,31.5990622 26.2906139,31.6570622 26.4826139,31.6010622 C26.7556139,31.5220622 27.1836139,31.4100622 27.2326139,31.2270622 C27.3426139,30.8170622 27.3956139,30.2880622 27.2196139,29.9320622 C27.0466139,29.5830622 27.1206139,29.2750622 27.0676139,29.0180622 M41.4026139,16.6250622 C41.4746139,16.8100622 41.5996139,16.9940622 41.6086139,17.1820622 C41.6296139,17.6360622 41.6016139,18.0930622 41.5796139,18.5480622 C41.5746139,18.6370622 41.4706139,18.7230622 41.4696139,18.8110622 C41.4516139,19.9080622 40.8656139,20.7470622 40.2796139,21.6100622 C39.9416139,22.1080622 39.7366139,22.6990622 39.4886139,23.2560622 C39.2766139,23.7300622 39.0796139,24.2110622 38.8906139,24.6950622 C38.7766139,24.9850622 38.6926139,25.2870622 38.5916139,25.5820622 C38.4506139,25.9970622 38.3056139,26.4120622 38.1666139,26.8280622 C38.1436139,26.8950622 38.1536139,26.9740622 38.1336139,27.0440622 C37.9696139,27.6190622 37.9916139,28.2330622 37.7326139,28.7940622 C37.6426139,28.9880622 37.7226139,29.2550622 37.6896139,29.4840622 C37.6596139,29.6890622 37.5746139,29.8870622 37.5256139,30.0900622 C37.4966139,30.2070622 37.4776139,30.3290622 37.4766139,30.4490622 C37.4726139,31.4100622 37.4766139,32.3700622 37.4716139,33.3300622 C37.4696139,33.6300622 37.4856139,33.9110622 37.3066139,34.2080622 C37.1326139,34.4970622 37.1426139,34.8910622 37.0196139,35.2200622 C36.8976139,35.5480622 36.7556139,35.8840622 36.5466139,36.1610622 C35.8526139,37.0860622 35.0266139,37.8420622 33.9046139,38.2580622 C33.0446139,38.5770622 32.1826139,38.7330622 31.2676139,38.6960622 C30.4316139,38.6620622 29.5936139,38.6860622 28.7556139,38.6860622 C28.6716139,38.6860622 28.5476139,38.6650622 28.5076139,38.7110622 C28.2636139,38.9930622 27.9446139,38.9030622 27.6476139,38.9060622 C27.4046139,38.9090622 27.1566139,38.8480622 26.9686139,39.0840622 C26.9296139,39.1330622 26.8076139,39.1140622 26.7256139,39.1320622 C26.4466139,39.1930622 26.1696139,39.2560622 25.8906139,39.3180622 C25.8316139,39.3310622 25.7726139,39.3560622 25.7126139,39.3560622 C25.1976139,39.3560622 24.7476139,39.5600622 24.2876139,39.7630622 C23.9916139,39.8940622 23.6506139,39.9210622 23.3366139,40.0140622 C23.0616139,40.0940622 22.7846139,40.1790622 22.5266139,40.3000622 C21.7776139,40.6530622 21.0296139,41.0120622 20.2956139,41.3940622 C19.8656139,41.6180622 19.4776139,41.9230622 19.0426139,42.1340622 C18.7246139,42.2890622 18.3616139,42.3550622 18.0156139,42.4520622 C17.9356139,42.4750622 17.8206139,42.4290622 17.7626139,42.4710622 C17.2486139,42.8410622 16.6626139,42.6110622 16.1136139,42.6730622 C15.9966139,42.6860622 15.8666139,42.6070622 15.7456139,42.5610622 C15.6786139,42.5360622 15.6166139,42.4530622 15.5586139,42.4580622 C14.9826139,42.5150622 14.4716139,42.2710622 14.0266139,41.9910622 C13.3256139,41.5480622 12.5476139,41.1800622 12.1226139,40.3780622 C11.7706139,39.7150622 11.3436139,39.0920622 10.9476139,38.4530622 C10.5976139,37.8880622 10.2446139,37.3260622 9.89261392,36.7630622 C9.84661392,36.6900622 9.80461392,36.6120622 9.74661392,36.5500622 C8.86061392,35.6140622 8.01961392,34.6270622 7.06961392,33.7610622 C6.16661392,32.9380622 5.17061392,32.2120622 4.17361392,31.5000622 C3.60561392,31.0940622 2.92061392,30.8500622 2.35461392,30.4400622 C1.89361392,30.1060622 1.48361392,29.6720622 1.14161392,29.2140622 C0.796613916,28.7530622 0.558613916,28.2120622 0.287613916,27.6980622 C0.234613916,27.5970622 0.256613916,27.4590622 0.227613916,27.3420622 C0.187613916,27.1860622 0.129613916,27.0350622 0.0846139155,26.8790622 C0.0516139155,26.7660622 0.00661391553,26.6500622 0.00461391553,26.5340622 C-0.00438608447,26.1410622 0.00561391553,25.7460622 0.00561391553,25.3520622 C0.00461391553,25.0970622 -0.0483860845,24.8310622 0.192613916,24.6370622 C0.223613916,24.6110622 0.240613916,24.5450622 0.235613916,24.5010622 C0.175613916,23.8990622 0.544613916,23.4460622 0.790613916,22.9620622 C1.22861392,22.1020622 1.75961392,21.2880622 2.17561392,20.4170622 C2.48061392,19.7790622 2.65861392,19.0810622 2.89961392,18.4120622 C3.02861392,18.0540622 3.19261392,17.7070622 3.30061392,17.3430622 C3.41161392,16.9700622 3.47061392,16.5810622 3.55561392,16.2010622 C3.58461392,16.0720622 3.61961392,15.9430622 3.66161392,15.8180622 C3.68861392,15.7390622 3.77161392,15.6640622 3.76761392,15.5900622 C3.73461392,14.8120622 4.17661392,14.0850622 4.00861392,13.2910622 C3.98861392,13.1930622 4.07761392,13.0720622 4.11561392,12.9610622 C4.15361392,12.8510622 4.22461392,12.7420622 4.22561392,12.6320622 C4.23361392,11.8070622 4.25561392,10.9810622 4.21861392,10.1570622 C4.18661392,9.44206221 4.40961392,8.79306221 4.72061392,8.19206221 C5.00761392,7.63806221 5.39061392,7.11606221 5.81261392,6.65406221 C6.33361392,6.08206221 6.99761392,5.68406221 7.73461392,5.41606221 C8.53861392,5.12406221 9.35261392,4.95506221 10.2156139,4.99306221 C11.0386139,5.02906221 11.8656139,5.01706221 12.6906139,5.00006221 C12.8966139,4.99706221 13.0976139,4.87206221 13.3066139,4.84206221 C13.5936139,4.80006221 13.8886139,4.80906221 14.1766139,4.76806221 C14.3466139,4.74606221 14.5096139,4.67206221 14.6746139,4.61806221 C14.7086139,4.60706221 14.7346139,4.57006221 14.7686139,4.56306221 C15.1546139,4.48406221 15.5406139,4.40706221 15.9276139,4.33206221 C16.4236139,4.23606221 16.9216139,4.16606221 17.3796139,3.91506221 C17.6206139,3.78406221 17.9186139,3.76106221 18.1816139,3.66406221 C18.7006139,3.47206221 19.2196139,3.27606221 19.7266139,3.05606221 C20.2416139,2.83206221 20.7496139,2.58906221 21.2486139,2.33206221 C21.9036139,1.99506221 22.5476139,1.63506221 23.1956139,1.28606221 C23.2176139,1.27406221 23.2356139,1.25206221 23.2586139,1.24806221 C24.0596139,1.11906221 24.8796139,0.807062207 25.6666139,1.02106221 C26.3716139,1.21406221 27.1026139,1.36606221 27.7636139,1.78006221 C28.5116139,2.24806221 29.0866139,2.87406221 29.6326139,3.51906221 C30.0376139,3.99506221 30.2726139,4.61506221 30.5886139,5.16706221 C30.7596139,5.46906221 30.9166139,5.78406221 31.1246139,6.05906221 C31.4926139,6.54406221 31.8766139,7.02006221 32.2856139,7.47106221 C33.0946139,8.35806221 33.8986139,9.25506221 34.7596139,10.0910622 C35.2916139,10.6080622 35.9186139,11.0300622 36.5166139,11.4760622 C37.0156139,11.8480622 37.5246139,12.2080622 38.0476139,12.5460622 C38.5186139,12.8490622 39.0296139,13.0900622 39.4916139,13.4050622 C39.7816139,13.6020622 40.0756139,13.8470622 40.2606139,14.1380622 C40.6916139,14.8150622 41.0616139,15.5300622 41.4426139,16.2370622 C41.4946139,16.3350622 41.4626139,16.4790622 41.4696139,16.6010622 C41.4476139,16.6090622 41.4256139,16.6170622 41.4026139,16.6250622" id="Fill-1"></path>
                    <path d="M22.6050164,53.8313997 C22.6050164,52.5114111 22.6100164,51.1914225 22.6000164,49.8714339 C22.5980164,49.6221242 22.6690164,49.5419199 22.9360164,49.5506168 C23.7190164,49.5776737 23.7170164,49.5660779 23.7090164,50.3449291 C23.7040164,50.915056 23.6990164,51.4861491 23.7070164,52.0572423 C23.7080164,52.1519413 23.7450164,52.2891583 23.8130164,52.3287773 C23.8760164,52.3654973 24.0150164,52.3171815 24.1020164,52.2707983 C24.4700164,52.0765686 24.8160164,51.8523831 25.2770164,51.9084295 C25.5920164,51.9470822 25.9170164,51.919059 26.2360164,51.9171264 C27.0770164,51.9113285 27.3880164,52.3026867 27.6880164,52.9018031 C27.7260164,52.9781421 27.6810164,53.0902348 27.7000164,53.1820349 C27.7420164,53.3839951 27.8020164,53.58209 27.8510164,53.7840502 C27.8800164,53.9087051 27.9220164,54.0343262 27.9230164,54.1609137 C27.9280164,55.3736412 27.9190164,56.5873349 27.9300164,57.8000624 C27.9330164,58.0484058 27.8550164,58.1402059 27.5930164,58.1286101 C26.7180164,58.09189 26.8140164,58.2803218 26.8160164,57.3681188 C26.8190164,56.4520506 26.8210164,55.5369487 26.8170164,54.6208805 C26.8170164,54.5194172 26.7840164,54.4160213 26.7550164,54.3164907 C26.7080164,54.1531832 26.6520164,53.9927746 26.6010164,53.8313997 C26.5250164,53.5878879 26.4550164,53.3424435 26.3710164,53.1018306 C26.3550164,53.0525485 26.2950164,53.0023 26.2440164,52.98394 C26.0130164,52.9018031 25.7800164,52.8264304 25.5440164,52.7616872 C25.4800164,52.7442935 25.3610164,52.7442935 25.3370164,52.7810135 C25.1600164,53.0506158 24.8960164,52.9742768 24.6410164,52.9733105 C24.1470164,52.9713779 23.7090164,53.4342436 23.7110164,53.9183682 C23.7170164,55.2151652 23.7100164,56.5109959 23.7200164,57.8077929 C23.7210164,58.0609679 23.6220164,58.1363406 23.3670164,58.1295764 C22.6120164,58.11025 22.6120164,58.1179806 22.6120164,57.399041 L22.6120164,53.8313997 L22.6050164,53.8313997 Z" id="Fill-3"></path>
                </g>
                <path d="M30.7140038,54.5007571 C30.7140038,55.5644595 30.7050038,56.6281618 30.7200038,57.6918642 C30.7240038,58.0002158 30.6370038,58.1011511 30.3610038,58.0867318 C29.5370038,58.044583 29.6060038,58.2697463 29.6060038,57.2271183 C29.6070038,55.2771822 29.6150038,53.3272461 29.6000038,51.37731 C29.5980038,51.0223728 29.7020038,50.9369661 30.0030038,50.949167 C30.7080038,50.9780057 30.7110038,50.9635864 30.7130038,51.7599766 C30.7160038,52.6739399 30.7140038,53.5867939 30.7140038,54.5007571" id="Fill-18" fill="#FFFFFF"></path>
                <path d="M30.2499438,48.9481566 C30.7309438,48.9431566 30.9459438,49.1361566 30.9489438,49.5771566 C30.9519438,50.0841566 30.7629438,50.2721566 30.2459438,50.2781566 C29.8579438,50.2821566 29.6079438,50.0581566 29.6009438,49.7011566 C29.5889438,49.0611566 29.6819438,48.9541566 30.2499438,48.9481566" id="Fill-24" fill="#FFFFFF"></path>
            </g>
        </g>
    </g>
</svg>