<?xml version="1.0" encoding="UTF-8"?>
<svg width="449px" height="449px" viewBox="0 0 449 449" version="1.1" xmlns="http://www.w3.org/2000/svg" xmlns:xlink="http://www.w3.org/1999/xlink">
    <!-- Generator: Sketch 50.2 (55047) - http://www.bohemiancoding.com/sketch -->
    <title>Group 21</title>
    <desc>Created with Sketch.</desc>
    <defs></defs>
    <g id="Page-1" stroke="none" stroke-width="1" fill="none" fill-rule="evenodd">
        <g id="ICO2018-4-01" transform="translate(-730.000000, -9134.000000)" stroke-width="10">
            <g id="Group-67" transform="translate(656.000000, 9060.000000)">
                <g id="Group-21">
                    <path d="M298.5,517 C373.609169,517 439.866909,479.102526 479.194592,421.386207 C503.052768,386.372547 517,344.065049 517,298.5 C517,177.825782 419.174218,80 298.5,80 C177.825782,80 80,177.825782 80,298.5" id="Oval-7" stroke="#0089FF" transform="translate(298.500000, 298.500000) rotate(-345.000000) translate(-298.500000, -298.500000) "></path>
                    <path d="M298.5,517 C419.174218,517 517,419.174218 517,298.5 C517,177.825782 419.174218,80 298.5,80 C177.825782,80 80,177.825782 80,298.5" id="Oval-7" stroke="#11D7ED" transform="translate(298.500000, 298.500000) rotate(-467.000000) translate(-298.500000, -298.500000) "></path>
                    <path d="M298.5,517 C419.174218,517 517,419.174218 517,298.5 C517,177.825782 419.174218,80 298.5,80 C177.825782,80 80,177.825782 80,298.5" id="Oval-7" stroke="#FFFFFF" transform="translate(298.500000, 298.500000) rotate(-90.000000) translate(-298.500000, -298.500000) "></path>
                    <path d="M298.5,517 C419.174218,517 517,419.174218 517,298.5 C517,177.825782 419.174218,80 298.5,80 C177.825782,80 80,177.825782 80,298.5" id="Oval-7" stroke="#FFFFFF" transform="translate(298.500000, 298.500000) rotate(-60.000000) translate(-298.500000, -298.500000) "></path>
                </g>
            </g>
        </g>
    </g>
</svg>