<?xml version="1.0" encoding="UTF-8"?>
<svg width="14px" height="14px" viewBox="0 0 14 14" version="1.1" xmlns="http://www.w3.org/2000/svg" xmlns:xlink="http://www.w3.org/1999/xlink">
    <!-- Generator: Sketch 50.2 (55047) - http://www.bohemiancoding.com/sketch -->
    <title>ico-plus copy 14</title>
    <desc>Created with Sketch.</desc>
    <defs>
        <radialGradient cx="-14.1942948%" cy="-4.5256568%" fx="-14.1942948%" fy="-4.5256568%" r="236.429923%" id="radialGradient-1">
            <stop stop-color="#DD669B" offset="0%"></stop>
            <stop stop-color="#6024AF" offset="100%"></stop>
        </radialGradient>
    </defs>
    <g id="Page-1" stroke="none" stroke-width="1" fill="none" fill-rule="evenodd">
        <g id="ICO2018-4-01" transform="translate(-513.000000, -11387.000000)">
            <g id="ico-plus" transform="translate(513.000000, 11387.000000)">
                <path d="M6.1990073e-05,7.02817134 C0.0154295878,10.8942228 3.16212817,14.0153111 7.02744489,13.9999435 C10.8934934,13.9845759 14.0153111,10.8386067 13.9999435,6.97182343 C13.9845759,3.10577197 10.8378773,-0.0145845422 6.97182882,5.12762932e-05 C3.10578031,0.0161506767 -0.016037398,3.16211987 6.1990073e-05,7.02817134 Z" id="Fill-1-Copy" fill="url(#radialGradient-1)"></path>
                <path d="M9.75148581,7.72369644 L7.87956605,7.72369644 L7.87810247,9.5253657 C7.87737068,9.97322175 7.579532,10.2710607 7.10240468,10.2710607 C6.62454557,10.2710607 6.32817047,9.97322175 6.32890226,9.52609749 L6.33036584,7.72369644 L4.45844608,7.72369644 C3.98058697,7.72296465 3.68348008,7.42585753 3.68421188,6.97800149 C3.68421188,6.53087723 3.98205055,6.23230653 4.45917787,6.23303832 L6.33182942,6.23303832 L6.333293,4.43063727 C6.333293,3.98351302 6.63039989,3.68421053 7.108259,3.68421053 C7.58611811,3.68421053 7.88249321,3.98278122 7.88249321,4.43063727 L7.88102963,6.23230653 L9.75294939,6.23303832 C10.2300767,6.23303832 10.5271836,6.53014544 10.5264518,6.9772697 C10.52572,7.42585753 10.2286131,7.72369644 9.75148581,7.72369644" id="Path" fill="#FFFFFF"></path>
            </g>
        </g>
    </g>
</svg>