<?xml version="1.0" encoding="UTF-8"?>
<svg width="182px" height="65px" viewBox="0 0 182 65" version="1.1" xmlns="http://www.w3.org/2000/svg" xmlns:xlink="http://www.w3.org/1999/xlink">
    <!-- Generator: Sketch 50.2 (55047) - http://www.bohemiancoding.com/sketch -->
    <title>Page 1</title>
    <desc>Created with Sketch.</desc>
    <defs></defs>
    <g id="Page-1" stroke="none" stroke-width="1" fill="none" fill-rule="evenodd">
        <g id="ICO2018-4-01" transform="translate(-130.000000, -128.000000)" fill="#FFFFFF">
            <g id="Page-1" transform="translate(130.000000, 128.000000)">
                <path d="M28.7466071,3.29113924 C34.8454187,3.29113924 46.7138121,5.3030583 46.7138121,12.6785549 C46.7138121,15.6998984 44.6233172,18.2985309 41.533621,18.2985309 C38.1054856,18.2985309 35.7663416,15.3649635 28.7466071,15.3649635 C18.3839226,15.3649635 13.0356631,24.1656657 13.0356631,34.3961933 C13.0356631,44.3726324 18.4668056,52.9238658 28.7466071,52.9238658 C35.7663416,52.9238658 38.6073886,49.403585 42.0332216,49.403585 C45.7928892,49.403585 47.5495495,53.1779544 47.5495495,55.1044073 C47.5495495,63.1543934 34.9306041,65 28.7466071,65 C11.783208,65 0,51.4986603 0,34.1421048 C0,16.7070128 11.7003249,3.29113924 28.7466071,3.29113924" id="Fill-1"></path>
                <path d="M53.2882883,6.61663056 C53.2882883,2.64528515 55.7791986,0 59.2651007,0 C62.7532901,0 65.2442005,2.64528515 65.2442005,6.61663056 L65.2442005,22.8232742 L65.4088888,22.8232742 C67.8997991,19.7655889 72.5499559,18.6901586 76.2851778,18.6901586 C85.6655481,18.6901586 92.6396396,24.643759 92.6396396,34.735032 L92.6396396,57.5583062 C92.6396396,61.5296516 90.1487293,64.1772152 86.6651145,64.1772152 C83.1746378,64.1772152 80.6860148,61.5296516 80.6860148,57.5583062 L80.6860148,36.8015898 C80.6860148,31.2581111 77.1978254,28.6128259 72.8816198,28.6128259 C67.9821433,28.6128259 65.2442005,32.1694927 65.2442005,36.8015898 L65.2442005,57.5583062 C65.2442005,61.5296516 62.7532901,64.1772152 59.2651007,64.1772152 C55.7791986,64.1772152 53.2882883,61.5296516 53.2882883,57.5583062 L53.2882883,6.61663056 Z" id="Fill-4"></path>
                <path d="M128.395673,36.9031376 C127.736882,31.6818663 124.43838,27.7870309 118.913618,27.7870309 C113.63647,27.7870309 110.088082,31.8462439 109.511072,36.9031376 L128.395673,36.9031376 Z M109.680324,44.29348 C110.502677,50.1791106 115.368648,52.9118879 120.891139,52.9118879 C126.995184,52.9118879 131.202363,48.1038436 134.332759,48.1038436 C136.888416,48.1038436 139.19873,50.6745264 139.19873,53.2429261 C139.19873,58.3797255 128.644435,63.3544304 119.821171,63.3544304 C106.463603,63.3544304 97.5585586,53.5739643 97.5585586,40.3986445 C97.5585586,28.3009111 106.300041,17.278481 118.832983,17.278481 C131.695321,17.278481 140.189189,29.0474593 140.189189,38.9900199 C140.189189,42.5538172 138.62172,44.29348 134.991551,44.29348 L109.680324,44.29348 Z" id="Fill-7"></path>
                <path d="M144.288288,6.65022548 C144.288288,2.65871618 146.753358,0 150.203096,0 C153.655099,0 156.120168,2.65871618 156.120168,6.65022548 L156.120168,34.5770505 L169.101961,21.8605552 C170.992074,20.0308272 172.879923,19.2842799 174.439549,19.2842799 C177.400348,19.2842799 179.453441,22.0254369 179.453441,24.6864431 C179.453441,26.4314402 178.878484,27.8443842 177.153615,29.4222097 L166.636892,38.898323 L180.521864,55.3590051 C181.590287,56.6024873 182,58.0177213 182,59.3482244 C182,62.5084555 179.534931,65 176.413415,65 C174.276569,65 172.633189,63.6694969 170.74534,61.342834 L156.285411,43.3043264 L156.120168,43.3043264 L156.120168,57.8505496 C156.120168,61.8420589 153.655099,64.5030651 150.203096,64.5030651 C146.753358,64.5030651 144.288288,61.8420589 144.288288,57.8505496 L144.288288,6.65022548 Z" id="Fill-10"></path>
            </g>
        </g>
    </g>
</svg>