<?xml version="1.0" encoding="UTF-8"?>
<svg width="71px" height="24px" viewBox="0 0 71 24" version="1.1" xmlns="http://www.w3.org/2000/svg" xmlns:xlink="http://www.w3.org/1999/xlink">
    <!-- Generator: Sketch 50.2 (55047) - http://www.bohemiancoding.com/sketch -->
    <title>Group 64 Copy</title>
    <desc>Created with Sketch.</desc>
    <defs></defs>
    <g id="Page-1" stroke="none" stroke-width="1" fill="none" fill-rule="evenodd">
        <g id="ICO2018-4-01" transform="translate(-341.000000, -121.000000)" fill="#FFFFFF">
            <g id="Group-45" transform="translate(321.000000, 121.000000)">
                <g id="Group-64-Copy" transform="translate(20.000000, 0.000000)">
                    <path d="M65.0383476,12.231515 C64.471908,12.2291743 64.05293,11.8718337 64.0552707,11.2390754 L64.0864795,4.87326226 L63.3093806,4.87014138 C62.6774025,4.86780072 62.4160289,4.42307545 62.4175894,3.99161391 C62.41993,3.54844908 62.7507432,3.11854798 63.317963,3.12088864 L65.1873696,3.12869083 C65.7538091,3.13103149 66.0690179,3.52504248 66.0666773,4.03140512 L66.0315674,11.2460974 C66.0284465,11.8796359 65.6047872,12.2338557 65.0383476,12.231515 M60.8017712,9.59280819 L58.8917932,9.58500599 L58.8832108,11.423984 C58.8808701,11.8804126 58.5758042,12.1831379 58.088947,12.1815774 C57.6005295,12.180017 57.3001448,11.8741708 57.3024855,11.4177423 L57.3110679,9.57954445 L55.4010899,9.57174225 C54.9142328,9.56940159 54.6122877,9.26433566 54.6154086,8.80790709 C54.616969,8.35147852 54.922035,8.04875324 55.4088921,8.0510939 L57.3188701,8.05811588 L57.3274525,6.21991808 C57.3297932,5.76348951 57.6340789,5.45998401 58.1217163,5.46154445 C58.6085734,5.46388511 58.9105185,5.76895104 58.9081778,6.22615984 L58.8988152,8.06435764 L60.8087932,8.07215984 C61.2964306,8.07450049 61.5975954,8.37878621 61.5952547,8.83521478 C61.5929141,9.29164335 61.2886284,9.59514885 60.8017712,9.59280819 M62.7137629,0.00355678261 L58.4592244,0.130732607 C54.0533233,0.26180953 50.5868068,3.93898535 50.7178838,8.34488645 C50.8489607,12.7507876 54.5269167,16.2165238 58.9328178,16.0862271 L63.1873563,15.9598315 C67.5940376,15.8287546 71.0589936,12.1507985 70.9286969,7.74411722 C70.79762,3.33899634 67.119664,-0.126739921 62.7137629,0.00355678261" id="Fill-1"></path>
                    <path d="M12.9719341,15.4124615 C12.9719341,12.6403407 11.4520659,10.1428571 8.43651648,10.1428571 C5.42018681,10.1428571 3.9010989,12.6403407 3.9010989,15.4124615 C3.9010989,18.207989 5.37259341,20.6828462 8.43651648,20.6828462 C11.5004396,20.6828462 12.9719341,18.207989 12.9719341,15.4124615 M0,15.4538132 C0,10.689011 3.37757143,7.02197802 8.29841758,7.02197802 C13.1474835,7.02197802 16.5976154,10.8029231 16.5976154,15.4538132 C16.5976154,20.1967692 13.245011,23.8864286 8.29841758,23.8864286 C3.40097802,23.8864286 0,20.1967692 0,15.4538132" id="Fill-4"></path>
                    <path d="M17.9450549,8.80946154 C17.9450549,7.6640989 18.7166923,7.02197802 19.7536044,7.02197802 C20.2131538,7.02197802 20.9606044,7.36527473 21.2742527,7.77957143 L28.921967,17.4714615 L28.9711209,17.4714615 L28.9711209,8.80946154 C28.9711209,7.6640989 29.741978,7.02197802 30.7796703,7.02197802 C31.8165824,7.02197802 32.5897802,7.6640989 32.5897802,8.80946154 L32.5897802,21.8243077 C32.5897802,22.9688901 31.8165824,23.611011 30.7796703,23.611011 C30.3216813,23.611011 29.5976374,23.2669341 29.2605824,22.854978 L21.6128681,13.2777802 L21.5637143,13.2777802 L21.5637143,21.8243077 C21.5637143,22.9688901 20.7920769,23.611011 19.7536044,23.611011 C18.7166923,23.611011 17.9450549,22.9688901 17.9450549,21.8243077 L17.9450549,8.80946154 Z" id="Fill-7"></path>
                    <path d="M35.1098901,9.01465934 C35.1098901,7.8692967 35.7122198,7.02197802 36.991,7.02197802 L42.9752857,7.02197802 C44.1315714,7.02197802 44.6878681,7.80063736 44.6878681,8.6027033 C44.6878681,9.38214286 44.1081648,10.1834286 42.9752857,10.1834286 L38.7285495,10.1834286 L38.7285495,13.5282308 L42.685044,13.5282308 C43.8678571,13.5282308 44.4467802,14.3076703 44.4467802,15.1097363 C44.4467802,15.8891758 43.8436703,16.6904615 42.685044,16.6904615 L38.7285495,16.6904615 L38.7285495,20.1733626 L43.1921868,20.1733626 C44.3492527,20.1733626 44.9047692,20.9528022 44.9047692,21.7540879 C44.9047692,22.5335275 44.3258462,23.3348132 43.1921868,23.3348132 L36.9668132,23.3348132 C35.9064945,23.3348132 35.1098901,22.6482198 35.1098901,21.6175495 L35.1098901,9.01465934 Z" id="Fill-9"></path>
                </g>
            </g>
        </g>
    </g>
</svg>