<?xml version="1.0" encoding="UTF-8"?>
<svg width="91px" height="31px" viewBox="0 0 91 31" version="1.1" xmlns="http://www.w3.org/2000/svg" xmlns:xlink="http://www.w3.org/1999/xlink">
    <!-- Generator: Sketch 50.2 (55047) - http://www.bohemiancoding.com/sketch -->
    <title>Group 64</title>
    <desc>Created with Sketch.</desc>
    <defs></defs>
    <g id="Page-1" stroke="none" stroke-width="1" fill="none" fill-rule="evenodd">
        <g id="ICO2018-4-01" transform="translate(-50.000000, -14.000000)" fill="#FFFFFF">
            <g id="Group-64" transform="translate(50.000000, 14.000000)">
                <path d="M83.3590089,15.6770122 C82.6330089,15.6740122 82.0960089,15.2160122 82.0990089,14.4050122 L82.1390089,6.24601219 L81.1430089,6.24201219 C80.3330089,6.23901219 79.9980089,5.66901219 80.0000089,5.11601219 C80.0030089,4.54801219 80.4270089,3.99701219 81.1540089,4.00001219 L83.5500089,4.01001219 C84.2760089,4.01301219 84.6800089,4.51801219 84.6770089,5.16701219 L84.6320089,14.4140122 C84.6280089,15.2260122 84.0850089,15.6800122 83.3590089,15.6770122 M77.9290307,12.2950077 L75.4810307,12.2850077 L75.4700307,14.6420077 C75.4670307,15.2270077 75.0760307,15.6150077 74.4520307,15.6130077 C73.8260307,15.6110077 73.4410307,15.2190077 73.4440307,14.6340077 L73.4550307,12.2780077 L71.0070307,12.2680077 C70.3830307,12.2650077 69.9960307,11.8740077 70.0000307,11.2890077 C70.0020307,10.7040077 70.3930307,10.3160077 71.0170307,10.3190077 L73.4650307,10.3280077 L73.4760307,7.97200768 C73.4790307,7.38700768 73.8690307,6.99800768 74.4940307,7.00000768 C75.1180307,7.00300768 75.5050307,7.39400768 75.5020307,7.98000768 L75.4900307,10.3360077 L77.9380307,10.3460077 C78.5630307,10.3490077 78.9490307,10.7390077 78.9460307,11.3240077 C78.9430307,11.9090077 78.5530307,12.2980077 77.9290307,12.2950077 M80.3796116,0.0045586932 L74.9266116,0.167558693 C69.2796116,0.335558693 64.8366116,5.04855869 65.0046116,10.6955587 C65.1726116,16.3425587 69.8866116,20.7845587 75.5336116,20.6175587 L80.9866116,20.4555587 C86.6346116,20.2875587 91.0756116,15.5735587 90.9086116,9.92555869 C90.7406116,4.27955869 86.0266116,-0.162441307 80.3796116,0.0045586932" id="Fill-1"></path>
                <path d="M16.626,19.754 C16.626,16.201 14.678,13 10.813,13 C6.947,13 5,16.201 5,19.754 C5,23.337 6.886,26.509 10.813,26.509 C14.74,26.509 16.626,23.337 16.626,19.754 M0,19.807 C0,13.7 4.329,9 10.636,9 C16.851,9 21.273,13.846 21.273,19.807 C21.273,25.886 16.976,30.615 10.636,30.615 C4.359,30.615 0,25.886 0,19.807" id="Fill-4"></path>
                <path d="M23,11.291 C23,9.823 23.989,9 25.318,9 C25.907,9 26.865,9.44 27.267,9.971 L37.069,22.393 L37.132,22.393 L37.132,11.291 C37.132,9.823 38.12,9 39.45,9 C40.779,9 41.77,9.823 41.77,11.291 L41.77,27.972 C41.77,29.439 40.779,30.262 39.45,30.262 C38.863,30.262 37.935,29.821 37.503,29.293 L27.701,17.018 L27.638,17.018 L27.638,27.972 C27.638,29.439 26.649,30.262 25.318,30.262 C23.989,30.262 23,29.439 23,27.972 L23,11.291 Z" id="Fill-7"></path>
                <path d="M45,11.554 C45,10.086 45.772,9 47.411,9 L55.081,9 C56.563,9 57.276,9.998 57.276,11.026 C57.276,12.025 56.533,13.052 55.081,13.052 L49.638,13.052 L49.638,17.339 L54.709,17.339 C56.225,17.339 56.967,18.338 56.967,19.366 C56.967,20.365 56.194,21.392 54.709,21.392 L49.638,21.392 L49.638,25.856 L55.359,25.856 C56.842,25.856 57.554,26.855 57.554,27.882 C57.554,28.881 56.812,29.908 55.359,29.908 L47.38,29.908 C46.021,29.908 45,29.028 45,27.707 L45,11.554 Z" id="Fill-9"></path>
            </g>
        </g>
    </g>
</svg>