<?xml version="1.0" encoding="UTF-8"?>
<svg width="51px" height="18px" viewBox="0 0 51 18" version="1.1" xmlns="http://www.w3.org/2000/svg" xmlns:xlink="http://www.w3.org/1999/xlink">
    <!-- Generator: Sketch 50.2 (55047) - http://www.bohemiancoding.com/sketch -->
    <title>Group 80</title>
    <desc>Created with Sketch.</desc>
    <defs></defs>
    <g id="Page-1" stroke="none" stroke-width="1" fill="none" fill-rule="evenodd">
        <g id="ICO2018-4-01" transform="translate(-131.000000, -14999.000000)" fill="#6923C5">
            <g id="Group-80" transform="translate(131.000000, 14999.000000)">
                <path d="M7.85929405,1 C9.52670314,1 12.7715102,1.55425791 12.7715102,3.58611267 C12.7715102,4.41845405 12.1999709,5.134344 11.3552511,5.134344 C10.4180022,5.134344 9.77848254,4.32618379 7.85929405,4.32618379 C5.02614632,4.32618379 3.56393744,6.75066442 3.56393744,9.56904361 C3.56393744,12.3174247 5.04880647,14.6731799 7.85929405,14.6731799 C9.77848254,14.6731799 10.555222,13.7033876 11.4918414,13.7033876 C12.5197308,13.7033876 13,14.743178 13,15.2738911 C13,17.491559 9.54999274,18 7.85929405,18 C3.22151746,18 0,14.280554 0,9.49904548 C0,4.69590118 3.19885731,1 7.85929405,1" id="Fill-4"></path>
                <path d="M15,1.85578869 C15,0.741932048 15.6962916,0 16.6707161,0 C17.6457801,0 18.3420716,0.741932048 18.3420716,1.85578869 L18.3420716,6.40132069 L18.3881074,6.40132069 C19.084399,5.54372138 20.3842711,5.24209181 21.4283887,5.24209181 C24.0505115,5.24209181 26,6.9119182 26,9.74225157 L26,16.1435723 C26,17.2574289 25.3037084,18 24.3299233,18 C23.3542199,18 22.6585678,17.2574289 22.6585678,16.1435723 L22.6585678,10.321866 C22.6585678,8.76706785 21.6835038,8.0251358 20.4769821,8.0251358 C19.1074169,8.0251358 18.3420716,9.02268612 18.3420716,10.321866 L18.3420716,16.1435723 C18.3420716,17.2574289 17.6457801,18 16.6707161,18 C15.6962916,18 15,17.2574289 15,16.1435723 L15,1.85578869 Z" id="Fill-7"></path>
                <path d="M35.6575722,10.377911 C35.4721304,8.90476662 34.5436428,7.80586661 32.9884898,7.80586661 C31.5030374,7.80586661 30.5042097,8.95114458 30.3417883,10.377911 L35.6575722,10.377911 Z M30.4121283,12.622089 C30.6436108,14.2826776 32.013322,15.0537112 33.5678354,15.0537112 C35.2860492,15.0537112 36.4703187,13.6971559 37.3514867,13.6971559 C38.0708729,13.6971559 38.7211979,14.4224557 38.7211979,15.1471113 C38.7211979,16.5964226 35.7502931,18 33.2666525,18 C29.506661,18 27,15.2405113 27,11.523189 C27,8.10989991 29.4606203,5 32.9884898,5 C36.6090803,5 39,8.32053315 39,11.1257556 C39,12.1312556 38.5587765,12.622089 37.5369285,12.622089 L30.4121283,12.622089 Z" id="Fill-9"></path>
                <path d="M40,1.8416009 C40,0.736259865 40.7190276,0 41.7252701,0 C42.7321729,0 43.4512005,0.736259865 43.4512005,1.8416009 L43.4512005,9.5751832 L47.2378151,6.05369222 C47.7891357,5.54699831 48.3397959,5.34026212 48.7947179,5.34026212 C49.6583433,5.34026212 50.2572029,6.09935175 50.2572029,6.83624577 C50.2572029,7.31947576 50.0894958,7.71075254 49.5863745,8.14768884 L46.5187875,10.7718433 L50.5688475,15.330186 C50.8804922,15.6745349 51,16.0664459 51,16.4348929 C51,17.3100338 50.2809724,18 49.3704682,18 C48.7471789,18 48.2678271,17.631553 47.7171669,16.9872463 L43.4993998,11.9919673 L43.4512005,11.9919673 L43.4512005,16.0201522 C43.4512005,17.1254932 42.7321729,17.8623873 41.7252701,17.8623873 C40.7190276,17.8623873 40,17.1254932 40,16.0201522 L40,1.8416009 Z" id="Fill-12"></path>
            </g>
        </g>
    </g>
</svg>