<?xml version="1.0" encoding="UTF-8"?>
<svg width="122px" height="44px" viewBox="0 0 122 44" version="1.1" xmlns="http://www.w3.org/2000/svg" xmlns:xlink="http://www.w3.org/1999/xlink">
    <!-- Generator: Sketch 50.2 (55047) - http://www.bohemiancoding.com/sketch -->
    <title>Page 1</title>
    <desc>Created with Sketch.</desc>
    <defs></defs>
    <g id="Page-1" stroke="none" stroke-width="1" fill="none" fill-rule="evenodd">
        <g id="ICO2018-4-01" transform="translate(-676.000000, -5357.000000)" fill="#FFFFFF">
            <g id="Page-1" transform="translate(676.000000, 5357.000000)">
                <path d="M19.2697036,2.2278481 C23.357918,2.2278481 31.3136542,3.58976254 31.3136542,8.58240641 C31.3136542,10.6276235 29.9123335,12.3866978 27.8412185,12.3866978 C25.5432376,12.3866978 23.9752399,10.4008984 19.2697036,10.4008984 C12.3232888,10.4008984 8.73819173,16.3582968 8.73819173,23.283577 C8.73819173,30.0368588 12.3788477,35.8253861 19.2697036,35.8253861 C23.9752399,35.8253861 25.8796781,33.4424267 28.1761156,33.4424267 C30.6963323,33.4424267 31.8738739,35.9973845 31.8738739,37.3014449 C31.8738739,42.7506663 23.4150203,44 19.2697036,44 C7.89863393,44 0,34.8606316 0,23.1115786 C0,11.3093625 7.84307495,2.2278481 19.2697036,2.2278481" id="Fill-1"></path>
                <path d="M35.7207207,4.47894992 C35.7207207,1.79065456 37.3904518,0 39.7271554,0 C42.0653923,0 43.7351234,1.79065456 43.7351234,4.47894992 L43.7351234,15.449601 L43.8455189,15.449601 C45.51525,13.3797832 48.632388,12.6517996 51.1362181,12.6517996 C57.4241586,12.6517996 62.0990991,16.6819292 62.0990991,23.5129447 L62.0990991,38.9625457 C62.0990991,41.6508411 60.429368,43.443038 58.0941977,43.443038 C55.7544275,43.443038 54.0862297,41.6508411 54.0862297,38.9625457 L54.0862297,24.9118454 C54.0862297,21.1593367 51.7479928,19.3686822 48.8547122,19.3686822 C45.5704477,19.3686822 43.7351234,21.776272 43.7351234,24.9118454 L43.7351234,38.9625457 C43.7351234,41.6508411 42.0653923,43.443038 39.7271554,43.443038 C37.3904518,43.443038 35.7207207,41.6508411 35.7207207,38.9625457 L35.7207207,4.47894992 Z" id="Fill-4"></path>
                <path d="M86.0674294,24.9805854 C85.6258218,21.4461864 83.4147385,18.8096824 79.7113263,18.8096824 C76.1738976,18.8096824 73.795308,21.5574574 73.4085207,24.9805854 L86.0674294,24.9805854 Z M73.5219752,29.9832787 C74.0732233,33.9673979 77.335028,35.817278 81.0369174,35.817278 C85.1286398,35.817278 87.9488369,32.5626018 90.0472342,32.5626018 C91.7603669,32.5626018 93.3090389,34.3027563 93.3090389,36.0413653 C93.3090389,39.5185834 86.2341814,42.8860759 80.3196859,42.8860759 C71.3657122,42.8860759 65.3963964,36.2654527 65.3963964,27.3467747 C65.3963964,19.1575398 71.2560717,11.6962025 79.6572746,11.6962025 C88.2792812,11.6962025 93.972973,19.6628955 93.972973,26.3932443 C93.972973,28.8056609 92.9222516,29.9832787 90.4888417,29.9832787 L73.5219752,29.9832787 Z" id="Fill-7"></path>
                <path d="M96.7207207,4.50169109 C96.7207207,1.79974634 98.3731298,0 100.685592,0 C102.999572,0 104.651981,1.79974634 104.651981,4.50169109 L104.651981,23.4060034 L113.354062,14.7979143 C114.62106,13.5593292 115.886542,13.0539741 116.932005,13.0539741 C118.916717,13.0539741 120.292966,14.9095265 120.292966,16.710823 C120.292966,17.8920519 119.907555,18.8485062 118.751324,19.9165727 L111.701653,26.3311725 L121.009162,37.473788 C121.725357,38.3155299 122,39.2735344 122,40.1741826 C122,42.313416 120.347591,44 118.255146,44 C116.822755,44 115.721149,43.0993517 114.455668,41.5243799 L104.762748,29.3136979 L104.651981,29.3136979 L104.651981,39.160372 C104.651981,41.8623168 102.999572,43.6636133 100.685592,43.6636133 C98.3731298,43.6636133 96.7207207,41.8623168 96.7207207,39.160372 L96.7207207,4.50169109 Z" id="Fill-10"></path>
            </g>
        </g>
    </g>
</svg>