<?xml version="1.0" encoding="UTF-8"?>
<svg width="113px" height="30px" viewBox="0 0 113 30" version="1.1" xmlns="http://www.w3.org/2000/svg" xmlns:xlink="http://www.w3.org/1999/xlink">
    <!-- Generator: Sketch 50.2 (55047) - http://www.bohemiancoding.com/sketch -->
    <title>wallet-inverse</title>
    <desc>Created with Sketch.</desc>
    <defs></defs>
    <g id="Page-1" stroke="none" stroke-width="1" fill="none" fill-rule="evenodd">
        <g id="ICO2018-4-01" transform="translate(-426.000000, -7090.000000)" fill-rule="nonzero">
            <g id="wallet-inverse" transform="translate(426.000000, 7090.000000)">
                <path d="M12.5607381,24.0550191 C11.5079446,23.4816109 10.8590466,22.4200309 10.8590466,21.2712774 C10.8590466,19.9336478 12.3905689,19.0977504 13.6166069,19.7660809 L16,21.0630295 L16,17.7872415 C16,16.5048218 15.2752435,15.3192617 14.0994362,14.6790204 L0,7 L0,22.1313896 L14.159918,29.8433423 C14.97796,30.288896 16,29.7309853 16,28.8389094 L16,25.9282817 L12.5607381,24.0550191 Z" id="Fill-1" fill="#A066AA"></path>
                <path d="M12.6360382,23.8580504 C12.2422434,23.5961425 12,23.1097422 12,22.5817693 L12,22.0579536 C12,21.2459007 12.7565632,20.7373283 13.3639618,21.141969 C13.7565632,21.4038768 14,21.8902771 14,22.4168643 L14,22.94068 C14,23.7541187 13.2434368,24.2626911 12.6360382,23.8580504" id="Fill-4" fill="#A066AA"></path>
                <path d="M12,1.20542065 L12,2.1315557 L23.378484,8.56522785 C24.5943487,9.25203593 25.343756,10.524089 25.343756,11.9007218 L25.343756,22.3747964 L26.1608253,22.8373612 C26.9789197,23.2999259 28,22.7207144 28,21.7945794 L28,10.3209627 C28,8.98958072 27.2762222,7.75976186 26.0993144,7.09407087 L13.8401999,0.162638834 C13.0221055,-0.299925904 12,0.279285594 12,1.20542065" id="Fill-6" fill="#F04E23"></path>
                <path d="M8,4.20542065 L8,5.10943304 L19.3907862,11.5491386 C20.6066509,12.2369523 21.355033,13.5090053 21.355033,14.8856382 L21.355033,25.3818355 L22.1608253,25.8373612 C22.9789197,26.2999259 24,25.7207144 24,24.7945794 L24,13.3209627 C24,11.9895807 23.2762222,10.7597619 22.1003396,10.0940709 L9.84019991,3.16263883 C9.02210547,2.7000741 8,3.27928559 8,4.20542065" id="Fill-9" fill="#F99D1C"></path>
                <path d="M4,6.20542065 L4,7.11345534 L15.3839057,13.5501442 C16.5996925,14.2379579 17.3480267,15.5100109 17.3480267,16.8866438 L17.3480267,27.3788187 L18.159918,27.8373612 C18.97796,28.2999259 20,27.7207144 20,26.7945794 L20,15.3209627 C20,13.9895807 19.2752435,12.7597619 18.0994362,12.0940709 L5.84008201,5.16263883 C5.02203998,4.7000741 4,5.27928559 4,6.20542065" id="Fill-11" fill="#37C2DC"></path>
                <path d="M80.8856695,18.9943031 L80.8856695,7.9917642 C80.8856695,7.44485727 80.4168624,7 79.8405116,7 L79,7 L79,19.3589077 C79,21.3672054 80.7217437,23 82.8371182,23 L83,23 L83,21.3176667 C81.7867398,21.1492352 80.8856695,20.1693603 80.8856695,18.9943031" id="Fill-13" fill="#475463"></path>
                <path d="M87.8856695,18.9943031 L87.8856695,7.9917642 C87.8856695,7.44485727 87.4168624,7 86.8405116,7 L86,7 L86,19.3589077 C86,21.3672054 87.7217437,23 89.8371182,23 L90,23 L90,21.3176667 C88.7867398,21.1492352 87.8856695,20.1693603 87.8856695,18.9943031" id="Fill-15" fill="#475463"></path>
                <path d="M68.9249756,22.0800921 C66.6235791,22.0800921 64.7499188,20.0254913 64.7499188,17.5005345 C64.7499188,14.9745087 66.6235791,12.9199079 68.9249756,12.9199079 C71.2263722,12.9199079 73.1000325,14.9745087 73.1000325,17.5005345 C73.1000325,20.0254913 71.2263722,22.0800921 68.9249756,22.0800921 M74.026632,11.3474221 L73.2403378,11.3474221 L73.2403378,13.0481868 C72.1597921,11.7878464 70.6261773,11 68.9249756,11 C65.6531341,11 63,13.9097936 63,17.5005345 C63,21.0902064 65.6531341,24 68.9249756,24 C70.6261773,24 72.1597921,23.2121536 73.2403378,21.9518132 L73.2403378,22.4809637 C73.2403378,23.0710468 73.6758688,23.5488858 74.2137057,23.5488858 L75,23.5488858 L75,12.4153441 C75,11.8252611 74.5634946,11.3474221 74.026632,11.3474221" id="Fill-17" fill="#475463"></path>
                <path d="M94.0327052,18.9215073 L94.0032041,18.8198947 C93.8801134,18.3877736 93.8170422,17.9438868 93.8170422,17.5 C93.8170422,14.9682409 95.7753033,12.909248 98.1821842,12.909248 C99.4629379,12.909248 100.675534,13.5018101 101.508685,14.5339806 L101.573791,14.6152707 L94.1222257,18.8712358 L94.0327052,18.9215073 Z M102.395752,19.9964621 C102.064119,19.9964621 101.758935,20.1451374 101.557514,20.4039822 C100.722329,21.4757282 99.492439,22.0896824 98.1821842,22.0896824 C96.9604328,22.0896824 95.7844588,21.5409742 94.9553768,20.5836762 L94.8851846,20.5013164 L104,15.2976798 L103.98881,15.2666612 C103.795527,14.7115353 103.529,14.1842192 103.195333,13.6986177 C102.034618,12.0086391 100.159774,11 98.1821842,11 L98.1211475,11 C94.8689082,11.0331578 92.1843102,13.7296363 92.0093383,17.1406121 C91.9167659,18.9461083 92.5149257,20.6617574 93.6939515,21.9698865 C94.8739945,23.2790851 96.4670527,24 98.1821842,24 C100.460888,24 102.547326,22.6875926 103.628693,20.5751193 L103.64497,20.5419615 L102.946099,20.1429982 C102.777231,20.0467336 102.587,19.9964621 102.395752,19.9964621 Z" id="Fill-19" fill="#475463"></path>
                <path d="M60.8587931,7 C60.3748257,7 59.9525991,7.32687531 59.833101,7.79483358 L56.7042422,19.9915549 L53.3851822,7.27719821 L53.3722366,7.2295082 L50.6287592,7.2295082 L47.2967536,19.9915549 L44.1678948,7.79483358 C44.0474009,7.32687531 43.6261701,7 43.1422027,7 L42,7 L46.0928102,22.95231 L46.10476,23 L47.6652061,23 C48.1491735,23 48.5714001,22.6731247 48.6908982,22.2051664 L52,9.30501739 L55.3091018,22.2051664 C55.4295957,22.6731247 55.8518223,23 56.3357897,23 L57.89524,23 L62,7 L60.8587931,7 Z" id="Fill-21" fill="#475463"></path>
                <path d="M111.829185,21.3176667 C110.571804,21.1482445 109.637966,20.1693603 109.637966,18.9943031 L109.637966,13.1051458 L112.783583,13.1051458 L112.783583,12.6721778 C112.783583,12.1252709 112.299892,11.6814044 111.702582,11.6814044 L109.637966,11.6814044 L109.637966,7.9917642 C109.637966,7.44386649 109.153192,7 108.555882,7 L107.683722,7 L107.683722,11.6814044 L106,11.6814044 L106,13.1051458 L107.683722,13.1051458 L107.683722,19.3589077 C107.683722,21.3701777 109.46375,23 111.66038,23 L113,23 L113,21.351353 L111.829185,21.3176667 Z" id="Fill-23" fill="#475463"></path>
            </g>
        </g>
    </g>
</svg>