<?xml version="1.0" encoding="UTF-8"?>
<svg width="142px" height="142px" viewBox="0 0 142 142" version="1.1" xmlns="http://www.w3.org/2000/svg" xmlns:xlink="http://www.w3.org/1999/xlink">
    <!-- Generator: Sketch 50.2 (55047) - http://www.bohemiancoding.com/sketch -->
    <title>Group 20</title>
    <desc>Created with Sketch.</desc>
    <defs>
        <radialGradient cx="0%" cy="0%" fx="0%" fy="0%" r="279.712945%" id="radialGradient-1">
            <stop stop-color="#DD669B" offset="0%"></stop>
            <stop stop-color="#6923C5" offset="100%"></stop>
        </radialGradient>
        <circle id="path-2" cx="71" cy="71" r="71"></circle>
    </defs>
    <g id="Page-1" stroke="none" stroke-width="1" fill="none" fill-rule="evenodd">
        <g id="ICO2018-4-01" transform="translate(-130.000000, -4698.000000)">
            <g id="Group-20" transform="translate(130.000000, 4698.000000)">
                <mask id="mask-3" fill="white">
                    <use xlink:href="#path-2"></use>
                </mask>
                <use id="Oval-11" fill="url(#radialGradient-1)" xlink:href="#path-2"></use>
                <g id="Group" mask="url(#mask-3)">
                    <g transform="translate(8.000000, 23.000000)">
                        <path d="M54.4058625,99.3329544 C52.6669238,101.334938 50.9687674,103.374229 49.1809635,105.331149 C45.1034775,109.794982 40.4546732,113.612049 35.6486186,117.244062 C34.5915878,118.042639 33.5419052,118.852297 32.4731174,119.634623 C31.7552036,120.160236 31.0571298,120.097443 30.3168041,119.582911 C27.3220673,117.501512 24.3063884,115.450402 21.2958531,113.392274 C14.6564362,108.85309 8.01481474,104.31686 1.37503036,99.7784143 C1.18471339,99.6483961 1.01680826,99.4821797 0.817673513,99.3698913 C-0.159997261,98.8173142 -0.141994305,98.1424757 0.255172966,97.2582046 C0.832737212,95.9716899 1.77623911,94.9455808 2.77852617,93.9870663 C5.06894316,91.7985507 7.15030541,89.4412331 8.75661004,86.6894287 C10.7575101,83.262047 11.8097645,79.5557912 11.8825112,75.5872829 C11.9372549,72.6131179 11.8354831,69.6345204 11.9423986,66.6625716 C12.0434356,63.8476049 12.2826177,61.0344851 12.5434769,58.2283833 C12.7088102,56.4461744 12.9656278,54.6669204 13.2852722,52.9053962 C14.0178823,48.8689238 15.1322286,44.9580372 17.4344026,41.4977816 C18.9892702,39.16041 21.1059036,37.5916968 23.7835678,36.7000383 C26.4395551,35.8153978 29.1080341,34.9861627 31.8525665,34.4590721 C34.0154932,34.0435312 36.2004643,33.7026029 38.3905791,33.4783955 C41.9426727,33.1153051 45.5057885,32.8560075 49.0670673,32.5882145 C51.9780352,32.3691782 54.8915749,32.1782141 57.8065843,32.0208626 C59.4727763,31.9307364 61.1139846,32.1102501 62.5836137,33.002278 C64.0187066,33.8736211 64.8284722,35.1453611 64.9747003,36.8536961 C65.3057343,40.7102854 62.3356138,44.1812527 59.1483556,45.0629382 C55.9963686,45.9353895 52.8043341,46.664156 49.6203826,47.4158233 C46.8809939,48.0625897 44.1048645,48.5634551 41.3886225,49.2925909 C38.6562146,50.0257898 36.3430183,51.4382596 35.0831788,54.1601451 C34.6011404,55.201029 34.2888442,56.2954715 34.2811287,57.4460582 C34.2510013,61.9483058 34.2418161,66.4505534 34.2296916,70.9528009 C34.2194042,74.837093 34.2135257,78.721385 34.2094842,82.605677 C34.2061776,86.0260407 34.2080146,89.4464043 34.2091168,92.8671373 C34.2105865,96.1124197 35.9778155,98.3773949 39.173524,98.8686566 C41.0190108,99.1523326 42.9207109,99.1153956 44.7981621,99.1346028 C47.7579951,99.1645218 50.7189304,99.119828 53.6794983,99.1069001 C53.8812049,99.1061614 54.0829115,99.1069001 54.2846181,99.1069001 L54.4058625,99.3329544 Z" id="Fill-1" fill="#FAFAFA"></path>
                        <g id="Group-6" stroke-width="1" fill="none" transform="translate(38.000000, 0.000000)">
                            <path d="M29.5856358,4.41855863 C31.2591684,4.41855863 32.9341718,4.37804583 34.6058657,4.43543896 C35.4413449,4.46469821 36.0525098,3.78348297 36.0212528,3.16303692 C35.9826413,2.39591954 35.4681891,1.87112872 34.621678,1.85387327 C34.0642016,1.84224459 33.5059897,1.85349815 32.9485132,1.85387327 C30.1971684,1.85574886 27.4465589,1.85124744 24.6955818,1.86250099 C23.7814087,1.86625218 23.2283449,2.37416266 23.2246677,3.15928574 C23.2209904,3.91552469 23.7718477,4.4624475 24.6805049,4.43356337 C26.3143228,4.38104678 27.950347,4.41855863 29.5856358,4.41855863 M25.7171316,90.5105111 C25.689552,92.6351824 27.4178761,94.422247 29.5418761,94.4650106 C31.6952944,94.5088994 33.4629654,92.7552203 33.5107702,90.526266 C33.5574717,88.3618321 31.8089225,86.5019945 29.7102958,86.4839888 C27.4483976,86.4648578 25.7476531,88.1795245 25.7171316,90.5105111 M3.199275,52.2360425 C3.21655824,52.642671 3.23825422,52.9093802 3.23825422,53.1760895 C3.24009287,60.0058725 3.23935741,66.8356555 3.23935741,73.6650634 C3.23935741,76.844568 3.25222791,80.0236975 3.22832555,83.2028271 C3.22391281,83.7838856 3.36953331,83.9823234 3.96893082,83.9804478 C10.1059523,83.959066 16.2433415,83.9646928 22.380363,83.968444 C28.0172736,83.9721951 33.6541843,83.9860745 39.2914627,83.9883252 C44.6584606,83.9902008 50.026194,83.9789473 55.3939274,83.9864497 C55.8112992,83.9871999 55.9738352,83.867162 55.9730998,83.4203958 C55.9617002,75.4716342 55.9594938,67.5224975 55.9602293,59.573736 C55.9613325,52.272429 55.9716289,44.971122 55.9716289,37.6701901 C55.9719966,27.3859406 55.9639066,17.101316 55.9734675,6.81706648 C55.9738352,6.32566122 55.8252729,6.16623584 55.3479613,6.16773632 C49.9224945,6.18311618 44.49666,6.18499177 39.0708256,6.18499177 C33.452669,6.18461665 27.8345125,6.17673916 22.216356,6.17523869 C16.1558221,6.17336309 10.0952882,6.17448845 4.0343865,6.17523869 C3.24119605,6.17523869 3.23935741,6.17711428 3.23972514,6.99449755 C3.2456088,14.0005863 3.25259564,21.0070501 3.25737611,28.0131388 C3.25811157,28.5626874 3.23384148,29.1122361 3.24377015,29.6614096 C3.24891835,29.9622547 3.17059217,30.1445623 2.84662334,30.1809488 C2.12072722,30.2623495 1.39740519,30.365132 0.671876801,30.4495336 C0.2813491,30.494923 0.238324861,30.2244625 0.237589404,29.9217419 C0.235383033,28.9404318 0.22618982,27.9591217 0.226557548,26.9778117 C0.229499377,19.7158921 0.215525693,12.4535975 0.248988989,5.19205303 C0.260756302,2.58572951 1.61362957,0.965967716 4.01673553,0.208978531 C4.17669744,0.158712648 4.36019398,0.177468575 4.53265866,0.177468575 C21.2536427,0.176343219 37.9742591,0.168840849 54.6952431,0.18872213 C56.2783145,0.190597723 58.0228186,1.46299976 58.6089779,3.17804166 C58.8314537,3.82999766 58.95832,4.55060035 58.9605264,5.24044332 C58.988106,14.3078083 58.9899447,23.3755485 58.9899447,32.4429135 C58.9899447,41.2942102 58.9781774,50.1458821 58.9756033,58.9975539 C58.9730292,68.5356927 58.9803837,78.0745817 58.9704551,87.6130956 C58.9682487,89.4159152 58.9660423,91.2232363 58.8538851,93.0211794 C58.7516566,94.6480684 57.2858907,96.3454797 55.7487854,96.7434805 C55.1791739,96.8909021 54.5772023,96.9798052 53.9899398,96.9805554 C37.6929467,96.9948099 21.3955859,96.9948099 5.09822514,96.9959353 C2.31746198,96.9963104 0.219938435,94.7831111 0.225086634,91.9329605 C0.239428047,84.3964542 0.225086634,76.8599479 0.225822091,69.3230665 C0.22618982,64.8088901 0.225086634,60.2947138 0.252666274,55.7805374 C0.254872645,55.4147969 0.420350485,55.0205473 0.600905194,54.6915684 C1.17750353,53.6393609 2.04460741,52.8879985 3.199275,52.2360425" id="Fill-4" fill="#FAFAFA"></path>
                        </g>
                    </g>
                </g>
            </g>
        </g>
    </g>
</svg>