<?xml version="1.0" encoding="UTF-8"?>
<svg width="142px" height="142px" viewBox="0 0 142 142" version="1.1" xmlns="http://www.w3.org/2000/svg" xmlns:xlink="http://www.w3.org/1999/xlink">
    <!-- Generator: Sketch 50.2 (55047) - http://www.bohemiancoding.com/sketch -->
    <title>Group 76</title>
    <desc>Created with Sketch.</desc>
    <defs>
        <radialGradient cx="123.460901%" cy="74.6113854%" fx="123.460901%" fy="74.6113854%" r="195.956476%" id="radialGradient-1">
            <stop stop-color="#DD669B" offset="0%"></stop>
            <stop stop-color="#6923C5" offset="100%"></stop>
        </radialGradient>
    </defs>
    <g id="Page-1" stroke="none" stroke-width="1" fill="none" fill-rule="evenodd">
        <g id="ICO2018-4-01" transform="translate(-476.000000, -4698.000000)">
            <g id="Group-76" transform="translate(476.000000, 4698.000000)">
                <g id="Group-38" fill="url(#radialGradient-1)">
                    <circle id="Oval-11" cx="71" cy="71" r="71"></circle>
                </g>
                <g id="Group" transform="translate(20.000000, 52.000000)" fill="#FFFFFF">
                    <path d="M25.4143753,30.7930672 L8.84040619,30.7930672 L8.84040619,16.4419412 L25.4143753,16.4419412 C29.3788907,16.4419412 32.6032309,19.6616674 32.6032309,23.6169536 C32.6032309,27.5744421 29.3788907,30.7930672 25.4143753,30.7930672 Z M8.84040619,11.4372709 C8.84040619,7.47978244 12.0636433,4.26115731 16.0281588,4.26115731 C19.9915711,4.26115731 23.2170144,7.47978244 23.2170144,11.4372709 L23.2170144,12.6782529 L8.84040619,12.6782529 L8.84040619,11.4372709 Z M26.9873856,12.8037826 L26.9873856,11.4372709 C26.9873856,5.40413811 22.070901,0.497469072 16.0281588,0.497469072 C9.98541649,0.497469072 5.07003505,5.40413811 5.07003505,11.4372709 L5.07003505,12.6782529 L1.88540619,12.6782529 C0.844086598,12.6782529 0.000220618557,13.5206232 0.000220618557,14.560097 C0.000220618557,15.5995709 0.844086598,16.4419412 1.88540619,16.4419412 L5.07003505,16.4419412 L5.07003505,34.5567554 L25.4143753,34.5567554 C31.4582206,34.5567554 36.3736021,29.6500864 36.3736021,23.6169536 C36.3736021,18.1200748 32.2855402,13.5690732 26.9873856,12.8037826 Z" id="Fill-1"></path>
                    <path d="M46.0188247,2.58500569 C46.7159794,2.58500569 48.0694742,2.81184003 48.0705773,3.64980572 C48.0705773,3.99225951 47.8334124,4.28846552 47.4793196,4.28846552 C47.0888247,4.28846552 46.8218763,3.95592197 46.0199278,3.95592197 C44.8385155,3.95702311 44.2285052,4.95685603 44.2296082,6.11855617 C44.2296082,7.25162673 44.8506495,8.22172894 46.0243402,8.2206278 C46.8240825,8.2206278 47.1483918,7.82091486 47.5399897,7.81981372 C47.9690928,7.81981372 48.1698557,8.24815624 48.1698557,8.46728262 C48.1698557,9.3812268 46.7314227,9.59044294 46.0254433,9.59154408 C44.0895155,9.59374636 42.7426392,8.06206399 42.7415361,6.09212887 C42.7393299,4.11118237 44.0729691,2.58720796 46.0188247,2.58500569" id="Fill-4"></path>
                    <path d="M49.5962649,3.38178884 C49.5962649,2.9060974 49.9007186,2.63962211 50.3110691,2.63852097 C50.7214196,2.63852097 51.0269763,2.90389513 51.0269763,3.3806877 L51.0291825,5.39907288 L54.0229763,5.3968706 L54.0218732,3.37848542 C54.0207701,2.90169285 54.3263268,2.63521756 54.7355742,2.63521756 C55.1459247,2.63521756 55.4514814,2.90059172 55.4525845,3.37738429 L55.4558938,8.78507092 C55.4558938,9.26076235 55.1514402,9.52723765 54.7410897,9.52833878 C54.3318423,9.52833878 54.0262856,9.26186349 54.0262856,8.78617206 L54.0240794,6.71052773 L51.0291825,6.71273 L51.0313887,8.78837433 C51.0313887,9.26406577 50.725832,9.53054106 50.3165845,9.5316422 C49.906234,9.5316422 49.6006773,9.26626804 49.6006773,8.78947547 L49.5962649,3.38178884 Z" id="Fill-6"></path>
                    <path d="M58.7550237,6.8207516 L60.5674052,6.81965046 L59.6772093,4.05909856 L59.6584567,4.05909856 L58.7550237,6.8207516 Z M58.6469206,3.36538189 C58.8090753,2.92823027 59.1808175,2.57586625 59.6661784,2.57476511 C60.1724979,2.57476511 60.5243845,2.90620752 60.6876423,3.36317961 L62.5606938,8.54072849 C62.6191577,8.69268548 62.6379103,8.82702426 62.6379103,8.89309252 C62.6390134,9.26527702 62.3334567,9.52184207 61.980467,9.52184207 C61.5800443,9.52294321 61.3792814,9.31372707 61.2833124,9.02853244 L60.9965082,8.13330759 L58.3457763,8.13550986 L58.0600753,9.02082448 C57.9652093,9.31703048 57.7655495,9.52514549 57.3739515,9.52624662 C56.9922814,9.52624662 56.6679722,9.24105199 56.6668691,8.86115953 C56.6668691,8.7081014 56.7143021,8.5935831 56.7341577,8.54513304 L58.6469206,3.36538189 Z" id="Fill-8"></path>
                    <path d="M65.2766186,5.68305626 L66.2594742,5.68305626 C66.7834433,5.68195512 67.1452577,5.36813091 67.1452577,4.83407919 C67.1441546,4.29121836 66.7823402,3.99721463 66.2583711,3.99721463 L65.2755155,3.99831577 L65.2766186,5.68305626 Z M63.843701,3.4279265 C63.843701,2.97095441 64.1018247,2.68465864 64.5783608,2.68465864 L66.257268,2.6835575 C67.7254845,2.68245636 68.6322268,3.33873436 68.6333299,4.83407919 C68.6333299,5.88015988 67.8424124,6.481381 66.8694845,6.63333798 L68.4932371,8.36542739 C68.6267113,8.50747414 68.6840722,8.65062202 68.6840722,8.78385967 C68.6840722,9.15494303 68.3884433,9.51721729 67.969268,9.51721729 C67.7971856,9.51721729 67.5688454,9.45114904 67.4155155,9.27056248 L65.2964742,6.71151875 L65.2777216,6.71151875 L65.2788247,8.77725284 C65.2799278,9.25294428 64.9754742,9.51941957 64.5640206,9.51941957 C64.1536701,9.52052071 63.8492165,9.25404541 63.8481134,8.77945512 L63.843701,3.4279265 Z" id="Fill-10"></path>
                    <path d="M69.9098289,3.36571223 C69.9087258,2.8900208 70.2142825,2.6235455 70.624633,2.6235455 C71.0349835,2.62244437 71.3394371,2.88891966 71.3405402,3.36461109 L71.3449526,8.77229772 C71.3449526,9.24798916 71.0393959,9.51556559 70.6301485,9.51556559 C70.2197979,9.51556559 69.9142412,9.2490903 69.9142412,8.77339886 L69.9098289,3.36571223 Z" id="Fill-12"></path>
                    <path d="M74.106766,3.99159883 L73.0676526,3.99159883 C72.6098691,3.99269996 72.419034,3.65905528 72.4179309,3.33532083 C72.4179309,3.00277728 72.656199,2.67904284 73.0665495,2.67904284 L76.5754876,2.67573942 C76.9858381,2.67573942 77.2241062,2.99947387 77.2241062,3.33201742 C77.2241062,3.65575187 77.0343742,3.98829541 76.5765907,3.98939655 L75.5374773,3.99049769 L75.5407866,8.76943477 C75.5418897,9.2451262 75.236333,9.51270263 74.8259825,9.51270263 C74.415632,9.51270263 74.1111784,9.2451262 74.1100753,8.7705359 L74.106766,3.99159883 Z" id="Fill-14"></path>
                    <path d="M79.7158825,6.27128395 L77.9112227,3.7408698 C77.8251814,3.61754239 77.7777485,3.46448427 77.7777485,3.31142615 C77.7777485,2.93153368 78.0634495,2.61770947 78.4638722,2.61770947 C78.712068,2.61660834 78.9304804,2.72121641 79.0551299,2.90180297 L80.4295835,4.89045743 L81.802934,2.89960069 C81.9253773,2.71901413 82.1448928,2.61440606 82.3930887,2.61440606 C82.7935113,2.61330492 83.0803155,2.92712913 83.0803155,3.30812273 C83.0803155,3.46007972 83.0328825,3.61313784 82.9479443,3.73646525 L81.1465938,6.27018281 L81.1488,8.81270947 C81.1488,9.16397236 80.9392124,9.50642615 80.4328928,9.50752728 C79.9276763,9.50752728 79.7180887,9.16617464 79.7180887,8.81381061 L79.7158825,6.27128395 Z" id="Fill-16"></path>
                    <path d="M44.4503371,20.398879 L45.5765948,20.3977779 C46.0906361,20.3977779 46.4723062,20.1015719 46.4712031,19.5686213 C46.4712031,19.1215595 46.1281412,18.8165443 45.459667,18.8176455 L44.449234,18.8187466 L44.4503371,20.398879 Z M44.4481309,17.5623486 L45.1927186,17.5623486 C45.6593268,17.5612475 45.9637804,17.284862 45.9637804,16.8091705 C45.9637804,16.3621087 45.6107907,16.1330721 45.1916155,16.1341732 L44.4470278,16.1341693 L44.4481309,17.5623486 Z M43.0152134,15.5935147 C43.0152134,15.1365426 43.3295948,14.8777752 43.7686258,14.8777752 L45.5997598,14.8766741 C46.5914402,14.875573 47.3933887,15.5417612 47.3944918,16.5504032 C47.3944918,17.2165915 47.1187186,17.6658556 46.5076052,17.9510502 L46.5087082,17.9697696 C47.3194814,18.0831867 47.9592753,18.7592852 47.9592753,19.5873407 C47.9603784,20.9296274 47.064667,21.6541759 45.7486773,21.655277 L43.7840691,21.6563782 C43.3450381,21.6574793 43.0207289,21.3810938 43.0196258,20.9329308 L43.0152134,15.5935147 Z" id="Fill-18"></path>
                    <path d="M49.2526515,15.5588288 C49.2526515,15.0831374 49.5571052,14.8166621 49.9674557,14.815561 C50.3778062,14.815561 50.6833629,15.0820363 50.6833629,15.5577277 L50.6877753,20.3377659 L52.3854351,20.3355636 C52.8707959,20.3355636 53.0903113,20.6967368 53.0726619,21.0204712 C53.062734,21.3342954 52.8057134,21.6492208 52.3865381,21.6492208 L50.0016515,21.651423 C49.5339402,21.651423 49.2570639,21.3475091 49.2570639,20.8707165 L49.2526515,15.5588288 Z" id="Fill-20"></path>
                    <path d="M58.8875052,18.2558451 C58.8864021,17.1029541 58.2841134,16.0667836 57.0927732,16.0678847 C55.9003299,16.0689859 55.3002474,17.1062575 55.3013505,18.2580474 C55.3024536,19.4197475 55.8848866,20.4471089 57.0960825,20.4460077 C58.3072784,20.4449066 58.8886082,19.4175452 58.8875052,18.2558451 M53.8132784,18.2591485 C53.8121753,16.2793031 55.1458144,14.7542276 57.0916701,14.7531265 C59.0077423,14.7509242 60.3744742,16.3211464 60.3755773,18.2536428 C60.3766804,20.2246791 59.051866,21.7585637 57.0971856,21.760766 C55.1612577,21.7618671 53.8154845,20.2301848 53.8132784,18.2591485" id="Fill-22"></path>
                    <path d="M64.7400742,14.7469601 C65.4361258,14.7469601 66.7907237,14.9737944 66.7907237,15.8117601 C66.7907237,16.1542139 66.5535588,16.4504199 66.2005691,16.4504199 C65.8100742,16.4504199 65.5431258,16.1178764 64.7411773,16.1178764 C63.5586619,16.1189775 62.9486515,17.1188104 62.9497546,18.2805106 C62.9508577,19.4135811 63.5707959,20.3836833 64.7444866,20.3825822 C65.545332,20.3825822 65.8685381,19.9828693 66.2601361,19.9817681 C66.6903423,19.9817681 66.8900021,20.4101106 66.8900021,20.629237 C66.8911052,21.5431812 65.4515691,21.7534985 64.7455897,21.7534985 C62.8096619,21.7545996 61.4638887,20.2240184 61.4616825,18.2540833 C61.4605794,16.2731368 62.7942186,14.7491624 64.7400742,14.7469601" id="Fill-24"></path>
                    <path d="M68.3165216,15.5061945 C68.3165216,15.1163918 68.6022227,14.8014664 69.0313258,14.8003653 C69.4427794,14.8003653 69.747233,15.0679417 69.747233,15.5050933 L69.7494392,17.5609172 L72.0935113,15.0657394 C72.1983052,14.9512211 72.3792124,14.798163 72.6461608,14.798163 C73.0090784,14.7970619 73.3521402,15.0734474 73.3521402,15.4830706 C73.3521402,15.7308265 73.1999134,15.9312336 72.885532,16.2450578 L71.0852845,18.0167881 L73.2892639,20.3093566 C73.5087794,20.537292 73.6907897,20.7476093 73.6907897,21.0339051 C73.6907897,21.4809669 73.3389031,21.6901831 72.9473052,21.6901831 C72.6704289,21.6901831 72.4895216,21.529417 72.2225732,21.2431212 L69.7505423,18.5794694 L69.7516454,21.0074778 C69.7527485,21.3785611 69.4659443,21.6923854 69.0368412,21.6934865 C68.6264907,21.6934865 68.3220371,21.4270112 68.320934,21.0085789 L68.3165216,15.5061945 Z" id="Fill-26"></path>
                    <path d="M77.9201577,14.7372701 C78.6162093,14.7361689 79.9708072,14.9641044 79.9708072,15.8020701 C79.9708072,16.1434228 79.7336423,16.4396288 79.3806526,16.4396288 C78.9901577,16.4407299 78.7232093,16.1070852 77.9212608,16.1070852 C76.7387454,16.1081864 76.1287351,17.1080193 76.1298381,18.2697194 C76.1309412,19.40279 76.7508794,20.3739933 77.9245701,20.3728922 C78.7254155,20.3717911 79.0486216,19.9720781 79.4402196,19.9720781 C79.8704258,19.970977 80.0700856,20.4004206 80.0700856,20.6184459 C80.0711887,21.5323901 78.6316526,21.7427073 77.9256732,21.7427073 C75.9897454,21.7449096 74.6439722,20.2132272 74.641766,18.2432921 C74.6406629,16.2623456 75.9743021,14.7383712 77.9201577,14.7372701" id="Fill-28"></path>
                    <path d="M81.4966052,15.5341633 C81.4966052,15.0573708 81.8010588,14.7908955 82.2114093,14.7908955 C82.6228629,14.7897943 82.9273165,15.0562696 82.9273165,15.5330622 L82.9295227,17.5514474 L85.9244196,17.548144 L85.9222134,15.5297588 C85.9222134,15.0540674 86.226667,14.7875921 86.6370175,14.7864909 C87.0462649,14.7864909 87.3529247,15.0529662 87.3529247,15.5286577 L87.356234,20.9363443 C87.3573371,21.4131369 87.0517804,21.6796122 86.642533,21.6796122 C86.2321825,21.6796122 85.9277289,21.414238 85.9266258,20.9374454 L85.9255227,18.8618011 L82.9306258,18.8640034 L82.9317289,20.9396477 C82.932832,21.4164403 82.6272753,21.6829156 82.2169247,21.6829156 C81.8065742,21.6829156 81.5021206,21.4175414 81.5010175,20.9407488 L81.4966052,15.5341633 Z" id="Fill-30"></path>
                    <path d="M90.6552536,18.973016 L92.4676351,18.9708137 L91.5785423,16.211363 L91.5586866,16.211363 L90.6552536,18.973016 Z M90.5471505,15.5165451 C90.7093052,15.0793935 91.0810474,14.7270295 91.5675113,14.7259284 C92.0727278,14.7259284 92.4257175,15.0584719 92.5889753,15.515444 L94.4620268,20.6929929 C94.5193876,20.8449499 94.5392433,20.9781875 94.5392433,21.0453569 C94.5392433,21.4164403 94.2336866,21.6730053 93.8806969,21.6741065 C93.4802742,21.6741065 93.2795113,21.4648903 93.1835423,21.1796957 L92.8967381,20.2844708 L90.2460062,20.2866731 L89.9603052,21.1719877 C89.8654392,21.4681937 89.6657794,21.6774099 89.2741814,21.6774099 C88.8925113,21.6774099 88.5682021,21.3922153 88.5682021,21.0123228 C88.567099,20.8592647 88.6156351,20.7447464 88.6343876,20.6973974 L90.5471505,15.5165451 Z" id="Fill-32"></path>
                    <path d="M95.7452546,15.5222711 C95.7441515,15.0454785 96.0486052,14.7801043 96.4589557,14.7790032 C96.8704093,14.7790032 97.1748629,15.0443774 97.175966,15.5211699 L97.1803784,20.9288566 C97.1803784,21.404548 96.8748216,21.6710233 96.4644711,21.6721244 C96.0552237,21.6721244 95.749667,21.4056491 95.749667,20.9299577 L95.7452546,15.5222711 Z" id="Fill-34"></path>
                    <path d="M98.7399309,15.5201789 C98.7388278,15.0433863 99.0432814,14.776911 99.453632,14.776911 C99.6356423,14.776911 99.9312711,14.9189578 100.054818,15.0907352 L103.081704,19.1153931 L103.100457,19.1153931 L103.097147,15.5168755 C103.097147,15.0400829 103.402704,14.7736076 103.813055,14.7736076 C104.223405,14.7736076 104.527859,15.0389818 104.527859,15.5157744 L104.532271,20.9223598 C104.533374,21.3991524 104.228921,21.6656277 103.81857,21.6656277 C103.63656,21.6656277 103.350859,21.523581 103.217385,21.3529046 L100.190498,17.3755957 L100.171745,17.3755957 L100.175055,20.9267644 C100.175055,21.4024558 99.8694979,21.6689311 99.4591474,21.6700323 C99.0487969,21.6700323 98.7443433,21.403557 98.7432402,20.9278655 L98.7399309,15.5201789 Z" id="Fill-36"></path>
                    <path d="M44.7066959,31.1855126 L46.5190773,31.1844115 L45.6299845,28.4238596 L45.6101289,28.4238596 L44.7066959,31.1855126 Z M44.5985928,27.7301429 C44.7607474,27.2918902 45.1324897,26.9395261 45.6189536,26.9395261 C46.1241701,26.9395261 46.4771598,27.2709685 46.6404175,27.7279406 L48.5134691,32.9054895 C48.5708299,33.0574465 48.5906856,33.1906841 48.5906856,33.2578535 C48.5906856,33.6289369 48.2851289,33.8866031 47.9321392,33.8866031 C47.5328196,33.8866031 47.3309536,33.6784881 47.2360876,33.3921923 L46.9492835,32.4969675 L44.2985515,32.4991697 L44.0128505,33.3855855 C43.9168814,33.6806904 43.7183247,33.8899065 43.3256237,33.8899065 C42.9439536,33.8910076 42.6196443,33.6047119 42.6196443,33.2248194 C42.6196443,33.0728624 42.6670773,32.957243 42.6858299,32.9098941 L44.5985928,27.7301429 Z" id="Fill-38"></path>
                    <path d="M53.8115134,27.8843022 C53.8126165,28.2564867 53.5644206,28.5901314 53.1728227,28.5901314 C52.7823278,28.5901314 52.4767711,28.3049367 51.904266,28.3049367 C51.4939155,28.3060379 51.1221732,28.5251642 51.1232763,28.923776 C51.1232763,29.9048896 54.3090082,29.2739378 54.3101113,31.7305757 C54.3112144,33.0915818 53.188266,33.9394577 51.8711732,33.9405588 C51.1365134,33.94166 49.5535753,33.7720848 49.5535753,32.8768599 C49.5535753,32.5046754 49.7995649,32.2007615 50.1911629,32.1996603 C50.6390186,32.1996603 51.1729155,32.5707437 51.7939567,32.5707437 C52.4227196,32.5696426 52.7668845,32.2172785 52.7657814,31.7503962 C52.7646784,30.6272359 49.5800495,31.3055366 49.5778433,29.0977558 C49.5767402,27.7642782 50.6732144,26.9351216 51.9417711,26.9340204 C52.475668,26.9340204 53.8115134,27.1322252 53.8115134,27.8843022" id="Fill-40"></path>
                    <path d="M59.6965134,27.8800077 C59.6965134,28.2510911 59.4483175,28.5858369 59.0578227,28.5858369 C58.6662247,28.5858369 58.360668,28.3006423 57.789266,28.3006423 C57.3778124,28.3006423 57.0071732,28.5197687 57.0071732,28.9194816 C57.0071732,29.9005952 60.1929052,29.2696434 60.1951113,31.7251801 C60.1962144,33.0872873 59.0721629,33.9351633 57.7550701,33.9362644 C57.0204103,33.9373655 55.4385753,33.7666892 55.4374722,32.8714644 C55.4374722,32.500381 55.6845649,32.1953659 56.0761629,32.1953659 C56.5240186,32.1953659 57.0579155,32.5664493 57.6778536,32.5653481 C58.3066165,32.5653481 58.6507814,32.2129841 58.6496784,31.7461018 C58.6496784,30.6229414 55.4639464,31.300141 55.4628433,29.0923602 C55.4617402,27.7599837 56.5571113,26.9308271 57.825668,26.929726 C58.3595649,26.929726 59.6954103,27.1279308 59.6965134,27.8800077" id="Fill-42"></path>
                    <path d="M66.3743062,30.4263884 C66.3732031,29.2734973 65.7709144,28.2373269 64.5795742,28.238428 C63.3871309,28.2395292 62.7870485,29.2768007 62.7881515,30.4285907 C62.7892546,31.5902908 63.3705845,32.6176522 64.5828835,32.616551 C65.7940794,32.6154499 66.3743062,31.5880885 66.3743062,30.4263884 M61.3000794,30.4307929 C61.2978732,28.4498464 62.6326155,26.925872 64.5784711,26.9236697 C66.4945433,26.9225686 67.8601722,28.4927908 67.8623784,30.4252872 C67.8634814,32.3952224 66.538667,33.9302081 64.5839866,33.9313093 C62.6480588,33.9324104 61.3011825,32.400728 61.3000794,30.4307929" id="Fill-44"></path>
                    <path d="M72.2269856,26.9186045 C72.9230371,26.9175034 74.276532,27.1454389 74.2776351,27.9834046 C74.2776351,28.3247572 74.0404701,28.6209632 73.6874804,28.6209632 C73.2969856,28.6209632 73.028934,28.2884197 72.2280887,28.2884197 C71.0455732,28.2895208 70.4355629,29.2893537 70.436666,30.4510539 C70.4377691,31.5841244 71.0577072,32.5542266 72.2313979,32.5542266 C73.0322433,32.5531255 73.3554495,32.1534125 73.7470474,32.1534125 C74.1772536,32.1523114 74.3769134,32.5817551 74.3769134,32.7997803 C74.3780165,33.7137245 72.9384804,33.9240418 72.232501,33.9240418 C70.2965732,33.926244 68.9496969,32.3945617 68.9485938,30.4246266 C68.9474907,28.4436801 70.2811299,26.9197057 72.2269856,26.9186045" id="Fill-46"></path>
                    <path d="M75.8033227,27.7154978 C75.8033227,27.2387052 76.1077763,26.9722299 76.5181268,26.9722299 C76.9284773,26.9711288 77.234034,27.2376041 77.234034,27.7143966 L77.2384464,33.1209821 C77.2384464,33.5977747 76.9328897,33.86425 76.5236423,33.86425 C76.1132918,33.86425 75.8077351,33.5988758 75.8077351,33.1220833 L75.8033227,27.7154978 Z" id="Fill-48"></path>
                    <path d="M80.5368041,31.1576538 L82.3491856,31.1565527 L81.4589897,28.3960008 L81.4402371,28.3960008 L80.5368041,31.1576538 Z M80.428701,27.701183 C80.5908557,27.2640314 80.9625979,26.9116673 81.4479588,26.9116673 C81.9542784,26.9105662 82.307268,27.2431098 82.4694227,27.7000819 L84.3424742,32.8776307 C84.4009381,33.0295877 84.4196907,33.1628254 84.4196907,33.2299948 C84.4207938,33.6010781 84.1152371,33.8587443 83.7622474,33.8587443 C83.3618247,33.8587443 83.1610619,33.6506293 83.0650928,33.3643335 L82.7782887,32.4691087 L80.1275567,32.471311 L79.8418557,33.3577267 C79.7469897,33.6528316 79.5473299,33.8620477 79.155732,33.8620477 C78.7740619,33.8620477 78.4497526,33.5768531 78.4486495,33.1969606 C78.4486495,33.0439025 78.4960825,32.9293842 78.5159381,32.8820353 L80.428701,27.701183 Z" id="Fill-50"></path>
                    <path d="M85.8938639,28.3348877 L84.8547505,28.3359888 C84.396967,28.3370899 84.206132,28.0034453 84.206132,27.6797108 C84.2050289,27.3471673 84.4432969,27.0234328 84.8536474,27.0234328 L88.3625856,27.0201294 C88.7729361,27.0201294 89.0112041,27.3438638 89.0112041,27.6753063 C89.0123072,27.9990407 88.8214722,28.3326854 88.3636887,28.3337865 L87.3245753,28.3337865 L87.3289876,33.1138247 C87.3289876,33.588415 87.0234309,33.8559915 86.6130804,33.8570926 C86.2027299,33.8570926 85.8982763,33.5895162 85.8982763,33.1149259 L85.8938639,28.3348877 Z" id="Fill-52"></path>
                    <path d="M90.0896979,27.7036055 C90.0885948,27.2268129 90.3941515,26.9614388 90.803399,26.9603376 C91.2148526,26.9603376 91.5193062,27.2257118 91.5204093,27.7025044 L91.5248216,33.110191 C91.5248216,33.5858824 91.2192649,33.8523577 90.8089144,33.8534589 C90.399667,33.8534589 90.0941103,33.5869836 90.0941103,33.1112921 L90.0896979,27.7036055 Z" id="Fill-54"></path>
                    <path d="M97.9503371,30.4016128 C97.949234,29.2487217 97.3469454,28.2125513 96.1556052,28.2136524 C94.9631619,28.2147536 94.3630794,29.2520252 94.3641825,30.4038151 C94.3652856,31.5655152 94.9477186,32.5928766 96.1589144,32.5917754 C97.3701103,32.5906743 97.9503371,31.5633129 97.9503371,30.4016128 M92.8761103,30.4049162 C92.8750072,28.4250708 94.2086464,26.8999953 96.1545021,26.8988942 C98.0705742,26.897793 99.4362031,28.4680152 99.4384093,30.4005116 C99.4395124,32.3704468 98.1146979,33.9043314 96.1600175,33.9065337 C94.2240897,33.9076348 92.8772134,32.3759525 92.8761103,30.4049162" id="Fill-56"></path>
                    <path d="M100.732889,27.6950166 C100.731786,27.2193252 101.037342,26.9528499 101.44659,26.9517488 C101.6286,26.9517488 101.924229,27.0948966 102.047775,27.265573 L105.074662,31.2913319 L105.093414,31.2913319 L105.091208,27.6917132 C105.090105,27.2149206 105.395662,26.9484453 105.806012,26.9484453 C106.216363,26.9484453 106.520816,27.2138195 106.520816,27.6906121 L106.525229,33.0982987 C106.526332,33.5739901 106.221878,33.8404654 105.811528,33.8415666 C105.629518,33.8415666 105.343816,33.6984187 105.210342,33.5277424 L102.183456,29.5515346 L102.164703,29.5515346 L102.168012,33.1016021 C102.168012,33.5772935 101.862456,33.84487 101.452105,33.84487 C101.042858,33.84487 100.737301,33.5783947 100.737301,33.1027033 L100.732889,27.6950166 Z" id="Fill-58"></path>
                </g>
            </g>
        </g>
    </g>
</svg>