<?xml version="1.0" encoding="UTF-8"?>
<svg width="142px" height="142px" viewBox="0 0 142 142" version="1.1" xmlns="http://www.w3.org/2000/svg" xmlns:xlink="http://www.w3.org/1999/xlink">
    <!-- Generator: Sketch 50.2 (55047) - http://www.bohemiancoding.com/sketch -->
    <title>Group 28</title>
    <desc>Created with Sketch.</desc>
    <defs>
        <radialGradient cx="10.0307651%" cy="94.0695064%" fx="10.0307651%" fy="94.0695064%" r="268.209058%" id="radialGradient-1">
            <stop stop-color="#DD669B" offset="0%"></stop>
            <stop stop-color="#6923C5" offset="100%"></stop>
        </radialGradient>
    </defs>
    <g id="Page-1" stroke="none" stroke-width="1" fill="none" fill-rule="evenodd">
        <g id="ICO2018-4-01" transform="translate(-1169.000000, -4698.000000)">
            <g id="Group-28" transform="translate(1169.000000, 4698.000000)">
                <circle id="Oval-11" fill="url(#radialGradient-1)" cx="71" cy="71" r="71"></circle>
                <g id="Group" transform="translate(37.000000, 45.000000)" fill="#FAFAFA">
                    <path d="M52.5330825,26 C52.6683858,26.057269 52.7215861,26.0672149 52.7585881,26.0975338 C53.9088256,27.0388636 55.2142174,27.6543854 56.6566594,27.9688037 C56.9383827,28.0302436 57.0001585,28.1638713 56.9999997,28.4348164 C56.9926946,37.4982433 56.9944415,46.5616702 56.9904713,55.6249367 C56.9898361,57.0409417 56.010157,57.9930194 54.5523107,57.994784 C49.8676694,58.0005591 45.183028,58.0000778 40.4982279,57.9999174 C30.52008,57.999757 20.5419321,57.9975111 10.5637842,57.998634 C10.0117718,57.998634 9.48183353,57.9261253 9.01382994,57.6046487 C8.26584998,57.0911524 7.999531,56.3522695 8.0017543,55.4656421 C8.01032986,52.3108721 8.00429521,49.156102 8.00477163,46.001332 C8.00572447,40.2131487 8.01191793,34.4248049 8.00000742,28.6366216 C7.99905458,28.2229049 8.08941564,28.0194956 8.52105248,27.9355972 C9.87980333,27.6713897 11.0897522,27.0598783 12.1928242,26.2239428 C12.2423719,26.1864051 12.3046241,26.1657113 12.4275406,26.1034693 C12.4454858,26.3224391 12.4723241,26.4974546 12.4724829,26.6723096 C12.4747062,31.1638385 12.474071,35.6553674 12.4743886,40.1468962 C12.4745474,40.719747 12.4755002,40.7183033 13.0368822,40.7183033 C26.0056795,40.7187845 38.9746356,40.7195866 51.9435917,40.7205491 C52.537529,40.7207095 52.535941,40.721672 52.5357822,40.1016585 C52.5343529,35.5966546 52.5338765,31.0918111 52.5330825,26.5868071 L52.5330825,26 Z" id="Fill-1"></path>
                    <path d="M52.042208,18.1042788 C51.3633401,21.1911127 49.6552672,23.1986914 46.7058131,23.8542341 C44.920701,24.2512035 43.2282269,23.8279924 41.7278732,22.699095 C40.2534646,21.5897536 39.4106497,20.0476738 39.0211562,18.1945371 C38.0729696,21.8189094 35.9645795,24.024722 32.3149286,23.9272765 C28.8238128,23.8340096 26.828753,21.6332113 26.0096548,18.101103 C24.921397,22.2210603 22.4806561,24.3461419 18.3466452,23.8590813 C16.9433864,23.6936078 15.7561237,22.9262451 14.7772169,21.8399697 C13.8135906,20.7707431 13.2517141,19.4952595 13.0253717,17.9623727 C12.8160607,18.6352985 12.6659617,19.2315047 12.4480555,19.798962 C11.4180545,22.4823079 8.72120618,24.1714754 5.98376901,23.9536854 C3.29392421,23.7397398 0.999143898,21.7664259 0.224295417,19.0307635 C0.141526064,18.7384269 0.0960029198,18.4340559 0.0399744347,18.1338634 C-0.0787677524,17.4963724 0.0630543504,16.9932659 0.518763307,16.4864823 C3.26590997,13.4310715 5.97167195,10.3345432 8.70767658,7.26793372 C8.85204543,7.10613736 9.14508077,7.0178848 9.36903554,7.01755051 C17.1409186,7.00501463 24.9128017,7.00735466 32.6848439,7.00685322 C40.3373481,7.00668608 47.9898523,7.00668608 55.6423565,7.00000028 C55.9398487,6.99983313 56.1579141,7.07454695 56.3705676,7.31657292 C59.0392426,10.3537648 61.6997998,13.3994811 64.4125653,16.3930482 C64.9510436,16.9870815 65.0936616,17.5660718 64.9443584,18.3008413 C64.3948972,21.0030746 62.897727,22.8689143 60.382812,23.6887606 C57.4659882,24.6394814 54.4076606,23.3101771 52.8837495,20.511334 C52.5864165,19.9651041 52.4269263,19.3351346 52.2141136,18.7397641 C52.1407354,18.5343429 52.0985548,18.3165529 52.042208,18.1042788" id="Fill-3"></path>
                    <path d="M56.9980304,4.89852848 C52.9534813,4.89514887 48.9027255,4.88923454 44.8519697,4.8887276 C33.0103563,4.88754474 21.168902,4.88737576 9.32728859,4.89329008 C8.97398337,4.89345906 8.62131473,4.97828738 8.26705462,4.99974793 C8.17650027,5.00532429 7.99873363,4.91694738 8.0000068,4.87672997 C8.03581476,3.75740176 7.94828419,2.60427741 8.18016064,1.52956011 C8.40996818,0.465488596 9.30564467,0.0134652031 10.3262512,0.00856476258 C13.0446325,-0.00461573263 15.7630138,0.00129859214 18.4813951,0.00146757285 C30.5217825,0.00197451498 42.5621699,0.00383330276 54.6025573,0.00281941851 C55.5841729,0.00265043781 56.3528505,0.387757471 56.8167626,1.3404707 C56.8950626,1.50100237 56.9873676,1.67978396 56.9899139,1.85146836 C57.0059877,2.89830385 56.9980304,3.94547729 56.9980304,4.89852848" id="Fill-6"></path>
                </g>
            </g>
        </g>
    </g>
</svg>