<svg xmlns="http://www.w3.org/2000/svg" xmlns:xlink="http://www.w3.org/1999/xlink" width="65" height="383" viewBox="0 0 65 383"><svg width="33" height="29" viewBox="0 0 33 29" id="blockchain_system" y="0"><title>Group</title><g fill="#38D1A4" fill-rule="evenodd"><path d="M12.218 17.102c.029 4.924 3.982 8.934 8.968 8.905a8.883 8.883 0 0 0 8.848-8.84 8.886 8.886 0 0 0-8.895-8.971c-4.937-.003-8.887 3.965-8.921 8.906m8.909-11.87c6.571.044 11.852 5.25 11.865 11.85a11.81 11.81 0 0 1-11.856 11.881A11.817 11.817 0 0 1 9.27 17.108c-.004-6.57 5.258-11.83 11.857-11.877M9.707 23.795c-.086.005-.143.01-.2.01-2.426.001-4.852 0-7.279.005-.149 0-.233-.05-.313-.171-.591-.898-1.19-1.791-1.786-2.686-.038-.057-.074-.116-.129-.202.082-.007.137-.017.192-.017 2.68-.001 5.358 0 8.037-.005.123 0 .189.037.222.155.281.981.696 1.906 1.197 2.793.015.027.028.056.06.118M9.696 10.418c-.183.359-.38.688-.525 1.038-.256.613-.482 1.24-.717 1.862-.038.102-.082.157-.204.157-2.029-.004-4.057-.002-6.085-.007a.274.274 0 0 1-.198-.1c-.64-.95-1.274-1.903-1.908-2.856-.014-.022-.024-.046-.048-.094h9.685zM22.656 4.147c-.235-.017-.454-.025-.671-.05-.748-.085-1.493-.034-2.236.049-.131.014-.16-.027-.156-.144.005-.232-.003-.463.003-.694.004-.122-.03-.17-.163-.172-.527-.009-.87-.365-.872-.893V.97c.002-.546.355-.903.897-.903 1.119-.002 2.237-.002 3.356 0 .526 0 .882.354.885.88.004.436.003.871 0 1.307-.002.52-.342.871-.865.882-.14.002-.173.056-.169.182.007.215.003.43.002.646 0 .057-.007.115-.011.184M2.08 15.58c.072-.005.129-.013.185-.013 1.84 0 3.678 0 5.518-.004.151 0 .188.04.177.193-.035.51-.068 1.02-.07 1.53-.002.397.038.794.07 1.19.012.134-.03.167-.156.166-1.189-.004-2.377 0-3.566-.007a.292.292 0 0 1-.21-.106c-.637-.945-1.267-1.894-1.897-2.843-.017-.026-.027-.056-.051-.106"></path><path d="M30.55 8.093c-.06-.055-.1-.088-.137-.125a12.929 12.929 0 0 0-2.099-1.728c-.104-.069-.123-.123-.048-.228.355-.492.702-.99 1.056-1.483.25-.346.672-.434 1.024-.199.442.296.878.601 1.304.919.35.262.415.69.17 1.044-.396.57-.8 1.133-1.2 1.698l-.07.102M21.136 19.155c-1.118-.006-2.056-.916-2.055-2.025a2.041 2.041 0 0 1 2.415-2.04c.335.068.652.184.894.416.213.202.461.256.723.31l1.734.362c.574.119 1.147.235 1.72.355.515.108 1.03.216 1.543.33.121.028.225.104.223.242-.002.139-.11.209-.23.237-.313.073-.63.136-.945.202l-1.687.352-1.702.359c-.341.071-.685.134-1.025.213a.578.578 0 0 0-.23.137c-.402.351-.899.553-1.378.55"></path></g></svg><svg width="10" height="15" viewBox="0 0 10 15" id="documents" y="29"><title>if_icon-54-document_315177</title><path d="M1.057 0C.473 0 0 .473 0 1.056v12.098c0 .584.469 1.057 1.051 1.057H8.95A1.05 1.05 0 0 0 10 13.159V6.093v-.882H7.372c-1.853 0-2.056-1.467-2.056-2.052V0H1.057zm5.785 0v3.156c0 .292.237.528.522.528H10L6.842 0z" fill="#000" fill-rule="nonzero"></path></svg><svg width="22" height="23" viewBox="0 0 22 23" id="for_cryptomarket" y="44"><title>User</title><defs><radialGradient cx="0%" cy="-137.079%" fx="0%" fy="-137.079%" r="463.64%" gradientTransform="matrix(.21568 .8359 -.32846 .54889 -.45 -.618)" id="a"><stop stop-color="#DD669B" offset="0%"></stop><stop stop-color="#6923C5" offset="100%"></stop></radialGradient><radialGradient cx="0%" cy="-137.079%" fx="0%" fy="-137.079%" r="451.209%" gradientTransform="scale(1 .88083) rotate(77.195 .116 -1.464)" id="b"><stop stop-color="#DD669B" offset="0%"></stop><stop stop-color="#6923C5" offset="100%"></stop></radialGradient></defs><g fill="none" fill-rule="evenodd"><path d="M10.997 22.092c-3.177 0-6.355-.005-9.532.004-.675.002-1.26-.432-1.424-1.079a1.125 1.125 0 0 1-.036-.275c0-.695-.018-1.39.014-2.084.035-.753.427-1.315 1.082-1.67 2.157-1.172 4.322-2.33 6.483-3.496.084-.045.147-.047.23.001a6.125 6.125 0 0 0 1.78.692c.64.14 1.288.192 1.946.132a6.47 6.47 0 0 0 2.66-.837c.091-.052.15-.019.22.019l4.253 2.29c.736.396 1.476.786 2.208 1.191.734.407 1.101 1.041 1.111 1.878.007.594-.002 1.188.003 1.782a1.44 1.44 0 0 1-1.453 1.456c-3.182-.01-6.363-.004-9.545-.004" fill="url(#a)"></path><path d="M11.19 13.02c-1.85-.045-3.218-.763-4.303-2.047a6.53 6.53 0 0 1-1.283-2.438 7.151 7.151 0 0 1-.236-2.89c.198-1.592.83-2.98 1.99-4.106C8.004.91 8.76.447 9.631.209c1.738-.474 3.317-.12 4.718.997 1.022.813 1.691 1.875 2.085 3.115.317.995.418 2.013.288 3.047-.21 1.684-.897 3.134-2.173 4.278a5.206 5.206 0 0 1-2.392 1.24c-.365.079-.743.104-.967.133" fill="url(#b)"></path></g></svg><svg width="22" height="26" viewBox="0 0 22 26" id="for_retail" y="67"><title>Fill 1</title><defs><radialGradient cx="0%" cy="0%" fx="0%" fy="0%" r="191.552%" gradientTransform="matrix(0 .84615 -1 0 0 0)" id="a"><stop stop-color="#DD669B" offset="0%"></stop><stop stop-color="#6923C5" offset="100%"></stop></radialGradient></defs><path d="M748.677 1853.177c-.066-1.337-.595-2.405-1.707-3.11-1.285-.815-2.622-.822-3.914-.016-1.128.703-1.67 1.773-1.731 3.126h7.352zm-9.803 2.511c.113 2.349 1.08 4.177 3.074 5.327 2.156 1.244 4.354 1.17 6.433-.207 1.79-1.185 2.654-2.935 2.738-5.11h-2.442c-.145 2.098-1.463 3.496-3.487 3.674-.822.073-1.587-.166-2.266-.647-1.039-.736-1.54-1.775-1.607-3.037h-2.443zm-.008-2.496c.038-3.38 2.67-6.129 6.025-6.19 1.697-.032 3.174.569 4.39 1.78 1.207 1.203 1.792 2.683 1.837 4.41h2.282c1.57 0 2.6 1.04 2.6 2.628v14.597c0 1.519-1.03 2.58-2.525 2.58-5.651.004-11.303.004-16.955 0-1.482 0-2.52-1.06-2.52-2.554 0-4.885.001-9.77.005-14.655 0-1.232.685-2.192 1.787-2.497.227-.063.469-.091.704-.094.782-.012 1.564-.005 2.37-.005z" transform="translate(-734 -1847)" fill="url(#a)" fill-rule="evenodd"></path></svg><svg width="36" height="30" viewBox="0 0 36 30" id="hight_cost" y="93"><title>if_meanicons_9_197203</title><path d="M36 24.95h-2.966v-5.12h-2.688v-3.437h4.895v-1.684h-9.656v1.124h-1.17v-1.124H14.002v1.124H9.083l.256-2.246h.316v-2.382H8.94c.25-.904.786-2.337 1.751-2.806 1.449-.705 1.38 1.403 4.76-.213 3.378-1.612 2.965-.492 4.069 0 1.103.492 1.996 1.123 4.345-.139 2.343-1.264 2.275.422 2.549.422.276 0 2.828 1.47 3.862-1.753 1.035-3.225-1.932-4.77-3.034-4.77-1.102 0-2.067 1.545-3.516.422-1.45-1.127-2-.915-4.14-.493-2.137.422-2.344-.21-3.306-.7-.969-.49-3.52-2.457-5.452.14-1.928 2.594-.342 3.296-1.241 3.855-.898.564-2.067 1.684-2.137 2.456-.07.772-.69 1.893-.139 3.366.031.078.06.145.09.213H6.21v2.382h.22l.218 2.245H3.932L1.822 19.2l2.069 3.437H1.934v2.315H0v1.261h1.703a2.05 2.05 0 0 0-.393 1.207c0 1.124.896 2.034 2 2.034 1.105 0 2.002-.91 2.002-2.034 0-.452-.147-.87-.393-1.207h2.128c-.002.053-.007.101-.007.155 0 1.703 1.357 3.086 3.035 3.086 1.677 0 3.035-1.383 3.035-3.086 0-.054-.007-.102-.007-.155h1.118c-.002.053-.007.101-.007.155 0 1.703 1.359 3.086 3.035 3.086 1.674 0 3.033-1.383 3.033-3.086 0-.054-.005-.102-.01-.155h1.12c-.003.053-.006.101-.006.155 0 1.703 1.358 3.086 3.035 3.086 1.675 0 3.031-1.383 3.031-3.086 0-.054-.002-.102-.003-.155h2.253a2.04 2.04 0 0 0-.391 1.207c0 1.124.893 2.034 1.999 2.034 1.102 0 2-.91 2-2.034 0-.452-.148-.87-.39-1.207H36v-1.261z" fill="#FF2E5E" fill-rule="nonzero"></path></svg><svg width="65" height="65" viewBox="0 0 65 65" id="how_chek_works" y="123"><title>Group 9</title><defs><radialGradient cx="0%" cy="-23.289%" fx="0%" fy="-23.289%" r="209.229%" id="a"><stop stop-color="#DD669B" offset="0%"></stop><stop stop-color="#6923C5" offset="100%"></stop></radialGradient><radialGradient cx="-30.717%" cy="-63.309%" fx="-30.717%" fy="-63.309%" r="389.871%" gradientTransform="matrix(.07879 .87237 -.9969 .06895 -.914 -.321)" id="b"><stop stop-color="#DD669B" offset="0%"></stop><stop stop-color="#6923C5" offset="100%"></stop></radialGradient></defs><g transform="translate(1 1)" fill="none" fill-rule="evenodd"><circle stroke="url(#a)" stroke-width="2" cx="31.5" cy="31.5" r="31.5"></circle><path d="M43.971 32.724l-16.65 9.798a2 2 0 0 1-3.014-1.723V21.2a2 2 0 0 1 3.015-1.723l16.65 9.798a2 2 0 0 1 0 3.448z" fill="url(#b)"></path></g></svg><svg width="36" height="37" viewBox="0 0 36 37" id="illigal_of_crypto" y="188"><title>Group</title><defs><path id="a" d="M.021.007h9.654v9.757H.02z"></path></defs><g fill="none" fill-rule="evenodd"><path fill="#FF2E5E" d="M0 37h13.263v-1.962H0z"></path><g transform="translate(1.105)"><path d="M16.037 3.096l7.143 7.232-3.938 3.951c.206.15.361.24.489.36 3.65 3.428 7.302 6.854 10.943 10.29.947.894 1.87 1.815 2.79 2.738 1.027 1.03 1.052 2.557.077 3.552-.963.983-2.523.989-3.508-.063-2.612-2.789-5.193-5.608-7.79-8.412-1.736-1.876-3.477-3.748-5.217-5.62-.076-.082-.16-.154-.26-.248l-3.85 3.906-7.175-7.264L16.037 3.096M.011 33.877c0-.695-.021-1.357.006-2.016.035-.866.76-1.587 1.63-1.592 2.627-.015 5.253-.016 7.879.002.878.006 1.586.717 1.625 1.594.029.66.005 1.32.005 2.012H.011z" fill="#FF2E5E"></path><g transform="translate(16.528)"><mask id="b" fill="#fff"><use xlink:href="#a"></use></mask><path d="M9.675 8.056c-.064.825-.346 1.303-.93 1.568-.59.268-1.218.147-1.698-.335C5.782 8.016 4.523 6.737 3.262 5.46 2.34 4.525 1.412 3.592.493 2.653c-.422-.432-.575-.954-.402-1.54C.26.545.644.183 1.22.05c.515-.119.986.01 1.356.382a813.187 813.187 0 0 1 6.654 6.75c.252.26.348.675.446.874" fill="#FF2E5E" mask="url(#b)"></path></g><path d="M4.282 13.951c.335.178.735.287.992.543a817.93 817.93 0 0 1 6.621 6.685c.583.593.566 1.552.002 2.137a1.496 1.496 0 0 1-2.138.028C7.539 21.11 5.325 18.87 3.12 16.62c-.459-.469-.533-1.056-.29-1.663.23-.578.78-.919 1.401-.91l.05-.097" fill="#FF2E5E"></path></g></g></svg><svg width="29" height="26" viewBox="0 0 29 26" id="limited_opportunites" y="225"><title>Group</title><defs><path id="a" d="M0 .005h28.946v7.273H0z"></path><path id="c" d="M.049.015h21.648v1.8H.049z"></path></defs><g fill="none" fill-rule="evenodd"><path d="M23.392 11.86c.06.025.084.03.1.043.511.416 1.09.688 1.73.827.126.027.153.086.153.206-.003 4.005-.002 8.01-.004 12.015 0 .625-.435 1.046-1.083 1.047C22.21 26 20.13 26 18.05 26H4.763c-.245 0-.48-.033-.688-.175-.332-.227-.45-.553-.45-.945.005-1.394.002-2.788.002-4.182 0-2.558.003-5.116-.002-7.673 0-.183.04-.273.231-.31.604-.117 1.14-.387 1.63-.756.022-.017.05-.026.104-.054.008.097.02.175.02.252l.001 5.954c0 .253 0 .252.25.252l17.27.001c.263 0 .263.001.262-.273v-6.232z" fill="#FF2E5E"></path><g transform="translate(0 3.193)"><mask id="b" fill="#fff"><use xlink:href="#a"></use></mask><path d="M23.154 4.732c-.285 1.36-1.045 2.287-2.387 2.482-1.814.263-2.908-.677-3.4-2.417-.486 1.724-1.562 2.663-3.36 2.42-1.356-.182-2.125-1.103-2.423-2.47-.499 1.797-1.606 2.72-3.466 2.464-.986-.136-2.048-.933-2.334-2.511-.06.211-.108.39-.162.565-.377 1.223-1.653 2.154-3.083 1.989C1.174 7.097.025 5.886 0 4.51a.47.47 0 0 1 .111-.298c1.247-1.368 2.5-2.73 3.757-4.088a.414.414 0 0 1 .276-.11c2.7-.006 5.4-.005 8.1-.005 4.16 0 8.318 0 12.477-.004.181 0 .305.05.428.185 1.176 1.289 2.349 2.58 3.547 3.846.256.271.288.537.217.856-.25 1.117-.903 1.894-1.984 2.246-1.374.449-2.899-.204-3.521-1.629-.104-.237-.163-.494-.254-.777" fill="#FF2E5E" mask="url(#b)"></path></g><g transform="translate(3.625)"><mask id="d" fill="#fff"><use xlink:href="#c"></use></mask><path d="M21.697 1.78c-1.596-.012-3.148-.005-4.7-.005-5.449-.001-10.897 0-16.345.001-.162 0-.323.03-.485.039-.04.002-.119-.03-.118-.045C.065 1.367.026.952.129.566c.1-.383.496-.546.946-.548C2.273.013 3.472.016 4.67.016h15.924c.433 0 .772.139.977.482.029.048.062.102.065.155.025.386.043.772.06 1.127" fill="#FF2E5E" mask="url(#d)"></path></g></g></svg><svg width="35" height="36" viewBox="0 0 35 36" id="loyality_system" y="251"><title>Group 29</title><g fill="#38D1A4" fill-rule="evenodd"><path d="M17.647 0c.314.162.444.419.41.774-.017.183-.003.369-.003.557.83.074 1.627.117 2.417.22 3.92.512 7.49 1.853 10.453 4.584 1.855 1.71 3.177 3.782 4.026 6.163.124.348.012.642-.274.76-.282.118-.513-.007-.717-.31a1.753 1.753 0 0 0-.49-.477c-.8-.52-1.711-.688-2.641-.753-1.356-.095-2.68.043-3.934.621-.212.098-.392.192-.382.503.007.247-.191.419-.454.449-.275.031-.513-.08-.563-.352-.066-.362-.327-.488-.592-.62-.803-.399-1.668-.547-2.55-.602-1.26-.079-2.497.038-3.678.526-.314.13-.632.245-.674.69-.023.251-.26.372-.522.362-.269-.01-.47-.168-.488-.413-.023-.308-.214-.412-.43-.522-.842-.43-1.752-.586-2.68-.642-1.272-.076-2.52.034-3.702.564-.305.137-.592.28-.67.679a.413.413 0 0 1-.538.318c-.181-.059-.44-.248-.45-.395-.025-.36-.246-.467-.498-.579-1.238-.55-2.54-.678-3.872-.584-.777.055-1.551.174-2.24.554-.34.187-.629.485-.9.772-.2.21-.454.32-.706.194-.264-.132-.384-.404-.25-.711.393-.894.744-1.816 1.23-2.658 2.088-3.622 5.24-5.901 9.137-7.202 1.888-.63 3.832-.97 5.817-1.073.23-.012.46-.032.693-.049C17.037.872 16.76.285 17.37 0h.278zM16.764 18.59c-.477.107-.926.16-1.34.31-1.007.362-1.248 1.846-.413 2.527.5.408 1.12.557 1.753.73V18.59zm1.402 12.367c.503-.095.978-.169 1.445-.276 1.184-.27 1.469-1.843.668-2.638-.576-.572-1.332-.796-2.113-.996v3.91zm-1.396 4.971v-1.267c-.57-.096-1.13-.163-1.678-.288-1.54-.352-2.936-.988-3.983-2.238-.967-1.156-1.345-2.526-1.4-4.046h4.598c.141.8.129 1.683.788 2.281.445.404 1.049.446 1.655.522v-4.18c-.763-.206-1.534-.394-2.293-.624-1.024-.31-1.988-.752-2.819-1.452-.964-.814-1.506-1.86-1.578-3.122-.175-3.046 1.636-5.32 4.653-5.851.667-.118 1.348-.152 2.056-.228v-.932h1.361v.943c.623.05 1.208.078 1.789.145.796.092 1.56.305 2.279.675 1.454.749 2.177 1.997 2.392 3.59.046.344.065.693.1 1.074h-4.135c-.204-1.617-.564-2.076-2.38-2.26v3.844c.708.193 1.434.343 2.127.59.79.283 1.582.594 2.32.994 2.042 1.11 2.73 2.9 2.566 5.13-.193 2.637-1.78 4.083-4.102 4.847-.804.264-1.664.355-2.499.522-.135.027-.273.037-.431.058v1.273H16.77z"></path></g></svg><svg width="32" height="31" viewBox="0 0 32 31" id="more_then_150k" y="287"><title>Group 10</title><g fill="#38D1A4" fill-rule="evenodd"><g transform="translate(24.88 24.798)"><path d="M5.418 2.766c.014.006.02.007.023.01.119.097.253.16.401.193.03.006.036.02.036.048l-.001 2.802c0 .146-.101.244-.251.244l-1.445.001H1.103a.27.27 0 0 1-.16-.04C.868 5.97.84 5.893.84 5.802v-.976-1.79c0-.042.009-.063.053-.071a.91.91 0 0 0 .378-.177c.005-.004.011-.006.024-.012.002.022.004.04.004.058v1.39c0 .058 0 .058.059.058h4c.06 0 .06 0 .06-.064V2.766zM5.363 1.848c-.066.317-.242.534-.553.58-.42.06-.673-.159-.787-.564-.113.402-.362.62-.779.564-.314-.043-.492-.257-.56-.576-.116.42-.373.634-.804.575-.228-.032-.474-.218-.54-.586l-.038.132a.673.673 0 0 1-.714.464.677.677 0 0 1-.588-.64.11.11 0 0 1 .026-.07c.289-.319.579-.637.87-.953A.096.096 0 0 1 .96.748L2.836.747l2.89-.001a.12.12 0 0 1 .1.043c.272.3.543.602.82.897.06.063.067.125.05.2-.057.26-.208.441-.459.524a.663.663 0 0 1-.815-.38c-.024-.056-.038-.116-.059-.182M5.865.468C5.495.465 5.136.467 4.777.467H.99c-.038 0-.075.008-.113.01C.87.477.851.47.851.466.855.359.846.25.869.148c.024-.1.115-.143.22-.144H5.61c.1 0 .179.036.226.127.007.012.014.027.015.04.006.102.01.204.014.297"></path></g><g transform="translate(12.573 24.798)"><path d="M5.418 2.766c.014.006.02.007.023.01.119.097.253.16.401.193.03.006.036.02.036.048l-.001 2.802c0 .146-.101.244-.251.244l-1.445.001H1.103a.27.27 0 0 1-.16-.04C.868 5.97.84 5.893.84 5.802v-.976-1.79c0-.042.009-.063.053-.071a.91.91 0 0 0 .378-.177c.005-.004.011-.006.024-.012.002.022.004.04.004.058v1.39c0 .058 0 .058.059.058h4c.06 0 .06 0 .06-.064V2.766zM5.363 1.848c-.066.317-.242.534-.553.58-.42.06-.673-.159-.787-.564-.113.402-.362.62-.779.564-.314-.043-.492-.257-.56-.576-.116.42-.373.634-.804.575-.228-.032-.474-.218-.54-.586l-.038.132a.673.673 0 0 1-.714.464.677.677 0 0 1-.588-.64.11.11 0 0 1 .026-.07c.289-.319.579-.637.87-.953A.096.096 0 0 1 .96.748L2.836.747l2.89-.001a.12.12 0 0 1 .1.043c.272.3.543.602.82.897.06.063.067.125.05.2-.057.26-.208.441-.459.524a.663.663 0 0 1-.815-.38c-.024-.056-.038-.116-.059-.182M5.865.468C5.495.465 5.136.467 4.777.467H.99c-.038 0-.075.008-.113.01C.87.477.851.47.851.466.855.359.846.25.869.148c.024-.1.115-.143.22-.144H5.61c.1 0 .179.036.226.127.007.012.014.027.015.04.006.102.01.204.014.297"></path></g><g transform="translate(.265 24.798)"><path d="M5.418 2.766c.014.006.02.007.023.01.119.097.253.16.401.193.03.006.036.02.036.048l-.001 2.802c0 .146-.101.244-.251.244l-1.445.001H1.103a.27.27 0 0 1-.16-.04C.868 5.97.84 5.893.84 5.802v-.976-1.79c0-.042.009-.063.053-.071a.91.91 0 0 0 .378-.177c.005-.004.011-.006.024-.012.002.022.004.04.004.058v1.39c0 .058 0 .058.059.058h4c.06 0 .06 0 .06-.064V2.766zM5.363 1.848c-.066.317-.242.534-.553.58-.42.06-.673-.159-.787-.564-.113.402-.362.62-.779.564-.314-.043-.492-.257-.56-.576-.116.42-.373.634-.804.575-.228-.032-.474-.218-.54-.586l-.038.132a.673.673 0 0 1-.714.464.677.677 0 0 1-.588-.64.11.11 0 0 1 .026-.07c.289-.319.579-.637.87-.953A.096.096 0 0 1 .96.748L2.836.747l2.89-.001a.12.12 0 0 1 .1.043c.272.3.543.602.82.897.06.063.067.125.05.2-.057.26-.208.441-.459.524a.663.663 0 0 1-.815-.38c-.024-.056-.038-.116-.059-.182M5.865.468C5.495.465 5.136.467 4.777.467H.99c-.038 0-.075.008-.113.01C.87.477.851.47.851.466.855.359.846.25.869.148c.024-.1.115-.143.22-.144H5.61c.1 0 .179.036.226.127.007.012.014.027.015.04.006.102.01.204.014.297"></path></g><g transform="translate(24.88 12.641)"><path d="M5.418 2.766c.014.006.02.007.023.01.119.097.253.16.401.193.03.006.036.02.036.048l-.001 2.802c0 .146-.101.244-.251.244l-1.445.001H1.103a.27.27 0 0 1-.16-.04C.868 5.97.84 5.893.84 5.802v-.976-1.79c0-.042.009-.063.053-.071a.91.91 0 0 0 .378-.177c.005-.004.011-.006.024-.012.002.022.004.04.004.058v1.39c0 .058 0 .058.059.058h4c.06 0 .06 0 .06-.064V2.766zM5.363 1.848c-.066.317-.242.534-.553.58-.42.06-.673-.159-.787-.564-.113.402-.362.62-.779.564-.314-.043-.492-.257-.56-.576-.116.42-.373.634-.804.575-.228-.032-.474-.218-.54-.586l-.038.132a.673.673 0 0 1-.714.464.677.677 0 0 1-.588-.64.11.11 0 0 1 .026-.07c.289-.319.579-.637.87-.953A.096.096 0 0 1 .96.748L2.836.747l2.89-.001a.12.12 0 0 1 .1.043c.272.3.543.602.82.897.06.063.067.125.05.2-.057.26-.208.441-.459.524a.663.663 0 0 1-.815-.38c-.024-.056-.038-.116-.059-.182M5.865.468C5.495.465 5.136.467 4.777.467H.99c-.038 0-.075.008-.113.01C.87.477.851.47.851.466.855.359.846.25.869.148c.024-.1.115-.143.22-.144H5.61c.1 0 .179.036.226.127.007.012.014.027.015.04.006.102.01.204.014.297"></path></g><g transform="translate(12.573 12.641)"><path d="M5.418 2.766c.014.006.02.007.023.01.119.097.253.16.401.193.03.006.036.02.036.048l-.001 2.802c0 .146-.101.244-.251.244l-1.445.001H1.103a.27.27 0 0 1-.16-.04C.868 5.97.84 5.893.84 5.802v-.976-1.79c0-.042.009-.063.053-.071a.91.91 0 0 0 .378-.177c.005-.004.011-.006.024-.012.002.022.004.04.004.058v1.39c0 .058 0 .058.059.058h4c.06 0 .06 0 .06-.064V2.766zM5.363 1.848c-.066.317-.242.534-.553.58-.42.06-.673-.159-.787-.564-.113.402-.362.62-.779.564-.314-.043-.492-.257-.56-.576-.116.42-.373.634-.804.575-.228-.032-.474-.218-.54-.586l-.038.132a.673.673 0 0 1-.714.464.677.677 0 0 1-.588-.64.11.11 0 0 1 .026-.07c.289-.319.579-.637.87-.953A.096.096 0 0 1 .96.748L2.836.747l2.89-.001a.12.12 0 0 1 .1.043c.272.3.543.602.82.897.06.063.067.125.05.2-.057.26-.208.441-.459.524a.663.663 0 0 1-.815-.38c-.024-.056-.038-.116-.059-.182M5.865.468C5.495.465 5.136.467 4.777.467H.99c-.038 0-.075.008-.113.01C.87.477.851.47.851.466.855.359.846.25.869.148c.024-.1.115-.143.22-.144H5.61c.1 0 .179.036.226.127.007.012.014.027.015.04.006.102.01.204.014.297"></path></g><g transform="translate(.265 12.641)"><path d="M5.418 2.766c.014.006.02.007.023.01.119.097.253.16.401.193.03.006.036.02.036.048l-.001 2.802c0 .146-.101.244-.251.244l-1.445.001H1.103a.27.27 0 0 1-.16-.04C.868 5.97.84 5.893.84 5.802v-.976-1.79c0-.042.009-.063.053-.071a.91.91 0 0 0 .378-.177c.005-.004.011-.006.024-.012.002.022.004.04.004.058v1.39c0 .058 0 .058.059.058h4c.06 0 .06 0 .06-.064V2.766zM5.363 1.848c-.066.317-.242.534-.553.58-.42.06-.673-.159-.787-.564-.113.402-.362.62-.779.564-.314-.043-.492-.257-.56-.576-.116.42-.373.634-.804.575-.228-.032-.474-.218-.54-.586l-.038.132a.673.673 0 0 1-.714.464.677.677 0 0 1-.588-.64.11.11 0 0 1 .026-.07c.289-.319.579-.637.87-.953A.096.096 0 0 1 .96.748L2.836.747l2.89-.001a.12.12 0 0 1 .1.043c.272.3.543.602.82.897.06.063.067.125.05.2-.057.26-.208.441-.459.524a.663.663 0 0 1-.815-.38c-.024-.056-.038-.116-.059-.182M5.865.468C5.495.465 5.136.467 4.777.467H.99c-.038 0-.075.008-.113.01C.87.477.851.47.851.466.855.359.846.25.869.148c.024-.1.115-.143.22-.144H5.61c.1 0 .179.036.226.127.007.012.014.027.015.04.006.102.01.204.014.297"></path></g><g transform="translate(24.88 .484)"><path d="M5.418 2.766c.014.006.02.007.023.01.119.097.253.16.401.193.03.006.036.02.036.048l-.001 2.802c0 .146-.101.244-.251.244l-1.445.001H1.103a.27.27 0 0 1-.16-.04C.868 5.97.84 5.893.84 5.802v-.976-1.79c0-.042.009-.063.053-.071a.91.91 0 0 0 .378-.177c.005-.004.011-.006.024-.012.002.022.004.04.004.058v1.39c0 .058 0 .058.059.058h4c.06 0 .06 0 .06-.064V2.766zM5.363 1.848c-.066.317-.242.534-.553.58-.42.06-.673-.159-.787-.564-.113.402-.362.62-.779.564-.314-.043-.492-.257-.56-.576-.116.42-.373.634-.804.575-.228-.032-.474-.218-.54-.586l-.038.132a.673.673 0 0 1-.714.464.677.677 0 0 1-.588-.64.11.11 0 0 1 .026-.07c.289-.319.579-.637.87-.953A.096.096 0 0 1 .96.748L2.836.747l2.89-.001a.12.12 0 0 1 .1.043c.272.3.543.602.82.897.06.063.067.125.05.2-.057.26-.208.441-.459.524a.663.663 0 0 1-.815-.38c-.024-.056-.038-.116-.059-.182M5.865.468C5.495.465 5.136.467 4.777.467H.99c-.038 0-.075.008-.113.01C.87.477.851.47.851.466.855.359.846.25.869.148c.024-.1.115-.143.22-.144H5.61c.1 0 .179.036.226.127.007.012.014.027.015.04.006.102.01.204.014.297"></path></g><g transform="translate(12.573 .484)"><path d="M5.418 2.766c.014.006.02.007.023.01.119.097.253.16.401.193.03.006.036.02.036.048l-.001 2.802c0 .146-.101.244-.251.244l-1.445.001H1.103a.27.27 0 0 1-.16-.04C.868 5.97.84 5.893.84 5.802v-.976-1.79c0-.042.009-.063.053-.071a.91.91 0 0 0 .378-.177c.005-.004.011-.006.024-.012.002.022.004.04.004.058v1.39c0 .058 0 .058.059.058h4c.06 0 .06 0 .06-.064V2.766zM5.363 1.848c-.066.317-.242.534-.553.58-.42.06-.673-.159-.787-.564-.113.402-.362.62-.779.564-.314-.043-.492-.257-.56-.576-.116.42-.373.634-.804.575-.228-.032-.474-.218-.54-.586l-.038.132a.673.673 0 0 1-.714.464.677.677 0 0 1-.588-.64.11.11 0 0 1 .026-.07c.289-.319.579-.637.87-.953A.096.096 0 0 1 .96.748L2.836.747l2.89-.001a.12.12 0 0 1 .1.043c.272.3.543.602.82.897.06.063.067.125.05.2-.057.26-.208.441-.459.524a.663.663 0 0 1-.815-.38c-.024-.056-.038-.116-.059-.182M5.865.468C5.495.465 5.136.467 4.777.467H.99c-.038 0-.075.008-.113.01C.87.477.851.47.851.466.855.359.846.25.869.148c.024-.1.115-.143.22-.144H5.61c.1 0 .179.036.226.127.007.012.014.027.015.04.006.102.01.204.014.297"></path></g><g transform="translate(.265 .484)"><path d="M5.418 2.766c.014.006.02.007.023.01.119.097.253.16.401.193.03.006.036.02.036.048l-.001 2.802c0 .146-.101.244-.251.244l-1.445.001H1.103a.27.27 0 0 1-.16-.04C.868 5.97.84 5.893.84 5.802v-.976-1.79c0-.042.009-.063.053-.071a.91.91 0 0 0 .378-.177c.005-.004.011-.006.024-.012.002.022.004.04.004.058v1.39c0 .058 0 .058.059.058h4c.06 0 .06 0 .06-.064V2.766zM5.363 1.848c-.066.317-.242.534-.553.58-.42.06-.673-.159-.787-.564-.113.402-.362.62-.779.564-.314-.043-.492-.257-.56-.576-.116.42-.373.634-.804.575-.228-.032-.474-.218-.54-.586l-.038.132a.673.673 0 0 1-.714.464.677.677 0 0 1-.588-.64.11.11 0 0 1 .026-.07c.289-.319.579-.637.87-.953A.096.096 0 0 1 .96.748L2.836.747l2.89-.001a.12.12 0 0 1 .1.043c.272.3.543.602.82.897.06.063.067.125.05.2-.057.26-.208.441-.459.524a.663.663 0 0 1-.815-.38c-.024-.056-.038-.116-.059-.182M5.865.468C5.495.465 5.136.467 4.777.467H.99c-.038 0-.075.008-.113.01C.87.477.851.47.851.466.855.359.846.25.869.148c.024-.1.115-.143.22-.144H5.61c.1 0 .179.036.226.127.007.012.014.027.015.04.006.102.01.204.014.297"></path></g></g></svg><svg width="65" height="65" viewBox="0 0 65 65" id="play" y="318"><title>Group 9</title><g transform="translate(1 1)" fill="none" fill-rule="evenodd"><circle stroke="#FFF" stroke-width="2" cx="31.5" cy="31.5" r="31.5"></circle><path d="M40.595 33.438l-12.273 7.223a2 2 0 0 1-3.015-1.723V24.49a2 2 0 0 1 3.015-1.723l12.273 7.223a2 2 0 0 1 0 3.447z" fill="#FFF"></path></g></svg></svg>