<?xml version="1.0" encoding="UTF-8"?>
<svg width="35px" height="10px" viewBox="0 0 35 10" version="1.1" xmlns="http://www.w3.org/2000/svg" xmlns:xlink="http://www.w3.org/1999/xlink">
    <!-- Generator: Sketch 50.2 (55047) - http://www.bohemiancoding.com/sketch -->
    <title>Group</title>
    <desc>Created with Sketch.</desc>
    <defs>
        <polygon id="path-1" points="0.130649155 0.0363076923 8.8202242 0.0363076923 8.8202242 9.99204296 0.130649155 9.99204296"></polygon>
        <polygon id="path-3" points="0.0188134346 0.0414148384 7.97568403 0.0414148384 7.97568403 10 0.0188134346 10"></polygon>
        <polygon id="path-5" points="0 0.0931230769 8.82659612 0.0931230769 8.82659612 9.94096923 0 9.94096923"></polygon>
    </defs>
    <g id="Page-1" stroke="none" stroke-width="1" fill="none" fill-rule="evenodd" opacity="0.600000024">
        <g id="ICO2018-4-01" transform="translate(-233.000000, -8399.000000)">
            <g id="Group" transform="translate(233.000000, 8399.000000)">
                <g id="Group-3" transform="translate(8.441345, 0.000000)">
                    <mask id="mask-2" fill="white">
                        <use xlink:href="#path-1"></use>
                    </mask>
                    <g id="Clip-2"></g>
                    <path d="M6.46738667,6.02495385 C5.34656792,6.02495385 4.26340456,5.98126154 3.18780082,6.0588 C2.95002977,6.07587692 2.55536122,6.52664615 2.56135185,6.76818462 C2.56905409,7.07433846 2.89568618,7.61326154 3.11348845,7.63064615 C4.2271755,7.7188 5.35013377,7.67126154 6.46738667,7.67126154 L6.46738667,6.02495385 Z M6.47009672,3.79049231 C6.56922742,2.41926154 6.52971778,2.37356923 5.27995779,2.37372308 L0.618675408,2.37372308 C1.02917635,1.59372308 1.35694951,0.921723077 1.73721202,0.286030769 C1.82393355,0.141107692 2.09094459,0.0578769231 2.27622628,0.0551076923 C3.60571873,0.0361846154 4.93563907,0.0263384615 6.26484625,0.0509538462 C7.62315078,0.0761846154 8.6672324,0.943261538 8.74782066,2.38233846 C8.86934492,4.55126154 8.79874104,6.73264615 8.80915333,8.90864615 C8.81086493,9.23387692 8.80943859,9.55941538 8.80943859,9.98618462 C8.4765306,9.98618462 8.22264191,9.98633846 7.96875321,9.98618462 C6.30678068,9.98526154 4.64452288,10.0044923 2.98283561,9.97787692 C1.26666212,9.95064615 0.107189526,8.66095385 0.131009421,6.86049231 C0.154116145,5.11572308 1.34639459,3.88418462 3.0174957,3.87833846 C4.10935973,3.87433846 5.20122377,3.87003077 6.2930878,3.86264615 C6.33602067,3.86233846 6.37852563,3.82895385 6.47009672,3.79049231 Z" id="Fill-1" fill="#000000" mask="url(#mask-2)"></path>
                </g>
                <g id="Group-6" transform="translate(18.088597, 0.000000)">
                    <mask id="mask-4" fill="white">
                        <use xlink:href="#path-3"></use>
                    </mask>
                    <g id="Clip-5"></g>
                    <path d="M0.562520721,9.96950769 L0.562520721,7.58273846 L4.44359905,7.58273846 C4.65123674,7.58273846 4.89255665,7.65689231 5.05888857,7.56473846 C5.32820769,7.41535385 5.70051399,7.19658462 5.75595796,6.93550769 C5.85353936,6.47581538 5.52933071,6.18689231 5.09215496,6.17873846 C4.35419564,6.16504615 3.61582049,6.17550769 2.87758394,6.17304615 C1.21163107,6.16781538 0.0470303527,4.93581538 0.0193083647,3.1512 C-0.00896806314,1.34566154 1.1771172,0.0498153846 2.87314843,0.0441230769 C4.52329977,0.0387384615 6.17358971,0.0430461538 7.94391587,0.0430461538 C7.54721422,0.822584615 7.23534186,1.49858462 6.85984753,2.12812308 C6.76545416,2.28643077 6.46841306,2.35689231 6.2625773,2.36150769 C5.22494328,2.38489231 4.18453707,2.3332 3.14981387,2.39843077 C2.83808011,2.41796923 2.43957653,2.64858462 2.26257164,2.92550769 C2.01834092,3.30704615 2.41434952,3.80289231 2.97946225,3.82996923 C3.71631269,3.86504615 4.45538089,3.84104615 5.19361744,3.84889231 C6.79622557,3.86566154 7.88833329,5.02073846 7.97163786,6.78196923 C8.04925943,8.42227692 7.00275438,9.84396923 5.46210489,9.94581538 C3.85714039,10.0519692 2.24191876,9.96950769 0.562520721,9.96950769" id="Fill-4" fill="#000000" mask="url(#mask-4)"></path>
                </g>
                <path d="M34.5351571,0.00113667749 C34.134166,0.77246684 33.8384544,1.41212158 33.4743393,2.00071535 C33.3601926,2.18530851 33.0651848,2.31945961 32.8482921,2.32766031 C31.9118956,2.3629388 30.97381,2.34251441 30.0364283,2.34328806 C29.8489519,2.3434428 29.6604903,2.33446844 29.4742807,2.35241715 C29.0620297,2.39249228 28.7226863,2.57878746 28.7200121,3.08599314 C28.7173379,3.60000694 29.0648447,3.79868054 29.4738584,3.8107495 C30.2934341,3.83519688 31.114558,3.80425083 31.9342745,3.82823402 C33.3293688,3.86892806 34.3186866,4.9068584 34.5414907,6.53121628 C34.7279818,7.89129495 33.9593569,9.32487046 32.769614,9.77683744 C32.4433601,9.90062162 32.0864231,9.97814146 31.7422942,9.98417594 C30.3363623,10.0083139 28.9301489,9.99872058 27.5239354,9.9946976 C27.3664384,9.99423341 27.2090821,9.94874272 27.0296284,9.92073655 L27.0296284,7.58229869 C28.3913655,7.58229869 29.7194637,7.58245342 31.0474212,7.58229869 C31.2584025,7.58214396 31.5076673,7.65889015 31.6712164,7.5618743 C31.9211849,7.41333329 32.1120392,7.14456689 32.3279467,6.92686146 C32.1154172,6.6746512 31.9228739,6.23568156 31.686558,6.20504497 C30.9467864,6.1089575 30.1904066,6.1672908 29.4405012,6.16512458 C27.6530014,6.16001848 26.5367289,4.98515189 26.529973,3.10239454 C26.523217,1.21669731 27.6438527,0.00608804463 29.4072846,0.00206505883 C31.0661407,-0.00195792697 32.7251376,0.00113667749 34.5351571,0.00113667749" id="Fill-7" fill="#000000"></path>
                <g id="Group-11">
                    <mask id="mask-6" fill="white">
                        <use xlink:href="#path-5"></use>
                    </mask>
                    <g id="Clip-10"></g>
                    <path d="M5.31846741,9.94096923 L3.04082271,9.94096923 L3.04082271,2.40004615 L-1.40370067e-05,2.40004615 L-1.40370067e-05,0.0931230769 L8.82659612,0.0931230769 C8.43440215,0.834969231 8.08502106,1.53481538 7.69142339,2.20358462 C7.61955391,2.32573846 7.36787039,2.36066154 7.19732075,2.36604615 C6.59485243,2.38481538 5.99168225,2.37327692 5.31846741,2.37327692 L5.31846741,9.94096923 Z" id="Fill-9" fill="#000000" mask="url(#mask-6)"></path>
                </g>
            </g>
        </g>
    </g>
</svg>