<svg xmlns="http://www.w3.org/2000/svg" xmlns:xlink="http://www.w3.org/1999/xlink" width="217" height="61" viewBox="0 0 217 61"><defs><path id="4m2wa" d="M456 296a26 26 0 0 0-26 26h52v-26h-26z"/><path id="4m2wb" d="M494.99 309.33a4.33 4.33 0 1 1-8.67 0 4.33 4.33 0 0 1 8.67 0m9.53 0c-4.5 7.77-12.9 13-22.52 13V331a26 26 0 0 0 26 26v-34.66c0-4.74-1.27-9.18-3.48-13"/><path id="4m2wc" d="M618.5 322.3v26.78h9.5v-11.86c0-1.3.17-2.5.56-3.53a5.55 5.55 0 0 1 5.6-3.86c2.1 0 3.14 1.05 3.14 3.54v15.71h9.52v-17.37c0-7.54-4.46-10.04-10.18-10.04-5 0-7.7 2.55-9.01 4.63h-.12s.12-.78.12-1.67v-2.34h-9.13zm-14.35 10.08c-4.4 0-16.44.89-16.44 8.69 0 5.3 4.34 8.64 9.62 8.64 5.94 0 8.03-3.9 8.03-3.9h.1s-.1.77-.1 1.66v1.61h8.69V332.6c0-6.81-4.79-10.92-12.76-10.92-6.99 0-11.88 3.48-11.88 3.48l3.3 6.35s4.07-2.55 7.64-2.55c2.37 0 4.18.73 4.18 2.96v.47zm-4.18 10.46c-1.87 0-2.7-.99-2.7-2.24 0-2.24 3.47-3.07 6.49-3.07h.88v.57c0 2.19-2.2 4.74-4.67 4.74zm-26.73-21.17c-10.18 0-15.79 6.8-15.79 13.99 0 7.39 5.67 14.04 15.79 14.04 7.92 0 12.15-4.42 12.15-4.42l-3.46-6.29s-3.8 3.23-7.75 3.23c-4.79 0-7.1-3.49-7.1-6.66 0-3.18 2.26-6.4 6.77-6.4 3.9 0 6.65 2.6 6.65 2.6l4.02-6.04s-3.58-4.05-11.28-4.05zm-46.57 23.4c0 1.26.16 2.56.44 4.01h27.22v-7.8h-16.72c.28-4.78 16.11-7.02 16.11-18.62 0-7.9-6.98-11.39-13.41-11.39-10.23 0-13.86 8.01-13.86 8.01l7.15 4.52s2.09-3.95 5.83-3.95c2.03 0 4.23 1.1 4.23 3.7 0 5.35-17 7.8-17 21.52z"/></defs><g><g transform="translate(-430 -296)"><use fill="#ff8c00" xlink:href="#4m2wa"/></g><g transform="translate(-430 -296)"><use xlink:href="#4m2wb"/></g><g transform="translate(-430 -296)"><use xlink:href="#4m2wc"/></g></g></svg>